<svg width="129" height="63" viewBox="0 0 129 63" fill="none" xmlns="http://www.w3.org/2000/svg">
<g clip-path="url(#clip0_253_2826)">
<path d="M4.41334 62.6721C4.41334 62.6721 -8.45083 35.216 9.74655 25.2479C27.9439 15.2797 29.2873 24.6056 41.5483 12.1427C53.8094 -0.320208 69.28 -2.07961 80.4536 1.99531C91.6272 6.07023 84.9958 15.4273 97.197 17.2733C109.398 19.1194 128.057 25.5503 121.91 38.9973C115.762 52.4444 129.764 46.2536 126.163 62.6721H4.41334Z" fill="#EBF3FA"/>
<path d="M40.302 36.5771C40.302 36.5771 44.5675 28.3289 39.4983 23.018C39.4983 23.018 38.4977 22.0013 37.1102 22.8827C35.7227 23.7641 37.9296 25.5337 38.8896 27.0954C39.8496 28.6571 41.3072 33.201 40.3015 36.5771H40.302Z" fill="#D2E0FF"/>
<path d="M41.5483 35.3892C41.5483 35.3892 47.0826 30.148 44.6579 24.7977C44.6579 24.7977 44.171 23.7659 42.8658 24.0902C41.5605 24.415 42.7653 26.3283 43.0719 27.7672C43.3785 29.2062 43.2465 33.0562 41.5488 35.3887L41.5483 35.3892Z" fill="#D2E0FF"/>
<path d="M32.3785 36.3354C32.3785 36.3354 36.8091 34.95 35.5475 31.6893C35.5475 31.6893 34.427 29.6216 32.9263 28.8595C32.9263 28.8595 32.8827 33.3566 32.011 33.2972C31.1393 33.2378 32.4364 28.2893 32.4364 28.2893C32.4364 28.2893 28.6354 25.5535 26.955 25.3938C26.955 25.3938 28.6872 30.1222 27.8576 29.8583C27.0276 29.5948 24.9872 24.7549 24.9872 24.7549C24.9872 24.7549 20.8374 23.1722 19.6413 25.4892C18.4452 27.8062 19.3093 29.2427 19.9154 29.5169C20.5221 29.7911 24.6272 30.5171 24.4155 31.007C24.2038 31.4969 21.2704 31.7881 19.823 31.0362C19.823 31.0362 20.6932 35.3887 22.9691 35.6088C25.2446 35.8289 26.2097 34.6339 27.6134 34.7941C29.0172 34.9548 29.9538 35.5032 29.1888 35.7291C28.4237 35.9551 26.1335 35.2709 24.8288 35.9697C23.524 36.6685 22.5041 37.058 24.4942 37.8596C26.4838 38.6611 30.259 39.113 31.3195 37.7237L32.3796 36.3349L32.3785 36.3354Z" fill="#D2E0FF"/>
<path d="M21.4501 26.6289C21.4501 26.6289 31.9017 32.2173 32.3785 36.3361C32.3785 36.3361 31.883 38.2031 31.3184 37.7249C31.3184 37.7249 34.5122 34.8328 21.4501 26.6289Z" fill="#D2E0FF"/>
<g opacity="0.4">
<path d="M100.757 19.8307L84.3085 21.322L86.3562 42.1002L102.804 40.6089L100.757 19.8307Z" fill="#B6CBFB"/>
</g>
<path d="M119.249 39.2514L102.803 40.6125L100.756 19.8342L117.202 18.4736L119.249 39.2514Z" fill="#E2EAFD"/>
<g opacity="0.4">
<path d="M91.2578 30.1925L87.4458 30.5381L87.4783 30.8682L91.2903 30.5226L91.2578 30.1925Z" fill="#B6CBFB"/>
</g>
<g opacity="0.4">
<path d="M95.664 29.7926L91.8521 30.1382L91.8846 30.4683L95.6965 30.1227L95.664 29.7926Z" fill="#B6CBFB"/>
</g>
<g opacity="0.4">
<path d="M93.2966 29.0374L87.524 29.5608L87.5566 29.8909L93.3291 29.3675L93.2966 29.0374Z" fill="#B6CBFB"/>
</g>
<g opacity="0.4">
<path d="M99.9413 28.4353L94.1688 28.9587L94.2014 29.2889L99.9739 28.7655L99.9413 28.4353Z" fill="#B6CBFB"/>
</g>
<g opacity="0.4">
<path d="M93.423 31.0291L87.6505 31.5525L87.683 31.8826L93.4556 31.3592L93.423 31.0291Z" fill="#B6CBFB"/>
</g>
<g opacity="0.4">
<path d="M100.068 30.4266L94.2953 30.95L94.3278 31.2801L100.1 30.7567L100.068 30.4266Z" fill="#B6CBFB"/>
</g>
<g opacity="0.4">
<path d="M91.2435 26.2125L87.4315 26.5581L87.4641 26.8883L91.276 26.5426L91.2435 26.2125Z" fill="#B6CBFB"/>
</g>
<g opacity="0.4">
<path d="M95.6494 25.8145L91.8374 26.1602L91.8699 26.4903L95.6819 26.1447L95.6494 25.8145Z" fill="#B6CBFB"/>
</g>
<g opacity="0.4">
<path d="M93.1126 25.073L87.3401 25.5964L87.3726 25.9266L93.1451 25.4032L93.1126 25.073Z" fill="#B6CBFB"/>
</g>
<g opacity="0.4">
<path d="M99.7574 24.47L93.9849 24.9934L94.0174 25.3236L99.7899 24.8002L99.7574 24.47Z" fill="#B6CBFB"/>
</g>
<g opacity="0.4">
<path d="M93.4087 27.0491L87.6362 27.5725L87.6688 27.9027L93.4413 27.3793L93.4087 27.0491Z" fill="#B6CBFB"/>
</g>
<g opacity="0.4">
<path d="M100.054 26.4476L94.281 26.9709L94.3135 27.3011L100.086 26.7777L100.054 26.4476Z" fill="#B6CBFB"/>
</g>
<path d="M94.1579 36.2607L93.7274 37.5103H93.1746L94.5879 33.5366H95.2271L96.6405 37.5103H96.0689L95.6262 36.2607H94.1574H94.1579ZM95.5226 35.8599L95.1109 34.716C95.0185 34.4565 94.957 34.2208 94.8956 33.991H94.8834C94.822 34.2208 94.7606 34.4687 94.6743 34.7102L94.2686 35.8599H95.5226Z" fill="#F77D48"/>
<path d="M94.9012 38.9647C93.071 38.9647 91.5814 37.5364 91.5814 35.7805C91.5814 34.0245 93.0705 32.5962 94.9012 32.5962C94.9636 32.5962 95.0139 32.6449 95.0139 32.7043C95.0139 32.7637 94.9636 32.8124 94.9012 32.8124C93.1948 32.8124 91.8068 34.1438 91.8068 35.7805C91.8068 37.4171 93.1948 38.748 94.9012 38.748C96.0064 38.748 97.0349 38.1763 97.5863 37.2564C97.6173 37.2048 97.6863 37.1868 97.7401 37.2165C97.7939 37.2462 97.8127 37.3124 97.7818 37.3641C97.1908 38.3511 96.0871 38.9647 94.9012 38.9647Z" fill="#F77D48"/>
<path d="M105.286 41.9937C105.286 41.9937 104.53 42.1914 104.411 42.2366C104.291 42.2819 103.926 42.4986 103.99 42.5561C104.053 42.6136 104.503 42.8765 104.655 42.8015C104.807 42.7265 105.023 42.8692 105.253 42.4085L105.286 41.9932L105.286 41.9937Z" fill="#FFB27D"/>
<path d="M110.821 39.2097C110.821 39.2097 109 40.954 108.053 41.3714C107.376 41.6694 104.981 41.9937 104.981 41.9937L105.135 42.599C105.135 42.599 106.716 42.8858 107.863 42.8951C109.656 42.9097 110.27 41.8573 110.27 41.8573L110.821 39.2097Z" fill="#6980E2"/>
<path d="M115.418 61.3494C115.418 61.3494 115.342 62.5269 115.104 62.5439C115.073 62.5464 113.9 62.5464 113.9 62.5464L112.402 62.5381C112.402 62.5381 112.412 62.1919 112.85 62.1188C113.288 62.0458 114.02 61.7507 114.286 61.1955C114.564 60.6117 115.418 61.3494 115.418 61.3494Z" fill="#1C4B8E"/>
<path d="M115.504 61.4312C115.504 61.4312 115.05 61.5772 114.694 61.5772C114.297 61.5772 113.937 61.4735 113.937 61.4735C113.937 61.4735 113.851 60.6783 113.38 58.9267C113.133 58.0088 112.779 56.8284 112.277 55.3616C110.888 51.3076 110.466 48.9361 110.427 48.7116C110.425 48.7 110.424 48.6941 110.424 48.6941L110.429 48.6922L114.699 46.8938C114.699 46.8938 114.171 52.4812 114.844 54.6253C114.939 54.9253 115.02 55.2745 115.089 55.6528C115.514 57.9825 115.504 61.4312 115.504 61.4312H115.504Z" fill="#2B478B"/>
<path d="M113.38 58.9272C113.133 58.0093 112.779 56.8289 112.277 55.3621C110.888 51.3081 110.466 48.9366 110.427 48.7121C110.427 48.7053 110.428 48.699 110.429 48.6926L114.699 46.8943C114.699 46.8943 114.171 52.4817 114.844 54.6258C114.939 54.9258 113.38 58.9277 113.38 58.9277V58.9272Z" fill="#233862"/>
<path d="M112.083 61.3494C112.083 61.3494 112.007 62.5269 111.769 62.5439C111.737 62.5464 110.564 62.5464 110.564 62.5464L109.067 62.5381C109.067 62.5381 109.076 62.1919 109.514 62.1188C109.951 62.0458 110.684 61.7507 110.95 61.1955C111.229 60.6117 112.082 61.3494 112.082 61.3494H112.083Z" fill="#1C4B8E"/>
<path d="M109.662 47.0254C109.662 47.0254 109.606 50.646 110.259 55.0915C110.912 59.537 110.691 61.424 110.691 61.424C110.691 61.424 111.139 61.5632 111.32 61.5774C111.782 61.6134 112.255 61.4736 112.255 61.4736C112.255 61.4736 113.189 57.0267 112.921 54.8017C112.653 52.5768 114.201 47.1666 114.201 47.1666L109.661 47.0254H109.662Z" fill="#2B478B"/>
<path d="M112.69 38.5528L111.856 39.0772L111.097 38.8713C110.958 38.6813 110.921 38.3151 110.919 37.9981C110.917 37.6835 110.949 37.4167 110.949 37.4167L112.074 36.9404L112.493 36.7632C112.492 36.7695 112.461 37.0938 112.456 37.1411C112.378 37.9816 112.69 38.5528 112.69 38.5528Z" fill="#FFB27D"/>
<path d="M109.643 48.0318C110.681 48.9926 114.607 48.831 114.849 47.7723C115.09 46.7136 114.585 38.7605 112.812 38.2604C112.445 38.1567 110.478 38.7664 110.478 38.7664C110.478 38.7664 110.17 39.5406 109.968 40.5263C109.929 40.7181 109.814 42.7507 109.728 44.6518C109.688 45.541 109.654 46.402 109.637 47.0321C109.622 47.6223 109.621 48.0104 109.643 48.0314V48.0318Z" fill="#8C9DF4"/>
<path d="M112.372 37.1555C112.144 37.5256 111.344 37.8495 110.919 37.998C110.917 37.6834 110.949 37.4166 110.949 37.4166L112.074 36.9403C112.322 36.9374 112.474 36.9905 112.372 37.1555Z" fill="#FCA56B"/>
<path d="M110.525 37.3509C110.525 37.3509 112.337 37.8929 112.672 36.8055C113.006 35.7182 113.466 35.0554 112.323 34.6634C111.18 34.2714 110.827 34.6225 110.623 34.9595C110.419 35.2964 110.062 37.182 110.525 37.3514L110.525 37.3509Z" fill="#FFB27D"/>
<path d="M110.694 34.8542C110.694 34.8542 110.809 36.1198 111.082 36.0648C111.355 36.0098 111.655 35.8924 111.615 36.2737C111.575 36.655 111.881 37.309 112.274 37.3075C113.118 37.3041 114.035 35.2272 113.804 34.8333C113.137 33.6967 109.73 33.4673 110.694 34.8537V34.8542Z" fill="#163560"/>
<path d="M110.96 38.2882C110.984 38.2789 112.309 37.7082 112.464 37.7574C112.619 37.8066 112.812 38.2604 112.812 38.2604L110.478 38.7664C110.478 38.7664 110.662 38.408 110.96 38.2877V38.2882Z" fill="#6980E2"/>
<path d="M109.637 47.0326C113.731 44.234 113.391 40.5 113.391 40.5C111.894 41.3093 110.409 43.0994 109.728 44.6523C109.687 45.5415 109.653 46.4025 109.637 47.0326Z" fill="#6980E2"/>
<path d="M115.344 54.6971C115.306 54.7336 115.265 54.7672 115.224 54.7979C115.091 54.8972 114.942 54.9678 114.787 55.0112C114.666 55.0448 114.541 55.0608 114.416 55.0603C114.081 55.0584 113.746 54.9342 113.492 54.6873L100.555 42.1455C100.049 41.6552 100.025 40.8585 100.527 40.3647C100.787 40.1095 101.13 39.9834 101.473 39.9854C101.808 39.9868 102.143 40.111 102.397 40.3579L115.355 52.9192C115.864 53.4125 115.86 54.2082 115.345 54.6961L115.344 54.6971Z" fill="#8C9DF4"/>
<path d="M115.477 52.716L112.575 49.9033C112.509 49.8395 112.51 49.7348 112.577 49.6715L112.62 49.6306C112.686 49.5673 112.795 49.5678 112.861 49.6321L115.762 52.4448C115.828 52.5091 115.828 52.6128 115.761 52.6766L115.718 52.7175C115.651 52.7808 115.543 52.7803 115.476 52.716H115.477Z" fill="#8C9DF4"/>
<path d="M115.214 52.4557L114.732 51.9888L114.564 52.1487L115.046 52.6157L115.214 52.4557Z" fill="#6980E2"/>
<path d="M114.787 55.0117C114.666 55.0453 114.54 55.0614 114.416 55.0609C114.08 55.0589 113.746 54.9347 113.492 54.6878L110.747 52.0271L111.233 51.5659L114.787 55.0112L114.787 55.0117Z" fill="#6980E2"/>
<path d="M98.8763 40.5202L111.437 52.6962L111.946 52.257L113.387 51.0133L100.754 38.7671L99.3663 40.0629L98.8763 40.5202Z" fill="#F99746"/>
<path d="M98.8763 40.52L111.437 52.6961L111.946 52.2568L99.3663 40.0627L98.8763 40.52Z" fill="#EF873A"/>
<path d="M97.9469 37.493C97.8011 37.4268 97.6463 37.5661 97.7062 37.7097L97.9905 38.393L98.8764 40.52L100.754 38.7674L98.6774 37.8252L97.9469 37.4935V37.493Z" fill="#6980E2"/>
<path d="M97.6452 37.5637L97.9905 38.393L98.6774 37.8247L97.7986 37.4259C97.7057 37.3835 97.6072 37.4726 97.6452 37.5642V37.5637Z" fill="#163560"/>
<path d="M105.596 45.7582C105.307 45.6944 105.113 45.485 105.073 45.4485C105.073 45.4485 104.95 45.4568 105.093 45.7085C105.106 45.7295 105.132 45.7835 105.152 45.822C105.16 45.8376 105.149 45.8556 105.131 45.8571C104.964 45.8692 104.797 45.8059 104.476 45.8702C104.432 45.879 104.419 45.9807 104.421 46.0241C104.424 46.0976 104.418 46.1799 104.507 46.2924C104.559 46.3577 104.703 46.4283 105.024 46.5524C105.147 46.5997 105.497 46.5641 105.825 46.456L106.087 46.3396L106.006 45.8721L105.94 45.8853C105.835 45.9062 105.706 45.784 105.597 45.7582H105.596Z" fill="#FFB27D"/>
<path d="M112.12 38.7668C112.12 38.7668 115.799 39.4389 111.038 44.5486C110.276 45.3657 106.163 46.4297 106.163 46.4297C106.163 46.4297 105.745 46.0893 105.956 45.8132C105.956 45.8132 108.788 43.84 109.411 43.5264C109.692 43.3852 110.499 40.3772 110.957 39.6531C111.414 38.9285 112.12 38.7664 112.12 38.7664V38.7668Z" fill="#8C9DF4"/>
<path d="M104.822 42.2366C104.822 42.2366 104.575 42.313 104.452 42.3155C104.328 42.3179 103.954 42.4036 103.882 42.4523C103.853 42.4718 103.87 42.555 103.975 42.5818C104.02 42.5935 104.107 42.5857 104.214 42.5638C104.387 42.5283 104.605 42.575 104.683 42.5658C104.875 42.5424 104.822 42.2371 104.822 42.2371V42.2366Z" fill="#FFB27D"/>
<path d="M64.1259 33.9474C66.581 35.1191 69.3641 35.7804 72.3102 35.7804C82.1978 35.7804 90.2416 28.3284 90.2416 19.1695C90.2416 12.52 86.0014 6.76993 79.8945 4.1189L79.4777 4.90875C85.2693 7.41711 89.2922 12.8662 89.2922 19.1695C89.2922 27.8438 81.6739 34.9009 72.3102 34.9009C69.5139 34.9009 66.8729 34.2713 64.5437 33.1571L64.1259 33.9479V33.9474Z" fill="#2B478B"/>
<path d="M76.6819 8.45735L77.4297 8.87176L80.2062 4.25825L79.4376 3.87939L76.6819 8.45735Z" fill="#2B478B"/>
<path d="M64.5432 33.1572L65.1545 33.7576L67.8081 29.4996L67.041 29.0891L64.5432 33.1572Z" fill="#2B478B"/>
<path d="M71.7945 52.9941H73.2185V35.3568H71.7945V52.9941Z" fill="#2B478B"/>
<path d="M68.5016 45.3347H76.5114V44.3452H68.5016V45.3347Z" fill="#2B478B"/>
<path d="M84.2697 23.6157C82.6472 27.4861 79.2447 30.1595 75.3294 31.1174C75.3244 31.1203 75.3193 31.1227 75.3137 31.1256C75.1954 31.1802 75.0583 31.2094 74.9233 31.2104C74.2146 31.3608 73.4911 31.4553 72.759 31.4909C70.9177 31.581 69.0271 31.2985 67.2045 30.5953C65.7794 30.0456 64.5102 29.2835 63.4207 28.3616C59.3694 24.9349 57.7976 19.307 59.9274 14.2255C60.3736 13.1615 60.9539 12.1881 61.6423 11.3159C63.6461 8.77785 66.5648 7.09734 69.7515 6.5383C72.1067 6.12536 74.608 6.32501 76.9936 7.24538C79.3726 8.1633 81.3176 9.67387 82.7182 11.5292C84.0331 13.2706 84.8683 15.3149 85.1313 17.457C85.3805 19.4809 85.1191 21.5909 84.2702 23.6147L84.2697 23.6157Z" fill="#9FB1FF"/>
<path d="M75.0547 10.9234C74.9151 11.1577 74.5669 11.1796 74.2963 11.1046C74.0262 11.0296 73.7668 10.8884 73.4855 10.8981C73.1443 10.9108 72.8418 11.1625 72.7265 11.4713C72.6113 11.7795 72.6636 12.1301 72.8093 12.4257C72.9702 12.7505 73.2413 13.1304 73.0291 13.4264C72.826 13.7108 72.3468 13.6193 72.0797 13.3889C71.8122 13.1586 71.6426 12.8304 71.3461 12.6351C70.974 12.3897 70.4704 12.4053 70.0434 12.5475C69.617 12.6897 69.2418 12.9429 68.8493 13.1576C68.7148 13.2307 68.5666 13.3023 68.4137 13.2823C68.2604 13.2623 68.1193 13.108 68.1772 12.9706C68.2163 12.8781 68.3229 12.8333 68.4082 12.7759C68.7762 12.5256 68.7539 11.9544 68.465 11.6222C68.1751 11.2901 67.7106 11.1528 67.2654 11.0871C67.2537 11.6183 66.3998 11.8901 66.4536 12.4189C66.4866 12.7501 66.8577 12.9312 67.1608 13.0924C67.701 13.3797 68.1726 13.7883 68.7468 14.0069C69.8413 14.4237 71.2456 14.1345 72.0965 14.9151C72.4158 15.2082 72.5986 15.6129 72.7153 16.0215C72.9936 16.9964 72.8986 18.1271 72.2107 18.8926C71.4172 19.776 69.9409 20.4329 69.8652 20.4227C68.9296 20.2961 68.4117 20.0297 68.0883 20.1144C66.8704 20.4339 67.276 22.3871 67.0115 23.2154C66.2815 25.4993 65.1021 26.6173 64.9585 26.5526C63.3039 25.8114 62.2581 23.9848 62.4921 22.2478C62.615 21.3386 63.048 20.4777 63.0826 19.5612C63.1125 18.7587 62.8333 17.9771 62.7373 17.1795C62.5617 15.7132 63.0394 14.1861 64.0258 13.0539C64.2391 12.8095 64.4787 12.5782 64.6132 12.2869C64.7488 11.9962 64.7549 11.6208 64.5254 11.3904C64.2528 11.1168 63.7837 11.1577 63.4126 11.2877C63.0414 11.4172 62.6764 11.6159 62.282 11.5916C62.0393 11.5765 61.8179 11.4723 61.6407 11.3155C63.6446 8.77739 66.5632 7.09688 69.75 6.53784C70.2922 6.94933 70.1099 7.91595 70.5191 8.41899C71.1512 9.19667 72.5539 8.80272 73.3484 9.42846C73.5007 9.54777 73.6226 9.70116 73.7835 9.80927C74.05 9.98799 74.3912 10.0265 74.6806 10.1687C74.97 10.3104 75.2147 10.6517 75.0542 10.9225L75.0547 10.9234Z" fill="#8C9DF4"/>
<path d="M61.9027 19.3458C61.9362 19.4855 61.9698 19.6253 62.0033 19.765C62.0261 19.8615 62.0495 19.9608 62.0322 20.0582C61.9961 20.2632 61.758 20.4127 61.5479 20.3625C61.3377 20.3119 61.2011 20.0723 61.2702 19.8751C61.3128 19.7534 61.4215 19.6423 61.3976 19.5162C61.3473 19.2518 60.7868 18.9737 61.2671 18.8408C61.6235 18.7424 61.8413 19.0658 61.9032 19.3462L61.9027 19.3458Z" fill="#7C9AF2"/>
<path d="M72.758 31.4912C70.9166 31.5813 69.026 31.2989 67.2034 30.5957C65.7784 30.0459 64.5092 29.2838 63.4197 28.362C63.8345 28.285 64.2614 28.2578 64.628 28.4414C64.7402 28.4974 64.8427 28.5724 64.929 28.662C64.9884 28.7238 65.0417 28.7934 65.1143 28.8407C65.191 28.8903 65.2834 28.9113 65.3727 28.9337C66.3318 29.1742 67.2166 29.6792 67.8954 30.3717C68.2554 30.3074 68.499 29.9237 68.8646 29.9042C69.0971 29.892 69.3037 30.0328 69.5149 30.1267C69.9454 30.3196 70.4369 30.3279 70.9111 30.3527C71.3852 30.378 71.8828 30.4316 72.2711 30.695C72.491 30.8445 72.7514 31.1864 72.758 31.4912Z" fill="white"/>
<path d="M82.7173 11.53C84.0322 13.2714 84.8673 15.3157 85.1303 17.4578C84.9546 17.5815 84.7744 17.6994 84.5998 17.8148C84.3449 17.9828 84.088 18.1639 83.9276 18.4177C83.7885 18.6383 83.7316 18.8988 83.5951 19.1208C83.1701 19.8148 82.0837 19.9871 81.772 20.7346C81.4897 21.4125 82.0045 22.1347 82.1233 22.8549C82.234 23.5245 81.9705 24.2398 81.4466 24.6937C81.1826 24.9225 80.8622 25.0852 80.5931 25.3082C79.3026 26.3786 79.4696 28.5407 78.0974 29.5132C77.5242 29.9198 76.7703 30.04 76.2007 30.451C75.9037 30.6663 75.661 30.957 75.3285 31.1172C75.3234 31.1201 75.3183 31.1226 75.3127 31.1255C75.1944 31.18 75.0574 31.2092 74.9223 31.2102C74.668 31.2117 74.4228 31.1114 74.3314 30.8908C74.2126 30.603 74.4116 30.2942 74.573 30.0269C75.0619 29.2176 75.267 28.2836 75.4513 27.3656C75.5991 26.6264 75.7311 25.8317 75.4087 25.1461C75.2899 24.8928 75.1132 24.6674 74.9949 24.4141C74.8091 24.0153 74.7776 23.5449 74.9477 23.1393C75.1183 22.7341 75.498 22.4069 75.9458 22.3246C76.1189 22.2929 76.3032 22.2949 76.4601 22.2184C76.9703 21.9701 76.7774 21.2128 77.051 20.7307C77.316 20.2652 77.9674 20.1532 78.5167 20.216C79.066 20.2793 79.6128 20.4624 80.1596 20.3787C80.7053 20.2944 81.2415 19.7836 81.0587 19.2825C80.8196 18.6261 79.6285 18.5871 79.5331 17.8976C79.5016 17.6697 79.6128 17.4281 79.5245 17.2149C79.4534 17.0434 79.2701 16.9368 79.1803 16.7742C79.0752 16.5833 79.1112 16.3432 79.0071 16.1518C78.831 15.829 78.303 15.7247 78.2598 15.3629C78.2126 14.9631 78.7701 14.8068 79.1046 14.5638C79.5549 14.2361 79.6184 13.5217 79.232 13.1258C78.9503 12.8375 78.4401 12.5853 78.5721 12.2108C78.6777 11.9099 79.1061 11.8884 79.4346 11.9235C80.0271 11.9863 80.6195 12.0491 81.2115 12.1124C81.8887 12.1845 82.1137 12.0589 82.565 11.6406C82.6178 11.5919 82.6686 11.5554 82.7173 11.5295V11.53Z" fill="#8C9DF4"/>
<path d="M84.2408 58.0137H68.8515C67.5284 58.0137 66.4542 56.9833 66.4542 55.7142V54.2572C66.4542 53.0164 67.5046 52.0089 68.7981 52.0089H84.2408V58.0137Z" fill="#D2E0FF"/>
<path d="M53.189 54.4796V55.383C53.189 55.8656 53.3078 56.3175 53.5149 56.7061C53.9317 57.4881 54.7064 58.0136 55.5939 58.0136H84.7171C84.91 58.0136 85.0659 57.8426 85.0659 57.6323V57.4969C85.0659 57.2865 84.9095 57.1156 84.7171 57.1156H66.9639C66.869 56.989 66.7852 56.8521 66.7146 56.7061C66.5486 56.3632 66.4542 55.9727 66.4542 55.5578V54.4095C66.4542 54.1982 66.4791 53.9932 66.5263 53.7984C66.606 53.4677 66.7482 53.1653 66.938 52.9068H84.7171C84.91 52.9068 85.0659 52.7358 85.0659 52.525V52.3901C85.0659 52.1792 84.9095 52.0083 84.7171 52.0083H55.4471C54.4155 52.0083 53.5459 52.7646 53.2758 53.7979C53.2189 54.0141 53.189 54.2425 53.189 54.4787V54.4796Z" fill="#A4C0F4"/>
<path d="M84.2409 55.0115L82.0842 55.1123L84.2409 55.1731V55.0115Z" fill="#A4C0F4"/>
<path d="M84.2409 55.9536L79.1107 56.0544L84.2409 56.1153V55.9536Z" fill="#A4C0F4"/>
<path d="M75.6062 58.0015H90.8539C92.0272 58.0015 92.9796 58.915 92.9796 60.0404V60.5006C92.9796 61.699 91.9653 62.6719 90.7159 62.6719H75.6062V58.0015Z" fill="#B6CBFB"/>
<path d="M59.0359 58.0015H76.3174C77.5105 58.0015 78.4786 58.9306 78.4786 60.0745V60.5517C78.4786 61.7219 77.4881 62.6719 76.2682 62.6719H59.0359V58.0015Z" fill="#D2E0FF"/>
<path d="M58.4621 61.9736H79.6112C79.7924 61.9736 79.9396 62.1149 79.9396 62.2887V62.3574C79.9396 62.5312 79.7924 62.6724 79.6112 62.6724H58.4621C58.2809 62.6724 58.1342 62.5312 58.1342 62.3578V62.2887C58.1342 62.1149 58.2814 61.9741 58.4621 61.9741V61.9736Z" fill="#B6CBFB"/>
<path d="M58.4623 58.0015H79.6113C79.7926 58.0015 79.9398 58.1427 79.9398 58.3165V58.3852C79.9398 58.559 79.7926 58.7003 79.6113 58.7003H58.4623C58.281 58.7003 58.1338 58.559 58.1338 58.3852V58.3165C58.1338 58.1427 58.281 58.0015 58.4623 58.0015Z" fill="#B6CBFB"/>
<path d="M59.0359 60.3364L61.3931 60.4153L59.0359 60.4625V60.3364Z" fill="#B6CBFB"/>
<path d="M59.0359 59.2617L64.6438 59.3401L59.0359 59.3874V59.2617Z" fill="#B6CBFB"/>
<path d="M71.4001 59.3245C71.4001 59.3245 71.16 59.5251 71.0803 59.8553C71.066 59.9127 71.0574 59.9746 71.0554 60.0398C71.0422 60.4781 71.0554 61.47 71.0554 61.47L70.3456 60.9743L69.6379 61.47V60.1255C69.6379 59.8713 69.6989 59.624 69.8116 59.4623C69.8664 59.3839 69.9324 59.325 70.0075 59.325H71.4001V59.3245Z" fill="#699DEE"/>
<path d="M71.4001 59.3245C71.4001 59.3245 71.1599 59.5251 71.0802 59.8553L69.6582 59.8747C69.6582 59.8747 69.714 59.4024 70.0075 59.3245H71.4001Z" fill="#568CDB"/>
<path d="M88.0606 52.0215H71.5625C70.0948 52.0215 68.9032 50.8786 68.9032 49.4708V47.6539C68.9032 46.2772 70.0684 45.1597 71.5036 45.1597H88.0612V52.022L88.0606 52.0215Z" fill="#D2E0FF"/>
<path d="M68.8936 47.8219V49.2989C68.8977 49.9295 69.2129 50.4768 69.6754 50.7695C69.9034 50.9132 70.1669 50.995 70.4466 50.995H88.5648C88.777 50.995 88.9491 51.1859 88.9491 51.4211V51.5954C88.9491 51.8306 88.777 52.0215 88.5648 52.0215H57.2651C56.367 52.0215 55.5735 51.5267 55.0938 50.7695C54.7912 50.2923 54.614 49.7113 54.614 49.0836V47.9183C54.614 47.4883 54.7029 47.0812 54.8613 46.7184C55.2638 45.7956 56.1162 45.1597 57.1032 45.1597H88.5648C88.777 45.1597 88.9491 45.3501 88.9491 45.5853V45.7596C88.9491 45.9948 88.777 46.1857 88.5648 46.1857H70.3913C69.9572 46.1857 69.5638 46.3907 69.2891 46.7184C69.0459 47.0092 68.8962 47.3958 68.8936 47.8219Z" fill="#B6CBFB"/>
<path d="M88.0612 48.5908L85.7385 48.7057L88.0612 48.7754V48.5908Z" fill="#B6CBFB"/>
<path d="M88.0612 47.0115L82.535 47.1264L88.0612 47.196V47.0115Z" fill="#B6CBFB"/>
<path d="M70.5187 47.1035C70.5187 47.1035 70.8832 47.3212 71.004 47.6786C71.0253 47.741 71.039 47.8082 71.0421 47.8788C71.0624 48.354 71.0421 49.4293 71.0421 49.4293L72.1189 48.8917L73.1926 49.4293V47.9718C73.1926 47.6962 73.1002 47.4278 72.9297 47.2525C72.8469 47.1673 72.7459 47.1035 72.6322 47.1035H70.5192H70.5187Z" fill="#F99746"/>
<path d="M70.5187 47.1035C70.5187 47.1035 70.8832 47.3212 71.004 47.6786L73.1617 47.7C73.1617 47.7 73.0769 47.1878 72.6317 47.1035H70.5187Z" fill="#ED7D2B"/>
<path d="M22.5376 39.4671C22.5376 39.4671 23.0641 38.7625 23.4682 38.5039C23.8723 38.2453 24.9501 37.9751 24.9379 38.163C24.9257 38.351 24.3008 39.1048 24.3008 39.3327C24.3008 39.5606 23.4083 39.5728 23.2321 39.6824C23.0559 39.7919 23.0235 39.8937 23.0235 39.8937L22.5376 39.4666V39.4671Z" fill="#FFB27D"/>
<path d="M23.2327 40.0962C23.2327 40.0962 21.6751 43.1368 20.1972 43.2001C20.114 43.204 20.0266 43.1933 19.9358 43.168C19.9358 43.168 19.9332 43.168 19.9322 43.1665C19.9089 43.1607 19.8855 43.1534 19.8621 43.1461L19.8586 43.1446C19.6332 43.0677 19.3875 42.9162 19.1326 42.7088C19.0559 42.6465 18.9778 42.5788 18.8996 42.5067C18.7188 42.3392 18.5356 42.1488 18.3538 41.9404C17.8664 41.3823 17.3897 40.6981 17.0049 40.0188C16.9968 40.0047 16.9887 39.9906 16.981 39.9764C16.4333 39.002 16.4444 38.2638 16.6282 37.7427C16.8617 37.08 17.375 36.7688 17.375 36.7688C17.375 36.7688 17.376 36.7688 17.3765 36.7688C17.3902 36.7717 17.4948 36.7946 17.6517 36.8482C18.0604 36.9879 18.8239 37.3317 19.256 38.0519C19.3342 38.1825 19.4017 38.3261 19.4545 38.4824C19.9149 39.8571 20.2368 40.9523 20.481 40.8812C20.8699 40.7682 22.4615 39.2012 22.4615 39.2012C22.4615 39.2012 22.6539 39.2591 22.9047 39.4812C23.192 39.7359 23.2327 40.0962 23.2327 40.0962Z" fill="#F99746"/>
<path d="M18.3533 41.9404C18.8747 42.5379 19.4083 42.9912 19.8586 43.1451L19.8621 43.1461L19.9322 43.167L19.9362 43.168C19.92 43.1573 19.4382 42.9177 19.3626 42.4726C19.2854 42.0178 19.787 41.6457 18.5264 40.9426C17.7918 40.5325 18.3543 41.9399 18.3543 41.9399L18.3533 41.9404Z" fill="#E8783A"/>
<path d="M19.5068 62.7956H16.0434C15.7952 62.6339 16.1104 61.0561 16.1104 61.0561C16.1104 61.0561 17.0557 60.7118 17.2192 61.4116C17.3832 62.1109 18.4234 62.3329 18.9738 62.4182C19.3505 62.4771 19.4698 62.6753 19.5073 62.7956H19.5068Z" fill="#24406D"/>
<path d="M14.2253 46.4371C14.2253 46.4371 14.3345 48.3752 14.4711 50.6211C14.5696 52.2315 14.6812 54.0002 14.7772 55.3247C14.7899 55.5005 14.8026 55.6685 14.8148 55.8273C14.8183 55.8764 14.8219 55.9251 14.8259 55.9743C15.0742 58.9443 15.9032 61.5462 15.9032 61.5462C16.877 61.7429 17.3171 61.383 17.3171 61.383C17.3171 61.383 17.9883 53.8404 18.2365 50.7984C18.4193 48.5588 18.5752 45.2986 18.5752 45.2986L14.2253 46.4376V46.4371Z" fill="#8C9DF4"/>
<path d="M14.4711 50.6211C14.5696 52.2315 14.6813 54.0001 14.7772 55.3247C15.4138 53.8842 16.7145 48.27 16.7145 48.27L14.4711 50.6211Z" fill="#7185DB"/>
<path d="M14.37 62.7956H10.9066C10.6583 62.6339 10.9736 61.0561 10.9736 61.0561C10.9736 61.0561 11.9189 60.7118 12.0824 61.4116C12.2463 62.1109 13.2866 62.3329 13.8369 62.4182C14.2136 62.4771 14.3329 62.6753 14.3705 62.7956H14.37Z" fill="#24406D"/>
<path d="M17.6339 46.0513C17.6339 46.0513 15.1604 51.9567 14.37 54.1953C13.807 55.7896 12.2184 61.3838 12.2184 61.3838C12.2184 61.3838 11.528 61.5854 10.9472 61.1959C10.9472 61.1959 10.3562 55.4808 11.5498 53.8695C12.1829 53.0144 11.7072 44.9824 14.2751 44.9132C16.8429 44.8446 17.6339 46.0513 17.6339 46.0513Z" fill="#8C9DF4"/>
<path d="M18.9362 45.0569C18.8824 45.7338 18.7331 46.2183 18.4067 46.2183C18.4067 46.2183 16.9532 46.7087 15.2164 46.7219C14.8767 46.7243 14.3965 46.661 13.9974 46.5967C13.5903 46.5305 13.2679 46.4638 13.2679 46.4638C12.9186 46.3868 12.5795 46.2719 12.5871 45.7635C12.5886 45.6622 12.5846 45.3642 12.5795 44.9357C12.5764 44.7078 12.5729 44.4433 12.5693 44.1516C12.5658 43.8639 12.5627 43.5493 12.5592 43.2181C12.551 42.4405 12.546 41.5712 12.5485 40.7346C12.551 39.9063 12.5617 39.1101 12.5866 38.4673C12.6181 37.6731 12.6714 37.1126 12.7592 37.0142C12.8765 36.8852 13.0902 36.7751 13.3689 36.6879C14.3579 36.3787 16.1652 36.3539 17.3735 36.7678C17.3735 36.7678 17.3745 36.7678 17.3751 36.7678C17.4629 36.7985 17.5477 36.8306 17.6289 36.8657C17.8482 36.9602 18.0406 37.0722 18.1939 37.2027C18.3026 37.2942 18.6443 37.8313 18.7636 38.48C18.7879 38.6119 18.8037 38.7493 18.8057 38.888C18.8153 39.4982 18.8626 41.0882 18.8981 42.5062C18.9296 43.7397 18.9519 44.8431 18.9352 45.0564L18.9362 45.0569Z" fill="#F99746"/>
<path d="M14.7183 36.6073C15.1752 37.0821 16.7094 37.0119 16.6642 36.597C16.6581 36.5459 16.648 36.2425 16.6429 36.1953C16.6389 36.1573 16.6353 36.1203 16.6323 36.0857C16.6216 35.9835 16.6135 35.8934 16.6064 35.815C16.5861 35.5876 16.5795 35.4644 16.5795 35.4644H16.5779C16.5338 35.4527 15.5473 35.1839 15.0564 35.0724C14.8914 35.0349 14.7823 35.0154 14.7843 35.029C14.9346 36.0862 14.5685 36.4505 14.7183 36.6063V36.6073Z" fill="#FFB27D"/>
<path d="M15.0042 35.3854C15.0042 35.3854 15.4164 35.7871 16.6059 35.8159C16.5856 35.5885 16.579 35.4652 16.579 35.4652H16.5775C16.5333 35.4536 15.5469 35.1848 15.056 35.0732C14.9696 35.1073 15.0839 35.3284 15.0037 35.3854H15.0042Z" fill="#ED975D"/>
<path d="M16.8806 35.4087C16.8806 35.4087 16.5795 35.5124 16.1952 35.5621C15.6337 35.6347 14.895 35.5918 14.663 34.9403C14.2721 33.8431 13.773 33.1852 14.9229 32.7372C15.5388 32.4972 15.9322 32.4845 16.1998 32.576C16.4323 32.6549 16.5694 32.8127 16.6729 32.969C16.8963 33.305 17.3456 35.2169 16.8801 35.4087H16.8806Z" fill="#FFB27D"/>
<path d="M16.5866 32.1197C16.9973 32.3783 16.8633 32.985 16.3794 33.0668C16.0895 33.1155 15.8459 33.1257 15.7052 33.1856C15.4194 33.3074 15.1732 33.4369 15.2407 33.8625C15.2635 34.0072 15.3372 34.1834 14.9488 34.0958C14.8853 34.0817 14.8391 34.0856 14.8076 34.1041C14.6467 34.1956 14.8523 34.6402 14.9148 34.7366C14.9148 34.7366 15.0041 35.0551 14.8056 35.21C14.7818 35.2285 14.3919 35.3916 13.4531 34.0135C13.3054 33.7973 13.1648 33.3098 13.3927 32.8404C13.6202 32.371 14.2553 31.7773 15.4514 31.7773C15.7626 31.7773 16.2307 31.8957 16.5866 32.1197Z" fill="#233862"/>
<path d="M16.8892 34.7008C16.8892 34.7008 16.9131 34.843 16.5688 34.9559C16.5688 34.9559 16.28 35.0514 16.2272 34.9053C16.2272 34.9053 16.4566 34.6954 16.8892 34.7003V34.7008Z" fill="white"/>
<path d="M12.5698 44.1521C12.7444 44.9313 13.0287 45.201 13.1881 44.9103C13.7476 43.8926 13.741 43.466 13.4983 42.7443C13.2557 42.0226 14.1076 40.8938 13.4983 40.4127C12.9028 39.9423 12.5632 40.7005 12.5485 40.7341C12.5449 41.9267 12.5576 43.187 12.5698 44.1521Z" fill="#E8783A"/>
<path d="M12.5962 44.052C12.5962 44.052 13.0079 44.6977 13.278 44.6748C13.5481 44.6519 13.9121 44.5555 14.1223 44.7479C14.3325 44.9402 14.6716 45.4369 14.5767 45.5694C14.4817 45.7014 14.101 45.5845 13.8273 45.4399C13.5537 45.2952 13.1227 45.5109 12.8932 45.3468C12.6637 45.1822 12.1134 44.5292 12.1134 44.5292L12.5957 44.0525L12.5962 44.052Z" fill="#FFB27D"/>
<path d="M13.2729 40.1351C13.1125 40.2072 12.8267 40.4487 12.5485 40.7341C12.1845 41.1086 11.8342 41.558 11.7935 41.8001C11.7626 41.9836 12.1682 42.6386 12.5591 43.2176C12.912 43.7391 13.2521 44.1993 13.2521 44.1993C13.148 44.454 12.8236 44.7438 12.5794 44.9356C12.4155 45.0647 12.2875 45.1494 12.2875 45.1494C10.6157 43.8721 9.98822 43.0837 9.78616 42.1492C9.50491 40.85 10.7721 39.1368 11.7397 38.0553C12.2885 37.4412 12.7404 37.0307 12.7586 37.0146C13.2369 37.2148 13.4567 38.1225 13.4917 38.9089C13.5197 39.5225 13.4349 40.0621 13.2719 40.1351H13.2729Z" fill="#F99746"/>
<path d="M13.278 44.6752C13.278 44.6752 13.6379 44.5242 13.7537 44.4595C13.8694 44.3947 13.8435 44.4994 13.8085 44.552C13.7729 44.6046 13.6765 44.7215 13.5353 44.7341C13.3937 44.7463 13.278 44.6757 13.278 44.6757V44.6752Z" fill="#FFB27D"/>
<path d="M53.3794 48.1804C53.0063 52.7929 50.6064 56.788 47.0841 59.4273C47.009 59.4838 46.9354 59.5388 46.8592 59.5924C44.1086 61.5821 40.701 62.7567 37.0513 62.7767C36.8665 62.7781 36.6817 62.7762 36.4959 62.7703C36.2177 62.7635 35.9395 62.7499 35.6587 62.7289C30.0798 62.3136 25.366 59.2812 22.722 54.9857C22.6306 54.8377 22.5417 54.6877 22.4554 54.5367C20.9725 51.9363 20.2338 48.9074 20.4907 45.7319C20.6785 43.4101 21.3791 41.2455 22.4783 39.3308C22.5676 39.1754 22.66 39.0211 22.7539 38.8696C24.1597 36.6067 26.1331 34.7187 28.4715 33.3762C28.5583 33.3255 28.6451 33.2758 28.7339 33.2276C31.5094 31.699 34.7784 30.9277 38.2114 31.1829C38.8495 31.2306 39.477 31.3119 40.0918 31.4268C40.2644 31.4585 40.4355 31.4931 40.6051 31.5306C44.4015 32.3569 47.6634 34.4236 49.947 37.2339C50.0719 37.3878 50.1947 37.5426 50.312 37.6999C51.6838 39.5217 52.657 41.6268 53.1205 43.8936C53.1545 44.0572 53.1865 44.2228 53.2144 44.3884C53.4241 45.615 53.4845 46.8855 53.3794 48.1809V48.1804Z" fill="#F77D48"/>
<path d="M34.6413 43.9258C34.5256 43.8074 34.4088 43.6901 34.289 43.5761C31.5633 40.9568 27.8902 39.2227 23.7526 38.9144C23.4175 38.8896 23.0855 38.874 22.7539 38.8691C22.66 39.0211 22.5676 39.175 22.4783 39.3303C22.887 39.3318 23.3007 39.3473 23.715 39.378C27.7089 39.6756 31.2561 41.341 33.8976 43.8581C34.0174 43.972 34.1347 44.087 34.2504 44.2053C37.2996 47.2946 39.0298 51.5594 38.6602 56.1257C38.4642 58.5498 37.6966 60.8015 36.4959 62.7703C36.6817 62.7762 36.8665 62.7781 37.0513 62.7767C38.2098 60.8035 38.949 58.5649 39.1435 56.1617C39.5222 51.4796 37.7575 47.1037 34.6413 43.9253V43.9258Z" fill="#D8653D"/>
<path d="M53.1205 43.8931C49.6012 43.1597 46.5353 41.3423 44.2878 38.8462C44.1685 38.7137 44.0502 38.5788 43.935 38.442C42.2728 36.4644 41.1067 34.0987 40.6051 31.5305C40.4355 31.4935 40.2644 31.4584 40.0918 31.4268C40.5782 34.0905 41.7575 36.5491 43.4557 38.609C43.5674 38.7458 43.6831 38.8802 43.7999 39.0127C46.1647 41.7007 49.4423 43.6481 53.2144 44.3878C53.1865 44.2222 53.155 44.0567 53.1205 43.8931Z" fill="#D8653D"/>
<path d="M46.6161 59.6152C46.1576 55.0636 44.9143 50.864 42.9212 47.1329C41.327 44.1488 39.2516 41.4549 36.7523 39.1262C32.4929 35.1574 28.4243 33.6074 28.3837 33.5923L28.5598 33.1589C28.6015 33.1745 32.7457 34.7503 37.0742 38.7775C39.6146 41.1413 41.7251 43.877 43.3461 46.9079C45.3712 50.6945 46.6339 54.955 47.0989 59.5704L46.6161 59.6152Z" fill="#D8653D"/>
<path d="M50.3115 37.6994C48.6473 37.7588 46.6298 38.0695 44.2874 38.8457C44.1259 38.8993 43.9634 38.9548 43.7995 39.0123C42.3993 39.5066 40.8889 40.1654 39.2714 41.0356C39.1293 41.1116 38.9851 41.1895 38.8414 41.2698C37.5108 42.0061 36.1101 42.8832 34.6414 43.9253C34.5124 44.0158 34.3809 44.1098 34.25 44.2053C33.4052 44.8154 32.5386 45.4801 31.6516 46.2043C26.7053 50.2349 23.2358 54.3624 22.7215 54.9857C22.6301 54.8377 22.5413 54.6877 22.455 54.5367C23.2789 53.5516 26.6454 49.6554 31.3191 45.8439C32.1811 45.1417 33.0401 44.4785 33.8966 43.8586C34.0271 43.7631 34.1576 43.6691 34.288 43.5761C35.708 42.5661 37.1158 41.6711 38.5043 40.8959C38.647 40.8145 38.7897 40.7361 38.9323 40.6582C39.506 40.3475 40.0746 40.0573 40.6402 39.7875C41.589 39.3356 42.5282 38.9422 43.4542 38.6086C43.6147 38.5506 43.7736 38.4946 43.9335 38.4411C46.0064 37.7364 48.0158 37.3318 49.9455 37.2329C50.0704 37.3868 50.1932 37.5416 50.3105 37.6989L50.3115 37.6994Z" fill="#D8653D"/>
<path d="M15.8316 36.9767C15.1884 36.9767 14.3847 36.7006 14.3939 36.4961L14.5254 36.0334C14.5254 36.0334 15.0584 36.1649 15.5189 36.313C15.6697 36.3617 15.7834 36.4839 15.8149 36.6339C15.854 36.8194 15.858 36.9772 15.8321 36.9772L15.8316 36.9767Z" fill="#E8783A"/>
<path d="M16.9339 36.6426C16.9339 36.6426 16.4475 37.0239 15.8312 36.9767C15.8987 36.8413 15.9312 36.5496 16.0576 36.4128C16.3211 36.1284 16.713 36.033 16.713 36.033L16.9339 36.6426Z" fill="#E8783A"/>
<path d="M16.0861 37.4583C16.115 37.4562 16.1439 37.4516 16.1729 37.4438C16.1444 37.4609 16.1155 37.465 16.0861 37.4583Z" fill="#E58339"/>
<path d="M19.255 38.0525L18.764 38.481L17.0039 40.0188L16.5637 40.4035L13.4928 38.909L12.5865 38.4678L11.7402 38.0559C12.289 37.4418 12.7409 37.0313 12.7592 37.0152C12.8764 36.8862 13.0902 36.7761 13.3689 36.689L16.2363 38.0846L16.6272 37.7432L17.6288 36.8672L17.6502 36.8487C18.0589 36.9884 18.8224 37.3322 19.2544 38.0525H19.255Z" fill="#8C9DF4"/>
<path d="M16.6821 46.404L16.6475 46.3709C16.9176 46.1138 17.0745 45.001 16.645 44.4532C16.1993 43.8844 16.5643 43.1136 17.0131 42.6266C17.274 42.3432 17.0451 42.1099 16.7278 41.7866C16.5358 41.5913 16.3191 41.3698 16.1713 41.0927C15.9058 40.594 16.0571 40.202 16.2038 39.8231C16.2754 39.6376 16.35 39.4453 16.3754 39.2412C16.4526 38.6281 15.9601 37.4711 15.9556 37.4594L16.0008 37.4414C16.0211 37.4891 16.5028 38.6213 16.4242 39.2466C16.3978 39.4565 16.3226 39.6513 16.25 39.8392C16.1008 40.2259 15.9596 40.5911 16.215 41.0712C16.3592 41.3425 16.5739 41.5611 16.7633 41.754C17.0857 42.0822 17.34 42.3417 17.0496 42.6573C16.6135 43.1311 16.2561 43.8781 16.6841 44.4245C17.1263 44.9889 16.9618 46.1376 16.6816 46.404H16.6821Z" fill="#2B478B"/>
<path d="M15.9047 37.345C15.9047 37.345 15.8601 37.6075 15.9047 37.6425C15.9494 37.6776 16.0804 37.6815 16.0845 37.6075C16.0885 37.533 16.0469 37.3382 16.0139 37.3265C15.9814 37.3148 15.9103 37.3099 15.9047 37.3455V37.345Z" fill="#2B478B"/>
<path d="M51.2846 30.1155L51.0958 30.0556C50.8942 29.9918 50.7841 29.7824 50.8506 29.589L51.3735 28.0683C51.44 27.8749 51.6583 27.7693 51.8598 27.8331L52.1304 27.9188C52.17 27.9314 52.1914 27.9723 52.1787 28.0103C52.1655 28.0483 52.1228 28.0687 52.0832 28.0561L51.8126 27.9704C51.6898 27.9314 51.5573 27.9957 51.5166 28.1135L50.9937 29.6343C50.9531 29.7522 51.0201 29.8793 51.143 29.9182L51.3318 29.9781C51.4547 30.0171 51.5872 29.9528 51.6278 29.835L51.9751 28.8255C51.9883 28.7875 52.0309 28.767 52.0705 28.7792C52.1101 28.7919 52.1314 28.8328 52.1188 28.8708L51.7715 29.8802C51.705 30.0736 51.4867 30.1792 51.2851 30.1155H51.2846Z" fill="#9FB1FF"/>
<path d="M50.8318 31.6952L50.4931 31.588C50.1789 31.4887 50.0129 31.1449 50.124 30.8215L50.9099 28.5352C50.9231 28.4973 50.9658 28.4768 51.0054 28.489C51.045 28.5016 51.0663 28.5426 51.0536 28.5805L50.2677 30.8668C50.1824 31.1142 50.3053 31.3762 50.5409 31.4507L50.8795 31.5578C51.115 31.6323 51.376 31.4916 51.4608 31.2442L52.3558 28.6399C52.4406 28.3926 52.3183 28.1306 52.0827 28.0561C52.0431 28.0434 52.0218 28.0025 52.0345 27.965C52.0471 27.9275 52.0903 27.9066 52.1299 27.9188C52.4447 28.0181 52.6097 28.3619 52.499 28.6852L51.6039 31.2895C51.4928 31.6129 51.1465 31.795 50.8323 31.6952H50.8318Z" fill="#9FB1FF"/>
<path d="M45.3189 17.7392L45.2311 17.9102C45.1371 18.0928 44.9056 18.1683 44.7153 18.0782L43.2181 17.3701C43.0277 17.28 42.949 17.058 43.0429 16.8754L43.1689 16.6304C43.1871 16.5944 43.2323 16.5798 43.2699 16.5978C43.3074 16.6153 43.3227 16.6587 43.3039 16.6947L43.178 16.9397C43.1211 17.0507 43.1689 17.1861 43.2846 17.2406L44.7818 17.9486C44.8975 18.0037 45.0387 17.9579 45.096 17.8464L45.1838 17.6755C45.2412 17.5644 45.1935 17.4291 45.0772 17.3745L44.0832 16.9041C44.0456 16.8866 44.0304 16.8432 44.0492 16.8072C44.0675 16.7717 44.1126 16.7566 44.1502 16.7746L45.1442 17.245C45.3346 17.3351 45.4133 17.5571 45.3194 17.7397L45.3189 17.7392Z" fill="#9FB1FF"/>
<path d="M46.887 18.3889L46.7291 18.6957C46.5824 18.9805 46.2047 19.0896 45.8864 18.9391L43.6353 17.8741C43.5977 17.8566 43.5825 17.8133 43.6013 17.7772C43.6196 17.7417 43.6648 17.7266 43.7023 17.7446L45.9534 18.8096C46.1971 18.925 46.4844 18.8452 46.5941 18.6319L46.752 18.3251C46.8616 18.1118 46.7525 17.8444 46.5088 17.729L43.9445 16.516C43.7008 16.4006 43.4135 16.4805 43.3038 16.6937C43.2855 16.7298 43.2403 16.7444 43.2028 16.7264C43.1652 16.7088 43.15 16.6655 43.1682 16.6295C43.315 16.3446 43.6927 16.2355 44.011 16.386L46.5753 17.599C46.8936 17.7495 47.0332 18.104 46.8865 18.3889H46.887Z" fill="#9FB1FF"/>
<path d="M100.381 53.0122L100.219 53.1232C100.047 53.2415 99.8054 53.2031 99.682 53.0375L98.7114 51.7344C98.588 51.5688 98.6281 51.3375 98.8007 51.2192L99.0327 51.0604C99.0667 51.037 99.1139 51.0448 99.1378 51.077C99.1617 51.1091 99.1541 51.1544 99.1206 51.1778L98.8885 51.3365C98.7834 51.4086 98.7591 51.5493 98.8342 51.6501L99.8049 52.9532C99.88 53.054 100.027 53.0774 100.132 53.0053L100.294 52.8943C100.399 52.8222 100.423 52.6815 100.348 52.5807L99.7039 51.7159C99.6795 51.6832 99.6876 51.6384 99.7216 51.6151C99.7557 51.5917 99.8024 51.5995 99.8267 51.6316L100.471 52.4965C100.594 52.662 100.554 52.8933 100.382 53.0117L100.381 53.0122Z" fill="#F99746"/>
<path d="M101.443 54.2958L101.153 54.4945C100.883 54.679 100.496 54.604 100.29 54.327L98.8312 52.3679C98.8068 52.3353 98.815 52.2905 98.849 52.2671C98.883 52.2437 98.9297 52.2515 98.9541 52.2837L100.413 54.2427C100.571 54.4545 100.864 54.5149 101.066 54.3766L101.356 54.1779C101.558 54.0397 101.594 53.7548 101.436 53.5425L99.7735 51.3112C99.6156 51.0994 99.3227 51.0395 99.1211 51.1773C99.0871 51.2006 99.0404 51.1929 99.016 51.1602C98.9916 51.1276 98.9998 51.0828 99.0333 51.0594C99.3029 50.8749 99.6897 50.9499 99.8963 51.2269L101.558 53.4582C101.765 53.7353 101.713 54.1108 101.444 54.2953L101.443 54.2958Z" fill="#F99746"/>
<path d="M61.7982 33.9021C61.1849 37.564 60.6793 41.5109 60.8981 43.5888C61.0783 44.1707 61.6357 44.3645 62.1282 44.44L61.7896 44.794L60.8361 44.8461L59.5639 44.3655C59.5639 44.3655 59.6375 44.1244 59.6959 43.7042C59.7634 43.2157 59.5273 42.0991 59.5273 42.0991C59.5273 42.0991 58.9069 38.2424 59.2598 37.3765C59.3598 37.1306 59.4263 36.8487 59.4669 36.5429C59.571 35.7637 59.5126 34.8273 59.4441 33.9171C59.3699 32.9281 59.2836 31.9707 59.3811 31.2793C59.8258 28.1237 59.8309 25.3948 59.8309 25.3948H62.3272C62.3272 25.3948 63.0344 27.3222 62.7049 28.9749C62.4252 30.3798 62.0982 32.1071 61.7972 33.9025L61.7982 33.9021Z" fill="#FFB27D"/>
<path d="M59.4679 36.5422C59.572 35.7636 59.5136 34.8267 59.4451 33.9165L61.288 33.2017L61.7982 33.9019C61.72 33.994 60.3487 35.5454 59.4674 36.5422H59.4679Z" fill="#F3A36C"/>
<path d="M66.6395 22.975C66.6395 22.975 66.9223 22.6882 67.1249 22.5465C67.3274 22.4048 67.8955 22.2626 67.9529 22.5007C67.9783 22.6064 67.7788 22.8406 67.6351 22.9244C67.4914 23.0076 67.4691 23.1138 67.3163 23.2633C67.1635 23.4128 66.7898 23.4201 66.7898 23.4201L66.6395 22.975Z" fill="#FFB27D"/>
<path d="M58.3333 20.6059C58.2145 20.3858 60.928 19.5935 60.9712 21.7649C60.9712 21.7649 66.0546 21.6451 63.6274 18.9274C62.7872 17.9866 62.8735 17.2089 62.8989 16.4843C62.9242 15.7602 62.3754 13.655 60.494 13.8673C60.494 13.8673 60.001 13.675 59.3862 13.9808C57.9875 14.6767 54.8551 21.4065 58.3338 20.6055L58.3333 20.6059Z" fill="#233862"/>
<path d="M61.8586 23.1898C61.8586 23.1898 62.0384 23.5316 62.3648 23.9241C62.7583 24.3965 63.3644 24.9424 64.1254 25.05C64.4889 25.1016 64.8448 25.0266 65.1713 24.8873C65.1723 24.8873 65.1723 24.8873 65.1723 24.8873C66.0968 24.4939 66.7918 23.5886 66.7918 23.5886C66.9548 23.1625 66.6882 22.8732 66.6882 22.8732C66.6882 22.8732 64.8215 23.276 64.6438 23.1907C64.4661 23.1055 63.4289 20.2397 63.1822 19.8794C62.9349 19.5195 62.0937 19.332 62.0937 19.332L61.8586 23.1903V23.1898Z" fill="#F77D48"/>
<path d="M62.3648 23.924C62.7583 24.3964 63.3645 24.9423 64.1255 25.0499C64.489 25.1015 64.8449 25.0265 65.1713 24.8873C65.1353 24.8916 64.2118 25.0012 63.8437 24.3696C63.4685 23.7254 63.0624 22.7022 62.505 23.0431C62.2643 23.1902 62.275 23.5564 62.3648 23.924Z" fill="#8EB3EF"/>
<path d="M56.5945 45.0117H55.7345C55.4847 45.0117 55.1994 44.8281 55.1303 44.3947C55.0608 43.9618 54.547 43.7256 54.4358 43.3711C54.3596 43.1276 54.5399 42.9538 54.711 42.8204C54.7891 42.759 54.8653 42.7059 54.914 42.6587C55.0892 42.4892 55.2542 41.7578 55.2542 41.7578L56.1614 42.2156C56.1614 42.2156 55.7339 42.9124 55.9807 43.6964C56.0959 44.0626 56.199 44.4006 56.4538 44.6109C56.5137 44.6606 56.5828 44.7035 56.662 44.7376C57.0585 44.9094 56.5955 45.0112 56.5955 45.0112L56.5945 45.0117Z" fill="#FFB27D"/>
<path d="M57.2535 21.7649C57.2535 21.7649 57.2058 22.4096 57.2535 23.1839C57.285 23.6971 57.8262 24.3843 57.9028 24.5542C58.0952 24.9803 58.3125 25.0499 58.3125 25.0499L59.993 25.4449L60.5839 25.5836L62.4471 25.0499C62.4471 25.0499 63.296 22.7778 62.9548 21.499C62.6141 20.2202 62.0932 19.332 62.0932 19.332C62.0932 19.332 59.9513 18.7978 58.2917 19.2624L57.253 21.7654L57.2535 21.7649Z" fill="#F77D48"/>
<path d="M58.4191 25.3125C58.4191 25.3125 57.0118 27.124 56.8803 28.3482C56.7493 29.573 57.9936 32.9622 57.7144 34.1558C57.5068 35.0416 56.401 35.7447 56.0954 37.9785C55.9893 38.7542 55.6065 40.3061 55.2532 41.7578L56.033 42.4921C57.8906 38.4313 59.8112 35.8753 59.9249 34.9773C60.0051 34.3418 60.3818 30.9993 61.9053 28.5318C62.2709 27.9397 61.6809 25.5837 61.6809 25.5837L58.4196 25.313L58.4191 25.3125Z" fill="#FFB27D"/>
<path d="M62.7938 29.4824C62.5867 31.9011 62.3435 33.9386 62.3435 33.9386C62.3435 33.9386 61.1677 34.6987 59.504 34.7951C58.744 34.8395 57.882 34.745 56.9839 34.3768C56.9839 34.3768 56.6417 28.5357 56.8595 27.6051C57.0773 26.6745 58.0424 25.3943 58.0424 25.3943L62.3841 25.555C62.3841 25.555 63.002 27.0626 62.7948 29.4819L62.7938 29.4824Z" fill="#2B478B"/>
<path d="M62.476 24.9697C62.476 24.9697 62.1054 25.2507 61.3698 25.2648C60.491 25.2819 58.313 25.0501 58.313 25.0501C58.313 25.0501 58.216 25.3096 58.2201 25.5833C58.2201 25.5833 60.8804 26.2271 62.4212 25.6773C62.4212 25.6773 62.6202 25.3184 62.476 24.9697Z" fill="#ED7D2B"/>
<path d="M61.1793 25.556C61.1793 25.3159 61.359 25.1206 61.5804 25.1206C61.8017 25.1206 61.9815 25.3159 61.9815 25.556C61.9815 25.796 61.8017 25.9913 61.5804 25.9913C61.359 25.9913 61.1793 25.796 61.1793 25.556ZM61.3123 25.556C61.3123 25.7259 61.4327 25.8637 61.5804 25.8637C61.7281 25.8637 61.8485 25.7254 61.8485 25.556C61.8485 25.3865 61.7281 25.2482 61.5804 25.2482C61.4327 25.2482 61.3123 25.3865 61.3123 25.556Z" fill="white"/>
<path d="M55.4519 25.4664L58.1771 27.7427L61.4255 24.1647L58.7003 21.8884L55.4519 25.4664Z" fill="#8C9DF4"/>
<path d="M58.9273 25.4761C58.9273 25.4761 59.9259 25.5881 59.9228 25.8155C59.9198 26.0429 59.6741 26.5099 59.5507 26.5308C59.4273 26.5518 58.7379 25.8992 58.7379 25.8992L58.9273 25.4766V25.4761Z" fill="#FFB27D"/>
<path d="M58.5932 19.2107C58.5932 19.2107 57.2601 19.3003 56.7488 20.4919C56.2376 21.6835 55.2684 23.684 55.2684 24.0209C55.2684 24.3579 55.8101 25.3951 58.7186 25.9917C58.7186 25.9917 59.0197 25.6883 59.0014 25.4482C59.0014 25.4482 57.1854 23.9523 57.1905 23.7774C57.1997 23.4468 57.488 23.01 59.0821 21.4804C59.5157 21.0646 58.5932 19.2112 58.5932 19.2112V19.2107Z" fill="#F77D48"/>
<path d="M66.447 26.3886L70.442 15.1256C70.4603 15.0745 70.4846 15.0253 70.4318 15.0068L70.3831 14.9897C70.3288 14.9707 70.3125 15.0043 70.2927 15.0569L66.0343 26.1583C65.9942 26.2644 66.046 26.3823 66.1536 26.4281L66.2521 26.4699C66.3292 26.503 66.4191 26.4655 66.4465 26.3891L66.447 26.3886Z" fill="#F9DDBF"/>
<path d="M66.9898 22.92C66.9898 22.92 67.171 22.9141 67.3635 22.8659C67.5147 22.8279 67.7087 22.7607 67.7087 22.7607C67.8229 22.8401 67.4264 23.0578 67.3254 23.2063C67.2426 23.3276 67.1492 23.3626 66.9213 23.4094L66.9898 22.92Z" fill="#FFB27D"/>
<path d="M60.6041 44.9791C61.1595 44.9128 61.0128 45.0492 61.7916 45.0536C62.5699 45.0579 62.8364 44.8091 62.873 44.7025C62.906 44.6075 62.5303 44.5306 62.1282 44.44L62.114 44.4497C62.114 44.4497 61.6246 44.7088 60.9829 44.6518C60.46 44.6056 59.9249 44.4005 59.5644 44.3655C59.5421 44.4789 59.5202 44.5948 59.5304 44.7122C59.5588 45.0453 60.0487 45.0448 60.6041 44.9791Z" fill="#233862"/>
<path d="M56.5945 45.0117H55.7345C55.4847 45.0117 55.1994 44.8281 55.1303 44.3947C55.0608 43.9618 54.547 43.7256 54.4358 43.3711C54.3596 43.1276 54.5399 42.9537 54.711 42.8203C54.8054 42.9562 55.0095 43.2956 55.2095 43.9204C55.4436 44.6508 56.0035 44.6718 56.4533 44.6109C56.5132 44.6606 56.5823 44.7034 56.6615 44.7375C57.058 44.9094 56.595 45.0112 56.595 45.0112L56.5945 45.0117Z" fill="#233862"/>
<path d="M58.8029 19.149C59.073 19.0915 59.2969 18.9094 59.3898 18.6596C59.502 18.3586 59.5909 17.914 59.5888 17.3569L59.6731 17.373L61.0916 17.6423C61.0916 17.6423 61.0591 18.0703 61.0581 18.474C61.0581 18.4774 61.0581 18.4808 61.0581 18.4843C61.0565 18.8344 61.2962 19.1436 61.647 19.241C61.8262 19.2907 60.7926 20.5957 60.6743 20.5699C60.4285 20.5164 58.7166 19.168 58.8024 19.1495L58.8029 19.149Z" fill="#FFB27D"/>
<path d="M61.0921 17.6419C61.0921 17.6419 61.0596 18.0699 61.0586 18.4736C60.2645 18.4522 59.8452 17.7577 59.6731 17.3726L61.0916 17.6419H61.0921Z" fill="#E8945B"/>
<path d="M61.3571 18.0235C61.3571 18.0235 59.4792 18.0532 59.4777 16.9313C59.4767 15.8093 59.233 15.0574 60.4321 14.9907C61.6313 14.9245 61.8648 15.3521 61.9602 15.7265C62.0557 16.101 61.8455 17.987 61.3571 18.0235Z" fill="#FFB27D"/>
<path d="M61.2875 14.9635C61.2875 14.9635 60.7732 16.2797 59.9843 16.4745C59.1953 16.6693 58.8527 16.4662 58.8527 16.4662C58.8527 16.4662 59.4578 16.0051 59.5837 15.2001C59.5837 15.2001 60.8996 14.3367 61.2875 14.9635Z" fill="#233862"/>
<path d="M61.16 15.0701C61.16 15.0701 61.5413 15.2069 61.6982 15.4738C61.8515 15.7348 61.9825 16.0801 61.952 16.5042C61.952 16.5042 62.3394 15.6092 61.9038 15.1032C61.4423 14.5666 61.1595 15.0706 61.1595 15.0706L61.16 15.0701Z" fill="#233862"/>
<path d="M60.99 17.358C60.99 17.358 61.0225 17.4899 61.3652 17.47C61.3652 17.47 61.653 17.4529 61.6444 17.3073C61.6444 17.3073 61.3652 17.2041 60.99 17.358Z" fill="white"/>
<path d="M60.6747 20.5695C60.6747 20.5695 59.4045 19.2678 59.3568 18.7361C59.3568 18.7361 59.0329 18.8223 58.6521 19.1778C58.6521 19.1778 58.9572 19.9111 59.3217 20.1532C59.3217 20.1532 59.5872 20.1171 59.7959 20.0348C59.7959 20.0348 59.6634 20.2457 59.5583 20.3718C59.5583 20.3718 60.134 20.6849 60.6747 20.569V20.5695Z" fill="#FF9773"/>
<path d="M61.1199 18.7857C61.1199 18.7857 61.621 19.6642 60.6747 20.5694C60.6747 20.5694 61.2687 20.4604 61.5738 20.0591C61.5738 20.0591 61.4794 19.8434 61.3986 19.7937C61.3986 19.7937 61.5768 19.7255 61.689 19.8254C61.689 19.8254 61.7571 19.3545 61.689 19.2108C61.621 19.0672 61.2671 18.7813 61.1199 18.7857Z" fill="#FF9773"/>
<path d="M60.5803 20.5693C60.5803 20.5192 60.623 20.4788 60.6748 20.4788C60.7265 20.4788 60.7692 20.5197 60.7692 20.5693C60.7692 20.619 60.727 20.6599 60.6748 20.6599C60.6225 20.6599 60.5803 20.619 60.5803 20.5693Z" fill="#233862"/>
<path d="M61.085 21.856C61.085 21.8058 61.1271 21.7654 61.1794 21.7654C61.2317 21.7654 61.2738 21.8058 61.2738 21.856C61.2738 21.9061 61.2317 21.9465 61.1794 21.9465C61.1271 21.9465 61.085 21.9061 61.085 21.856Z" fill="#233862"/>
<path d="M61.1793 23.3645C61.1793 23.3143 61.2215 23.2739 61.2738 23.2739C61.326 23.2739 61.3682 23.3143 61.3682 23.3645C61.3682 23.4147 61.326 23.4551 61.2738 23.4551C61.2215 23.4551 61.1793 23.4147 61.1793 23.3645Z" fill="#233862"/>
<path d="M62.7938 29.4824C62.5867 31.9012 62.3435 33.9386 62.3435 33.9386C62.3435 33.9386 61.1677 34.6988 59.504 34.7952C59.5335 34.7845 60.4798 34.4349 61.1799 33.6484C61.8912 32.8498 62.7938 29.4824 62.7938 29.4824Z" fill="#233862"/>
<path d="M40.4654 46.1786C40.2237 45.434 39.1723 45.2942 38.7489 45.9604C38.6728 46.0802 38.6245 46.218 38.6205 46.3758C38.5971 47.2489 40.3923 50.6284 40.6309 50.9274C41.065 51.4719 43.6831 52.7803 43.6831 52.7803L44.2395 52.7024C44.2395 52.7024 43.9247 52.513 43.5993 52.2008C42.9266 51.5566 41.9458 50.5091 41.7661 50.364C41.4579 50.1152 40.9243 47.5922 40.4654 46.1786Z" fill="#ED985F"/>
<path d="M41.2254 41.9064C41.2401 41.8504 39.9552 42.4634 39.8902 42.5326C39.2876 43.1734 39.4597 44.0105 39.8044 44.0183C40.0258 44.0237 39.9826 44.3762 39.9826 44.3762L42.4459 43.3765C42.4459 43.3765 42.1494 41.7174 41.2254 41.9064Z" fill="#233862"/>
<path d="M41.5285 42.0358C41.5285 42.0358 41.6163 41.1155 40.5441 41.1155C40.5441 41.1155 40.869 41.2002 41.0371 41.3692C41.0371 41.3692 40.3532 40.984 39.6089 41.5757C38.8647 42.1673 39.3272 43.6516 39.1008 43.9331C38.8743 44.215 37.993 44.271 38.1006 45.1821C38.2083 46.0932 40.8974 47.2342 40.7248 47.988C40.7248 47.988 41.7788 46.5018 41.0249 45.8239C41.0249 45.8239 41.3924 46.1556 41.4295 46.5505C41.4295 46.5505 41.529 45.7801 41.0183 45.5337C40.5659 45.3155 40.1958 44.5184 40.2349 44.3757C40.274 44.233 41.5275 42.0354 41.5275 42.0354L41.5285 42.0358Z" fill="#233862"/>
<path d="M38.5169 61.939L37.9838 61.864C37.9838 61.864 36.1917 60.4976 35.9247 57.9483C35.8973 57.6888 35.8917 57.4253 35.912 57.1599C35.9145 57.1292 35.911 57.0986 35.8932 57.0727C35.8932 57.0727 35.8932 57.0727 35.8927 57.0718C35.8353 56.9875 35.6927 56.7762 35.4992 56.4757C35.3088 56.1797 34.9824 55.6196 34.624 54.9915C33.9777 53.8602 33.2253 52.5075 32.9674 52.0765C32.145 50.7033 32.5415 49.7795 32.5415 49.7795C32.5415 49.7795 34.8357 49.5618 35.4642 49.0344L35.6906 49.369C35.6906 49.369 36.1876 51.4795 36.1643 51.4897C36.1887 51.5613 36.2135 51.6343 36.2389 51.7088C36.6314 52.8702 37.0822 54.3219 37.3284 55.5037C37.4665 56.1689 37.5396 56.7484 37.5005 57.1434C37.4868 57.2787 37.5036 57.4872 37.5411 57.7438C37.7635 59.2587 38.5174 61.938 38.5174 61.938L38.5169 61.939Z" fill="#2B478B"/>
<path d="M39.6354 62.5857H37.4112C37.4112 62.5857 37.3579 62.2604 37.4742 62.014C37.5854 61.7773 37.7443 61.77 37.4945 61.3989C37.6356 61.5387 38.09 61.5961 38.4119 61.5548C38.4515 61.6161 38.6657 62.0271 38.7972 62.1177C38.9424 62.218 39.5907 62.182 39.6354 62.5861V62.5857Z" fill="#233862"/>
<path d="M36.2384 51.7093C36.044 52.7373 35.585 54.4475 34.624 54.992C33.9777 53.8607 33.2253 52.5079 32.9674 52.077C32.145 50.7037 32.5415 49.78 32.5415 49.78C32.5415 49.78 34.8357 49.5623 35.4642 49.0349L35.6906 49.3695C35.6906 49.3695 36.1876 51.48 36.1643 51.4902C36.1887 51.5618 36.2135 51.6348 36.2389 51.7093H36.2384Z" fill="#233862"/>
<path d="M34.6784 49.9387L34.686 49.5399C33.8575 49.6402 31.8282 48.5898 31.8282 48.5898C31.8282 48.5898 30.9611 49.143 30.8423 50.7227C30.7844 51.4936 30.4179 54.7543 30.3773 55.7283C30.3626 56.0813 30.3575 56.3331 30.356 56.4334C30.356 56.4339 30.356 56.4344 30.356 56.4344C30.356 56.465 30.3402 56.4923 30.3209 56.5167C30.1493 56.7256 30.0006 56.9471 29.8716 57.177C28.607 59.4336 29.2685 62.5005 29.2685 62.5005L29.5619 62.4289C29.5619 62.4289 30.6311 59.25 31.3302 57.8748C31.449 57.6415 31.5566 57.4604 31.6465 57.3552C31.9095 57.0489 32.1862 56.5293 32.4593 55.9036C32.9756 54.7207 33.4767 53.16 33.8341 51.9514C33.8595 51.9557 34.6774 49.9392 34.6774 49.9392L34.6784 49.9387Z" fill="#2B478B"/>
<path d="M39.5283 47.2757C38.1733 46.9776 39.0389 45.1515 39.1175 45.1837C39.3054 45.1471 39.7176 44.8306 40.0862 44.2131L40.136 44.2545L40.968 44.9543C40.968 44.9543 40.8584 45.2255 40.6137 45.4929C40.4477 45.6745 40.0354 45.8484 40.0527 45.919C40.1197 45.9696 39.8892 47.355 39.5278 47.2757H39.5283Z" fill="#FFB27D"/>
<path d="M40.3837 45.9194C40.3837 45.9194 40.6218 46.3704 40.7492 46.7609C40.8761 47.1515 41.1945 48.3937 41.1945 48.3937C41.1945 48.3937 40.5385 49.1115 39.6262 49.0696C39.6262 49.0696 39.1358 48.3333 39.3084 47.6681C39.4815 47.0029 40.3837 45.9194 40.3837 45.9194Z" fill="#9DB0F4"/>
<path d="M40.9686 44.9547C40.9686 44.9547 40.9026 45.1928 40.6142 45.4932C40.1872 44.9508 40.0964 44.5729 40.136 44.2549L40.9681 44.9547H40.9686Z" fill="#ED985F"/>
<path d="M40.9913 45.3053C40.9913 45.3053 39.7353 44.6348 40.1826 43.8912C40.6299 43.1471 40.769 42.5598 41.5899 42.9562C42.4108 43.3531 42.3946 43.7222 42.3083 44.0051C42.222 44.2881 41.3295 45.4607 40.9913 45.3053Z" fill="#FFB27D"/>
<path d="M42.5206 43.5712C42.4632 43.241 42.288 43.2094 42.1662 43.2313C41.7022 42.4955 40.9442 42.7828 40.9442 42.7828C40.5396 43.2702 39.9542 43.353 39.9542 43.353C39.9542 43.353 40.0999 43.6131 40.7005 43.7742C40.8838 43.8234 41.0919 43.7937 41.293 43.729C40.8762 43.952 40.4406 44.0372 40.4406 44.0372C41.2321 44.1068 41.985 43.4124 42.0631 43.3384C42.0997 43.446 42.1637 43.671 42.1251 43.8356C42.0728 44.0591 41.8662 44.4643 41.9926 44.5169C41.9926 44.5169 42.6069 44.0664 42.5206 43.5712Z" fill="#233862"/>
<path d="M31.0377 62.5859H28.8136C28.8136 62.5859 28.7603 62.2606 28.8765 62.0142C28.9877 61.7775 29.1624 61.6699 29.1202 61.3835C29.2614 61.5233 29.4919 61.6796 29.8132 61.6377C29.8528 61.6991 30.0676 62.0268 30.1991 62.1174C30.3443 62.2177 30.9926 62.1817 31.0372 62.5859H31.0377Z" fill="#233862"/>
<path d="M39.6877 48.7232C39.4014 48.8192 38.9998 48.8717 38.5891 48.9141C38.0042 48.9755 37.4001 49.0173 37.0843 49.1381C37.0224 49.1615 36.8427 49.2336 36.6624 49.3592C36.6624 49.3592 36.6579 49.3621 36.6502 49.3684C36.5903 49.4103 36.5309 49.4585 36.4761 49.5131C36.3923 49.5959 36.3192 49.6928 36.272 49.8033C36.1558 50.078 36.3096 50.8401 36.4081 51.2569C36.4477 51.4244 36.3654 51.5978 36.206 51.6767C35.9836 51.7867 35.7653 51.889 35.5506 51.982C35.5394 51.9869 35.5283 51.9917 35.5166 51.9966C35.5186 51.9542 35.5191 51.9124 35.5191 51.871C35.5191 51.5837 35.4816 51.3445 35.4816 51.3445C35.4288 51.6348 35.2297 51.9479 35.0439 52.189C32.0593 53.3377 29.9742 52.8381 30.0082 52.2659C30.126 50.2791 31.5226 48.5893 31.5226 48.5893C34.1281 45.6836 39.3978 44.9186 39.3978 44.9186C39.3978 44.9186 39.6501 44.8893 39.9547 45.2404C40.3929 45.7459 40.4147 45.8779 40.4147 45.8779C40.4147 45.8779 40.5305 48.4413 39.6882 48.7232H39.6877Z" fill="#AEC3FF"/>
<path d="M38.589 48.9147C38.0042 48.976 37.4005 49.0179 37.0842 49.1387C36.9548 47.2863 37.8666 45.8926 37.8666 45.8926C37.8666 45.8926 38.4611 48.2135 38.5895 48.9147H38.589Z" fill="#9DB0F4"/>
<path d="M36.4076 51.257C36.4472 51.4245 36.3649 51.5979 36.2055 51.6768C35.9831 51.7868 35.7648 51.8891 35.5501 51.9821C35.5389 51.947 35.5283 51.91 35.5191 51.8711C35.4851 51.726 35.4699 51.5526 35.4815 51.3447C35.5313 50.4652 36.1558 49.799 36.4761 49.5132C36.3923 49.596 36.3192 49.6929 36.272 49.8034C36.1558 50.0781 36.3096 50.8402 36.4081 51.257H36.4076Z" fill="#9DB0F4"/>
<path d="M39.3972 44.9187C39.3972 44.9187 39.6267 44.6406 39.782 44.6494C39.782 44.6494 40.409 45.4913 40.4141 45.878C40.4141 45.878 39.6318 44.8797 39.3972 44.9187Z" fill="#9DB0F4"/>
<path d="M45.4143 53.0681C45.4143 53.0681 45.0807 53.0739 45.0086 53.0637C44.9381 53.0539 44.8436 53.0247 44.7487 53.0213C44.6553 53.0179 44.5695 53.0471 44.4817 53.0642C44.4685 53.0666 44.4553 53.0681 44.4421 53.0681H43.8892C43.8892 53.0681 43.8339 53.0427 43.7729 52.9487C43.7465 52.9083 43.743 52.8114 43.6836 52.7798C43.3485 52.6006 44.24 52.7019 44.24 52.7019C44.24 52.7019 44.7995 52.6921 44.8513 52.7291C44.9432 52.7954 45.4351 53.0422 45.4143 53.0676V53.0681Z" fill="#ED985F"/>
<path d="M43.8893 53.0685C43.8893 53.0685 44.2289 53.1625 44.3213 53.2229L44.4188 53.2818C44.4188 53.2818 44.4751 53.2214 44.3863 53.1542C44.3396 53.1186 44.2101 53.0154 44.2061 52.8966C44.202 52.7778 43.8187 52.8815 43.8898 53.068L43.8893 53.0685Z" fill="#ED985F"/>
<path d="M49.229 62.2435C48.4294 62.2435 47.7811 61.6217 47.7811 60.8547V52.085H50.6764V60.8547C50.6764 61.6217 50.0281 62.2435 49.2285 62.2435H49.229Z" fill="white"/>
<path d="M49.2291 61.8406C48.6351 61.8406 48.1533 61.3785 48.1533 60.8087V57.6897H50.3044V60.8087C50.3044 61.3785 49.8226 61.8406 49.2286 61.8406H49.2291Z" fill="#F77D48"/>
<path d="M42.6809 55.6427C41.9443 55.3446 41.599 54.53 41.9102 53.8234L45.465 45.7437L48.1324 46.8233L44.5776 54.903C44.2669 55.6096 43.4176 55.9407 42.6809 55.6422V55.6427Z" fill="white"/>
<path d="M42.9465 55.313L42.7424 55.2302C42.2515 55.0315 42.0215 54.4886 42.2286 54.0177L44.7934 48.1887L47.1049 48.2423L44.2106 54.8202C44.0035 55.2911 43.4374 55.5117 42.9465 55.313Z" fill="#8C9DF4"/>
<path d="M42.4089 54.023C42.4089 54.023 42.6516 54.23 42.8364 54.2733C43.0206 54.3171 43.2308 54.8241 43.2643 54.8961C43.2978 54.9687 43.0882 54.864 43.0044 54.7403C42.9206 54.6171 42.8633 54.5689 42.8389 54.5957C42.8145 54.6225 42.8536 54.9604 42.9932 55.1484C43.1328 55.3363 43.2171 55.5024 43.1161 55.4917C43.0156 55.481 42.417 55.3417 42.2942 54.9926C42.1713 54.6439 42.2612 54.6317 41.9784 54.2728C41.6956 53.9139 42.4094 54.0225 42.4094 54.0225L42.4089 54.023Z" fill="#FFB27D"/>
<path d="M39.2033 45.5342C39.2033 45.5342 37.7376 45.673 37.6203 46.5865C37.503 47.5001 39.0256 51.221 39.2434 51.5574C39.6404 52.171 41.9783 54.2732 41.9783 54.2732L42.4093 54.0229C42.4093 54.0229 40.7512 51.3305 40.4943 51.0783C40.0912 50.6829 39.6998 45.8502 39.2038 45.5342H39.2033Z" fill="#FFB27D"/>
<path d="M39.9542 47.2789C39.9542 47.2789 40.1045 44.9234 38.2255 45.4932C36.3461 46.0629 38.5174 50.114 38.5174 50.114C38.5174 50.114 39.6206 50.0619 40.0116 49.1386L39.9547 47.2794L39.9542 47.2789Z" fill="#AEC3FF"/>
<path d="M51.9513 60.9062H42.9983V61.2963H51.9513V60.9062Z" fill="#2B478B"/>
<path d="M43.6136 61.2231H42.9983V62.5745H43.6136V61.2231Z" fill="#2B478B"/>
<path d="M51.9512 60.9062H51.2501V62.5746H51.9512V60.9062Z" fill="#2B478B"/>
<path d="M50.7587 51.9265H47.6146V52.2737H50.7587V51.9265Z" fill="white"/>
<path d="M48.3171 46.7121L45.4204 45.5396L45.2797 45.8594L48.1764 47.032L48.3171 46.7121Z" fill="white"/>
<path d="M60.4803 49.0758L57.6616 61.8138L57.2433 61.7286C57.2387 61.7276 57.2778 60.4562 57.2778 60.4562L59.8254 48.9429L60.4803 49.0763V49.0758Z" fill="#2B478B"/>
<path d="M57.3346 61.7471L57.2981 62.5983L57.5799 61.7967L57.3346 61.7471Z" fill="#0B0755"/>
<path d="M60.9717 49.1755L58.1531 61.9136L58.5714 61.9988C58.576 61.9998 59.0791 60.8223 59.0791 60.8223L61.6266 49.309L60.9717 49.1755Z" fill="#2B478B"/>
<path d="M60.6089 48.4782L61.1001 48.5781L61.4591 46.9552L60.968 46.8552L60.6089 48.4782Z" fill="#2B478B"/>
<path d="M59.8254 48.9424L59.9949 49.8526L59.6416 51.4488L60.7331 51.6709L61.0865 50.0746L61.6266 49.3086C61.7322 48.8319 61.4144 48.3634 60.9179 48.2621H60.9169C60.4199 48.1608 59.9315 48.4652 59.8259 48.9419L59.8254 48.9424Z" fill="#F77D48"/>
<path d="M60.9773 49.1503C61.0063 49.0203 60.9195 48.8922 60.7839 48.865C60.6484 48.8372 60.5148 48.9205 60.4859 49.0505C60.457 49.1805 60.5438 49.3086 60.6793 49.3359C60.8149 49.3636 60.9484 49.2803 60.9773 49.1503Z" fill="#2B478B"/>
<path d="M58.4805 61.9803L58.1531 62.7721L58.2348 61.9302L58.4805 61.9803Z" fill="#0B0755"/>
<path d="M58.9522 60.6645C59.0015 60.4429 58.8537 60.2248 58.6227 60.178C58.3917 60.1308 58.1648 60.2725 58.1155 60.4941C58.0663 60.7156 58.214 60.9333 58.445 60.9805C58.676 61.0278 58.9035 60.8861 58.9522 60.6645Z" fill="#F77D48"/>
<path d="M86.835 40.6392C86.8183 41.0464 86.6817 40.7298 86.3807 41.2445C86.3685 41.2684 86.7041 41.6 86.6873 41.6239C86.6208 41.8547 86.4939 42.1055 86.3466 42.3563C86.104 42.7702 85.8085 43.1807 85.6491 43.4885C85.4095 43.4203 85.1993 43.3395 85.0165 43.2508C84.4134 42.9606 84.1001 42.592 83.9615 42.3563C84.3235 41.6512 84.7571 40.8764 85.181 39.9906C85.2262 39.8918 85.2719 39.7963 85.3171 39.7057C85.3211 39.6979 85.3252 39.6858 85.3333 39.678C85.3582 39.6346 85.3785 39.5947 85.3993 39.5592C85.3993 39.5553 85.4034 39.5514 85.4074 39.5475C85.5024 39.3736 85.6014 39.2348 85.6917 39.1443C85.6917 39.1443 85.9105 38.9777 86.009 39.0177C86.009 39.0177 86.203 39.1126 86.401 39.3381C86.4258 39.358 86.4421 39.3819 86.4588 39.4053C86.5787 39.5514 86.6939 39.7457 86.764 39.9906C86.8178 40.1761 86.8467 40.3904 86.834 40.6392H86.835Z" fill="#8C9DF4"/>
<path d="M86.3808 61.6543L86.9255 61.8491C86.9255 61.8491 89.2923 58.7004 89.5837 55.9306C89.636 55.4358 89.6183 54.9566 89.5061 54.5145C89.5061 54.5145 89.5294 54.3879 89.5695 54.1638C89.5883 54.0591 89.6111 53.9335 89.6375 53.7894C89.7147 53.3667 89.8203 52.7877 89.9416 52.1288C90.2199 50.6129 90.5808 48.6748 90.8611 47.2499L90.7143 47.2046L89.1258 46.7133L88.7973 45.7131L87.6144 45.4146C87.6144 45.4146 87.3504 45.9103 87.1139 48.2526C87.0702 48.5599 87.0306 48.8988 87.0006 49.266C86.9088 50.3874 86.9022 51.7782 87.1133 53.3686C87.1677 53.7757 87.2362 54.196 87.321 54.6279C87.3834 54.9445 87.3926 55.3759 87.3662 55.8711C87.2469 58.1355 86.3802 61.6548 86.3802 61.6548L86.3808 61.6543Z" fill="#FFB27D"/>
<path d="M88.1307 46.0417L88.1901 45.5528C89.1862 45.8065 91.848 44.8438 91.848 44.8438C91.848 44.8438 92.8131 45.6575 92.6862 47.6078C92.6242 48.5598 92.5115 52.6055 92.3932 53.8024C92.3506 54.2363 92.313 54.5451 92.2978 54.6683C92.2978 54.6687 92.2978 54.6692 92.2978 54.6692C92.2932 54.7067 92.3069 54.7423 92.3267 54.7754C92.5004 55.0583 92.644 55.3524 92.7623 55.6539C93.9204 58.6141 92.5836 62.2596 92.5836 62.2596L92.2369 62.1256C92.2369 62.1256 91.4764 58.0687 90.8585 56.2762C90.7534 55.9724 90.6529 55.7333 90.561 55.5906C90.2925 55.1747 90.0432 54.4949 89.8168 53.6865C89.3888 52.1584 89.0446 50.1702 88.8156 48.6357C88.7841 48.6372 88.1307 46.0417 88.1307 46.0417Z" fill="#FFB27D"/>
<path d="M90.5681 62.5319H93.3127C93.3127 62.5319 93.3786 62.1306 93.235 61.8263C93.0974 61.5341 92.8826 61.4016 92.9339 61.0481C92.7598 61.2205 92.4755 61.4133 92.0785 61.3622C92.0297 61.4377 91.7647 61.8423 91.6023 61.9543C91.4231 62.078 90.6229 62.0337 90.5681 62.5324V62.5319Z" fill="#304B77"/>
<path d="M84.6754 62.5317H87.4199C87.4199 62.5317 87.5225 62.1119 87.3423 61.8261C87.1829 61.5734 87.2438 61.4292 87.3621 61.2203C87.2377 61.269 87.0768 61.3133 86.9001 61.3036C86.7635 61.2963 86.6188 61.2364 86.4919 61.1658C86.3736 61.2948 85.868 61.8446 85.7101 61.9537C85.5309 62.0774 84.7308 62.0331 84.6759 62.5317H84.6754Z" fill="#304B77"/>
<path d="M91.2286 43.5796C91.2286 43.5796 92.9278 45.3955 92.9623 48.1356C92.9969 50.8758 92.9623 54.1633 92.9623 54.1633C92.9623 54.1633 91.1418 54.9916 86.6874 54.4671L87.7875 44.5209L91.2286 43.5801V43.5796Z" fill="#2B478B"/>
<path d="M87.2738 33.4444C87.2763 33.3733 87.3337 32.6058 88.5526 32.5654C88.5526 32.5654 87.9536 32.6341 87.85 32.8868C87.85 32.8868 88.2582 32.5747 88.5902 32.675C88.9227 32.7753 89.1177 33.3339 89.1197 33.5174C89.1218 33.701 88.937 34.2932 88.7263 34.3433C88.6466 34.3623 88.5542 34.3575 88.4709 34.3433C88.5273 34.4276 88.5821 34.5201 88.6344 34.6238C89.1207 35.5812 88.6191 36.5171 88.2074 36.4139C87.9434 36.3477 87.8688 36.7796 87.8688 36.7796L85.3035 34.7875C85.3035 34.7875 86.2457 32.9175 87.2738 33.4434V33.4444Z" fill="#2C3A64"/>
<path d="M86.2279 40.1095C86.5406 40.2488 86.9184 40.3433 87.3753 40.3671C89.0882 40.4572 89.4771 39.0173 89.5476 38.0614C89.3009 37.9756 89.0846 37.9839 88.9598 37.9903C88.9136 37.9927 88.8663 37.9961 88.8196 38C88.6496 38.0136 88.4835 37.9445 88.379 37.8154C88.1835 37.5749 87.955 37.1473 87.8038 36.5537L87.7301 36.5868L86.4944 37.1439C86.4944 37.1439 86.6259 37.5296 86.7229 37.8987C86.7645 38.0584 86.8001 38.2148 86.8153 38.3365C86.83 38.4514 86.7625 38.5615 86.6513 38.6068C86.6513 38.6068 86.6513 38.6068 86.6513 38.6082C86.6386 38.6384 86.3701 39.2953 86.2289 40.1105L86.2279 40.1095Z" fill="#FFB27D"/>
<path d="M91.9125 44.4711C91.9079 44.6776 91.4241 44.8651 90.7778 44.9951C90.4173 45.0672 90.0061 45.1217 89.5994 45.1514C88.5871 45.2249 87.6017 45.1456 87.4855 44.8071C87.4855 44.8071 85.8969 42.5033 85.4634 41.6068C85.4481 41.5742 85.8121 41.2197 85.7994 41.187C85.4578 40.3173 86.1117 39.4418 85.6705 39.1671C85.6705 39.1671 85.9177 38.8813 86.6508 38.6056V38.6066C86.6392 38.6475 86.5681 39.2635 86.6894 39.4914C87.0407 40.1517 88.1267 39.7919 88.4328 39.3517C88.7176 38.9416 88.9633 38.3904 88.9608 38.1041C88.9603 38.033 88.9593 37.9891 88.9593 37.9891C88.9593 37.9891 89.7766 37.883 90.2361 38.0612C90.2361 38.0612 90.0548 38.4391 89.9883 38.8559C89.9822 38.8954 89.9767 38.9353 89.9721 38.9748C89.9635 39.059 89.9609 39.1432 89.966 39.2251C89.9721 39.3336 90.0305 39.4296 90.1234 39.5236C90.2082 39.6098 90.3224 39.6945 90.4529 39.7856C90.5382 39.8445 90.629 39.9063 90.7235 39.973C90.7311 40.4639 90.6955 41.2708 90.79 42.1327C90.795 42.1804 90.8027 42.2267 90.8133 42.2735C90.8489 42.441 90.9154 42.6002 91.0093 42.7453C91.0565 42.8193 91.1108 42.8895 91.1712 42.9542C91.3256 43.1203 91.4758 43.2693 91.6033 43.4164C91.8744 43.729 92.0404 44.0319 91.9125 44.4702V44.4711Z" fill="#8C9DF4"/>
<path d="M86.4939 37.1428C86.4939 37.1428 86.6254 37.528 86.7224 37.8976C87.4448 37.7043 87.6641 36.9758 87.7301 36.5857L86.4944 37.1428H86.4939Z" fill="#ED985F"/>
<path d="M86.3416 37.551C86.3416 37.551 88.0697 37.1672 87.8042 36.1388C87.5387 35.1103 87.5829 34.3677 86.468 34.5693C85.3531 34.7709 85.2409 35.214 85.2429 35.5783C85.2445 35.9425 85.8852 37.6245 86.3416 37.5514V37.551Z" fill="#FFB27D"/>
<path d="M85.1455 34.994C85.3313 34.621 85.5501 34.6409 85.6867 34.7071C86.499 33.9864 87.295 34.5752 87.295 34.5752C87.6017 35.2857 88.2662 35.5759 88.2662 35.5759C88.2662 35.5759 88.0007 35.8369 87.2311 35.8311C86.996 35.8291 86.7599 35.7259 86.5447 35.5832C86.9594 35.984 87.4458 36.2279 87.4458 36.2279C86.4827 36.0512 85.8365 34.9813 85.7705 34.8678C85.6887 34.9833 85.5329 35.2297 85.5197 35.4371C85.5019 35.7195 85.6029 36.2679 85.4344 36.2888C85.4344 36.2888 84.8668 35.5535 85.145 34.9945L85.1455 34.994Z" fill="#2C3A64"/>
<path d="M82.0806 36.5605L72.3331 62.4583L91.9023 50.869L82.0806 36.5605ZM78.5954 55.0384L83.0001 43.3357L86.8904 49.5917L78.5954 55.0384Z" fill="#F77D48"/>
<path d="M89.7344 50.3236L89.8212 50.272L90.5391 51.317L90.4517 51.3686L89.7344 50.3236Z" fill="#060633"/>
<path d="M89.5192 51.056L89.6065 51.0049L90.0284 51.6194L89.9416 51.6711L89.5192 51.056Z" fill="#060633"/>
<path d="M89.0902 51.3102L89.177 51.259L89.5994 51.8736L89.5121 51.9252L89.0902 51.3102Z" fill="#060633"/>
<path d="M88.683 51.5519L88.7698 51.5002L89.1917 52.1153L89.1049 52.1664L88.683 51.5519Z" fill="#060633"/>
<path d="M88.3063 51.7748L88.3931 51.7231L88.815 52.3382L88.7282 52.3893L88.3063 51.7748Z" fill="#060633"/>
<path d="M87.8865 52.0235L87.9733 51.9719L88.3952 52.5865L88.3084 52.6381L87.8865 52.0235Z" fill="#060633"/>
<path d="M87.1707 51.8419L87.2575 51.7903L87.9753 52.8353L87.888 52.8869L87.1707 51.8419Z" fill="#060633"/>
<path d="M86.9553 52.5743L87.0421 52.5232L87.4645 53.1377L87.3777 53.1894L86.9553 52.5743Z" fill="#060633"/>
<path d="M86.5264 52.8285L86.6132 52.7769L87.0356 53.3919L86.9483 53.4435L86.5264 52.8285Z" fill="#060633"/>
<path d="M86.1193 53.0702L86.2061 53.0186L86.628 53.6331L86.5412 53.6847L86.1193 53.0702Z" fill="#060633"/>
<path d="M85.7426 53.2931L85.8294 53.2415L86.2513 53.856L86.1644 53.9076L85.7426 53.2931Z" fill="#060633"/>
<path d="M85.3221 53.5414L85.4095 53.4902L85.8314 54.1048L85.7445 54.1564L85.3221 53.5414Z" fill="#060633"/>
<path d="M84.4458 53.4557L84.5326 53.4041L85.25 54.4491L85.1632 54.5007L84.4458 53.4557Z" fill="#060633"/>
<path d="M84.2306 54.1881L84.3174 54.137L84.7393 54.7515L84.6525 54.8031L84.2306 54.1881Z" fill="#060633"/>
<path d="M83.8016 54.4422L83.8884 54.3906L84.3103 55.0057L84.2235 55.0573L83.8016 54.4422Z" fill="#060633"/>
<path d="M83.3939 54.6839L83.4807 54.6323L83.9031 55.2469L83.8163 55.2985L83.3939 54.6839Z" fill="#060633"/>
<path d="M83.0172 54.9068L83.1045 54.8552L83.5264 55.4698L83.4396 55.5214L83.0172 54.9068Z" fill="#060633"/>
<path d="M82.5974 55.1551L82.6842 55.104L83.1061 55.7186L83.0193 55.7702L82.5974 55.1551Z" fill="#060633"/>
<path d="M81.8821 54.9735L81.9689 54.9224L82.6862 55.9674L82.5994 56.019L81.8821 54.9735Z" fill="#060633"/>
<path d="M81.6667 55.7064L81.7536 55.6548L82.1754 56.2698L82.0886 56.3214L81.6667 55.7064Z" fill="#060633"/>
<path d="M81.2378 55.9606L81.3246 55.9089L81.7465 56.524L81.6597 56.5751L81.2378 55.9606Z" fill="#060633"/>
<path d="M80.8301 56.2018L80.9174 56.1506L81.3393 56.7652L81.2525 56.8168L80.8301 56.2018Z" fill="#060633"/>
<path d="M80.4534 56.4247L80.5407 56.3735L80.9626 56.9881L80.8758 57.0397L80.4534 56.4247Z" fill="#060633"/>
<path d="M80.0336 56.6734L80.1204 56.6223L80.5428 57.2369L80.4555 57.2885L80.0336 56.6734Z" fill="#060633"/>
<path d="M79.204 56.5597L79.2908 56.5081L80.0081 57.5536L79.9213 57.6047L79.204 56.5597Z" fill="#060633"/>
<path d="M78.9888 57.2926L79.0756 57.241L79.498 57.856L79.4112 57.9071L78.9888 57.2926Z" fill="#060633"/>
<path d="M78.5598 57.5467L78.6466 57.4951L79.069 58.1102L78.9817 58.1613L78.5598 57.5467Z" fill="#060633"/>
<path d="M78.1527 57.7879L78.2395 57.7363L78.6614 58.3514L78.5746 58.403L78.1527 57.7879Z" fill="#060633"/>
<path d="M77.776 58.0108L77.8628 57.9592L78.2847 58.5743L78.1979 58.6259L77.776 58.0108Z" fill="#060633"/>
<path d="M77.3556 58.2596L77.4429 58.208L77.8648 58.823L77.778 58.8742L77.3556 58.2596Z" fill="#060633"/>
<path d="M76.6403 58.078L76.7271 58.0264L77.4444 59.0719L77.3576 59.123L76.6403 58.078Z" fill="#060633"/>
<path d="M76.4249 58.8109L76.5117 58.7593L76.9341 59.3743L76.8468 59.4254L76.4249 58.8109Z" fill="#060633"/>
<path d="M75.996 59.0646L76.0828 59.0134L76.5047 59.628L76.4179 59.6796L75.996 59.0646Z" fill="#060633"/>
<path d="M75.5889 59.3063L75.6757 59.2546L76.0976 59.8697L76.0107 59.9213L75.5889 59.3063Z" fill="#060633"/>
<path d="M75.2122 59.5292L75.299 59.4775L75.7209 60.0926L75.634 60.1442L75.2122 59.5292Z" fill="#060633"/>
<path d="M74.7917 59.7779L74.8791 59.7263L75.301 60.3414L75.2141 60.3925L74.7917 59.7779Z" fill="#060633"/>
<path d="M73.9155 59.6918L74.0023 59.6401L74.7197 60.6856L74.6329 60.7368L73.9155 59.6918Z" fill="#060633"/>
<path d="M81.0739 39.0115C81.0739 39.0115 80.7348 39.0913 80.649 39.4488C80.5627 39.8062 80.8226 40.1305 81.0628 40.0609C81.279 39.9981 81.4466 39.1186 81.0744 39.0115H81.0739Z" fill="#FFB27D"/>
<path d="M91.6932 43.2456L91.6033 43.4175L90.7778 44.9952C90.4174 45.0673 90.0061 45.1219 89.5995 45.1516C90.6565 44.2414 90.2432 41.792 90.2432 41.792H90.3768L90.8134 42.2741L91.6932 43.2451V43.2456Z" fill="#6980E2"/>
<path d="M92.248 42.8001C92.5471 43.9064 91.0068 47.0021 91.0068 47.0021L90.4082 46.372C90.4082 46.372 90.6138 44.8604 90.7768 44.3661C90.8717 44.0822 90.8164 43.6099 90.8011 43.4838C90.7783 43.2885 92.2074 42.6476 92.248 42.8001Z" fill="#FFB27D"/>
<path d="M90.493 45.9194C90.493 45.9194 90.2716 47.2635 90.0797 47.3759C89.8883 47.4884 89.4984 47.8819 89.4106 48.1025C89.4106 48.1025 89.4025 48.196 89.4928 48.2062C89.5832 48.216 89.8111 47.9593 89.9533 48.0295C89.9635 48.0796 90.065 48.3674 90.0335 48.5685C90.0102 48.7195 89.9193 48.9123 89.9269 49.037C89.935 49.1616 90.6717 49.055 90.8336 48.6781C90.9641 48.3742 90.7615 47.9959 90.861 47.6155C90.9484 47.2824 91.2286 46.0183 91.2286 46.0183L90.493 45.9194Z" fill="#FFB27D"/>
<path d="M90.2366 38.0618C90.2366 38.0618 90.8804 38.2074 91.3622 39.0036C91.844 39.7997 92.6527 42.6719 92.3775 43.9594C92.3775 43.9594 91.8973 44.405 90.6834 44.0583C90.6834 44.0583 90.3468 42.1435 90.1747 41.3678C90.0026 40.592 89.2802 38.8755 89.2802 38.8755L90.2371 38.0623L90.2366 38.0618Z" fill="#8C9DF4"/>
<path d="M89.6771 47.6267L89.9533 48.0289L89.7025 48.3206L89.1801 48.3518L89.1309 47.8702L89.6771 47.6267Z" fill="#F77D48"/>
<path d="M128.039 62.5146H0.310261C0.231473 62.5146 0.167603 62.5759 0.167603 62.6515V62.6924C0.167603 62.768 0.231473 62.8292 0.310261 62.8292H128.039C128.118 62.8292 128.181 62.768 128.181 62.6924V62.6515C128.181 62.5759 128.118 62.5146 128.039 62.5146Z" fill="#233862"/>
</g>
<defs>
<clipPath id="clip0_253_2826">
<rect width="128.182" height="62.7965" fill="white" transform="translate(0 0.0327148)"/>
</clipPath>
</defs>
</svg>
