<svg width="129" height="72" viewBox="0 0 129 72" fill="none" xmlns="http://www.w3.org/2000/svg">
<g clip-path="url(#clip0_253_3125)">
<path d="M82.2496 5.2937H34.0982C32.4455 5.2937 31.1057 6.56166 31.1057 8.12576V68.3212C31.1057 69.8853 32.4455 71.1533 34.0982 71.1533H82.2496C83.9023 71.1533 85.242 69.8853 85.242 68.3212V8.12576C85.242 6.56166 83.9023 5.2937 82.2496 5.2937Z" fill="#1D2238"/>
<path d="M81.8699 9.21509H34.4779V67.2318H81.8699V9.21509Z" fill="white"/>
<path d="M61.8471 4.25961C61.826 2.35629 60.1903 0.81958 58.1739 0.81958C56.1575 0.81958 54.5218 2.35629 54.5007 4.25961H51.0969V9.76764H65.2499V4.25961H61.8461H61.8471ZM58.1739 4.80995C57.4581 4.80995 56.8781 4.26097 56.8781 3.58358C56.8781 2.90619 57.4581 2.3572 58.1739 2.3572C58.8896 2.3572 59.4697 2.90619 59.4697 3.58358C59.4697 4.26097 58.8896 4.80995 58.1739 4.80995Z" fill="#F0C36A"/>
<path d="M79.934 15.2739H47.8556V17.1282H79.934V15.2739Z" fill="#F1F2F5"/>
<path d="M79.934 18.8955H47.8556V20.7498H79.934V18.8955Z" fill="#F1F2F5"/>
<path d="M63.489 22.5166H47.8556V24.3709H63.489V22.5166Z" fill="#F1F2F5"/>
<path d="M46.5195 24.5068H37.4976V15.1377H46.5195V24.5068ZM37.7852 24.2346H46.2318V15.4099H37.7852V24.2346Z" fill="#9EA9BD"/>
<path d="M40.8021 16.9322L42.9163 19.7157L48.7454 14.5271L49.7804 15.792L42.6143 22.2724L39.5245 18.0329L40.8021 16.9322Z" fill="#EDB248"/>
<path d="M79.934 27.2219H47.8556V29.0762H79.934V27.2219Z" fill="#F1F2F5"/>
<path d="M79.934 30.843H47.8556V32.6973H79.934V30.843Z" fill="#F1F2F5"/>
<path d="M63.489 34.4646H47.8556V36.3189H63.489V34.4646Z" fill="#F1F2F5"/>
<path d="M46.5195 36.4548H37.4976V27.0857H46.5195V36.4548ZM37.7852 36.1826H46.2318V27.3579H37.7852V36.1826Z" fill="#9EA9BD"/>
<path d="M40.8021 28.8802L42.9163 31.6637L48.7454 26.4751L49.7804 27.74L42.6143 34.2199L39.5245 29.9805L40.8021 28.8802Z" fill="#EDB248"/>
<path d="M79.934 39.1699H47.8556V41.0242H79.934V39.1699Z" fill="#F1F2F5"/>
<path d="M79.934 42.791H47.8556V44.6453H79.934V42.791Z" fill="#F1F2F5"/>
<path d="M63.489 46.4121H47.8556V48.2664H63.489V46.4121Z" fill="#F1F2F5"/>
<path d="M46.5195 48.4028H37.4976V39.0337H46.5195V48.4028ZM37.7852 48.1306H46.2318V39.3059H37.7852V48.1306Z" fill="#9EA9BD"/>
<path d="M40.8021 40.8282L42.9163 43.6117L48.7454 38.4226L49.7804 39.688L42.6143 46.1679L39.5245 41.9284L40.8021 40.8282Z" fill="#EDB248"/>
<path d="M79.934 51.1174H47.8556V52.9717H79.934V51.1174Z" fill="#F1F2F5"/>
<path d="M79.934 54.739H47.8556V56.5933H79.934V54.739Z" fill="#F1F2F5"/>
<path d="M63.489 58.3601H47.8556V60.2144H63.489V58.3601Z" fill="#F1F2F5"/>
<path d="M46.5195 60.3503H37.4976V50.9812H46.5195V60.3503ZM37.7852 60.0781H46.2318V51.2534H37.7852V60.0781Z" fill="#9EA9BD"/>
<path d="M40.8021 52.7762L42.9163 55.5592L48.7454 50.3706L49.7804 51.6355L42.6143 58.1159L39.5245 53.8764L40.8021 52.7762Z" fill="#EDB248"/>
<path d="M128.182 71.0398H0V71.2666H128.182V71.0398Z" fill="#1D2238"/>
<path d="M23.915 29.3841L23.4208 29.6971L20.786 25.9681C20.6949 25.8388 20.7313 25.6641 20.8679 25.5775C21.0046 25.4913 21.1891 25.5257 21.2807 25.655L23.9155 29.3841H23.915Z" fill="#1D2238"/>
<path d="M21.3047 30.3666C21.3047 30.3666 21.5084 28.7645 21.9317 28.6906C22.3551 28.6166 23.6087 28.6461 23.8594 28.6906C24.1102 28.735 24.7995 29.1502 24.941 29.5658L22.2611 32.0281L21.3052 30.367L21.3047 30.3666Z" fill="#EB9481"/>
<path d="M18.8337 16.9094C18.8337 16.9094 19.3668 17.531 19.5318 18.4094C19.5974 18.7587 19.4881 19.114 19.1621 19.29L17.3442 16.9094H18.8342H18.8337Z" fill="#1D2238"/>
<path d="M16.246 16.4888C14.687 16.4888 13.4103 17.6294 13.2953 19.0772L13.2713 19.0736L12.6313 22.853C12.4903 23.6851 13.0886 24.4677 13.9679 24.6011C14.8471 24.7345 15.5211 24.9709 15.815 23.3362L15.8606 23.068C15.9866 23.0834 16.1156 23.0925 16.246 23.0925C17.8808 23.0925 19.2063 21.8385 19.2063 20.2909V19.2904C19.2063 17.7433 17.8813 16.4888 16.246 16.4888Z" fill="#EB9481"/>
<path d="M18.0518 18.8142C18.0758 18.8877 18.0931 18.9608 18.1079 19.0343C18.1166 19.071 18.1214 19.1078 18.1276 19.1445C18.1338 19.1813 18.14 19.218 18.1439 19.2548C18.153 19.3283 18.1616 19.4013 18.1655 19.4748L18.1731 19.5851L18.1755 19.6953L18.0442 19.571C18.0935 19.5705 18.1429 19.5678 18.1923 19.5687C18.2177 19.5696 18.2369 19.5687 18.28 19.5724C18.3174 19.5769 18.3539 19.5864 18.3884 19.6C18.5293 19.6545 18.6147 19.7992 18.6056 19.9344C18.5998 20.002 18.573 20.0665 18.5308 20.1173C18.4881 20.1681 18.4286 20.2026 18.3668 20.2198C18.3356 20.2284 18.3035 20.2307 18.2728 20.2293C18.2398 20.2271 18.2177 20.2216 18.1923 20.2171C18.1429 20.2066 18.0935 20.1949 18.0442 20.1803H18.0423C18.0384 20.1785 18.036 20.1749 18.0375 20.1713C18.0384 20.1685 18.0413 20.1663 18.0442 20.1663L18.1923 20.1645C18.2168 20.1645 18.2422 20.1645 18.2652 20.1622C18.2887 20.159 18.3117 20.1531 18.3332 20.1449C18.421 20.1105 18.4814 20.0238 18.4799 19.9344C18.4804 19.845 18.4195 19.7593 18.3323 19.7262C18.3107 19.718 18.2877 19.7126 18.2647 19.7103C18.2422 19.7089 18.2168 19.7094 18.1923 19.7094H18.0442L18.0298 19.7089V19.6953C18.0322 19.4018 18.0312 19.1082 18.037 18.8147C18.037 18.811 18.0403 18.8079 18.0442 18.8079C18.0475 18.8079 18.0499 18.8101 18.0509 18.8129V18.8147L18.0518 18.8142Z" fill="#1D2238"/>
<path d="M18.6645 19.0297C18.7781 19.0297 18.8702 18.9425 18.8702 18.835C18.8702 18.7275 18.7781 18.6404 18.6645 18.6404C18.5509 18.6404 18.4589 18.7275 18.4589 18.835C18.4589 18.9425 18.5509 19.0297 18.6645 19.0297Z" fill="#1D2238"/>
<path d="M18.4934 20.8023C18.4934 20.8023 18.1525 20.3327 17.1597 20.345L18.4934 20.8023Z" fill="white"/>
<path d="M18.1463 18.0504C18.1276 18.123 18.2867 18.2215 18.502 18.2709C18.7168 18.3204 18.9061 18.3013 18.9248 18.2287C18.9435 18.1561 18.7844 18.0577 18.5691 18.0082C18.3543 17.9588 18.165 17.9778 18.1463 18.0504Z" fill="#1D2238"/>
<path d="M17.4732 19.12C17.5868 19.12 17.6789 19.0329 17.6789 18.9254C17.6789 18.8179 17.5868 18.7307 17.4732 18.7307C17.3597 18.7307 17.2676 18.8179 17.2676 18.9254C17.2676 19.0329 17.3597 19.12 17.4732 19.12Z" fill="#1D2238"/>
<path d="M16.9565 18.3245C16.9761 18.3966 17.1655 18.413 17.3798 18.3603C17.5941 18.3082 17.7513 18.207 17.7317 18.1349C17.712 18.0627 17.5227 18.0464 17.3084 18.099C17.0941 18.1512 16.9368 18.2524 16.9565 18.3245Z" fill="#1D2238"/>
<path d="M18.6933 20.9338C18.5428 20.9229 18.3999 20.8939 18.2594 20.859C18.1885 20.8431 18.1204 20.8204 18.0509 20.8009C17.9823 20.7791 17.9143 20.7555 17.8462 20.7328C17.7795 20.7065 17.7119 20.682 17.6453 20.6548C17.5796 20.6258 17.513 20.5994 17.4488 20.5668C17.3188 20.5046 17.1918 20.4366 17.0719 20.3499L17.0705 20.349C17.0681 20.3472 17.0676 20.3435 17.0695 20.3413C17.071 20.3395 17.0739 20.3386 17.0763 20.3395L17.8893 20.6262L18.6981 20.9234C18.701 20.9243 18.7029 20.9279 18.7014 20.9307C18.7005 20.9329 18.6981 20.9343 18.6957 20.9343H18.6938L18.6933 20.9338Z" fill="#1D2238"/>
<path d="M12.869 19.3563C12.869 19.3563 15.4473 17.2062 17.9435 17.2066C17.9435 17.2066 19.0337 17.1613 19.4364 18.0351C19.4364 18.0351 18.956 14.4662 14.7881 15.0678C10.6201 15.6695 12.2827 19.6975 12.2827 19.6975L12.8686 19.3563H12.869Z" fill="#F0C36A"/>
<path d="M15.8063 17.6462C15.8063 17.6462 15.2986 18.2297 14.2377 19.2905C13.9755 19.5527 13.521 19.9157 13.521 19.9157C13.521 19.9157 13.6303 19.3672 13.4347 18.9665C13.4347 18.9665 14.6198 18.0614 15.8063 17.6462Z" fill="#1D2238"/>
<path d="M17.4445 17.1545C17.4445 17.1545 17.771 17.714 18.6028 17.7525C18.6028 17.7525 17.2734 18.1659 16.7551 17.2911L17.4445 17.1545Z" fill="#1D2238"/>
<path d="M13.0828 20.2493L12.8868 21.345L12.2832 19.6976L13.2952 19.0769L13.0828 20.2493Z" fill="#1D2238"/>
<path d="M13.055 20.1834C13.3804 20.1834 13.6442 19.8744 13.6442 19.4933C13.6442 19.1122 13.3804 18.8032 13.055 18.8032C12.7296 18.8032 12.4658 19.1122 12.4658 19.4933C12.4658 19.8744 12.7296 20.1834 13.055 20.1834Z" fill="#EB9481"/>
<path d="M13.3921 19.3045C13.3379 19.2628 13.2857 19.2315 13.2329 19.2183C13.2075 19.2106 13.1826 19.207 13.1591 19.2079C13.1361 19.2088 13.1145 19.2097 13.0944 19.2174C13.0172 19.2428 12.9592 19.3054 12.9251 19.388C12.9156 19.4079 12.9103 19.4302 12.9045 19.452C12.9026 19.4633 12.8997 19.4742 12.8983 19.486L12.8964 19.5032L12.8945 19.5155C12.8935 19.5196 12.894 19.5182 12.893 19.5196C12.8925 19.5177 12.8911 19.5168 12.8877 19.5118C12.8825 19.5019 12.8599 19.4887 12.8508 19.4892C12.8331 19.4901 12.8604 19.4964 12.8849 19.4932C12.9376 19.4873 13.0047 19.4737 13.0718 19.4642C13.1394 19.4574 13.2152 19.4474 13.2857 19.4724L13.288 19.4733C13.2919 19.4746 13.2938 19.4787 13.2924 19.4824C13.2914 19.4851 13.2885 19.4869 13.2857 19.4869C13.2224 19.4896 13.1605 19.5128 13.1006 19.5354C13.0402 19.5577 12.9803 19.5835 12.916 19.6017C12.8839 19.6098 12.8499 19.6185 12.8125 19.6089C12.7938 19.6044 12.7765 19.5912 12.7674 19.5749C12.7578 19.559 12.755 19.5413 12.7535 19.525C12.7506 19.4606 12.7612 19.3971 12.7856 19.3376C12.8101 19.2782 12.8484 19.2233 12.8997 19.1811C12.9501 19.1389 13.0157 19.1099 13.0838 19.1058C13.1519 19.0999 13.2209 19.1194 13.277 19.1548C13.3326 19.1911 13.3758 19.2423 13.405 19.2986C13.4069 19.3018 13.405 19.3059 13.4017 19.3077C13.3993 19.309 13.3959 19.3086 13.394 19.3068L13.3916 19.305L13.3921 19.3045Z" fill="#1D2238"/>
<path d="M16.3547 17.4583C16.3547 17.4583 18.1233 15.2152 20.2609 15.7574C22.3986 16.2996 19.4368 18.035 19.4368 18.035C19.4368 18.035 18.6132 16.7215 16.3547 17.4583Z" fill="#F1F2F5"/>
<path d="M14.6016 15.1754C14.6218 15.2738 14.3993 15.3977 14.1045 15.4517C13.8096 15.5057 13.5546 15.4694 13.5345 15.3709C13.5143 15.2725 13.7368 15.1486 14.0316 15.0946C14.3264 15.0406 14.5815 15.0769 14.6016 15.1754Z" fill="#1D2238"/>
<path d="M15.8605 23.0677C15.8605 23.0677 15.2219 22.7397 14.5426 22.085C14.5426 22.085 14.8274 23.0201 15.8154 23.3358L15.861 23.0677H15.8605Z" fill="#1D2238"/>
<path d="M20.8473 67.7089L25.3274 69.5578C25.9956 69.8336 26.4228 70.4634 26.4094 71.1535L16.6688 71.1335L17.1871 67.7017L20.8473 67.7094V67.7089Z" fill="#4A4E60"/>
<path d="M16.6699 70.5216C17.4724 70.5656 18.2745 70.5892 19.077 70.606C19.4783 70.6164 19.8795 70.6191 20.2808 70.6255L21.4846 70.6336L22.6884 70.6309C23.0896 70.6259 23.4909 70.625 23.8922 70.6164C24.6947 70.6032 25.4972 70.5824 26.2997 70.5415C25.4972 70.4975 24.6952 70.4735 23.8926 70.4572C23.4914 70.4467 23.0901 70.444 22.6888 70.4376L21.4851 70.4299L20.2813 70.4331C19.88 70.4376 19.4788 70.439 19.0775 70.4476C18.275 70.4608 17.4724 70.4817 16.6699 70.522V70.5216Z" fill="#1D2238"/>
<path d="M19.3528 69.7523C19.6982 69.4254 19.6982 68.8954 19.3528 68.5685C19.0073 68.2416 18.4473 68.2416 18.1019 68.5685C17.7565 68.8954 17.7565 69.4254 18.1019 69.7523C18.4473 70.0792 19.0073 70.0792 19.3528 69.7523Z" fill="#1D2238"/>
<path d="M24.7233 69.2233C24.6082 69.1784 24.4975 69.1779 24.3925 69.1938C24.2875 69.2111 24.1878 69.2492 24.0981 69.3045C24.0085 69.3594 23.9303 69.4356 23.8723 69.5246C23.8153 69.6144 23.7803 69.7224 23.7956 69.8372L23.8143 69.8472C23.8426 69.8109 23.8661 69.7723 23.8987 69.7396C23.914 69.7228 23.9279 69.7042 23.9442 69.6884L23.9936 69.6403C24.0622 69.579 24.136 69.5228 24.2165 69.4751C24.2951 69.4257 24.3781 69.3812 24.4639 69.3431C24.507 69.324 24.5507 69.3063 24.5948 69.29C24.6384 69.2728 24.6835 69.2569 24.7285 69.2433L24.7233 69.2233Z" fill="#1D2238"/>
<path d="M23.5799 68.7614C23.4649 68.7165 23.3541 68.716 23.2492 68.7319C23.1442 68.7491 23.0444 68.7873 22.9548 68.8426C22.8652 68.8975 22.787 68.9737 22.729 69.0627C22.6719 69.1525 22.637 69.2605 22.6523 69.3753L22.671 69.3852C22.6993 69.349 22.7228 69.3104 22.7554 69.2777C22.7707 69.2609 22.7846 69.2423 22.8009 69.2264L22.8503 69.1784C22.9188 69.1171 22.9927 69.0608 23.0732 69.0132C23.1518 68.9638 23.2348 68.9193 23.3206 68.8812C23.3637 68.8621 23.4074 68.8444 23.4515 68.8281C23.4951 68.8109 23.5402 68.795 23.5852 68.7814L23.5799 68.7614Z" fill="#1D2238"/>
<path d="M22.5218 68.3422C22.4068 68.2973 22.296 68.2968 22.191 68.3127C22.0861 68.33 21.9863 68.3681 21.8967 68.4234C21.807 68.4783 21.7289 68.5545 21.6709 68.6435C21.6138 68.7333 21.5788 68.8413 21.5942 68.9561L21.6129 68.9661C21.6412 68.9298 21.6647 68.8912 21.6973 68.8585C21.7126 68.8417 21.7265 68.8231 21.7428 68.8073L21.7922 68.7592C21.8607 68.6979 21.9346 68.6417 22.0151 68.594C22.0937 68.5446 22.1767 68.5001 22.2625 68.462C22.3056 68.4429 22.3493 68.4252 22.3934 68.4089C22.437 68.3917 22.482 68.3758 22.5271 68.3622L22.5218 68.3422Z" fill="#1D2238"/>
<path d="M15.0092 67.7089L19.4892 69.5578C20.1575 69.8336 20.5847 70.4634 20.5712 71.1535L10.8307 71.1335L11.3489 67.7017L15.0092 67.7094V67.7089Z" fill="#9EA9BD"/>
<path d="M10.8318 70.5216C11.6343 70.5656 12.4364 70.5892 13.2389 70.606C13.6401 70.6164 14.0414 70.6191 14.4427 70.6255L15.6465 70.6336L16.8502 70.6309C17.2515 70.6259 17.6528 70.625 18.054 70.6164C18.8565 70.6032 19.6591 70.5824 20.4616 70.5415C19.6591 70.4975 18.857 70.4735 18.0545 70.4572C17.6532 70.4467 17.252 70.444 16.8507 70.4376L15.6469 70.4299L14.4431 70.4331C14.0419 70.4376 13.6406 70.439 13.2394 70.4476C12.4368 70.4608 11.6343 70.4817 10.8318 70.522V70.5216Z" fill="#1D2238"/>
<path d="M13.5141 69.7521C13.8595 69.4252 13.8596 68.8951 13.5141 68.5682C13.1687 68.2413 12.6087 68.2413 12.2633 68.5682C11.9178 68.8951 11.9178 69.4252 12.2633 69.7521C12.6087 70.079 13.1687 70.079 13.5141 69.7521Z" fill="#1D2238"/>
<path d="M18.8851 69.2233C18.7701 69.1784 18.6593 69.1779 18.5543 69.1938C18.4493 69.2111 18.3496 69.2492 18.26 69.3045C18.1703 69.3594 18.0922 69.4356 18.0342 69.5246C17.9771 69.6144 17.9421 69.7224 17.9575 69.8372L17.9762 69.8472C18.0045 69.8109 18.0279 69.7723 18.0605 69.7396C18.0759 69.7228 18.0898 69.7042 18.1061 69.6884L18.1555 69.6403C18.224 69.579 18.2978 69.5228 18.3784 69.4751C18.457 69.4257 18.5399 69.3812 18.6258 69.3431C18.6689 69.324 18.7125 69.3063 18.7566 69.29C18.8003 69.2728 18.8453 69.2569 18.8904 69.2433L18.8851 69.2233Z" fill="#1D2238"/>
<path d="M17.7418 68.7614C17.6268 68.7165 17.516 68.716 17.411 68.7319C17.306 68.7491 17.2063 68.7873 17.1167 68.8426C17.027 68.8975 16.9489 68.9737 16.8909 69.0627C16.8338 69.1525 16.7988 69.2605 16.8142 69.3753L16.8329 69.3852C16.8611 69.349 16.8846 69.3104 16.9172 69.2777C16.9326 69.2609 16.9465 69.2423 16.9628 69.2264L17.0122 69.1784C17.0807 69.1171 17.1545 69.0608 17.2351 69.0132C17.3137 68.9638 17.3966 68.9193 17.4825 68.8812C17.5256 68.8621 17.5692 68.8444 17.6133 68.8281C17.657 68.8109 17.702 68.795 17.7471 68.7814L17.7418 68.7614Z" fill="#1D2238"/>
<path d="M16.6837 68.3422C16.5686 68.2973 16.4579 68.2968 16.3529 68.3127C16.2479 68.33 16.1482 68.3681 16.0586 68.4234C15.9689 68.4783 15.8908 68.5545 15.8328 68.6435C15.7757 68.7333 15.7407 68.8413 15.7561 68.9561L15.7748 68.9661C15.803 68.9298 15.8265 68.8912 15.8591 68.8585C15.8745 68.8417 15.8884 68.8231 15.9047 68.8073L15.954 68.7592C16.0226 68.6979 16.0964 68.6417 16.177 68.594C16.2556 68.5446 16.3385 68.5001 16.4243 68.462C16.4675 68.4429 16.5111 68.4252 16.5552 68.4089C16.5988 68.3917 16.6439 68.3758 16.689 68.3622L16.6837 68.3422Z" fill="#1D2238"/>
<path d="M22.3964 67.674L21.5214 50.6731C21.497 50.1953 21.4371 49.7198 21.3426 49.2502L19.484 40.0104L8.21748 39.1765C8.21748 39.1765 7.11101 43.4359 9.37812 47.5361L10.5455 67.8092L16.5582 67.7729L16.5572 67.7094L22.3964 67.6745V67.674Z" fill="#1D2238"/>
<path d="M15.6545 40.5671L15.7312 41.4151L15.8026 42.2635L15.9455 43.9608L16.2077 47.3573L16.2729 48.2066L16.3324 49.056L16.4508 50.7551L16.6871 54.1529L16.7006 54.3653C16.7044 54.4361 16.701 54.5073 16.702 54.5781L16.7006 55.0037L16.6977 55.8548L16.6914 57.5576L16.6852 59.2604L16.6814 60.1115L16.6718 60.9627L16.6334 64.3678L16.6028 66.0701L16.5874 66.9212L16.5668 67.7724H16.5505L16.5467 60.9645L16.5447 57.5608L16.5438 55.8589V55.0077L16.5428 54.5822C16.5419 54.5114 16.5447 54.4401 16.5404 54.3694L16.5265 54.157L15.6387 40.5671L15.655 40.5662L15.6545 40.5671Z" fill="#4A4E60"/>
<path d="M24.5282 34.8473L22.984 32.5728L19.4177 33.4866L18.4843 27.4373C18.4752 27.3724 18.4666 27.3175 18.4589 27.274C18.2255 25.9432 15.7378 23.6284 15.7378 23.6284L15.1884 24.1638L12.6313 22.853C12.6313 22.853 10.5056 23.6615 9.19971 25.23C7.89381 26.7985 8.21693 39.1766 8.21693 39.1766C8.21693 39.1766 10.857 41.201 12.767 41.5336C14.6769 41.8662 19.6886 40.5668 19.6886 40.5668C19.6886 40.5668 19.6023 39.5278 19.4738 38.0287L24.5272 34.8468L24.5282 34.8473Z" fill="#F0C36A"/>
<path d="M15.1884 24.1638L13.9841 25.142C13.7876 25.3012 13.4975 25.3035 13.3005 25.1452C12.7444 24.6992 11.7573 23.7827 12.068 23.1035L12.6317 22.853L15.1889 24.1638H15.1884Z" fill="white"/>
<path d="M15.1885 24.1638L15.7834 24.7709C15.945 24.9356 16.2288 24.9033 16.3448 24.7073L16.5193 24.412L15.7379 23.6284L15.1885 24.1638Z" fill="white"/>
<path d="M12.0086 26.7858L14.2316 32.8002L21.146 29.4867L22.24 32.0261L16.0864 36.8454C15.5015 37.3032 14.7829 37.5809 14.0269 37.6408C12.7435 37.7424 11.4961 37.2089 10.7295 36.2297C9.68776 34.899 8.36844 33.0756 8.23469 32.2212C8.01081 30.7907 6.86982 28.0648 9.19973 25.2305L12.0081 26.7862L12.0086 26.7858Z" fill="#F0C36A"/>
<path d="M18.8156 30.6057C18.4412 30.803 18.0653 30.9968 17.6881 31.1882C17.3112 31.3811 16.9325 31.5698 16.5543 31.7595C16.1746 31.9468 15.7968 32.1369 15.4157 32.3221C15.035 32.5076 14.6558 32.695 14.2737 32.8783L14.1654 32.93L14.1405 32.817C14.0834 32.5575 14.0206 32.2971 13.9559 32.038C13.8912 31.7785 13.826 31.5194 13.7569 31.2613C13.6174 30.745 13.4722 30.23 13.3092 29.72C13.1481 29.2096 12.9721 28.7037 12.7689 28.2074C12.6663 27.9596 12.5579 27.7142 12.4338 27.4751C12.3106 27.236 12.1749 27.0019 12.0085 26.7859C12.1936 26.9882 12.348 27.2156 12.4879 27.4483C12.6255 27.6829 12.7521 27.9238 12.8657 28.1692C13.0954 28.6602 13.2881 29.1647 13.465 29.6738C13.6385 30.1837 13.7977 30.6982 13.9381 31.2168C14.0815 31.7354 14.21 32.2558 14.3226 32.7821L14.1894 32.7209C14.5714 32.538 14.9559 32.3597 15.3394 32.18C15.7225 31.9995 16.1084 31.8239 16.4929 31.6456C16.8783 31.4695 17.2638 31.2926 17.6511 31.1197C18.038 30.9455 18.4259 30.774 18.8156 30.6052V30.6057Z" fill="#1D2238"/>
<path d="M8.23511 32.2207L8.4657 32.6154L8.69342 33.0115C8.84587 33.2751 8.9988 33.5387 9.15365 33.8005C9.30754 34.0632 9.4619 34.3255 9.62011 34.5859L9.85789 34.9756C9.93747 35.1063 10.0161 35.2374 10.0933 35.3685C10.4044 35.8908 10.7093 36.4193 11.1278 36.8549C11.2343 36.9611 11.3426 37.0659 11.4629 37.1557C11.5209 37.2033 11.5847 37.2437 11.6466 37.2864C11.7113 37.3245 11.775 37.3649 11.8431 37.398C12.1116 37.5377 12.4083 37.6267 12.7118 37.6743C13.3211 37.7709 13.9558 37.7011 14.5493 37.5268C14.8471 37.4397 15.1357 37.3249 15.4099 37.1838C15.5465 37.1126 15.6793 37.0355 15.8073 36.952C15.9353 36.8681 16.0556 36.7759 16.1798 36.6807C16.6731 36.3023 17.1688 35.9266 17.6655 35.5514L18.4134 34.9924L18.7873 34.7129L19.1636 34.4362L18.806 34.7343L18.446 35.0296L17.7259 35.6199C17.2436 36.0114 16.7608 36.4016 16.2757 36.7896C16.1558 36.8862 16.0317 36.986 15.9008 37.0763C15.769 37.1652 15.6323 37.2474 15.4919 37.3231C15.21 37.4733 14.9123 37.5963 14.605 37.6911C14.2972 37.785 13.9784 37.8485 13.6553 37.8794C13.3321 37.9089 13.0042 37.9043 12.6811 37.854C12.3594 37.8018 12.0421 37.7056 11.7539 37.5545C11.6811 37.5187 11.6125 37.4751 11.543 37.4334C11.4764 37.3875 11.4083 37.3435 11.3464 37.2923C11.218 37.1952 11.1034 37.0845 10.9941 36.9706C10.7793 36.7392 10.5938 36.4878 10.4284 36.2283C10.2611 35.9693 10.1115 35.7025 9.96288 35.4371C9.88858 35.3041 9.81427 35.1721 9.73804 35.041C9.66134 34.9089 9.58511 34.7769 9.5108 34.644C9.36171 34.3781 9.21501 34.1113 9.07167 33.8432C8.92929 33.5746 8.78882 33.3046 8.64931 33.0347L8.44077 32.629L8.23607 32.2221L8.23511 32.2207Z" fill="#1D2238"/>
<path d="M13.4247 34.9704C13.4075 34.9159 13.3941 34.8606 13.3816 34.8048C13.3696 34.749 13.3547 34.6927 13.3514 34.636C13.3423 34.5226 13.3308 34.4073 13.3418 34.293C13.3499 34.0629 13.408 33.8352 13.4909 33.6183C13.5743 33.4005 13.6985 33.1982 13.8485 33.0171C13.9995 32.8379 14.1798 32.6764 14.396 32.5725C14.2608 32.7603 14.1434 32.9455 14.0369 33.1351C13.9315 33.3243 13.8361 33.5158 13.7598 33.714C13.6841 33.9123 13.6127 34.1133 13.5647 34.3229C13.5331 34.4268 13.5182 34.5334 13.4914 34.6405C13.4674 34.748 13.4545 34.8574 13.4243 34.9699L13.4247 34.9704Z" fill="#1D2238"/>
<path d="M22.9232 34.3763L20.0688 33.2474C19.8909 33.1771 19.8497 32.9562 19.9911 32.8323L27.3543 26.3778C27.4838 26.2644 27.6913 26.3002 27.7704 26.4491L29.329 29.375C29.3884 29.4866 29.3582 29.6218 29.2561 29.7012L23.2904 34.3254C23.1873 34.4053 23.0464 34.4248 22.9237 34.3763H22.9232Z" fill="#4A4E60"/>
<path d="M19.4369 38.0527C19.3904 37.7751 19.3525 37.4974 19.3185 37.2188C19.3008 37.0795 19.2849 36.9407 19.2701 36.8009C19.2547 36.6616 19.2394 36.5224 19.2269 36.3831C19.1987 36.1045 19.1766 35.8255 19.1541 35.5464C19.1416 35.4071 19.1344 35.2669 19.1243 35.1277C19.1152 34.9879 19.1047 34.8486 19.098 34.7084L19.0956 34.6535L19.1426 34.6295C19.2873 34.5551 19.4312 34.4789 19.5769 34.4058C19.7226 34.3332 19.8674 34.2584 20.0146 34.1876C20.1613 34.1159 20.308 34.0447 20.4561 33.9752C20.6038 33.9054 20.7529 33.8373 20.9029 33.772C20.7673 33.8614 20.6302 33.9489 20.4916 34.0342C20.3535 34.1204 20.2145 34.2039 20.075 34.2874C19.936 34.3718 19.7946 34.4521 19.6546 34.5342C19.5141 34.6163 19.3722 34.6953 19.2308 34.776L19.2754 34.6971C19.2897 34.8364 19.2998 34.9761 19.3113 35.1154C19.3219 35.2552 19.3353 35.3944 19.3439 35.5342C19.3631 35.8137 19.3823 36.0927 19.3962 36.3726C19.4043 36.5124 19.4105 36.6521 19.4158 36.7923C19.4221 36.9321 19.4268 37.0723 19.4302 37.2125C19.4384 37.4924 19.4422 37.7728 19.4369 38.0536V38.0527Z" fill="#1D2238"/>
<path d="M26.6184 32.1863C26.6073 32.1169 26.5867 32.0471 26.569 31.9799C26.5321 31.8402 26.4971 31.7 26.4611 31.5598C26.4113 31.3651 26.3609 31.17 26.3111 30.9754C26.2603 30.7771 26.0488 30.6555 25.8393 30.7036C25.6298 30.7517 25.5014 30.9518 25.5522 31.1501L25.5666 31.2059C25.4745 31.1319 25.3479 31.0993 25.2219 31.1283C25.0124 31.1764 24.8839 31.3765 24.9347 31.5747C24.9505 31.636 24.9663 31.6977 24.9822 31.7589C24.9735 31.7394 24.9558 31.7249 24.9371 31.7127C24.811 31.6315 24.6015 31.651 24.5181 31.7807C24.4678 31.8583 24.4841 31.9481 24.4908 32.0344C24.521 32.4268 24.5814 32.8188 24.6264 33.2104L23.8671 33.8787L24.0406 34.135C24.1974 34.0838 24.3426 34.0547 24.4994 34.0035C24.7079 33.9354 24.9218 33.8805 25.1236 33.7952C25.2847 33.7276 25.4227 33.631 25.556 33.5234C25.8125 33.3165 26.0426 33.0802 26.2607 32.8379C26.3609 32.7267 26.4597 32.6137 26.5532 32.4971C26.6294 32.4019 26.6351 32.2948 26.6179 32.1873L26.6184 32.1863Z" fill="#EB9481"/>
<path d="M24.6268 33.21C24.6268 33.21 24.5412 33.5194 24.7023 33.7472C24.7023 33.7472 24.4196 33.685 24.5182 33.3052L24.6268 33.21Z" fill="#1D2238"/>
<path d="M25.5665 31.206C25.6744 31.2863 25.7592 31.3988 25.8 31.5259C25.8422 31.6502 25.8753 31.7758 25.9093 31.9015C25.9419 32.0277 25.9735 32.1538 26.0013 32.2808L26.0426 32.4714C26.0546 32.5354 26.068 32.5989 26.0785 32.6633C26.0574 32.6016 26.0397 32.539 26.02 32.4768L25.9659 32.289C25.9299 32.1638 25.8968 32.0381 25.8633 31.9124L25.7655 31.5354C25.7497 31.4732 25.7238 31.4147 25.6897 31.3593C25.6562 31.3035 25.6149 31.2518 25.5675 31.2051L25.5665 31.206Z" fill="#1D2238"/>
<path d="M24.9822 31.7595C25.0838 31.8208 25.1773 31.9102 25.2118 32.0277C25.2468 32.1393 25.2717 32.2518 25.2971 32.3643C25.3211 32.4773 25.3446 32.5903 25.3638 32.7037L25.3925 32.8743C25.4002 32.9315 25.4093 32.9882 25.4156 33.0458C25.3988 32.9904 25.3849 32.9342 25.3695 32.8784L25.3278 32.7105C25.3 32.5984 25.2756 32.4859 25.2502 32.3734C25.2257 32.2609 25.2022 32.1479 25.1763 32.0367C25.1644 31.9818 25.1385 31.9319 25.1035 31.8861C25.0699 31.8394 25.0277 31.7976 24.9822 31.7595Z" fill="#1D2238"/>
<path d="M20.4164 32.8001C20.6992 32.5383 20.9874 32.2811 21.2736 32.0229C21.5593 31.7639 21.8488 31.5084 22.137 31.2525L23.0066 30.4885L23.881 29.7294C24.4669 29.2263 25.0522 28.7226 25.6424 28.224L26.0844 27.8492L26.5288 27.4768C26.8246 27.2281 27.1209 26.9804 27.419 26.7345L27.491 26.675L27.5327 26.7535L27.8702 27.3874L28.2043 28.023L28.5341 28.6609C28.6449 28.8733 28.7532 29.0865 28.8606 29.3002C28.736 29.0951 28.6123 28.8892 28.491 28.6823L28.1247 28.0625L27.7628 27.4405L27.4042 26.8171L27.5178 26.8361C27.2282 27.0911 26.9372 27.3447 26.6453 27.5974L26.2081 27.9767L25.7685 28.3538C25.1836 28.8578 24.5934 29.3565 24.0038 29.8556L23.1154 30.6001L22.2223 31.3396C21.9232 31.5846 21.625 31.8306 21.3229 32.0728C21.0219 32.3156 20.7218 32.5597 20.4169 32.7992L20.4164 32.8001Z" fill="#1D2238"/>
</g>
<defs>
<clipPath id="clip0_253_3125">
<rect width="128.182" height="70.447" fill="white" transform="translate(0 0.81958)"/>
</clipPath>
</defs>
</svg>
