<svg width="116" height="113" viewBox="0 0 116 113" fill="none" xmlns="http://www.w3.org/2000/svg">
<g clip-path="url(#clip0_253_2437)">
<path d="M109.801 76.6733C98.3838 103.059 68.2453 114.392 44.6312 112.46C38.1838 111.932 25.2107 110.871 15.0817 101.4C-4.37089 83.2126 -1.37492 45.1957 17.2466 22.8133C19.6449 19.9309 36.2437 0.61938 62.1104 0.877565C81.0484 1.06687 94.3409 11.6436 95.9574 12.9615C97.9992 14.6262 102.503 18.5816 106.561 24.857C116.098 39.6018 116.936 60.1853 109.801 76.6738V76.6733Z" fill="url(#paint0_linear_253_2437)"/>
<g opacity="0.3">
<path d="M36.0446 24.8142C36.2659 24.8658 36.4166 25.0756 36.3869 25.3032C36.3225 25.8015 36.2349 26.3041 36.1269 26.7976C36.0744 27.0376 35.8352 27.1903 35.5924 27.1383C35.5896 27.1375 35.5867 27.1371 35.5839 27.1363C35.346 27.0807 35.196 26.8471 35.2478 26.6099C35.3504 26.141 35.4331 25.6633 35.4947 25.19C35.526 24.9463 35.7517 24.7744 35.9978 24.8054C36.0137 24.8074 36.0292 24.8102 36.0442 24.8138L36.0446 24.8142ZM35.1162 28.5775C35.1333 28.5815 35.1504 28.5863 35.1675 28.5928C35.401 28.6769 35.5211 28.9319 35.436 29.1627C35.2612 29.6364 35.064 30.1076 34.8506 30.5632C34.7459 30.7859 34.4798 30.8826 34.2533 30.7795C34.028 30.676 33.9303 30.4117 34.035 30.189C34.2383 29.756 34.4253 29.3085 34.5915 28.8582C34.6705 28.6443 34.8982 28.5267 35.117 28.5779L35.1162 28.5775ZM33.373 32.045C33.4218 32.0563 33.4695 32.0761 33.5139 32.1047C33.7225 32.238 33.7824 32.5135 33.6471 32.7197C33.3709 33.1422 33.0723 33.5583 32.7598 33.9563C32.6075 34.15 32.3251 34.185 32.1288 34.0348C31.9328 33.8842 31.897 33.605 32.0493 33.4109C32.3459 33.0331 32.6295 32.6379 32.8918 32.2368C32.9977 32.0744 33.1929 32.0032 33.373 32.0454V32.045ZM30.8887 35.0406C30.9693 35.0595 31.0455 35.1002 31.1074 35.1634C31.2806 35.3394 31.2765 35.621 31.0985 35.7922C30.7331 36.1434 30.3481 36.4829 29.9541 36.8015C29.7618 36.9566 29.4787 36.9288 29.3214 36.7391C29.1642 36.549 29.1927 36.2691 29.3846 36.1136C29.759 35.8107 30.1248 35.4885 30.4719 35.1545C30.5864 35.0446 30.7445 35.0071 30.8891 35.041L30.8887 35.0406ZM27.7913 37.4134C27.9041 37.4396 28.0068 37.5088 28.072 37.6148C28.2011 37.8246 28.1343 38.0981 27.922 38.2258C27.4882 38.4872 27.0368 38.7341 26.5805 38.9593C26.3585 39.0692 26.0884 38.9798 25.9771 38.7603C25.8663 38.5408 25.9564 38.2737 26.1788 38.1638C26.6127 37.9499 27.0417 37.7151 27.4539 37.4665C27.5591 37.4033 27.68 37.3876 27.7913 37.4134ZM24.24 39.0495C24.3863 39.0837 24.5118 39.1892 24.5635 39.3407C24.6425 39.5735 24.5158 39.8257 24.2808 39.9038C23.7984 40.0641 23.3026 40.2063 22.808 40.3255C22.5665 40.3839 22.3232 40.2377 22.2646 39.9988C22.2055 39.7604 22.3534 39.5199 22.595 39.4615C23.0651 39.3479 23.5356 39.2134 23.994 39.0608C24.0767 39.0334 24.1614 39.031 24.2404 39.0495H24.24ZM7.95571 36.3359C8.01641 36.35 8.07467 36.377 8.12723 36.4169C8.50936 36.7093 8.90983 36.9888 9.31681 37.2482C9.5254 37.3811 9.58569 37.6562 9.45125 37.8625C9.31681 38.0691 9.03856 38.1287 8.82957 37.9958C8.40059 37.7227 7.97893 37.4283 7.57684 37.1205C7.38047 36.9703 7.34422 36.6912 7.49617 36.4966C7.60739 36.354 7.78909 36.2968 7.95531 36.3359H7.95571ZM20.413 39.8659C20.5947 39.9082 20.7373 40.0605 20.7572 40.2542C20.7821 40.4987 20.602 40.7166 20.3547 40.7412C19.8483 40.7915 19.3334 40.8209 18.8241 40.8278C18.576 40.8302 18.3715 40.6353 18.3679 40.3896C18.3642 40.1439 18.5626 39.9421 18.8111 39.9384C19.2943 39.9316 19.7836 39.9038 20.2643 39.8563C20.3152 39.8514 20.3653 39.8547 20.4126 39.8659H20.413ZM11.3049 38.345C11.3338 38.3519 11.3623 38.3611 11.3904 38.374C11.8292 38.5746 12.283 38.7587 12.7385 38.9218C12.9719 39.0056 13.0925 39.2605 13.0082 39.4913C12.9235 39.7221 12.6656 39.8426 12.4321 39.758C11.9531 39.586 11.4756 39.3923 11.014 39.1816C10.7883 39.0785 10.6901 38.8143 10.794 38.5915C10.8853 38.3962 11.1016 38.2975 11.3053 38.345H11.3049ZM16.4975 39.8168C16.7183 39.8683 16.8691 40.0774 16.8397 40.305C16.8088 40.5487 16.5835 40.721 16.337 40.6904C15.8327 40.6276 15.3238 40.5422 14.8256 40.4367C14.8223 40.4363 14.8195 40.4355 14.8162 40.4347C14.5787 40.3791 14.4288 40.1459 14.4801 39.909C14.5323 39.669 14.771 39.5159 15.0142 39.5675C15.4876 39.6678 15.9708 39.7487 16.4503 39.8083C16.4666 39.8103 16.4824 39.8132 16.4979 39.8168H16.4975Z" fill="#91B3FA"/>
<path d="M5.64252 34.2101C5.72889 34.2303 5.80996 34.2758 5.87351 34.3459C6.02832 34.5167 6.18924 34.6866 6.3522 34.8522C6.52534 35.0282 6.52168 35.3097 6.34365 35.4809C6.16562 35.6521 5.88085 35.6489 5.70771 35.4725C5.5366 35.2985 5.36712 35.1196 5.20417 34.94C5.03836 34.7571 5.05384 34.476 5.23839 34.312C5.35246 34.2109 5.50401 34.1779 5.64252 34.2101Z" fill="#91B3FA"/>
</g>
<g opacity="0.3">
<path d="M1.19778 21.3861C1.40922 21.4352 1.55873 21.6302 1.54243 21.8513C1.52532 22.0801 1.5131 22.3129 1.50577 22.5433C1.49803 22.7886 1.29026 22.9815 1.04215 22.9735C0.79283 22.9654 0.598911 22.7604 0.607059 22.5151C0.6148 22.2726 0.627836 22.0273 0.645761 21.7864C0.664094 21.5416 0.879198 21.3575 1.1273 21.3752C1.15174 21.3768 1.17537 21.3808 1.19819 21.3861H1.19778Z" fill="#91B3FA"/>
<path d="M22.6747 5.77769C22.876 5.82482 23.0776 5.87517 23.2789 5.92954C23.5184 5.99399 23.6602 6.23848 23.595 6.47532C23.5298 6.71216 23.2813 6.85273 23.043 6.78788C22.5786 6.66302 22.1101 6.55708 21.6448 6.4721C21.4004 6.42698 21.2391 6.19538 21.2843 5.95411C21.3295 5.71244 21.5642 5.55294 21.8082 5.59765C22.0958 5.65001 22.3875 5.71083 22.6747 5.7781V5.77769ZM25.522 6.69886C25.5464 6.7045 25.5709 6.71256 25.5949 6.72263C26.0569 6.91637 26.5156 7.13146 26.9585 7.36225C27.178 7.47664 27.2624 7.7457 27.1467 7.96281C27.031 8.17991 26.758 8.26369 26.5392 8.14889C26.1188 7.92978 25.6829 7.72556 25.2437 7.54109C25.0152 7.44523 24.9085 7.18422 25.0054 6.95826C25.0922 6.75566 25.313 6.65013 25.5224 6.69886H25.522ZM19.4571 5.33262C19.6637 5.38095 19.8128 5.56865 19.8026 5.78535C19.7912 6.03064 19.581 6.22035 19.3329 6.20908C18.8583 6.18733 18.3763 6.18572 17.9001 6.20424C17.652 6.21351 17.443 6.02259 17.4332 5.77729C17.4234 5.53199 17.6169 5.32537 17.865 5.3157C18.3665 5.29636 18.8742 5.29838 19.374 5.32093C19.4025 5.32214 19.4302 5.32617 19.4571 5.33262ZM28.885 8.56497C28.9404 8.57786 28.9946 8.60162 29.0439 8.63667C29.4513 8.92587 29.8509 9.23561 30.2319 9.55743C30.4205 9.71694 30.4429 9.99768 30.2816 10.1842C30.1202 10.3711 29.8363 10.3932 29.6477 10.2333C29.2859 9.92759 28.9066 9.63356 28.5196 9.35926C28.3179 9.21627 28.2715 8.93835 28.4165 8.73897C28.5261 8.58833 28.7135 8.52509 28.8854 8.56537L28.885 8.56497ZM15.6122 5.58073C15.7812 5.6202 15.9193 5.75554 15.9519 5.93559C15.9955 6.17726 15.8326 6.40846 15.5877 6.45115C15.12 6.53332 14.6495 6.63643 14.1891 6.75767C13.9492 6.82091 13.7027 6.67993 13.6387 6.44229C13.5748 6.20505 13.7178 5.96136 13.9577 5.89853C14.4425 5.77085 14.9379 5.66209 15.4305 5.5755C15.4928 5.56462 15.5543 5.56663 15.6126 5.58033L15.6122 5.58073ZM11.9155 6.65697C12.0507 6.68839 12.1693 6.78144 12.2271 6.91798C12.3229 7.14434 12.2149 7.40495 11.986 7.5C11.5468 7.68206 11.1096 7.88426 10.688 8.10136C10.468 8.21495 10.1963 8.13036 10.0814 7.91246C9.96691 7.69455 10.0525 7.4263 10.2729 7.31271C10.7169 7.08433 11.1765 6.87126 11.6389 6.67993C11.7297 6.64207 11.8263 6.63643 11.9155 6.65738V6.65697ZM8.54389 8.50455C8.64696 8.52872 8.74147 8.58833 8.80747 8.68057C8.95087 8.88075 8.9028 9.15827 8.70033 9.30046C8.31127 9.57274 7.92954 9.86395 7.56574 10.1668C7.37589 10.3247 7.09235 10.301 6.93224 10.1129C6.77254 9.92477 6.79699 9.64444 6.98683 9.48654C7.36978 9.16834 7.77147 8.86142 8.1809 8.57464C8.29049 8.49811 8.42289 8.47676 8.54429 8.50495L8.54389 8.50455ZM5.66036 11.0349C5.73165 11.0514 5.79969 11.0856 5.85794 11.1376C6.04249 11.3023 6.05675 11.583 5.89013 11.7655C5.57073 12.1151 5.26315 12.4821 4.97512 12.8567C4.8248 13.052 4.54247 13.0903 4.34489 12.9416C4.14689 12.793 4.1086 12.5139 4.25893 12.3185C4.56203 11.9242 4.88631 11.5375 5.22241 11.1698C5.33648 11.0449 5.50555 10.999 5.65995 11.0353L5.66036 11.0349ZM3.40829 14.1307C3.44822 14.1399 3.48773 14.1552 3.52562 14.1762C3.74195 14.2966 3.81894 14.5677 3.69713 14.7816C3.4641 15.1912 3.24574 15.6161 3.04816 16.0447C2.94509 16.2682 2.67784 16.3661 2.45255 16.2646C2.22644 16.1627 2.12704 15.8989 2.23011 15.6753C2.43829 15.2242 2.66806 14.7771 2.91331 14.3457C3.01393 14.1689 3.21845 14.0864 3.4087 14.1307H3.40829ZM1.90012 17.6377C1.90909 17.6397 1.91805 17.6421 1.92701 17.645C2.16493 17.7159 2.29937 17.964 2.22767 18.1988C2.12663 18.5307 2.03456 18.8694 1.9539 19.2062C1.92497 19.3282 1.89727 19.4503 1.87079 19.5719C1.81905 19.812 1.57991 19.9654 1.33711 19.9139C1.09023 19.8667 0.93949 19.6267 0.991229 19.3866C1.01893 19.2581 1.04786 19.13 1.07841 19.002C1.16315 18.6479 1.2597 18.291 1.36644 17.9422C1.43529 17.7159 1.67035 17.5841 1.89971 17.6377H1.90012Z" fill="#91B3FA"/>
<path d="M31.7564 11.126C31.8436 11.1461 31.9251 11.1924 31.989 11.2633C32.1508 11.4434 32.3117 11.6299 32.4673 11.8184C32.6246 12.0085 32.596 12.2888 32.4038 12.4439C32.2115 12.5994 31.9283 12.5712 31.7711 12.3811C31.6232 12.2022 31.4704 12.0246 31.3168 11.8538C31.1518 11.6706 31.1685 11.3894 31.3543 11.2263C31.468 11.1264 31.6191 11.0938 31.7568 11.126H31.7564Z" fill="#91B3FA"/>
</g>
<path d="M29.967 16.0073C29.9279 15.9275 29.8416 15.8812 29.7527 15.8917L27.2131 16.1958C26.4594 15.2794 25.5525 14.4751 24.5129 13.8266L24.5149 11.2991C24.5149 11.2105 24.4583 11.1315 24.3735 11.1025L21.4733 10.1113C21.3886 10.0823 21.2944 10.1097 21.239 10.1794L19.6616 12.1687C18.4386 12.0443 17.223 12.1228 16.0578 12.3838L14.2502 10.5938C14.1867 10.531 14.0901 10.5149 14.0094 10.554L11.2498 11.8807C11.1691 11.9194 11.1223 12.0048 11.1328 12.0926L11.4404 14.6036C10.5136 15.3487 9.70004 16.2453 9.04414 17.2736L6.48775 17.2716C6.39812 17.2716 6.31828 17.3276 6.28894 17.4114L5.28635 20.2788C5.25702 20.3626 5.28472 20.4556 5.3552 20.5104L7.36731 22.07C7.24143 23.2792 7.32087 24.4811 7.58486 25.633L5.77441 27.4202C5.71085 27.4826 5.69456 27.5785 5.73407 27.6582L7.07603 30.3867C7.11514 30.4665 7.2015 30.5128 7.29031 30.5023L9.83 30.1982C10.5837 31.1145 11.4905 31.9189 12.5302 32.5674L12.5282 35.0953C12.5282 35.1839 12.5848 35.2628 12.6695 35.2918L15.5698 36.2831C15.6545 36.3121 15.7486 36.2847 15.804 36.215L17.3814 34.2257C18.6044 34.3505 19.8201 34.2716 20.9852 34.0106L22.7928 35.8006C22.856 35.8634 22.9529 35.8795 23.0336 35.8404L25.7933 34.5137C25.874 34.475 25.9208 34.39 25.9102 34.3018L25.6026 31.7908C26.5294 31.0457 27.343 30.1491 27.9989 29.1212L30.5553 29.1232C30.6449 29.1232 30.7248 29.0672 30.7541 28.9834L31.7567 26.116C31.786 26.0322 31.7583 25.9392 31.6879 25.8844L29.6757 24.3248C29.8016 23.1156 29.7222 21.9137 29.4582 20.7617L31.2682 18.9746C31.3318 18.9118 31.3481 18.8163 31.3086 18.7365L29.9666 16.0081L29.967 16.0073Z" fill="#91B3FA"/>
<path d="M19.2322 20.2289C20.6956 20.5705 21.7267 21.9327 21.5947 23.4569C21.4492 25.1325 19.9525 26.3783 18.2581 26.2349C17.4372 26.1656 16.6929 25.7838 16.1621 25.1611C15.6312 24.5379 15.3779 23.7481 15.4483 22.9365C15.5938 21.2609 17.0905 20.0151 18.7849 20.1585C18.9377 20.1713 19.0872 20.1951 19.2322 20.2289ZM17.9729 25.4716C18.0858 25.4978 18.2015 25.5163 18.3192 25.5264C19.6184 25.6363 20.766 24.6809 20.8777 23.3964C20.9889 22.112 20.0229 20.9769 18.7234 20.867C17.4242 20.7566 16.2766 21.7124 16.1649 22.9969C16.1112 23.6192 16.3055 24.225 16.7121 24.7027C17.0429 25.091 17.482 25.3568 17.9725 25.4716H17.9729Z" fill="url(#paint1_linear_253_2437)"/>
<path d="M20.1945 15.9278C20.4459 15.9867 20.6956 16.0579 20.9429 16.1425C21.0207 16.1691 21.0981 16.1969 21.1751 16.2259C21.5548 16.3693 21.9223 16.5425 22.2718 16.7423C22.2767 16.7451 22.2812 16.7479 22.2861 16.7503C22.2995 16.758 22.313 16.766 22.3264 16.7737C22.3525 16.789 22.3785 16.8043 22.4046 16.82C22.4731 16.8611 22.504 16.9396 22.4865 17.013C22.4824 17.0307 22.4751 17.048 22.4649 17.0645C22.4136 17.1487 22.3028 17.1749 22.218 17.1241C21.7809 16.8619 21.3124 16.6448 20.8252 16.4785C18.4057 15.6511 15.8391 16.1744 13.9683 17.6413C12.9274 18.4573 12.1021 19.5654 11.6372 20.8958C11.5557 21.129 11.4865 21.3646 11.4299 21.6019C11.0494 23.1969 11.2335 24.8592 11.968 26.3527C12.8117 28.0686 14.2812 29.3567 16.1047 29.9802C19.8715 31.2671 23.9914 29.285 25.293 25.5629C25.3733 25.3333 25.4413 25.1009 25.4975 24.8661C25.7404 23.8486 25.7554 22.7897 25.5375 21.7658C25.5318 21.7392 25.5326 21.7131 25.5383 21.6885C25.5538 21.6236 25.6059 21.5701 25.6764 21.5552C25.7738 21.5354 25.8691 21.5962 25.8895 21.6925C26.118 22.7675 26.1025 23.8792 25.8475 24.9474C25.7888 25.1939 25.7171 25.438 25.6332 25.6789C24.2668 29.5867 19.9387 31.6667 15.9874 30.3162C14.0726 29.662 12.5302 28.3095 11.6446 26.5082C10.8734 24.9402 10.6799 23.1953 11.0795 21.5205C11.139 21.2716 11.2115 21.0243 11.2971 20.7794C11.9591 18.8863 13.3267 17.3614 15.1485 16.4857C16.7349 15.7228 18.5002 15.5319 20.1941 15.9274L20.1945 15.9278Z" fill="url(#paint2_linear_253_2437)"/>
<g opacity="0.3">
<path d="M54.3435 14.8447C54.4604 14.8721 54.55 14.9724 54.5569 15.0973C54.5696 15.3301 54.5753 15.5665 54.5736 15.7997C54.5728 15.9512 54.4478 16.0736 54.2942 16.0724C54.1406 16.0724 54.0171 15.9475 54.0184 15.7961C54.0196 15.5738 54.0143 15.3486 54.0025 15.1263C53.9943 14.9748 54.1117 14.8455 54.2648 14.8375C54.2921 14.8363 54.3186 14.8387 54.3439 14.8447H54.3435Z" fill="#91B3FA"/>
<path d="M54.262 16.9557C54.3989 16.9875 54.4921 17.1176 54.4734 17.2586C54.4209 17.6565 54.3467 18.0565 54.2534 18.4468C54.2339 18.529 54.2131 18.6111 54.1915 18.6937C54.1528 18.8407 53.9947 18.9213 53.8529 18.8911C53.7043 18.8532 53.615 18.7034 53.6533 18.5563C53.6741 18.4778 53.6937 18.3989 53.7124 18.3203C53.8012 17.9477 53.8721 17.5663 53.9222 17.1869C53.9422 17.0362 54.0815 16.9307 54.2335 16.95C54.2428 16.9516 54.2522 16.9533 54.2616 16.9553L54.262 16.9557ZM53.5401 19.7164C53.5527 19.7192 53.5657 19.7232 53.5784 19.728C53.7214 19.7836 53.7914 19.9431 53.7352 20.0841C53.5551 20.5368 53.3449 20.9827 53.1107 21.4089C53.0373 21.5422 52.8683 21.5909 52.7338 21.5192C52.599 21.4467 52.5493 21.2804 52.6222 21.1471C52.8459 20.7402 53.0459 20.3153 53.2178 19.8831C53.2692 19.7546 53.4073 19.6854 53.5397 19.7164H53.5401ZM52.1627 22.2213C52.1969 22.2293 52.2303 22.2438 52.2609 22.2656C52.3855 22.3538 52.414 22.5258 52.3244 22.6491C52.038 23.0438 51.7231 23.4252 51.389 23.7825C51.2847 23.8941 51.1096 23.9009 50.9963 23.7974C50.8839 23.6947 50.8769 23.5207 50.9808 23.4095C51.2994 23.0688 51.5997 22.7054 51.8726 22.3288C51.9402 22.2358 52.0559 22.1971 52.1623 22.2217L52.1627 22.2213ZM50.2043 24.315C50.2601 24.3279 50.3127 24.3585 50.3526 24.4048C50.4516 24.5208 50.4366 24.694 50.3196 24.7919C49.9432 25.1056 49.544 25.3993 49.1325 25.6643C49.0037 25.7469 48.8318 25.7106 48.7483 25.5842C48.6644 25.4573 48.7006 25.2869 48.8294 25.2039C49.2213 24.9514 49.6026 24.6714 49.9611 24.3722C50.0312 24.3138 50.1216 24.2956 50.2043 24.315ZM47.7881 25.8721C47.8663 25.8903 47.936 25.9418 47.9739 26.0188C48.0411 26.1549 47.984 26.3192 47.8463 26.3861C47.4047 26.5996 46.9452 26.7885 46.4816 26.9468C46.3366 26.9967 46.1785 26.9202 46.1284 26.7768C46.0783 26.6334 46.1553 26.4771 46.3003 26.4276C46.7431 26.2761 47.1811 26.0965 47.6027 25.8923C47.6626 25.8633 47.7282 25.8576 47.7885 25.8717L47.7881 25.8721ZM45.0634 26.8022C45.1645 26.8259 45.2484 26.9053 45.2716 27.0124C45.3034 27.1607 45.2077 27.3065 45.0577 27.3379C44.5766 27.439 44.0849 27.5111 43.596 27.5526C43.4428 27.5651 43.3088 27.4531 43.2958 27.302C43.2827 27.151 43.396 27.0181 43.5488 27.0052C44.0152 26.9657 44.4837 26.8968 44.9425 26.8006C44.984 26.7917 45.0252 26.7929 45.0639 26.8018L45.0634 26.8022ZM42.1921 27.0455C42.3188 27.0749 42.4109 27.1901 42.4056 27.323C42.3995 27.4744 42.2708 27.5928 42.1172 27.5868C41.6275 27.5683 41.1325 27.5187 40.6461 27.4402C40.4949 27.4132 40.3919 27.2742 40.4167 27.1248C40.4416 26.975 40.5842 26.8739 40.7357 26.898C41.1997 26.9734 41.6719 27.0205 42.1388 27.0382C42.1571 27.039 42.175 27.0414 42.1921 27.0455ZM37.987 26.0997C38.0025 26.1033 38.0184 26.1086 38.0335 26.115C38.4054 26.2737 38.7924 26.4151 39.1839 26.5351C39.243 26.5537 39.3017 26.571 39.3599 26.5879C39.5074 26.6306 39.5918 26.7828 39.549 26.9286C39.5062 27.0745 39.3498 27.1623 39.2047 27.1155C39.1424 27.0974 39.0805 27.0789 39.0181 27.0596C38.6087 26.9339 38.2029 26.7857 37.8131 26.6193C37.6721 26.5593 37.6073 26.3978 37.668 26.2584C37.7222 26.1344 37.8579 26.0699 37.9866 26.0997H37.987Z" fill="#91B3FA"/>
</g>
<g opacity="0.3">
<path d="M45.1722 4.15239C45.3197 4.18703 45.4126 4.33243 45.3796 4.47945C45.3462 4.62727 45.1979 4.72072 45.0484 4.68769C44.5974 4.5886 44.1366 4.5157 43.6787 4.47139C43.5272 4.45528 43.4143 4.32236 43.4294 4.17132C43.4445 4.02027 43.5806 3.90991 43.7329 3.92481C44.2132 3.97154 44.696 4.04766 45.1686 4.15158C45.1698 4.15158 45.171 4.15198 45.1722 4.15239ZM46.5382 4.53946C46.548 4.54188 46.5574 4.5447 46.5672 4.54792C47.0234 4.70662 47.474 4.89472 47.9075 5.10618C48.0448 5.17345 48.1014 5.33819 48.0334 5.47393C47.9653 5.61007 47.7983 5.66525 47.6614 5.59879C47.2479 5.39659 46.8177 5.21735 46.3826 5.0659C46.238 5.01556 46.1622 4.85887 46.2131 4.71588C46.2608 4.58216 46.4022 4.50805 46.5386 4.53987L46.5382 4.53946ZM42.3494 3.8793C42.4692 3.90709 42.56 4.01222 42.5633 4.1399C42.5674 4.29135 42.446 4.41742 42.2928 4.42104C41.8308 4.43273 41.366 4.4722 40.9105 4.53866C40.7585 4.56001 40.6176 4.45689 40.5952 4.30706C40.5728 4.15722 40.6779 4.01745 40.8294 3.9953C41.3069 3.92562 41.7941 3.88453 42.2785 3.87245C42.303 3.87164 42.327 3.87446 42.3494 3.8797V3.8793ZM49.0816 5.78367C49.1121 5.79092 49.1423 5.8034 49.1704 5.82153C49.5749 6.08415 49.9669 6.37455 50.3351 6.68389C50.4521 6.78217 50.4663 6.95537 50.3669 7.07097C50.2679 7.18617 50.0923 7.20027 49.9754 7.10239C49.6238 6.80755 49.2502 6.53084 48.8649 6.2803C48.7369 6.19693 48.7011 6.02655 48.7854 5.90007C48.8514 5.80099 48.9712 5.75789 49.0812 5.78367H49.0816ZM39.5441 4.28893C39.6398 4.31108 39.7205 4.38318 39.7482 4.48348C39.789 4.63009 39.7018 4.78113 39.5539 4.82101C39.1094 4.94144 38.6678 5.09047 38.2413 5.26367C38.0991 5.32127 37.9369 5.25401 37.8787 5.11384C37.8204 4.97367 37.8885 4.81295 38.0302 4.75536C38.4776 4.5741 38.9408 4.41782 39.4068 4.29135C39.4533 4.27886 39.5001 4.27886 39.5441 4.28893ZM36.9197 5.35188C36.993 5.3688 37.059 5.41512 37.0985 5.4852C37.1735 5.61772 37.1254 5.78488 36.9918 5.85899C36.5885 6.08213 36.1953 6.33105 35.8234 6.59931C35.6991 6.68873 35.5256 6.66174 35.4351 6.53929C35.3447 6.41685 35.372 6.24526 35.4958 6.15584C35.8857 5.8747 36.2976 5.61329 36.7205 5.37967C36.7836 5.34463 36.8545 5.33698 36.9197 5.35188ZM34.6285 7.00612C34.6798 7.01821 34.7287 7.04479 34.7674 7.08587C34.8721 7.19664 34.8664 7.37064 34.754 7.47416C34.4163 7.78592 34.0952 8.12103 33.7995 8.46985C33.7009 8.58585 33.5257 8.60115 33.4084 8.50408C33.2906 8.40661 33.2751 8.23341 33.3737 8.11701C33.6838 7.75128 34.0207 7.39964 34.3747 7.07258C34.4452 7.00733 34.5409 6.98558 34.6285 7.00612Z" fill="#91B3FA"/>
<path d="M51.2537 7.60839C51.3059 7.62047 51.3552 7.64786 51.3939 7.68975C51.5548 7.86255 51.7117 8.04098 51.8595 8.21982C51.9565 8.33743 51.939 8.51023 51.82 8.60649C51.7011 8.70195 51.5263 8.68463 51.4289 8.56742C51.288 8.39664 51.1385 8.22667 50.9849 8.06152C50.881 7.94995 50.8883 7.77595 51.0012 7.67364C51.0716 7.6096 51.1666 7.58825 51.2533 7.60839H51.2537Z" fill="#91B3FA"/>
</g>
<path d="M50.2048 11.0085C50.1787 10.9553 50.1209 10.9243 50.0614 10.9312L48.3622 11.1346C47.8578 10.5215 47.2508 9.98302 46.5554 9.54922L46.5566 7.85792C46.5566 7.79871 46.5187 7.74594 46.4621 7.72621L44.5213 7.06282C44.4646 7.04349 44.4015 7.06161 44.3644 7.10833L43.3089 8.43954C42.4904 8.35616 41.6768 8.40893 40.8975 8.58334L39.6879 7.38585C39.6456 7.34396 39.5808 7.33309 39.527 7.35927L37.6803 8.24701C37.6261 8.27279 37.5948 8.32998 37.6021 8.38879L37.8078 10.0688C37.1874 10.5675 36.6431 11.1676 36.2043 11.8556L34.4937 11.8544C34.4338 11.8544 34.3804 11.8918 34.3605 11.9478L33.6895 13.8667C33.6699 13.9227 33.6883 13.9851 33.7355 14.0213L35.082 15.065C34.9976 15.8742 35.051 16.6785 35.2274 17.449L34.0162 18.6449C33.9739 18.6868 33.9629 18.7509 33.9889 18.804L34.8868 20.6298C34.9129 20.683 34.9707 20.714 35.0302 20.7072L36.7295 20.5038C37.2338 21.1172 37.8408 21.6553 38.5362 22.0891L38.535 23.7804C38.535 23.8396 38.5729 23.8924 38.6295 23.9121L40.5704 24.5755C40.627 24.5949 40.6901 24.5767 40.7268 24.53L41.7824 23.1988C42.6008 23.2822 43.4144 23.2294 44.1941 23.055L45.4037 24.2525C45.446 24.2944 45.5108 24.3053 45.5646 24.2795L47.4113 23.3918C47.4651 23.366 47.4964 23.3088 47.4895 23.25L47.2838 21.5699C47.9042 21.0713 48.4485 20.4712 48.8873 19.7832L50.5979 19.7844C50.6578 19.7844 50.7112 19.7469 50.7307 19.6906L51.4017 17.7717C51.4213 17.7157 51.4029 17.6533 51.3557 17.6166L50.0092 16.573C50.0936 15.7638 50.0402 14.9598 49.8638 14.1889L51.075 12.993C51.1174 12.9511 51.1284 12.8871 51.1023 12.8339L50.2044 11.0081L50.2048 11.0085Z" fill="#91B3FA"/>
<path d="M43.033 13.7985C43.4689 13.9004 43.8592 14.1365 44.153 14.4817C44.5143 14.9062 44.687 15.4443 44.639 15.9973C44.54 17.138 43.5207 17.9871 42.3665 17.8896C41.2108 17.7897 40.3536 16.7836 40.4526 15.6425C40.5003 15.0895 40.7634 14.5884 41.1924 14.2311C41.6218 13.8734 42.1661 13.7027 42.7254 13.7506C42.8297 13.7595 42.9328 13.776 43.033 13.7993V13.7985ZM42.1897 17.3064C42.2627 17.3233 42.3372 17.3354 42.4138 17.3418C43.2628 17.4135 44.0128 16.7892 44.0853 15.9498C44.1204 15.5434 43.9937 15.1471 43.7276 14.8353C43.4616 14.5231 43.0888 14.3322 42.6774 14.2968C42.2659 14.2621 41.8654 14.3874 41.5497 14.6504C41.234 14.9134 41.0405 15.282 41.0054 15.6888C40.939 16.4525 41.456 17.1352 42.1893 17.3064H42.1897Z" fill="url(#paint3_linear_253_2437)"/>
<path d="M43.7069 10.8056C43.878 10.8455 44.0482 10.8942 44.2177 10.9522C44.5542 11.067 44.8797 11.216 45.1849 11.3953C45.1987 11.4033 45.2122 11.4114 45.226 11.4198C45.3315 11.4831 45.3792 11.6047 45.3527 11.7175C45.3462 11.7449 45.3352 11.7719 45.3197 11.7972C45.2403 11.9269 45.0696 11.9676 44.9384 11.8895C44.6549 11.7195 44.3514 11.5789 44.0368 11.4714C44.0197 11.4653 44.0022 11.4597 43.9851 11.4541C43.2379 11.2068 42.457 11.1528 41.7013 11.2849C41.291 11.3566 40.8881 11.4835 40.5019 11.6651C40.4986 11.6667 40.4958 11.6679 40.4925 11.6696C40.4827 11.6744 40.4734 11.6784 40.464 11.6833C39.3404 12.2234 38.4971 13.1639 38.0889 14.3312C38.0359 14.4822 37.9915 14.6349 37.9549 14.7883C37.7084 15.8211 37.8278 16.8969 38.3032 17.864C38.8495 18.9749 39.8008 19.8086 40.9814 20.2118C42.1616 20.6146 43.431 20.5401 44.5546 20C45.6782 19.4598 46.5215 18.5193 46.9297 17.3521C46.9819 17.2034 47.0259 17.0528 47.0621 16.9009C47.2194 16.242 47.2292 15.5568 47.0878 14.8939C47.0792 14.8532 47.0801 14.8125 47.0894 14.7742C47.1135 14.6739 47.1937 14.591 47.3025 14.5684C47.4528 14.5378 47.5999 14.632 47.6317 14.7807C47.7893 15.5222 47.7787 16.2891 47.6032 17.0262C47.5624 17.1962 47.5131 17.3649 47.4553 17.5309C46.9986 18.8371 46.0551 19.8892 44.7979 20.4934C43.541 21.0976 42.1217 21.183 40.8005 20.7302C39.4793 20.2787 38.4156 19.3458 37.8045 18.1033C37.2725 17.0214 37.1389 15.8174 37.4147 14.6623C37.4558 14.4907 37.5055 14.3199 37.5646 14.1511C38.4486 11.6224 41.1293 10.203 43.7085 10.8052L43.7069 10.8056Z" fill="url(#paint4_linear_253_2437)"/>
<path d="M4.21409 90.7754C5.83347 74.6258 9.88581 34.5148 10.7707 28.6518C11.8824 21.2833 21.0154 22.9093 21.0154 22.9093L22.9709 97.477H10.237C8.52553 97.477 6.89351 96.7475 5.7467 95.4687C4.59989 94.1899 4.04217 92.4897 4.21409 90.775V90.7754Z" fill="url(#paint5_linear_253_2437)"/>
<path d="M107.235 99.3568C111.211 99.2734 114.366 96.0185 114.282 92.0873L112.983 31.5511C112.911 28.2112 110.205 25.5129 106.828 25.4138L17.962 22.807C15.3192 22.7293 13.1364 24.8306 13.1446 27.4447L13.3576 96.8535C13.365 99.3097 15.4093 101.282 17.8931 101.23L107.235 99.3564V99.3568Z" fill="url(#paint6_linear_253_2437)"/>
<path d="M112.962 94.275C114.234 94.2557 115.195 93.1291 114.998 91.8861C113.686 83.6431 109.57 55.2894 110.89 31.7478C110.951 30.6744 110.109 29.7613 109.022 29.727L19.7558 26.9115C18.532 26.8729 17.5061 27.8178 17.4597 29.0278C17.08 38.925 15.6664 79.6829 17.5159 94.1711C17.6284 95.0528 18.3955 95.7081 19.2942 95.6944L112.962 94.275H112.962Z" fill="url(#paint7_linear_253_2437)"/>
<path d="M110.707 93.3483C111.931 93.3297 112.856 92.2454 112.666 91.0491C111.404 83.1167 107.442 55.8304 108.713 33.1753C108.771 32.1422 107.961 31.2637 106.915 31.2307L21.0101 28.5211C19.8324 28.4841 18.8452 29.3931 18.8004 30.5576C18.435 40.0823 17.0743 79.3051 18.8546 93.248C18.963 94.0966 19.7012 94.727 20.5661 94.7137L110.707 93.3478V93.3483Z" fill="#91B3FA"/>
<path opacity="0.72" d="M57.9072 45.624L58.0384 51.7407C58.0584 52.6743 57.3015 53.4433 56.3567 53.4485L50.0107 53.4839C49.0868 53.4892 48.3294 52.7601 48.3099 51.847L48.1718 45.4161C48.151 44.4495 48.9609 43.6669 49.9378 43.71L56.2903 43.9883C57.1805 44.0273 57.8877 44.7427 57.9064 45.6236L57.9072 45.624Z" fill="white"/>
<path opacity="0.72" d="M80.0939 53.3972L73.7479 53.4326C72.8239 53.4378 72.0666 52.7088 72.047 51.7957L71.9297 46.3263C71.9089 45.3652 72.7099 44.585 73.6815 44.6192L80.0328 44.8448C80.929 44.8766 81.6444 45.5944 81.6632 46.4805L81.7748 51.6889C81.7947 52.6226 81.0378 53.3915 80.0931 53.3967L80.0939 53.3972Z" fill="white"/>
<path opacity="0.72" d="M74.5342 80.6435L80.5706 80.5855C81.5817 80.5759 82.4128 81.3722 82.434 82.3719L82.5538 87.9609C82.575 88.9538 81.7899 89.7811 80.7861 89.823L74.7538 90.0756C73.7199 90.1187 72.8521 89.3135 72.8301 88.2908L72.7059 82.5072C72.6843 81.4914 73.506 80.6532 74.5338 80.6435H74.5342Z" fill="white"/>
<path opacity="0.72" d="M84.6896 87.8264L84.5723 82.3618C84.5507 81.3633 85.3586 80.5396 86.3685 80.5299L92.4684 80.4715C93.4625 80.4619 94.2789 81.2449 94.3001 82.2273L94.4129 87.4953C94.4337 88.4708 93.6621 89.2841 92.6758 89.3256L86.5804 89.5805C85.5643 89.6232 84.7112 88.8317 84.6896 87.8264Z" fill="white"/>
<path opacity="0.72" d="M84.1604 63.156L84.0643 58.6702C84.0411 57.5867 84.9239 56.697 86.0198 56.699L91.8447 56.7095C92.9055 56.7115 93.7708 57.5505 93.7932 58.5989L93.8853 62.8858C93.9081 63.9431 93.066 64.8216 91.997 64.8562L86.1766 65.0447C85.0901 65.0797 84.1837 64.2307 84.1608 63.1564L84.1604 63.156Z" fill="white"/>
<path opacity="0.72" d="M84.44 76.192L84.2929 69.3305C84.2717 68.3482 85.0539 67.5317 86.0475 67.4995L92.0044 67.307C93.091 67.2719 93.9974 68.1206 94.0206 69.1952L94.1689 76.1151C94.1905 77.1204 93.3721 77.9469 92.3552 77.9469L86.2541 77.9477C85.267 77.9477 84.4608 77.1675 84.44 76.192Z" fill="white"/>
<path d="M68.2265 53.4635L61.8806 53.4989C60.9566 53.5041 60.1993 52.7751 60.1797 51.862L60.0518 45.9044C60.031 44.9433 60.8324 44.1631 61.8036 44.1974L68.1548 44.4229C69.0511 44.4548 69.7665 45.1725 69.7852 46.0591L69.9074 51.7556C69.9274 52.6893 69.1705 53.4582 68.2257 53.4635H68.2265Z" fill="url(#paint8_linear_253_2437)"/>
<path opacity="0.72" d="M72.5701 76.1629L72.4324 69.7458C72.4108 68.7465 73.2069 67.9155 74.2176 67.8829L80.2511 67.6875C81.2786 67.6541 82.1353 68.4568 82.1573 69.4731L82.2991 76.0848C82.3211 77.1075 81.4884 77.9485 80.4536 77.9485L74.416 77.9493C73.4118 77.9493 72.5913 77.1558 72.5701 76.1629Z" fill="white"/>
<path opacity="0.72" d="M61.7152 56.6555L68.6449 56.668C69.4056 56.6692 70.026 57.271 70.0423 58.023L70.1747 64.1932C70.191 64.9513 69.5873 65.5812 68.8205 65.6062L61.8957 65.8302C61.1167 65.8555 60.4665 65.2465 60.4502 64.476L60.3129 58.0689C60.2962 57.2923 60.9293 56.6539 61.7152 56.6555Z" fill="white"/>
<path opacity="0.72" d="M58.1802 58.349L58.3064 64.2256C58.3268 65.1786 57.5683 65.9701 56.6048 66.0015L50.3989 66.2025C49.4196 66.2343 48.6028 65.469 48.582 64.5007L48.4512 58.4122C48.4304 57.4358 49.2261 56.6335 50.2136 56.6355L56.4243 56.6468C57.3804 56.6484 58.1602 57.4044 58.1806 58.3498L58.1802 58.349Z" fill="white"/>
<path opacity="0.72" d="M80.6817 65.2224L73.7569 65.4464C72.9775 65.4717 72.3277 64.8627 72.3114 64.0922L72.1827 58.0903C72.166 57.3133 72.7991 56.6753 73.5849 56.6765L80.5151 56.689C81.2757 56.6906 81.8962 57.292 81.9125 58.044L82.0363 63.8094C82.0526 64.5675 81.4489 65.1974 80.6821 65.2224H80.6817Z" fill="white"/>
<path opacity="0.72" d="M62.3568 68.2667L68.3903 68.0713C69.4173 68.0379 70.2745 68.8406 70.2965 69.8569L70.4301 76.0859C70.4521 77.1086 69.6194 77.9496 68.5846 77.9496L62.547 77.9504C61.5428 77.9504 60.7227 77.157 60.7011 76.1641L60.5716 70.1296C60.5504 69.1298 61.346 68.2993 62.3568 68.2667Z" fill="white"/>
<path opacity="0.72" d="M50.2873 68.6569L56.7433 68.4479C57.653 68.4185 58.412 69.1294 58.4311 70.0288L58.5656 76.3002C58.5851 77.2061 57.8477 77.9504 56.9315 77.9508L50.4711 77.9516C49.5817 77.9516 48.8554 77.2488 48.8366 76.3695L48.7067 70.3064C48.6879 69.421 49.3927 68.6855 50.2878 68.6569H50.2873Z" fill="white"/>
<path opacity="0.72" d="M91.0744 53.2548L86.2577 53.2818C84.9765 53.2891 83.9267 52.2785 83.8998 51.0121L83.8154 47.0833C83.7898 45.8963 84.7793 44.9321 85.9795 44.9748L91.3396 45.1649C92.5556 45.208 93.5265 46.1819 93.5521 47.385L93.6226 50.6661C93.6527 52.0811 92.5055 53.2468 91.0739 53.2544L91.0744 53.2548Z" fill="white"/>
<path opacity="0.72" d="M96.4421 82.3863C96.4189 81.3117 97.2883 80.4256 98.3752 80.4151L100.473 80.3949C102.068 80.3796 103.372 81.4216 103.4 82.7339L103.481 86.5318C103.509 87.8336 102.271 88.9239 100.692 88.9904L98.4391 89.0846C97.4231 89.1273 96.57 88.3359 96.5484 87.3305L96.4425 82.3867L96.4421 82.3863Z" fill="white"/>
<path opacity="0.72" d="M28.9758 81.0806L33.1019 81.0411C34.1138 81.0314 34.9453 81.8285 34.9669 82.8291L35.1197 89.9451C35.1409 90.9388 34.355 91.7669 33.3508 91.8088L29.2435 91.9808C27.6057 92.0492 26.2316 90.9935 26.2027 89.6446L26.0715 83.542C26.043 82.2039 27.3495 81.0963 28.9758 81.0806Z" fill="white"/>
<path opacity="0.72" d="M100.307 77.9465H98.2587C97.1962 77.9465 96.3289 77.1075 96.3065 76.0574L96.1569 69.0824C96.1341 68.0251 96.9762 67.1466 98.0452 67.112L100.107 67.0451C101.732 66.9923 103.085 68.0444 103.114 69.3825L103.245 75.4847C103.274 76.8336 101.946 77.9461 100.307 77.9461L100.307 77.9465Z" fill="white"/>
<path opacity="0.72" d="M100.134 64.5928L97.556 64.6762C96.7343 64.7028 96.0486 64.0607 96.0315 63.2479L95.9236 58.2099C95.906 57.3906 96.5738 56.7175 97.4024 56.7188L100.006 56.7236C101.585 56.7264 102.864 57.7632 102.892 59.063L102.958 62.133C102.987 63.4453 101.729 64.5413 100.135 64.5928H100.134Z" fill="white"/>
<path d="M28.317 42.9274L32.4549 43.0744C33.387 43.1075 34.1313 43.8542 34.1509 44.7762L34.3016 51.8052C34.3224 52.7763 33.5349 53.5763 32.5523 53.5819L28.2918 53.6057C26.7025 53.6145 25.4074 52.5741 25.3793 51.2667L25.253 45.3872C25.2233 43.9972 26.63 42.8678 28.3166 42.9278L28.317 42.9274Z" fill="#7D97F4"/>
<path opacity="0.72" d="M62.6672 80.7575L68.7035 80.6995C69.7147 80.6899 70.5457 81.4862 70.5669 82.4859L70.6949 88.4572C70.716 89.4501 69.931 90.2774 68.9272 90.3193L62.8949 90.5718C61.8609 90.6153 60.9932 89.8098 60.9712 88.7871L60.8388 82.6208C60.8172 81.605 61.6389 80.7668 62.6664 80.7571L62.6672 80.7575Z" fill="white"/>
<path opacity="0.72" d="M28.491 56.5964L32.6851 56.6041C33.6413 56.6057 34.4211 57.3621 34.4414 58.3071L34.5848 64.9937C34.6052 65.9467 33.8466 66.7382 32.8831 66.7696L28.6723 66.9057C27.0472 66.9585 25.6939 65.9064 25.6654 64.5684L25.5472 59.0583C25.5183 57.7069 26.8496 56.594 28.4919 56.5968L28.491 56.5964Z" fill="white"/>
<path opacity="0.72" d="M28.6438 69.3575L33.0212 69.2157C33.9309 69.1863 34.6899 69.8972 34.7091 70.7967L34.8272 76.3031C34.8468 77.209 34.1094 77.9534 33.1932 77.9538H28.7945C27.213 77.9546 25.9298 76.9166 25.9016 75.6152L25.8202 71.8173C25.7921 70.505 27.0501 69.4091 28.6438 69.3575Z" fill="white"/>
<path opacity="0.72" d="M46.5699 70.4131L46.6962 76.3018C46.7158 77.2077 45.9784 77.9524 45.0622 77.9524L38.6017 77.9533C37.7124 77.9533 36.986 77.2504 36.9673 76.3711L36.8455 70.6906C36.8263 69.8057 37.5315 69.0698 38.4262 69.0412L44.8821 68.8322C45.7918 68.8028 46.5508 69.5137 46.5699 70.4131Z" fill="white"/>
<path opacity="0.72" d="M38.9353 80.9851L44.9688 80.9271C45.9808 80.9174 46.8123 81.7145 46.8339 82.7151L46.9785 89.4484C46.9997 90.4421 46.2138 91.2702 45.2096 91.3121L39.1802 91.5643C38.1454 91.6078 37.2768 90.8018 37.2548 89.7779L37.1061 82.85C37.0841 81.8334 37.9067 80.9944 38.9353 80.9847V80.9851Z" fill="white"/>
<path opacity="0.72" d="M99.7953 53.2062L97.2703 53.2203C96.4637 53.2247 95.8029 52.5887 95.7858 51.7912L95.6803 46.8639C95.6623 46.0249 96.3614 45.3438 97.2096 45.374L99.8837 45.4691C101.415 45.5234 102.624 46.5445 102.651 47.806L102.714 50.7452C102.743 52.088 101.427 53.1973 99.7953 53.2066V53.2062Z" fill="white"/>
<path opacity="0.72" d="M50.8023 80.8711L56.7339 80.8143C57.8021 80.8042 58.68 81.6456 58.7029 82.7013L58.8369 88.9522C58.8581 89.9458 58.0722 90.774 57.068 90.8159L51.039 91.068C50.0042 91.1111 49.1356 90.3055 49.1136 89.2817L48.9731 82.736C48.9511 81.7194 49.7736 80.8808 50.8023 80.8707V80.8711Z" fill="white"/>
<path opacity="0.72" d="M46.0289 45.1981L46.1694 51.7389C46.1902 52.71 45.4027 53.5099 44.4201 53.5156L38.2106 53.5502C37.2496 53.5554 36.4617 52.7974 36.4413 51.8472L36.2955 45.051C36.2739 44.0513 37.1074 43.2397 38.1181 43.2756L44.3333 43.4963C45.2654 43.5293 46.0097 44.2761 46.0293 45.1981H46.0289Z" fill="white"/>
<path opacity="0.72" d="M46.3108 58.3279L46.4457 64.6097C46.466 65.5627 45.7075 66.3542 44.744 66.3856L38.5378 66.5866C37.5584 66.6184 36.7416 65.8531 36.7208 64.8844L36.5815 58.3907C36.5603 57.4144 37.3563 56.6124 38.3439 56.614L44.5546 56.6249C45.5107 56.6265 46.2905 57.3825 46.3108 58.3279Z" fill="white"/>
<path d="M100.484 40.1699L100.198 42.2414C100.106 42.9048 99.5403 43.4034 98.8636 43.4179L98.7646 43.42C98.0048 43.4361 97.3758 42.8399 97.3595 42.0883L97.3139 39.9681C97.2964 39.1464 98.0138 38.4971 98.8404 38.5869L99.2706 38.6337C100.04 38.7174 100.588 39.4118 100.483 40.1699H100.484Z" fill="white"/>
<path d="M90.7598 39.6367L90.4738 41.7083C90.3822 42.3717 89.8163 42.8703 89.1396 42.8848L89.0406 42.8868C88.2808 42.9025 87.6518 42.3068 87.6355 41.5552L87.5899 39.4349C87.5724 38.6133 88.2898 37.9636 89.1164 38.0538L89.5466 38.1005C90.3162 38.1843 90.8641 38.8787 90.7598 39.6367Z" fill="white"/>
<path d="M78.7955 39.7995L78.5095 41.871C78.4178 42.5344 77.852 43.0331 77.1753 43.0476L77.0763 43.0496C76.3165 43.0657 75.6875 42.4696 75.6712 41.718L75.6256 39.5977C75.608 38.776 76.3255 38.1267 77.1521 38.2166L77.5823 38.2633C78.3518 38.3471 78.8998 39.0415 78.7955 39.7995Z" fill="white"/>
<path d="M67.1387 39.2834L66.8528 41.3545C66.7611 42.0179 66.1952 42.5166 65.5185 42.5311L65.4195 42.5331C64.6598 42.5492 64.0307 41.9531 64.0144 41.2019L63.9688 39.0816C63.9513 38.2599 64.6687 37.6106 65.4953 37.7005L65.9259 37.7472C66.6955 37.831 67.2434 38.5254 67.1387 39.2838V39.2834Z" fill="white"/>
<path d="M55.166 37.7782L54.88 39.8497C54.7883 40.5127 54.2224 41.0118 53.5458 41.0263L53.4468 41.0283C52.687 41.0444 52.058 40.4479 52.0417 39.6967L51.996 37.5764C51.9785 36.7547 52.6959 36.105 53.5225 36.1948L53.9527 36.2416C54.7223 36.3253 55.2703 37.0197 55.166 37.7778V37.7782Z" fill="white"/>
<path d="M42.4825 38.0441L42.1965 40.1157C42.1048 40.779 41.539 41.2777 40.8623 41.2918L40.7633 41.2938C40.0035 41.3099 39.3745 40.7138 39.3582 39.9622L39.3126 37.8419C39.2951 37.0202 40.0125 36.3706 40.8391 36.4608L41.2697 36.5075C42.0393 36.5913 42.5872 37.2857 42.4825 38.0437V38.0441Z" fill="white"/>
<path d="M31.7771 37.8225L31.4911 39.894C31.3994 40.5574 30.8335 41.056 30.1568 41.0705L30.0579 41.0725C29.2981 41.0887 28.669 40.4925 28.6528 39.7409L28.6071 37.6207C28.5896 36.799 29.307 36.1497 30.1336 36.2395L30.5638 36.2862C31.3334 36.37 31.8813 37.0644 31.7766 37.8225H31.7771Z" fill="white"/>
<path d="M48.8966 61.209C48.9231 60.7615 49.396 60.5694 49.7444 60.8409C50.7282 61.607 51.1283 62.7972 51.6131 63.9073C52.1781 65.2006 52.7196 66.5044 53.2007 67.8308C53.7079 69.2293 54.1401 70.6527 54.4697 72.0983C55.1228 70.3716 55.8817 68.69 56.844 67.0941C57.0994 66.6704 57.8213 66.9181 57.6779 67.4216C56.8456 70.347 55.8214 73.2128 55.0376 76.1528C54.761 77.1903 53.3258 76.945 53.219 75.9481C52.9273 73.2253 52.2621 70.6205 51.3181 68.0491C50.8692 66.8267 50.3681 65.6231 49.8491 64.4281C49.3891 63.37 48.8273 62.3839 48.8966 61.209Z" fill="url(#paint9_linear_253_2437)"/>
<path d="M47.5448 63.3788C48.4007 63.2205 48.712 64.3036 47.9273 64.6452C42.7335 66.9044 42.0544 73.2708 45.8065 77.1255C47.5419 78.9082 49.8445 80.2922 52.0249 81.4816C54.2362 82.688 56.705 83.6099 59.2712 83.355C65.2195 82.7641 66.0282 76.7783 64.2499 72.1596C62.5393 67.7172 58.876 64.2875 54.391 62.6433C53.8117 62.4311 54.0362 61.4986 54.6302 61.7089C58.8381 63.2008 62.4199 66.144 64.6386 69.9954C66.6796 73.5379 67.9039 78.5352 65.2322 82.0914C62.4676 85.7713 57.22 85.8374 53.2662 84.3031C48.9173 82.6159 43.5022 79.485 41.7708 74.942C39.9571 70.1827 42.1957 64.3681 47.5448 63.3784V63.3788Z" fill="url(#paint10_linear_253_2437)"/>
<path d="M13.145 96.328C13.2688 96.328 13.3694 96.2293 13.3703 96.1069L13.644 57.0242C13.6448 56.9013 13.5446 56.8006 13.4204 56.7998H13.4191C13.2949 56.7998 13.1943 56.8985 13.1935 57.0209L12.9197 96.1036C12.9189 96.2265 13.0191 96.3272 13.1433 96.328H13.145Z" fill="white"/>
<path d="M13.4815 48.2713C13.6054 48.2713 13.706 48.1726 13.7068 48.0501L13.8025 34.4001C13.8034 34.2773 13.7031 34.1766 13.5789 34.1758H13.5777C13.4534 34.1758 13.3528 34.2745 13.352 34.3969L13.2562 48.0469C13.2554 48.1702 13.3556 48.2705 13.4799 48.2713H13.4815Z" fill="#91B3FA"/>
<path d="M99.2259 36.5379C100.399 35.9175 100.841 34.4745 100.213 33.3149C99.5857 32.1553 98.1262 31.7183 96.9533 32.3387C95.7805 32.9592 95.3384 34.4022 95.966 35.5618C96.5936 36.7213 98.0531 37.1584 99.2259 36.5379Z" fill="url(#paint11_linear_253_2437)"/>
<path d="M80.306 35.6352C81.0837 34.5682 80.8393 33.08 79.7602 32.311C78.6811 31.5421 77.1758 31.7837 76.3981 32.8506C75.6203 33.9176 75.8647 35.4058 76.9438 36.1747C78.0229 36.9437 79.5282 36.7021 80.306 35.6352Z" fill="url(#paint12_linear_253_2437)"/>
<path d="M58.6693 35.9798C59.993 35.8503 60.9599 34.6844 60.829 33.3757C60.698 32.0669 59.5187 31.1109 58.195 31.2404C56.8713 31.3699 55.9044 32.5358 56.0353 33.8446C56.1663 35.1533 57.3455 36.1093 58.6693 35.9798Z" fill="url(#paint13_linear_253_2437)"/>
<path d="M39.4597 34.952C40.7217 34.5362 41.4038 33.1877 40.9832 31.94C40.5627 30.6923 39.1988 30.0179 37.9368 30.4337C36.6749 30.8495 35.9928 32.198 36.4133 33.4457C36.8338 34.6933 38.1978 35.3677 39.4597 34.952Z" fill="url(#paint14_linear_253_2437)"/>
<path d="M36.8682 16.1881C40.9214 17.0626 40.5388 27.6051 40.2129 31.8855C40.1363 32.8929 39.2877 33.6698 38.266 33.6698C37.9824 33.6698 37.7123 33.549 37.5225 33.3404C37.333 33.1317 37.2426 32.8526 37.2727 32.5738C37.6227 29.3387 38.3678 20.0226 35.3841 19.5244C35.3841 19.5244 33.2436 19.1498 32.8835 23.249H30.5679C30.5679 23.249 31.7721 15.0893 36.8682 16.1885V16.1881Z" fill="url(#paint15_linear_253_2437)"/>
<path d="M56.6023 16.7304C60.6554 17.6048 60.2729 28.1509 59.947 32.4313C59.8704 33.4387 59.0218 34.2173 58.0001 34.2173C57.7165 34.2173 57.4464 34.0977 57.257 33.8886C57.0675 33.68 56.9771 33.4013 57.0072 33.1225C57.3572 29.8874 58.1023 20.5641 55.1186 20.0658C55.1186 20.0658 52.9781 19.7734 52.618 23.7831H50.3024C50.3024 23.7831 51.5066 15.6312 56.6027 16.7304H56.6023Z" fill="url(#paint16_linear_253_2437)"/>
<path d="M76.3369 17.2749C80.39 18.1493 80.0075 28.6979 79.6816 32.9783C79.605 33.9856 78.7564 34.7654 77.7346 34.7654C77.4511 34.7654 77.181 34.6462 76.9915 34.4376C76.8021 34.2289 76.7117 33.9506 76.7418 33.6719C77.0918 30.4367 77.8369 21.1086 74.8531 20.6103C74.8531 20.6103 72.7139 20.3723 72.3538 24.4025L70.0374 24.3228C70.0374 24.3228 71.2416 16.1757 76.3377 17.2749H76.3369Z" fill="url(#paint17_linear_253_2437)"/>
<path d="M96.071 17.9048C100.124 18.7792 99.7416 29.3334 99.4157 33.6138C99.3391 34.6212 98.4905 35.4038 97.4687 35.4038C97.1852 35.4038 96.9151 35.2862 96.7252 35.0771C96.5358 34.8685 96.4454 34.5906 96.4755 34.3118C96.8255 31.0767 97.5706 21.7377 94.5868 21.2394C94.5868 21.2394 92.4464 20.9313 92.0863 24.941H89.7706C89.7706 24.941 90.9749 16.8052 96.071 17.9044V17.9048Z" fill="url(#paint18_linear_253_2437)"/>
<path d="M16.6731 56.716L18.893 63.6762C18.893 63.6762 21.4689 65.5531 24.7537 63.7615C25.2585 63.4881 25.7804 63.1292 26.3096 62.6607C30.2963 59.1428 27.6511 54.0254 27.6511 54.0254C27.6511 54.0254 30.6939 52.8118 29.3418 50.2582C29.2485 50.0837 28.989 50.1111 28.9336 50.3025C28.7364 51.0065 28.2557 52.2374 27.2494 52.6749C27.1977 52.6954 27.1492 52.7192 27.1044 52.7397C27.0596 52.6064 27.0596 52.4493 27.1667 52.2817C27.4816 51.8101 26.9145 51.164 26.9145 51.164C26.9145 51.164 26.8767 51.7348 26.4408 52.0904C26.0639 52.4014 25.8843 53.0853 26.1401 53.6492C26.6864 55.7417 27.5024 58.5072 24.3248 60.5308C23.9997 60.7358 23.6607 60.8623 23.3152 60.9171C20.2793 61.4193 16.6731 56.7156 16.6731 56.7156V56.716Z" fill="url(#paint19_linear_253_2437)"/>
<path d="M16.6731 56.7161L18.893 63.6762C18.893 63.6762 21.4689 65.5532 24.7537 63.7616L23.3152 60.9175C20.2793 61.4198 16.6731 56.7161 16.6731 56.7161Z" fill="url(#paint20_linear_253_2437)"/>
<path d="M16.0078 48.1799C16.0078 48.1799 17.2646 43.8516 12.5616 45.0422C12.5616 45.0422 10.2574 44.7248 10.1918 46.8692C10.1918 46.8692 9.19617 48.3531 9.1538 50.1817C9.1538 50.1817 4.62604 51.3389 3.91147 53.1325C3.1802 54.9684 3.58596 57.8846 5.4449 58.3881C5.4449 58.3881 3.96688 59.1655 4.71485 60.8254C5.46282 62.4852 9.0764 63.584 11.1455 61.4956C11.1455 61.4956 17.1909 62.1429 16.97 57.937C16.97 57.937 19.7305 56.0821 16.7036 52.6726C13.6767 49.263 16.0074 48.1795 16.0074 48.1795L16.0078 48.1799Z" fill="url(#paint21_linear_253_2437)"/>
<path d="M16.3756 55.9505C15.4252 55.6689 12.6577 55.1485 10.0256 57.5503C9.57907 57.9576 9.39656 58.5766 9.55585 59.1562C10.2627 61.7296 12.1281 69.333 10.4924 72.6226C10.4924 72.6226 13.3747 75.7639 16.5194 73.232C16.5194 73.232 17.9302 67.1523 19.7782 64.4835C21.0541 62.6407 17.7436 57.564 16.906 56.3376C16.7793 56.1519 16.5923 56.0145 16.3752 55.9501L16.3756 55.9505Z" fill="url(#paint22_linear_253_2437)"/>
<path d="M13.7517 50.8376C13.7517 50.8376 12.3462 54.7687 12.2402 56.5027C12.2402 56.5027 13.7936 57.2012 15.2578 56.0222C15.2578 56.0222 15.4114 52.0959 15.6334 51.3926L13.7517 50.8372V50.8376Z" fill="url(#paint23_linear_253_2437)"/>
<path d="M16.0054 46.9543C16.0054 46.9543 19.8019 51.9545 17.6399 53.4827C15.4778 55.0108 12.7752 51.4579 12.7752 51.4579C12.7752 51.4579 11.8561 48.6943 12.7255 47.7293C13.5949 46.7642 16.005 46.9547 16.005 46.9547L16.0054 46.9543Z" fill="url(#paint24_linear_253_2437)"/>
<path d="M14.2752 45.7784C14.2752 45.7784 15.9732 46.1349 16.2278 46.8845C16.4824 47.6345 13.8678 48.3961 13.1316 48.4473L12.6101 51.5093C12.6101 51.5093 10.7858 48.6825 11.4421 47.0106C12.0985 45.3382 14.2756 45.7784 14.2756 45.7784H14.2752Z" fill="url(#paint25_linear_253_2437)"/>
<path d="M13.4791 51.0671C13.4791 51.0671 12.0096 49.4624 11.4657 50.5435C10.9219 51.6245 12.7979 52.383 13.4281 51.8441L13.4791 51.0671Z" fill="url(#paint26_linear_253_2437)"/>
<path d="M20.1905 85.9967C20.1799 86.2726 20.67 88.4617 20.9364 89.6294C21.044 90.099 20.969 90.5908 20.727 91.0089L11.4894 106.38C11.3777 106.567 11.2963 106.768 11.247 106.979C11.0775 107.7 10.7267 109.468 10.9101 111.076L11.3879 112.057L9.32122 111.593L8.87146 106.106L9.45648 105.753C9.96205 105.448 10.3556 104.993 10.5809 104.451C11.416 102.446 13.4905 97.3391 14.025 94.8503C14.6328 92.0219 17.8093 89.7248 17.8093 89.7248L17.2511 88.4202L20.1905 85.9958V85.9967Z" fill="url(#paint27_linear_253_2437)"/>
<path d="M7.02393 109.705C7.02393 109.705 8.14018 107.956 8.27136 107.275C8.40254 106.594 8.76838 105.391 9.45647 105.753C9.45647 105.753 9.78075 109.061 9.66913 110.354C9.5575 111.646 11.1472 111.605 11.1472 111.605C11.1472 111.605 11.5855 111.666 11.9061 111.983C12.1277 112.202 11.9693 112.582 11.6564 112.601C11.1362 112.634 10.31 112.643 9.44221 112.477C9.13911 112.419 8.91423 112.164 8.8959 111.859L8.66694 108.052L7.25899 109.809L7.02433 109.704L7.02393 109.705Z" fill="url(#paint28_linear_253_2437)"/>
<path d="M14.672 88.4451C14.672 88.4451 14.346 102.195 14.3021 104.148C14.2581 106.1 14.6141 110.428 16.594 111.722L15.7324 112.352C15.7324 112.352 14.6557 111.448 13.6038 109.706C12.4219 107.75 12.0646 107.393 12.0646 107.393L12.4566 106.599C12.6281 106.251 12.6786 105.858 12.5996 105.479C12.1722 103.432 10.7447 96.6213 10.3556 95.1543C9.8961 93.4231 9.8631 91.1112 11.4625 89.1758C13.0615 87.2404 14.672 88.4447 14.672 88.4447V88.4451Z" fill="url(#paint29_linear_253_2437)"/>
<path d="M12.8436 112.972C12.7821 112.973 12.7299 112.93 12.7214 112.869C12.6554 112.411 12.3812 110.573 12.1567 110.097C11.8997 109.552 11.0596 107.259 12.1572 107.064C12.1572 107.064 14.8855 111.005 15.4094 111.536C15.9333 112.068 16.5941 111.722 16.5941 111.722C16.5941 111.722 17.1045 111.871 17.4891 112.357C17.6724 112.589 17.5017 112.929 17.2043 112.931L15.3666 112.949C14.8329 112.953 14.353 112.633 14.1542 112.143C13.8307 111.344 13.275 110.173 12.6273 109.653L12.9638 112.839C12.9711 112.91 12.9153 112.972 12.8432 112.972H12.8436Z" fill="url(#paint30_linear_253_2437)"/>
<path d="M16.9545 71.7497C16.9545 71.7497 16.5406 73.0547 17.1766 75.2044L21.1234 88.8306C21.1853 89.0449 21.0684 89.2688 20.8565 89.3442C19.6759 89.7631 15.7951 90.9472 10.4974 90.5859C10.2305 90.5678 10.0069 90.3809 9.949 90.1231C9.59987 88.5696 8.40906 83.2693 8.16381 82.1806C7.22965 78.0307 6.18632 73.5558 10.776 70.8499C12.8912 71.7456 14.8642 72.2737 16.9549 71.7501L16.9545 71.7497Z" fill="url(#paint31_linear_253_2437)"/>
<path d="M4.19582 66.4812C4.19582 66.4812 4.16567 66.4832 4.16567 66.4795C4.6631 66.0933 7.30341 66.0792 7.30341 66.0792C7.30341 66.0792 9.22101 63.3338 9.8708 62.6527C9.89198 62.6317 9.91358 62.6108 9.93109 62.5931C9.94535 62.579 9.95961 62.5649 9.9808 62.5476C10.2187 62.33 10.4709 62.1121 10.7442 61.8874C11.0457 61.6381 11.2873 61.3187 11.4332 60.957C12.4488 58.4295 11.6462 56.776 9.79991 57.8362C9.79991 57.8362 5.8975 61.0411 4.38159 65.5842C4.36407 65.6405 4.34981 65.6929 4.33148 65.7457C4.27118 65.9563 4.21089 66.1565 4.15793 66.3426C4.15426 66.3567 4.16933 66.3768 4.16608 66.3905C4.15548 66.4219 4.20681 66.4493 4.19622 66.4812H4.19582Z" fill="url(#paint32_linear_253_2437)"/>
<path d="M13.8469 68.131C13.8469 68.131 9.31182 70.6654 7.78124 68.5012C7.46348 68.0517 7.22474 66.505 7.30296 66.0792C5.94349 65.4005 4.92053 66.3982 4.15707 66.3427C3.95664 67.3798 3.85968 68.3896 4.47606 69.5045C7.15671 74.3525 14.4466 69.2367 14.4466 69.2367L13.8465 68.131H13.8469Z" fill="url(#paint33_linear_253_2437)"/>
<path d="M13.3019 71.3373L15.7772 62.791C15.8053 62.6939 15.8888 62.6234 15.9903 62.6117C16.4388 62.5602 17.738 62.4148 19.2384 62.2895C21.0456 62.1385 23.1445 62.016 24.3985 62.1199C24.5769 62.1348 24.6844 62.3213 24.605 62.4796C23.8917 63.9063 20.9584 69.7088 19.489 71.61C19.4405 71.6728 19.3651 71.7098 19.2849 71.709L13.5418 71.6563C13.3748 71.6547 13.255 71.4964 13.3011 71.3373H13.3019Z" fill="url(#paint34_linear_253_2437)"/>
<path d="M19.4955 61.5479L21.2901 61.2523C21.3858 61.2366 21.4641 61.3268 21.4335 61.4178L21.2559 61.9499C21.2404 61.9962 21.1997 62.0297 21.1508 62.0361L19.4238 62.2641C19.3346 62.2758 19.2609 62.1956 19.2812 62.109L19.3912 61.6442C19.4031 61.5942 19.4442 61.556 19.4955 61.5475V61.5479Z" fill="url(#paint35_linear_253_2437)"/>
<path d="M18.1519 63.0499L18.2998 62.2886C18.3144 62.2121 18.3784 62.1545 18.4566 62.1468L22.0812 61.7831C22.203 61.7711 22.3008 61.8814 22.2722 61.9994L22.0417 62.948C22.0233 63.0237 21.9565 63.0789 21.8775 63.0825L18.3356 63.2589C18.2203 63.2646 18.1299 63.1623 18.1519 63.0499Z" fill="url(#paint36_linear_253_2437)"/>
<path d="M13.9 69.2722C13.9 69.2722 13.5553 67.8705 13.6943 67.373C13.8332 66.8756 14.1029 66.2364 15.0012 66.3786C15.8995 66.5207 16.9591 66.8949 16.9591 66.8949C16.9591 66.8949 16.9057 67.5426 16.2229 67.3336L16.6462 67.6574C16.6462 67.6574 16.5855 68.1762 16.0091 67.8991L16.403 68.3284C16.403 68.3284 16.1553 68.7546 15.7312 68.4811C15.3071 68.208 15.1034 69.4409 13.9004 69.2722H13.9Z" fill="url(#paint37_linear_253_2437)"/>
<path d="M94.604 110.055C95.8812 110.165 98.0974 110.342 99.8443 110.418C100.895 110.463 101.499 110.362 101.847 110.224C101.847 110.263 101.846 110.3 101.844 110.334C101.836 110.515 101.687 110.661 101.501 110.671C98.1993 110.853 95.5736 110.735 94.6391 110.678C94.446 110.666 94.3307 110.459 94.4293 110.296C94.4786 110.215 94.5385 110.135 94.6036 110.056L94.604 110.055Z" fill="url(#paint38_linear_253_2437)"/>
<path d="M99.8443 110.417C98.097 110.341 95.8808 110.164 94.604 110.055C95.8596 108.532 99.8443 107.506 99.8443 107.506H100.97C101.744 108.609 101.856 109.659 101.847 110.224C101.499 110.361 100.895 110.463 99.8443 110.417Z" fill="url(#paint39_linear_253_2437)"/>
<path d="M101.159 105.689L101.054 107.75C101.042 107.973 100.873 108.161 100.648 108.193C100.423 108.224 100.122 108.228 99.8023 108.123C99.606 108.058 99.4601 107.895 99.4239 107.695L99.0601 105.689H101.16H101.159Z" fill="url(#paint40_linear_253_2437)"/>
<path d="M114.222 112.432C114.776 112.333 115.026 111.966 115.131 111.573C115.132 111.577 115.133 111.58 115.133 111.583C115.215 111.998 115.026 112.428 114.648 112.632C114.192 112.879 113.693 112.921 113.305 112.901C112.89 112.879 112.508 112.659 112.299 112.307L112.296 112.302C112.713 112.566 113.299 112.597 114.222 112.432Z" fill="url(#paint41_linear_253_2437)"/>
<path d="M111.611 106.324H112.539C113.953 106.287 114.841 110.097 115.131 111.573C115.026 111.966 114.776 112.334 114.222 112.432C113.298 112.597 112.713 112.566 112.295 112.302C111.532 111.018 111.153 109.137 110.971 108.039C110.764 106.79 111.611 106.324 111.611 106.324V106.324Z" fill="url(#paint42_linear_253_2437)"/>
<path d="M112.42 104.411L112.935 106.438C112.999 106.687 112.878 106.944 112.646 107.062C112.357 107.208 111.952 107.362 111.578 107.317C111.403 107.296 111.257 107.174 111.199 107.011L110.443 104.878L112.42 104.411H112.42Z" fill="url(#paint43_linear_253_2437)"/>
<path d="M94.2896 77.7186C94.2896 77.7186 98.8955 106.183 98.8194 106.34C98.8194 106.34 100.091 106.911 101.478 106.413C101.478 106.413 101.062 91.1962 100.086 85.3618C100.086 85.3618 107.947 98.9623 110.443 105.739C110.443 105.739 111.745 105.586 112.822 104.884C112.822 104.884 104.359 80.4043 102.1 77.1438L94.2896 77.719V77.7186Z" fill="url(#paint44_linear_253_2437)"/>
<path d="M99.9021 85.2136C99.927 85.2136 99.9518 85.2072 99.9742 85.1931C100.038 85.1536 100.057 85.0706 100.017 85.0078L98.2962 82.2898C98.2762 82.2584 98.2444 82.2366 98.2078 82.2294L96.9412 81.9772C96.8671 81.9627 96.7958 82.0099 96.7811 82.0824C96.7664 82.1553 96.8141 82.2261 96.8874 82.2406L98.0966 82.4811L99.7868 85.15C99.8125 85.1907 99.8569 85.2132 99.9021 85.2132V85.2136Z" fill="url(#paint45_linear_253_2437)"/>
<path d="M73.154 49.8456C73.154 49.8456 76.262 50.5235 78.1523 51.3863C78.5279 51.5575 78.8273 51.8571 78.9976 52.2265C79.5631 53.451 81.2546 56.5214 84.5349 57.9867C84.0623 58.6066 83.3017 59.8959 82.9705 62.0633C81.0003 60.6137 79.2995 58.1921 78.4827 54.2215C78.4827 54.2215 77.861 54.5558 77.0853 54.1832C76.6755 53.9863 76.2021 53.7071 75.8472 53.4876C75.4932 53.2689 75.2296 52.9289 75.1274 52.5318C74.9921 52.0074 75.072 51.5462 75.072 51.0516L73.4746 50.5622C73.4746 50.5622 72.9943 50.3829 73.1548 49.8452L73.154 49.8456Z" fill="url(#paint46_linear_253_2437)"/>
<path d="M82.9701 62.0635C83.3013 59.8961 84.0619 58.6068 84.5345 57.9869C86.5723 58.8972 89.2232 59.188 92.5984 58.0316C92.9097 57.9249 93.234 57.8624 93.5631 57.8435C95.3601 57.7392 101.282 57.5491 106.181 59.1498C107.212 59.4865 108.048 60.2405 108.478 61.2168C109.804 64.224 111.95 71.073 105.992 74.5309C105.535 73.4076 105.006 72.5045 104.555 71.8407C105.514 70.2409 105.798 68.0557 104.095 65.2101C102.854 68.5242 102.272 73.36 102.15 75.5C102.11 76.2045 102.235 76.9078 102.515 77.5583L102.545 77.6291C102.605 77.7685 102.523 77.9284 102.372 77.9618C99.0185 78.7066 95.5304 78.5044 94.4883 78.419C94.3021 78.4037 94.1477 78.2724 94.105 78.0944C92.4742 71.3006 92.4705 66.6661 92.8697 63.7363C91.3441 64.0734 86.6794 64.7928 82.9701 62.0631V62.0635Z" fill="url(#paint47_linear_253_2437)"/>
<path d="M92.8637 63.9194C92.9309 63.9194 92.9892 63.8703 92.9985 63.8026C93.3815 60.942 94.1616 59.6938 94.1694 59.6813C94.2093 59.6184 94.1906 59.5355 94.127 59.4956C94.0639 59.4561 93.9799 59.4747 93.9396 59.5371C93.9062 59.589 93.1208 60.8389 92.7288 63.7671C92.7191 63.8408 92.7712 63.9085 92.8458 63.9182C92.8519 63.919 92.858 63.9194 92.8637 63.9194Z" fill="url(#paint48_linear_253_2437)"/>
<path d="M101.14 53.8857C101.14 53.8857 101.479 57.4323 101.778 58.4815C101.823 58.6406 101.753 58.8086 101.607 58.8912C101.1 59.1775 99.8843 59.6448 98.2209 58.8388C97.9516 58.7083 97.7895 58.4304 97.8021 58.1367L97.9487 54.7094L101.14 53.8857H101.14Z" fill="url(#paint49_linear_253_2437)"/>
<path d="M97.8755 49.3484C97.8755 49.3484 96.7901 51.813 96.7172 53.1064C96.6443 54.4001 96.3624 55.2395 97.8755 55.4997C99.3881 55.7603 100.663 55.0152 101.353 53.7267C101.353 53.7267 102.435 51.7409 102.192 50.9281C101.949 50.1149 97.8755 49.3484 97.8755 49.3484Z" fill="url(#paint50_linear_253_2437)"/>
<path d="M100.836 52.8005L100.75 52.7631C100.64 52.7152 100.594 52.5863 100.649 52.4811C100.862 52.0735 101.278 51.1399 100.741 50.922C100.048 50.6412 97.3055 50.0882 96.714 49.1259C96.1452 48.2011 96.6492 47.0077 97.4065 46.6681C97.457 46.6456 97.5169 46.6633 97.543 46.712L97.6061 46.8301C97.6493 46.911 97.7699 46.8985 97.7956 46.8107C97.8204 46.7265 97.9337 46.71 97.9805 46.7845C98.1626 47.0725 98.6535 47.539 99.9666 47.7786C101.833 48.119 103.067 48.8657 103.097 50.141C103.099 50.2219 103.187 50.267 103.257 50.2247C103.394 50.1418 103.615 50.1027 103.91 50.3476C104.422 50.7737 104.212 51.879 103.089 52.7885C103.035 52.8316 103.036 52.9141 103.094 52.9512C103.297 53.0821 103.601 53.3942 102.814 53.8099C102 54.2401 101.393 54.2047 101.159 54.1664C101.1 54.1567 101.063 54.1011 101.075 54.0443L101.325 52.9238C101.339 52.8606 101.291 52.8001 101.225 52.8001H100.836V52.8005Z" fill="url(#paint51_linear_253_2437)"/>
<path d="M100.789 53.037C100.789 53.037 101.203 51.4626 101.917 51.904C102.631 52.3455 101.547 53.6678 100.973 53.727L100.789 53.037H100.789Z" fill="url(#paint52_linear_253_2437)"/>
<path d="M77.6536 53.8555C77.6837 53.8555 77.7143 53.8458 77.7391 53.8253C77.7974 53.7786 77.8064 53.6936 77.7587 53.636C77.6414 53.493 76.598 52.2323 76.1963 52.0079C76.0501 51.9261 75.9629 51.842 75.9446 51.7642C75.9356 51.7272 75.9417 51.6853 75.9629 51.6378L77.1883 51.8806L77.8825 52.4695C77.9392 52.5178 78.0255 52.5114 78.0744 52.455C78.1233 52.3986 78.1168 52.3136 78.0597 52.2653L77.3387 51.6535C77.3211 51.6386 77.2996 51.6281 77.2767 51.6237L75.9201 51.355C75.8655 51.3441 75.8109 51.3667 75.7804 51.4118C75.681 51.5576 75.648 51.6933 75.6798 51.8263C75.7172 51.9833 75.8423 52.1195 76.0627 52.2427C76.365 52.4115 77.2372 53.4285 77.5477 53.8063C77.5745 53.839 77.6137 53.8559 77.6532 53.8559L77.6536 53.8555Z" fill="url(#paint53_linear_253_2437)"/>
<path d="M100.842 76.2353L96.0449 76.2941L97.7238 74.7317C98.141 74.3434 98.7781 74.2806 99.2597 74.5895C99.5416 74.7704 99.8475 75.0161 100.112 75.3411C100.112 75.3411 103.105 74.26 104.555 71.8413C105.007 72.5047 105.535 73.4077 105.993 74.5315C104.692 75.2863 103.007 75.8796 100.842 76.2361V76.2353Z" fill="url(#paint54_linear_253_2437)"/>
<path d="M100.325 76.8469C100.316 76.8473 100.306 76.8477 100.297 76.8477L88.1212 76.8348C87.8201 76.8348 87.5765 76.5956 87.5769 76.3011C87.5769 76.0067 87.8222 75.7634 88.1224 75.7686L100.298 75.7815C100.599 75.7815 100.843 76.0208 100.842 76.3152C100.842 76.6004 100.613 76.8332 100.325 76.8473L100.325 76.8469Z" fill="url(#paint55_linear_253_2437)"/>
<path d="M77.1757 66.033H87.3157C88.0637 66.033 88.7444 66.4551 89.0638 67.1173L93.7517 76.8409H81.1506C80.6687 76.8409 80.2356 76.5529 80.0584 76.1143L76.4232 67.1164C76.213 66.5965 76.6049 66.033 77.1765 66.033H77.1757Z" fill="url(#paint56_linear_253_2437)"/>
<path d="M83.9597 72.4697C84.3783 72.3333 84.5375 71.682 84.3151 71.015C84.0928 70.348 83.5732 69.9179 83.1546 70.0543C82.736 70.1907 82.5768 70.842 82.7992 71.509C83.0215 72.176 83.5411 72.6061 83.9597 72.4697Z" fill="url(#paint57_linear_253_2437)"/>
</g>
<defs>
<linearGradient id="paint0_linear_253_2437" x1="121.381" y1="127.205" x2="39.3047" y2="37.6011" gradientUnits="userSpaceOnUse">
<stop stop-color="#DAE3FE"/>
<stop offset="1" stop-color="#E9EFFD"/>
</linearGradient>
<linearGradient id="paint1_linear_253_2437" x1="15.4369" y1="23.1967" x2="21.6061" y2="23.1967" gradientUnits="userSpaceOnUse">
<stop stop-color="#DAE3FE"/>
<stop offset="1" stop-color="#E9EFFD"/>
</linearGradient>
<linearGradient id="paint2_linear_253_2437" x1="10.8774" y1="23.2275" x2="26.0508" y2="23.2275" gradientUnits="userSpaceOnUse">
<stop stop-color="#DAE3FE"/>
<stop offset="1" stop-color="#E9EFFD"/>
</linearGradient>
<linearGradient id="paint3_linear_253_2437" x1="40.4449" y1="15.8193" x2="44.6471" y2="15.8193" gradientUnits="userSpaceOnUse">
<stop stop-color="#DAE3FE"/>
<stop offset="1" stop-color="#E9EFFD"/>
</linearGradient>
<linearGradient id="paint4_linear_253_2437" x1="37.2733" y1="15.8428" x2="47.7417" y2="15.8428" gradientUnits="userSpaceOnUse">
<stop stop-color="#DAE3FE"/>
<stop offset="1" stop-color="#E9EFFD"/>
</linearGradient>
<linearGradient id="paint5_linear_253_2437" x1="11.5573" y1="18.8428" x2="13.3227" y2="85.3236" gradientUnits="userSpaceOnUse">
<stop stop-color="#09005D"/>
<stop offset="1" stop-color="#1A0F91"/>
</linearGradient>
<linearGradient id="paint6_linear_253_2437" x1="63.955" y1="103.976" x2="62.1713" y2="-24.4387" gradientUnits="userSpaceOnUse">
<stop stop-color="#09005D"/>
<stop offset="1" stop-color="#1A0F91"/>
</linearGradient>
<linearGradient id="paint7_linear_253_2437" x1="-3.80023" y1="109.725" x2="99.2606" y2="35.8112" gradientUnits="userSpaceOnUse">
<stop stop-color="#4F52FF"/>
<stop offset="1" stop-color="#4042E2"/>
</linearGradient>
<linearGradient id="paint8_linear_253_2437" x1="65.3907" y1="43.4232" x2="61.5532" y2="95.1079" gradientUnits="userSpaceOnUse">
<stop stop-color="#FF928E"/>
<stop offset="1" stop-color="#FE7062"/>
</linearGradient>
<linearGradient id="paint9_linear_253_2437" x1="-94.1905" y1="-357.009" x2="-75.8355" y2="-303.225" gradientUnits="userSpaceOnUse">
<stop stop-color="#FF928E"/>
<stop offset="1" stop-color="#FE7062"/>
</linearGradient>
<linearGradient id="paint10_linear_253_2437" x1="-96.3236" y1="-356.28" x2="-77.9682" y2="-302.496" gradientUnits="userSpaceOnUse">
<stop stop-color="#FF928E"/>
<stop offset="1" stop-color="#FE7062"/>
</linearGradient>
<linearGradient id="paint11_linear_253_2437" x1="94.8382" y1="28.1829" x2="100.542" y2="39.3744" gradientUnits="userSpaceOnUse">
<stop stop-color="#4F52FF"/>
<stop offset="1" stop-color="#4042E2"/>
</linearGradient>
<linearGradient id="paint12_linear_253_2437" x1="75.0962" y1="28.007" x2="80.7995" y2="39.1985" gradientUnits="userSpaceOnUse">
<stop stop-color="#4F52FF"/>
<stop offset="1" stop-color="#4042E2"/>
</linearGradient>
<linearGradient id="paint13_linear_253_2437" x1="55.1803" y1="27.3582" x2="60.884" y2="38.55" gradientUnits="userSpaceOnUse">
<stop stop-color="#4F52FF"/>
<stop offset="1" stop-color="#4042E2"/>
</linearGradient>
<linearGradient id="paint14_linear_253_2437" x1="35.4467" y1="26.4425" x2="41.1504" y2="37.634" gradientUnits="userSpaceOnUse">
<stop stop-color="#4F52FF"/>
<stop offset="1" stop-color="#4042E2"/>
</linearGradient>
<linearGradient id="paint15_linear_253_2437" x1="25.1467" y1="2.19052" x2="45.8517" y2="42.8176" gradientUnits="userSpaceOnUse">
<stop stop-color="#FF928E"/>
<stop offset="1" stop-color="#FE7062"/>
</linearGradient>
<linearGradient id="paint16_linear_253_2437" x1="44.88" y1="2.72672" x2="65.5913" y2="43.3663" gradientUnits="userSpaceOnUse">
<stop stop-color="#FF928E"/>
<stop offset="1" stop-color="#FE7062"/>
</linearGradient>
<linearGradient id="paint17_linear_253_2437" x1="64.6133" y1="3.26758" x2="85.3291" y2="43.9153" gradientUnits="userSpaceOnUse">
<stop stop-color="#FF928E"/>
<stop offset="1" stop-color="#FE7062"/>
</linearGradient>
<linearGradient id="paint18_linear_253_2437" x1="84.3458" y1="3.88825" x2="105.071" y2="44.555" gradientUnits="userSpaceOnUse">
<stop stop-color="#FF928E"/>
<stop offset="1" stop-color="#FE7062"/>
</linearGradient>
<linearGradient id="paint19_linear_253_2437" x1="19.0865" y1="50.8486" x2="27.9312" y2="61.8461" gradientUnits="userSpaceOnUse">
<stop stop-color="#FEBBBA"/>
<stop offset="1" stop-color="#FF928E"/>
</linearGradient>
<linearGradient id="paint20_linear_253_2437" x1="-0.300118" y1="78.518" x2="18.6099" y2="61.6906" gradientUnits="userSpaceOnUse">
<stop stop-color="#FF928E"/>
<stop offset="1" stop-color="#FE7062"/>
</linearGradient>
<linearGradient id="paint21_linear_253_2437" x1="17.9449" y1="41.5859" x2="1.91552" y2="73.1903" gradientUnits="userSpaceOnUse">
<stop stop-color="#E1473D"/>
<stop offset="1" stop-color="#E9605A"/>
</linearGradient>
<linearGradient id="paint22_linear_253_2437" x1="-0.963445" y1="77.773" x2="17.9465" y2="60.9456" gradientUnits="userSpaceOnUse">
<stop stop-color="#FF928E"/>
<stop offset="1" stop-color="#FE7062"/>
</linearGradient>
<linearGradient id="paint23_linear_253_2437" x1="14.0572" y1="58.7765" x2="13.8776" y2="51.4227" gradientUnits="userSpaceOnUse">
<stop stop-color="#FEBBBA"/>
<stop offset="1" stop-color="#FF928E"/>
</linearGradient>
<linearGradient id="paint24_linear_253_2437" x1="16.3922" y1="47.9753" x2="12.1619" y2="57.8416" gradientUnits="userSpaceOnUse">
<stop stop-color="#FEBBBA"/>
<stop offset="1" stop-color="#FF928E"/>
</linearGradient>
<linearGradient id="paint25_linear_253_2437" x1="16.9342" y1="41.0731" x2="0.905205" y2="72.6775" gradientUnits="userSpaceOnUse">
<stop stop-color="#E1473D"/>
<stop offset="1" stop-color="#E9605A"/>
</linearGradient>
<linearGradient id="paint26_linear_253_2437" x1="14.2314" y1="47.0487" x2="10.001" y2="56.9146" gradientUnits="userSpaceOnUse">
<stop stop-color="#FEBBBA"/>
<stop offset="1" stop-color="#FF928E"/>
</linearGradient>
<linearGradient id="paint27_linear_253_2437" x1="3.38742" y1="119.724" x2="19.786" y2="89.7919" gradientUnits="userSpaceOnUse">
<stop stop-color="#FEBBBA"/>
<stop offset="1" stop-color="#FF928E"/>
</linearGradient>
<linearGradient id="paint28_linear_253_2437" x1="6.15088" y1="99.0903" x2="11.2754" y2="117.551" gradientUnits="userSpaceOnUse">
<stop stop-color="#09005D"/>
<stop offset="1" stop-color="#1A0F91"/>
</linearGradient>
<linearGradient id="paint29_linear_253_2437" x1="16.8267" y1="98.4991" x2="33.8741" y2="86.7891" gradientUnits="userSpaceOnUse">
<stop stop-color="#FEBBBA"/>
<stop offset="1" stop-color="#FF928E"/>
</linearGradient>
<linearGradient id="paint30_linear_253_2437" x1="31.7153" y1="96.1489" x2="22.5037" y2="103.81" gradientUnits="userSpaceOnUse">
<stop stop-color="#09005D"/>
<stop offset="1" stop-color="#1A0F91"/>
</linearGradient>
<linearGradient id="paint31_linear_253_2437" x1="8.26362" y1="72.923" x2="18.6304" y2="89.3705" gradientUnits="userSpaceOnUse">
<stop stop-color="#4F52FF"/>
<stop offset="1" stop-color="#4042E2"/>
</linearGradient>
<linearGradient id="paint32_linear_253_2437" x1="-4.74524" y1="73.5227" x2="14.1647" y2="56.6952" gradientUnits="userSpaceOnUse">
<stop stop-color="#FF928E"/>
<stop offset="1" stop-color="#FE7062"/>
</linearGradient>
<linearGradient id="paint33_linear_253_2437" x1="4.00471" y1="68.7171" x2="14.447" y2="68.7171" gradientUnits="userSpaceOnUse">
<stop stop-color="#FEBBBA"/>
<stop offset="1" stop-color="#FF928E"/>
</linearGradient>
<linearGradient id="paint34_linear_253_2437" x1="17.6496" y1="61.4803" x2="23.3457" y2="85.4863" gradientUnits="userSpaceOnUse">
<stop stop-color="#09005D"/>
<stop offset="1" stop-color="#1A0F91"/>
</linearGradient>
<linearGradient id="paint35_linear_253_2437" x1="21.2938" y1="57.7009" x2="20.0806" y2="63.0885" gradientUnits="userSpaceOnUse">
<stop stop-color="#4F52FF"/>
<stop offset="1" stop-color="#4042E2"/>
</linearGradient>
<linearGradient id="paint36_linear_253_2437" x1="20.6447" y1="59.9581" x2="20.0649" y2="63.477" gradientUnits="userSpaceOnUse">
<stop stop-color="#4F52FF"/>
<stop offset="1" stop-color="#4042E2"/>
</linearGradient>
<linearGradient id="paint37_linear_253_2437" x1="13.6613" y1="67.8234" x2="16.9591" y2="67.8234" gradientUnits="userSpaceOnUse">
<stop stop-color="#FEBBBA"/>
<stop offset="1" stop-color="#FF928E"/>
</linearGradient>
<linearGradient id="paint38_linear_253_2437" x1="94.3934" y1="110.412" x2="101.847" y2="110.412" gradientUnits="userSpaceOnUse">
<stop stop-color="#4F52FF"/>
<stop offset="1" stop-color="#4042E2"/>
</linearGradient>
<linearGradient id="paint39_linear_253_2437" x1="101.848" y1="108.967" x2="94.604" y2="108.967" gradientUnits="userSpaceOnUse">
<stop stop-color="#09005D"/>
<stop offset="1" stop-color="#1A0F91"/>
</linearGradient>
<linearGradient id="paint40_linear_253_2437" x1="101.159" y1="106.951" x2="99.0597" y2="106.951" gradientUnits="userSpaceOnUse">
<stop stop-color="#FEBBBA"/>
<stop offset="1" stop-color="#FF928E"/>
</linearGradient>
<linearGradient id="paint41_linear_253_2437" x1="112.296" y1="112.239" x2="115.152" y2="112.239" gradientUnits="userSpaceOnUse">
<stop stop-color="#4F52FF"/>
<stop offset="1" stop-color="#4042E2"/>
</linearGradient>
<linearGradient id="paint42_linear_253_2437" x1="115.131" y1="109.429" x2="110.938" y2="109.429" gradientUnits="userSpaceOnUse">
<stop stop-color="#09005D"/>
<stop offset="1" stop-color="#1A0F91"/>
</linearGradient>
<linearGradient id="paint43_linear_253_2437" x1="112.952" y1="105.868" x2="110.443" y2="105.868" gradientUnits="userSpaceOnUse">
<stop stop-color="#FEBBBA"/>
<stop offset="1" stop-color="#FF928E"/>
</linearGradient>
<linearGradient id="paint44_linear_253_2437" x1="88.7926" y1="72.84" x2="109.863" y2="107.75" gradientUnits="userSpaceOnUse">
<stop stop-color="#09005D"/>
<stop offset="1" stop-color="#1A0F91"/>
</linearGradient>
<linearGradient id="paint45_linear_253_2437" x1="116.89" y1="67.2796" x2="105.437" y2="77.6221" gradientUnits="userSpaceOnUse">
<stop stop-color="#4F52FF"/>
<stop offset="1" stop-color="#4042E2"/>
</linearGradient>
<linearGradient id="paint46_linear_253_2437" x1="91.3062" y1="64.8522" x2="73.6892" y2="51.1774" gradientUnits="userSpaceOnUse">
<stop stop-color="#FEBBBA"/>
<stop offset="1" stop-color="#FF928E"/>
</linearGradient>
<linearGradient id="paint47_linear_253_2437" x1="82.379" y1="82.6426" x2="100.309" y2="59.9739" gradientUnits="userSpaceOnUse">
<stop stop-color="#FF928E"/>
<stop offset="1" stop-color="#FE7062"/>
</linearGradient>
<linearGradient id="paint48_linear_253_2437" x1="101.882" y1="39.627" x2="97.0212" y2="52.6007" gradientUnits="userSpaceOnUse">
<stop stop-color="#E1473D"/>
<stop offset="1" stop-color="#E9605A"/>
</linearGradient>
<linearGradient id="paint49_linear_253_2437" x1="100.59" y1="61.8722" x2="99.5261" y2="56.2239" gradientUnits="userSpaceOnUse">
<stop stop-color="#FEBBBA"/>
<stop offset="1" stop-color="#FF928E"/>
</linearGradient>
<linearGradient id="paint50_linear_253_2437" x1="97.6477" y1="51.5178" x2="103.799" y2="56.2782" gradientUnits="userSpaceOnUse">
<stop stop-color="#FEBBBA"/>
<stop offset="1" stop-color="#FF928E"/>
</linearGradient>
<linearGradient id="paint51_linear_253_2437" x1="102.015" y1="47.802" x2="96.319" y2="55.2192" gradientUnits="userSpaceOnUse">
<stop stop-color="#09005D"/>
<stop offset="1" stop-color="#1A0F91"/>
</linearGradient>
<linearGradient id="paint52_linear_253_2437" x1="98.4172" y1="50.5237" x2="104.568" y2="55.284" gradientUnits="userSpaceOnUse">
<stop stop-color="#FEBBBA"/>
<stop offset="1" stop-color="#FF928E"/>
</linearGradient>
<linearGradient id="paint53_linear_253_2437" x1="75.6684" y1="52.6036" x2="78.1074" y2="52.6036" gradientUnits="userSpaceOnUse">
<stop stop-color="#FF928E"/>
<stop offset="1" stop-color="#FE7062"/>
</linearGradient>
<linearGradient id="paint54_linear_253_2437" x1="100.288" y1="76.6494" x2="109.226" y2="61.1724" gradientUnits="userSpaceOnUse">
<stop stop-color="#FEBBBA"/>
<stop offset="1" stop-color="#FF928E"/>
</linearGradient>
<linearGradient id="paint55_linear_253_2437" x1="102.388" y1="73.6523" x2="92.7454" y2="76.8508" gradientUnits="userSpaceOnUse">
<stop stop-color="#09005D"/>
<stop offset="1" stop-color="#1A0F91"/>
</linearGradient>
<linearGradient id="paint56_linear_253_2437" x1="79.5724" y1="79.221" x2="88.2562" y2="67.0525" gradientUnits="userSpaceOnUse">
<stop stop-color="#09005D"/>
<stop offset="1" stop-color="#1A0F91"/>
</linearGradient>
<linearGradient id="paint57_linear_253_2437" x1="82.7018" y1="71.2585" x2="84.4185" y2="71.2585" gradientUnits="userSpaceOnUse">
<stop stop-color="#4F52FF"/>
<stop offset="1" stop-color="#4042E2"/>
</linearGradient>
<clipPath id="clip0_253_2437">
<rect width="114.545" height="112.097" fill="white" transform="translate(0.606689 0.875)"/>
</clipPath>
</defs>
</svg>
