<svg width="70" height="70" viewBox="0 0 70 70" fill="none" xmlns="http://www.w3.org/2000/svg">
<path d="M55.4167 24.57V20.4166C55.4167 9.14088 46.276 0 35.0001 0C23.7242 0 14.5835 9.14088 14.5835 20.4166V24.57C9.27525 26.8867 5.84115 32.1249 5.8335 37.9166V55.4166C5.84307 63.4668 12.3666 69.9904 20.4167 70H49.5834C57.6335 69.9904 64.157 63.4668 64.1667 55.4166V37.9166C64.1592 32.1249 60.725 26.8867 55.4167 24.57ZM37.9167 49.5834C37.9167 51.1942 36.6109 52.5 35.0001 52.5C33.3893 52.5 32.0835 51.1942 32.0835 49.5834V43.75C32.0835 42.1392 33.3893 40.8334 35.0001 40.8334C36.6109 40.8334 37.9167 42.1392 37.9167 43.75V49.5834ZM49.5835 23.3334H20.4167V20.4168C20.4167 12.3627 26.9459 5.83338 35.0001 5.83338C43.0544 5.83338 49.5835 12.3625 49.5835 20.4168V23.3334Z" fill="#2F9E41"/>
</svg>
