<svg width="258" height="197" viewBox="0 0 258 197" fill="none" xmlns="http://www.w3.org/2000/svg">
<path fill-rule="evenodd" clip-rule="evenodd" d="M76 73.8631V76.0051C76 83.6677 83.2014 91.0001 90.629 91.0001H180.492C182.448 91.0001 183 88.8038 183 87.1442C183 86.4466 181.276 84.0957 180.756 83.0176C179.95 81.3462 179.662 80.0132 179.238 78.1473H97.3163C93.2921 78.1484 88.9415 78.7033 88.6529 75.0932C88.3328 71.0899 93.0737 71.7185 96.8984 71.7209H179.238C179.662 69.8552 179.95 68.522 180.756 66.8506C182.33 63.5896 183 64.4961 183 61.4388C183 60.4071 181.499 58.8682 180.492 58.8682H90.629C83.2014 58.8682 76 66.2006 76 73.8631Z" fill="#2F9E41"/>
<path fill-rule="evenodd" clip-rule="evenodd" d="M78.0222 52.6332C78.0222 55.9582 84.5553 57.9689 85.1277 50.9193H85.9637C86.536 57.9689 93.0691 55.9582 93.0691 52.6332C93.0691 50.2118 89.701 42.7151 89.0534 39.6121C88.4366 36.6563 88.8894 26.3864 88.8894 22.6433L110.044 29.6645C113.548 30.8588 130.102 36.3529 131.522 36.3529C133.561 36.3529 136.09 35.0788 138.059 34.4848C140.509 33.7459 142.171 33.2155 144.426 32.4424C146.389 31.7694 148.832 31.0908 150.805 30.4125L169.818 24.1962C174.117 22.7144 180.843 21.5747 180.843 18.3591C180.843 14.5248 175.393 14.0074 170.133 12.1991L144.739 3.95468C128.066 -1.77796 133.81 -0.517271 121.491 2.93576L91.653 12.6233C79.8925 16.6315 82.0649 12.9581 82.2121 36.3634C82.2328 39.6234 82.0396 39.6922 81.2095 42.1906C80.5991 44.0277 78.0222 51.2694 78.0222 52.6332Z" fill="#2F9E41"/>
<path fill-rule="evenodd" clip-rule="evenodd" d="M98.9207 47.0636C107.318 51.6178 121.742 54.7752 131.522 54.7752C139.328 54.7752 150.203 52.8699 157.023 50.0674C159.217 49.166 162.138 48.1405 164.124 47.0636V32.4971L140.04 40.3708C138.061 41.0511 133.435 42.6565 131.483 42.7153C128.706 42.799 103.785 33.6589 98.9207 32.4971V47.0636Z" fill="#2F9E41"/>
<path d="M60.875 136.047C60.875 135.641 60.8125 135.276 60.6875 134.953C60.5729 134.62 60.3542 134.318 60.0312 134.047C59.7083 133.766 59.2552 133.49 58.6719 133.219C58.0885 132.948 57.3333 132.667 56.4062 132.375C55.375 132.042 54.3958 131.667 53.4688 131.25C52.5521 130.833 51.7396 130.349 51.0312 129.797C50.3333 129.234 49.7812 128.583 49.375 127.844C48.9792 127.104 48.7812 126.245 48.7812 125.266C48.7812 124.318 48.9896 123.458 49.4062 122.688C49.8229 121.906 50.4062 121.24 51.1562 120.688C51.9062 120.125 52.7917 119.693 53.8125 119.391C54.8438 119.089 55.974 118.938 57.2031 118.938C58.8802 118.938 60.3438 119.24 61.5938 119.844C62.8438 120.448 63.8125 121.276 64.5 122.328C65.1979 123.38 65.5469 124.583 65.5469 125.938H60.8906C60.8906 125.271 60.75 124.688 60.4688 124.188C60.1979 123.677 59.7812 123.276 59.2188 122.984C58.6667 122.693 57.9688 122.547 57.125 122.547C56.3125 122.547 55.6354 122.672 55.0938 122.922C54.5521 123.161 54.1458 123.49 53.875 123.906C53.6042 124.312 53.4688 124.771 53.4688 125.281C53.4688 125.667 53.5625 126.016 53.75 126.328C53.9479 126.641 54.2396 126.932 54.625 127.203C55.0104 127.474 55.4844 127.729 56.0469 127.969C56.6094 128.208 57.2604 128.443 58 128.672C59.2396 129.047 60.3281 129.469 61.2656 129.938C62.2135 130.406 63.0052 130.932 63.6406 131.516C64.276 132.099 64.7552 132.76 65.0781 133.5C65.401 134.24 65.5625 135.078 65.5625 136.016C65.5625 137.005 65.3698 137.891 64.9844 138.672C64.599 139.453 64.0417 140.115 63.3125 140.656C62.5833 141.198 61.7135 141.609 60.7031 141.891C59.6927 142.172 58.5625 142.312 57.3125 142.312C56.1875 142.312 55.0781 142.167 53.9844 141.875C52.8906 141.573 51.8958 141.12 51 140.516C50.1146 139.911 49.4062 139.141 48.875 138.203C48.3438 137.266 48.0781 136.156 48.0781 134.875H52.7812C52.7812 135.583 52.8906 136.182 53.1094 136.672C53.3281 137.161 53.6354 137.557 54.0312 137.859C54.4375 138.161 54.9167 138.38 55.4688 138.516C56.0312 138.651 56.6458 138.719 57.3125 138.719C58.125 138.719 58.7917 138.604 59.3125 138.375C59.8438 138.146 60.2344 137.828 60.4844 137.422C60.7448 137.016 60.875 136.557 60.875 136.047ZM73.7344 119.25V142H69.0625V119.25H73.7344ZM96.1562 130.109V139.125C95.8021 139.552 95.2552 140.016 94.5156 140.516C93.776 141.005 92.8229 141.427 91.6562 141.781C90.4896 142.135 89.0781 142.312 87.4219 142.312C85.9531 142.312 84.6146 142.073 83.4062 141.594C82.1979 141.104 81.1562 140.391 80.2812 139.453C79.4167 138.516 78.75 137.37 78.2812 136.016C77.8125 134.651 77.5781 133.094 77.5781 131.344V129.922C77.5781 128.172 77.8021 126.615 78.25 125.25C78.7083 123.885 79.3594 122.734 80.2031 121.797C81.0469 120.859 82.0521 120.146 83.2188 119.656C84.3854 119.167 85.6823 118.922 87.1094 118.922C89.0885 118.922 90.7135 119.245 91.9844 119.891C93.2552 120.526 94.224 121.411 94.8906 122.547C95.5677 123.672 95.9844 124.964 96.1406 126.422H91.5938C91.4792 125.651 91.2604 124.979 90.9375 124.406C90.6146 123.833 90.151 123.385 89.5469 123.062C88.9531 122.74 88.1823 122.578 87.2344 122.578C86.4531 122.578 85.7552 122.74 85.1406 123.062C84.5365 123.375 84.026 123.839 83.6094 124.453C83.1927 125.068 82.875 125.828 82.6562 126.734C82.4375 127.641 82.3281 128.693 82.3281 129.891V131.344C82.3281 132.531 82.4427 133.583 82.6719 134.5C82.901 135.406 83.2396 136.172 83.6875 136.797C84.1458 137.411 84.7083 137.875 85.375 138.188C86.0417 138.5 86.8177 138.656 87.7031 138.656C88.4427 138.656 89.0573 138.594 89.5469 138.469C90.0469 138.344 90.4479 138.193 90.75 138.016C91.0625 137.828 91.3021 137.651 91.4688 137.484V133.453H87.1875V130.109H96.1562ZM118.625 130.094V131.172C118.625 132.901 118.391 134.453 117.922 135.828C117.453 137.203 116.792 138.375 115.938 139.344C115.083 140.302 114.062 141.036 112.875 141.547C111.698 142.057 110.391 142.312 108.953 142.312C107.526 142.312 106.219 142.057 105.031 141.547C103.854 141.036 102.833 140.302 101.969 139.344C101.104 138.375 100.432 137.203 99.9531 135.828C99.4844 134.453 99.25 132.901 99.25 131.172V130.094C99.25 128.354 99.4844 126.802 99.9531 125.438C100.422 124.062 101.083 122.891 101.938 121.922C102.802 120.953 103.823 120.214 105 119.703C106.188 119.193 107.495 118.938 108.922 118.938C110.359 118.938 111.667 119.193 112.844 119.703C114.031 120.214 115.052 120.953 115.906 121.922C116.771 122.891 117.438 124.062 117.906 125.438C118.385 126.802 118.625 128.354 118.625 130.094ZM113.891 131.172V130.062C113.891 128.854 113.781 127.792 113.562 126.875C113.344 125.958 113.021 125.188 112.594 124.562C112.167 123.938 111.646 123.469 111.031 123.156C110.417 122.833 109.714 122.672 108.922 122.672C108.13 122.672 107.427 122.833 106.812 123.156C106.208 123.469 105.693 123.938 105.266 124.562C104.849 125.188 104.531 125.958 104.312 126.875C104.094 127.792 103.984 128.854 103.984 130.062V131.172C103.984 132.37 104.094 133.432 104.312 134.359C104.531 135.276 104.854 136.052 105.281 136.688C105.708 137.312 106.229 137.786 106.844 138.109C107.458 138.432 108.161 138.594 108.953 138.594C109.745 138.594 110.448 138.432 111.062 138.109C111.677 137.786 112.193 137.312 112.609 136.688C113.026 136.052 113.344 135.276 113.562 134.359C113.781 133.432 113.891 132.37 113.891 131.172ZM138.562 130.469V134H129.734V130.469H138.562ZM159.891 119.25V142H155.219V119.25H159.891ZM166.891 119.25V122.922H148.328V119.25H166.891ZM182.312 134.453H186.984C186.891 135.984 186.469 137.344 185.719 138.531C184.979 139.719 183.943 140.646 182.609 141.312C181.286 141.979 179.693 142.312 177.828 142.312C176.37 142.312 175.062 142.062 173.906 141.562C172.75 141.052 171.76 140.323 170.938 139.375C170.125 138.427 169.505 137.281 169.078 135.938C168.651 134.594 168.438 133.089 168.438 131.422V129.844C168.438 128.177 168.656 126.672 169.094 125.328C169.542 123.974 170.177 122.823 171 121.875C171.833 120.927 172.828 120.198 173.984 119.688C175.141 119.177 176.432 118.922 177.859 118.922C179.755 118.922 181.354 119.266 182.656 119.953C183.969 120.641 184.984 121.589 185.703 122.797C186.432 124.005 186.87 125.38 187.016 126.922H182.328C182.276 126.005 182.094 125.229 181.781 124.594C181.469 123.948 180.995 123.464 180.359 123.141C179.734 122.807 178.901 122.641 177.859 122.641C177.078 122.641 176.396 122.786 175.812 123.078C175.229 123.37 174.74 123.812 174.344 124.406C173.948 125 173.651 125.75 173.453 126.656C173.266 127.552 173.172 128.604 173.172 129.812V131.422C173.172 132.599 173.26 133.635 173.438 134.531C173.615 135.417 173.885 136.167 174.25 136.781C174.625 137.385 175.104 137.844 175.688 138.156C176.281 138.458 176.995 138.609 177.828 138.609C178.807 138.609 179.615 138.453 180.25 138.141C180.885 137.828 181.37 137.365 181.703 136.75C182.047 136.135 182.25 135.37 182.312 134.453ZM203.25 134.453H207.922C207.828 135.984 207.406 137.344 206.656 138.531C205.917 139.719 204.88 140.646 203.547 141.312C202.224 141.979 200.63 142.312 198.766 142.312C197.307 142.312 196 142.062 194.844 141.562C193.688 141.052 192.698 140.323 191.875 139.375C191.062 138.427 190.443 137.281 190.016 135.938C189.589 134.594 189.375 133.089 189.375 131.422V129.844C189.375 128.177 189.594 126.672 190.031 125.328C190.479 123.974 191.115 122.823 191.938 121.875C192.771 120.927 193.766 120.198 194.922 119.688C196.078 119.177 197.37 118.922 198.797 118.922C200.693 118.922 202.292 119.266 203.594 119.953C204.906 120.641 205.922 121.589 206.641 122.797C207.37 124.005 207.807 125.38 207.953 126.922H203.266C203.214 126.005 203.031 125.229 202.719 124.594C202.406 123.948 201.932 123.464 201.297 123.141C200.672 122.807 199.839 122.641 198.797 122.641C198.016 122.641 197.333 122.786 196.75 123.078C196.167 123.37 195.677 123.812 195.281 124.406C194.885 125 194.589 125.75 194.391 126.656C194.203 127.552 194.109 128.604 194.109 129.812V131.422C194.109 132.599 194.198 133.635 194.375 134.531C194.552 135.417 194.823 136.167 195.188 136.781C195.562 137.385 196.042 137.844 196.625 138.156C197.219 138.458 197.932 138.609 198.766 138.609C199.745 138.609 200.552 138.453 201.188 138.141C201.823 137.828 202.307 137.365 202.641 136.75C202.984 136.135 203.188 135.37 203.25 134.453Z" fill="#2F9E41"/>
<path d="M9.40039 165.406C9.40039 165.074 9.34831 164.781 9.24414 164.527C9.14648 164.267 8.9707 164.033 8.7168 163.824C8.4694 163.616 8.12435 163.417 7.68164 163.229C7.24544 163.04 6.69206 162.848 6.02148 162.652C5.31836 162.444 4.68359 162.213 4.11719 161.959C3.55078 161.699 3.06576 161.402 2.66211 161.07C2.25846 160.738 1.94922 160.357 1.73438 159.928C1.51953 159.498 1.41211 159.007 1.41211 158.453C1.41211 157.9 1.52604 157.389 1.75391 156.92C1.98177 156.451 2.30729 156.044 2.73047 155.699C3.16016 155.348 3.67122 155.074 4.26367 154.879C4.85612 154.684 5.51693 154.586 6.24609 154.586C7.3138 154.586 8.21875 154.791 8.96094 155.201C9.70964 155.605 10.2793 156.135 10.6699 156.793C11.0605 157.444 11.2559 158.141 11.2559 158.883H9.38086C9.38086 158.349 9.26693 157.877 9.03906 157.467C8.8112 157.05 8.46615 156.725 8.00391 156.49C7.54167 156.249 6.95573 156.129 6.24609 156.129C5.57552 156.129 5.02214 156.23 4.58594 156.432C4.14974 156.633 3.82422 156.907 3.60938 157.252C3.40104 157.597 3.29688 157.991 3.29688 158.434C3.29688 158.733 3.35872 159.007 3.48242 159.254C3.61263 159.495 3.8112 159.719 4.07812 159.928C4.35156 160.136 4.69661 160.328 5.11328 160.504C5.53646 160.68 6.04102 160.849 6.62695 161.012C7.43424 161.24 8.13086 161.493 8.7168 161.773C9.30273 162.053 9.78451 162.369 10.1621 162.721C10.5462 163.066 10.8294 163.46 11.0117 163.902C11.2005 164.339 11.2949 164.833 11.2949 165.387C11.2949 165.966 11.1777 166.49 10.9434 166.959C10.709 167.428 10.3737 167.828 9.9375 168.16C9.5013 168.492 8.97721 168.749 8.36523 168.932C7.75977 169.107 7.08268 169.195 6.33398 169.195C5.67643 169.195 5.02865 169.104 4.39062 168.922C3.75911 168.74 3.18294 168.466 2.66211 168.102C2.14779 167.737 1.73438 167.288 1.42188 166.754C1.11589 166.214 0.962891 165.589 0.962891 164.879H2.83789C2.83789 165.367 2.93229 165.787 3.12109 166.139C3.3099 166.484 3.56706 166.77 3.89258 166.998C4.22461 167.226 4.59896 167.395 5.01562 167.506C5.4388 167.61 5.87826 167.662 6.33398 167.662C6.99154 167.662 7.54818 167.571 8.00391 167.389C8.45964 167.206 8.80469 166.946 9.03906 166.607C9.27995 166.269 9.40039 165.868 9.40039 165.406ZM15.3867 158.434V169H13.5703V158.434H15.3867ZM13.4336 155.631C13.4336 155.338 13.5215 155.09 13.6973 154.889C13.8796 154.687 14.1465 154.586 14.498 154.586C14.8431 154.586 15.1068 154.687 15.2891 154.889C15.4779 155.09 15.5723 155.338 15.5723 155.631C15.5723 155.911 15.4779 156.152 15.2891 156.354C15.1068 156.549 14.8431 156.646 14.498 156.646C14.1465 156.646 13.8796 156.549 13.6973 156.354C13.5215 156.152 13.4336 155.911 13.4336 155.631ZM24.4395 166.197C24.4395 165.937 24.3809 165.696 24.2637 165.475C24.153 165.247 23.9219 165.042 23.5703 164.859C23.2253 164.671 22.7044 164.508 22.0078 164.371C21.4219 164.247 20.8913 164.101 20.416 163.932C19.9473 163.762 19.5469 163.557 19.2148 163.316C18.8893 163.076 18.6387 162.792 18.4629 162.467C18.2871 162.141 18.1992 161.76 18.1992 161.324C18.1992 160.908 18.2904 160.514 18.4727 160.143C18.6615 159.771 18.9251 159.443 19.2637 159.156C19.6087 158.87 20.0221 158.645 20.5039 158.482C20.9857 158.32 21.5228 158.238 22.1152 158.238C22.9616 158.238 23.6842 158.388 24.2832 158.688C24.8822 158.987 25.3411 159.387 25.6602 159.889C25.9792 160.383 26.1387 160.934 26.1387 161.539H24.332C24.332 161.246 24.2441 160.963 24.0684 160.689C23.8991 160.41 23.6484 160.178 23.3164 159.996C22.9909 159.814 22.5905 159.723 22.1152 159.723C21.6139 159.723 21.207 159.801 20.8945 159.957C20.5885 160.107 20.3639 160.299 20.2207 160.533C20.084 160.768 20.0156 161.015 20.0156 161.275C20.0156 161.471 20.0482 161.646 20.1133 161.803C20.1849 161.952 20.3086 162.092 20.4844 162.223C20.6602 162.346 20.9076 162.464 21.2266 162.574C21.5456 162.685 21.9525 162.796 22.4473 162.906C23.3132 163.102 24.026 163.336 24.5859 163.609C25.1458 163.883 25.5625 164.218 25.8359 164.615C26.1094 165.012 26.2461 165.494 26.2461 166.061C26.2461 166.523 26.1484 166.946 25.9531 167.33C25.7643 167.714 25.4876 168.046 25.123 168.326C24.765 168.6 24.3353 168.814 23.834 168.971C23.3392 169.12 22.7826 169.195 22.1641 169.195C21.2331 169.195 20.4453 169.029 19.8008 168.697C19.1562 168.365 18.668 167.936 18.3359 167.408C18.0039 166.881 17.8379 166.324 17.8379 165.738H19.6543C19.6803 166.233 19.8236 166.627 20.084 166.92C20.3444 167.206 20.6634 167.411 21.041 167.535C21.4186 167.652 21.793 167.711 22.1641 167.711C22.6589 167.711 23.0723 167.646 23.4043 167.516C23.7428 167.385 24 167.206 24.1758 166.979C24.3516 166.751 24.4395 166.49 24.4395 166.197ZM33.043 158.434V159.82H27.3301V158.434H33.043ZM29.2637 155.865H31.0703V166.383C31.0703 166.741 31.1257 167.011 31.2363 167.193C31.347 167.376 31.4902 167.496 31.666 167.555C31.8418 167.613 32.0306 167.643 32.2324 167.643C32.3822 167.643 32.5384 167.63 32.7012 167.604C32.8704 167.571 32.9974 167.545 33.082 167.525L33.0918 169C32.9486 169.046 32.7598 169.088 32.5254 169.127C32.2975 169.173 32.0208 169.195 31.6953 169.195C31.2526 169.195 30.8457 169.107 30.4746 168.932C30.1035 168.756 29.8073 168.463 29.5859 168.053C29.3711 167.636 29.2637 167.076 29.2637 166.373V155.865ZM39.5469 169.195C38.8112 169.195 38.1439 169.072 37.5449 168.824C36.9525 168.57 36.4414 168.215 36.0117 167.76C35.5885 167.304 35.263 166.764 35.0352 166.139C34.8073 165.514 34.6934 164.83 34.6934 164.088V163.678C34.6934 162.818 34.8203 162.053 35.0742 161.383C35.3281 160.706 35.6732 160.133 36.1094 159.664C36.5456 159.195 37.0404 158.84 37.5938 158.6C38.1471 158.359 38.7201 158.238 39.3125 158.238C40.0677 158.238 40.7188 158.368 41.2656 158.629C41.819 158.889 42.2715 159.254 42.623 159.723C42.9746 160.185 43.235 160.732 43.4043 161.363C43.5736 161.988 43.6582 162.672 43.6582 163.414V164.225H35.7676V162.75H41.8516V162.613C41.8255 162.145 41.7279 161.689 41.5586 161.246C41.3958 160.803 41.1354 160.439 40.7773 160.152C40.4193 159.866 39.931 159.723 39.3125 159.723C38.9023 159.723 38.5247 159.811 38.1797 159.986C37.8346 160.156 37.5384 160.41 37.291 160.748C37.0436 161.087 36.8516 161.5 36.7148 161.988C36.5781 162.477 36.5098 163.04 36.5098 163.678V164.088C36.5098 164.589 36.5781 165.061 36.7148 165.504C36.8581 165.94 37.0632 166.324 37.3301 166.656C37.6035 166.988 37.9323 167.249 38.3164 167.438C38.707 167.626 39.1497 167.721 39.6445 167.721C40.2826 167.721 40.8229 167.59 41.2656 167.33C41.7083 167.07 42.0957 166.721 42.4277 166.285L43.5215 167.154C43.2936 167.499 43.0039 167.828 42.6523 168.141C42.3008 168.453 41.8678 168.707 41.3535 168.902C40.8457 169.098 40.2435 169.195 39.5469 169.195ZM47.5645 160.533V169H45.748V158.434H47.4668L47.5645 160.533ZM47.1934 163.316L46.3535 163.287C46.36 162.564 46.4544 161.897 46.6367 161.285C46.819 160.667 47.0892 160.13 47.4473 159.674C47.8053 159.218 48.2513 158.867 48.7852 158.619C49.319 158.365 49.9375 158.238 50.6406 158.238C51.1354 158.238 51.5911 158.31 52.0078 158.453C52.4245 158.59 52.7858 158.808 53.0918 159.107C53.3978 159.407 53.6354 159.791 53.8047 160.26C53.974 160.729 54.0586 161.295 54.0586 161.959V169H52.252V162.047C52.252 161.493 52.1576 161.051 51.9688 160.719C51.7865 160.387 51.526 160.146 51.1875 159.996C50.849 159.84 50.4518 159.762 49.9961 159.762C49.4622 159.762 49.0163 159.856 48.6582 160.045C48.3001 160.234 48.0137 160.494 47.7988 160.826C47.584 161.158 47.4277 161.539 47.3301 161.969C47.2389 162.392 47.1934 162.841 47.1934 163.316ZM54.0391 162.32L52.8281 162.691C52.8346 162.112 52.929 161.555 53.1113 161.021C53.3001 160.488 53.5703 160.012 53.9219 159.596C54.2799 159.179 54.7194 158.85 55.2402 158.609C55.7611 158.362 56.3568 158.238 57.0273 158.238C57.5938 158.238 58.0951 158.313 58.5312 158.463C58.974 158.613 59.3451 158.844 59.6445 159.156C59.9505 159.462 60.1816 159.856 60.3379 160.338C60.4941 160.82 60.5723 161.393 60.5723 162.057V169H58.7559V162.037C58.7559 161.445 58.6615 160.986 58.4727 160.66C58.2904 160.328 58.0299 160.097 57.6914 159.967C57.3594 159.83 56.9622 159.762 56.5 159.762C56.1029 159.762 55.7513 159.83 55.4453 159.967C55.1393 160.104 54.8822 160.292 54.6738 160.533C54.4655 160.768 54.306 161.038 54.1953 161.344C54.0911 161.65 54.0391 161.975 54.0391 162.32ZM69.5371 167.193V161.754C69.5371 161.337 69.4525 160.976 69.2832 160.67C69.1204 160.357 68.873 160.117 68.541 159.947C68.209 159.778 67.7988 159.693 67.3105 159.693C66.8548 159.693 66.4544 159.771 66.1094 159.928C65.7708 160.084 65.5039 160.289 65.3086 160.543C65.1198 160.797 65.0254 161.07 65.0254 161.363H63.2188C63.2188 160.986 63.3164 160.611 63.5117 160.24C63.707 159.869 63.987 159.534 64.3516 159.234C64.7227 158.928 65.1654 158.688 65.6797 158.512C66.2005 158.329 66.7799 158.238 67.418 158.238C68.1862 158.238 68.8633 158.368 69.4492 158.629C70.0417 158.889 70.5039 159.283 70.8359 159.811C71.1745 160.331 71.3438 160.986 71.3438 161.773V166.695C71.3438 167.047 71.373 167.421 71.4316 167.818C71.4967 168.215 71.5911 168.557 71.7148 168.844V169H69.8301C69.7389 168.792 69.6673 168.515 69.6152 168.17C69.5632 167.818 69.5371 167.493 69.5371 167.193ZM69.8496 162.594L69.8691 163.863H68.043C67.5286 163.863 67.0697 163.906 66.666 163.99C66.2624 164.068 65.9238 164.189 65.6504 164.352C65.377 164.514 65.1686 164.719 65.0254 164.967C64.8822 165.208 64.8105 165.491 64.8105 165.816C64.8105 166.148 64.8854 166.451 65.0352 166.725C65.1849 166.998 65.4095 167.216 65.709 167.379C66.015 167.535 66.3893 167.613 66.832 167.613C67.3854 167.613 67.8737 167.496 68.2969 167.262C68.7201 167.027 69.0553 166.741 69.3027 166.402C69.5566 166.064 69.6934 165.735 69.7129 165.416L70.4844 166.285C70.4388 166.559 70.3151 166.861 70.1133 167.193C69.9115 167.525 69.6413 167.844 69.3027 168.15C68.9707 168.45 68.5736 168.701 68.1113 168.902C67.6556 169.098 67.1413 169.195 66.5684 169.195C65.8522 169.195 65.224 169.055 64.6836 168.775C64.1497 168.495 63.7331 168.121 63.4336 167.652C63.1406 167.177 62.9941 166.646 62.9941 166.061C62.9941 165.494 63.1048 164.996 63.3262 164.566C63.5475 164.13 63.8665 163.769 64.2832 163.482C64.6999 163.189 65.2012 162.968 65.7871 162.818C66.373 162.669 67.0273 162.594 67.75 162.594H69.8496ZM81.4414 154.781V169H79.5566V154.781H81.4414ZM86.4023 160.689V169H84.5957V158.434H86.3047L86.4023 160.689ZM85.9727 163.316L85.2207 163.287C85.2272 162.564 85.3346 161.897 85.543 161.285C85.7513 160.667 86.0443 160.13 86.4219 159.674C86.7995 159.218 87.2487 158.867 87.7695 158.619C88.2969 158.365 88.8796 158.238 89.5176 158.238C90.0384 158.238 90.5072 158.31 90.9238 158.453C91.3405 158.59 91.6953 158.811 91.9883 159.117C92.2878 159.423 92.5156 159.82 92.6719 160.309C92.8281 160.79 92.9062 161.38 92.9062 162.076V169H91.0898V162.057C91.0898 161.503 91.0085 161.061 90.8457 160.729C90.6829 160.39 90.4453 160.146 90.1328 159.996C89.8203 159.84 89.4362 159.762 88.9805 159.762C88.5312 159.762 88.1211 159.856 87.75 160.045C87.3854 160.234 87.0697 160.494 86.8027 160.826C86.5423 161.158 86.3372 161.539 86.1875 161.969C86.0443 162.392 85.9727 162.841 85.9727 163.316ZM100.074 158.434V159.82H94.3613V158.434H100.074ZM96.2949 155.865H98.1016V166.383C98.1016 166.741 98.1569 167.011 98.2676 167.193C98.3783 167.376 98.5215 167.496 98.6973 167.555C98.873 167.613 99.0618 167.643 99.2637 167.643C99.4134 167.643 99.5697 167.63 99.7324 167.604C99.9017 167.571 100.029 167.545 100.113 167.525L100.123 169C99.9798 169.046 99.791 169.088 99.5566 169.127C99.3288 169.173 99.0521 169.195 98.7266 169.195C98.2839 169.195 97.877 169.107 97.5059 168.932C97.1348 168.756 96.8385 168.463 96.6172 168.053C96.4023 167.636 96.2949 167.076 96.2949 166.373V155.865ZM106.578 169.195C105.842 169.195 105.175 169.072 104.576 168.824C103.984 168.57 103.473 168.215 103.043 167.76C102.62 167.304 102.294 166.764 102.066 166.139C101.839 165.514 101.725 164.83 101.725 164.088V163.678C101.725 162.818 101.852 162.053 102.105 161.383C102.359 160.706 102.704 160.133 103.141 159.664C103.577 159.195 104.072 158.84 104.625 158.6C105.178 158.359 105.751 158.238 106.344 158.238C107.099 158.238 107.75 158.368 108.297 158.629C108.85 158.889 109.303 159.254 109.654 159.723C110.006 160.185 110.266 160.732 110.436 161.363C110.605 161.988 110.689 162.672 110.689 163.414V164.225H102.799V162.75H108.883V162.613C108.857 162.145 108.759 161.689 108.59 161.246C108.427 160.803 108.167 160.439 107.809 160.152C107.451 159.866 106.962 159.723 106.344 159.723C105.934 159.723 105.556 159.811 105.211 159.986C104.866 160.156 104.57 160.41 104.322 160.748C104.075 161.087 103.883 161.5 103.746 161.988C103.609 162.477 103.541 163.04 103.541 163.678V164.088C103.541 164.589 103.609 165.061 103.746 165.504C103.889 165.94 104.094 166.324 104.361 166.656C104.635 166.988 104.964 167.249 105.348 167.438C105.738 167.626 106.181 167.721 106.676 167.721C107.314 167.721 107.854 167.59 108.297 167.33C108.74 167.07 109.127 166.721 109.459 166.285L110.553 167.154C110.325 167.499 110.035 167.828 109.684 168.141C109.332 168.453 108.899 168.707 108.385 168.902C107.877 169.098 107.275 169.195 106.578 169.195ZM119.645 158.434H121.285V168.775C121.285 169.706 121.096 170.501 120.719 171.158C120.341 171.816 119.814 172.314 119.137 172.652C118.466 172.997 117.691 173.17 116.812 173.17C116.448 173.17 116.018 173.111 115.523 172.994C115.035 172.883 114.553 172.691 114.078 172.418C113.609 172.151 113.215 171.79 112.896 171.334L113.844 170.26C114.286 170.794 114.749 171.165 115.23 171.373C115.719 171.581 116.201 171.686 116.676 171.686C117.249 171.686 117.743 171.578 118.16 171.363C118.577 171.148 118.899 170.829 119.127 170.406C119.361 169.99 119.479 169.475 119.479 168.863V160.758L119.645 158.434ZM112.369 163.834V163.629C112.369 162.822 112.464 162.089 112.652 161.432C112.848 160.768 113.124 160.198 113.482 159.723C113.847 159.247 114.286 158.883 114.801 158.629C115.315 158.368 115.895 158.238 116.539 158.238C117.203 158.238 117.783 158.355 118.277 158.59C118.779 158.818 119.202 159.153 119.547 159.596C119.898 160.032 120.175 160.559 120.377 161.178C120.579 161.796 120.719 162.496 120.797 163.277V164.176C120.725 164.951 120.585 165.647 120.377 166.266C120.175 166.884 119.898 167.411 119.547 167.848C119.202 168.284 118.779 168.619 118.277 168.854C117.776 169.081 117.19 169.195 116.52 169.195C115.888 169.195 115.315 169.062 114.801 168.795C114.293 168.528 113.857 168.154 113.492 167.672C113.128 167.19 112.848 166.624 112.652 165.973C112.464 165.315 112.369 164.602 112.369 163.834ZM114.176 163.629V163.834C114.176 164.361 114.228 164.856 114.332 165.318C114.443 165.781 114.609 166.188 114.83 166.539C115.058 166.891 115.348 167.167 115.699 167.369C116.051 167.564 116.471 167.662 116.959 167.662C117.558 167.662 118.053 167.535 118.443 167.281C118.834 167.027 119.143 166.692 119.371 166.275C119.605 165.859 119.788 165.406 119.918 164.918V162.564C119.846 162.206 119.736 161.861 119.586 161.529C119.443 161.191 119.254 160.891 119.02 160.631C118.792 160.364 118.508 160.152 118.17 159.996C117.831 159.84 117.434 159.762 116.979 159.762C116.484 159.762 116.057 159.866 115.699 160.074C115.348 160.276 115.058 160.556 114.83 160.914C114.609 161.266 114.443 161.676 114.332 162.145C114.228 162.607 114.176 163.102 114.176 163.629ZM125.836 160.094V169H124.029V158.434H125.787L125.836 160.094ZM129.137 158.375L129.127 160.055C128.977 160.022 128.834 160.003 128.697 159.996C128.567 159.983 128.417 159.977 128.248 159.977C127.831 159.977 127.464 160.042 127.145 160.172C126.826 160.302 126.555 160.484 126.334 160.719C126.113 160.953 125.937 161.233 125.807 161.559C125.683 161.878 125.602 162.229 125.562 162.613L125.055 162.906C125.055 162.268 125.117 161.669 125.24 161.109C125.37 160.549 125.569 160.055 125.836 159.625C126.103 159.189 126.441 158.85 126.852 158.609C127.268 158.362 127.763 158.238 128.336 158.238C128.466 158.238 128.616 158.255 128.785 158.287C128.954 158.313 129.072 158.342 129.137 158.375ZM136.646 167.193V161.754C136.646 161.337 136.562 160.976 136.393 160.67C136.23 160.357 135.982 160.117 135.65 159.947C135.318 159.778 134.908 159.693 134.42 159.693C133.964 159.693 133.564 159.771 133.219 159.928C132.88 160.084 132.613 160.289 132.418 160.543C132.229 160.797 132.135 161.07 132.135 161.363H130.328C130.328 160.986 130.426 160.611 130.621 160.24C130.816 159.869 131.096 159.534 131.461 159.234C131.832 158.928 132.275 158.688 132.789 158.512C133.31 158.329 133.889 158.238 134.527 158.238C135.296 158.238 135.973 158.368 136.559 158.629C137.151 158.889 137.613 159.283 137.945 159.811C138.284 160.331 138.453 160.986 138.453 161.773V166.695C138.453 167.047 138.482 167.421 138.541 167.818C138.606 168.215 138.701 168.557 138.824 168.844V169H136.939C136.848 168.792 136.777 168.515 136.725 168.17C136.673 167.818 136.646 167.493 136.646 167.193ZM136.959 162.594L136.979 163.863H135.152C134.638 163.863 134.179 163.906 133.775 163.99C133.372 164.068 133.033 164.189 132.76 164.352C132.486 164.514 132.278 164.719 132.135 164.967C131.992 165.208 131.92 165.491 131.92 165.816C131.92 166.148 131.995 166.451 132.145 166.725C132.294 166.998 132.519 167.216 132.818 167.379C133.124 167.535 133.499 167.613 133.941 167.613C134.495 167.613 134.983 167.496 135.406 167.262C135.829 167.027 136.165 166.741 136.412 166.402C136.666 166.064 136.803 165.735 136.822 165.416L137.594 166.285C137.548 166.559 137.424 166.861 137.223 167.193C137.021 167.525 136.751 167.844 136.412 168.15C136.08 168.45 135.683 168.701 135.221 168.902C134.765 169.098 134.251 169.195 133.678 169.195C132.962 169.195 132.333 169.055 131.793 168.775C131.259 168.495 130.842 168.121 130.543 167.652C130.25 167.177 130.104 166.646 130.104 166.061C130.104 165.494 130.214 164.996 130.436 164.566C130.657 164.13 130.976 163.769 131.393 163.482C131.809 163.189 132.311 162.968 132.896 162.818C133.482 162.669 134.137 162.594 134.859 162.594H136.959ZM147.955 166.949V154H149.771V169H148.111L147.955 166.949ZM140.846 163.834V163.629C140.846 162.822 140.943 162.089 141.139 161.432C141.34 160.768 141.624 160.198 141.988 159.723C142.359 159.247 142.799 158.883 143.307 158.629C143.821 158.368 144.394 158.238 145.025 158.238C145.689 158.238 146.269 158.355 146.764 158.59C147.265 158.818 147.688 159.153 148.033 159.596C148.385 160.032 148.661 160.559 148.863 161.178C149.065 161.796 149.205 162.496 149.283 163.277V164.176C149.212 164.951 149.072 165.647 148.863 166.266C148.661 166.884 148.385 167.411 148.033 167.848C147.688 168.284 147.265 168.619 146.764 168.854C146.262 169.081 145.676 169.195 145.006 169.195C144.387 169.195 143.821 169.062 143.307 168.795C142.799 168.528 142.359 168.154 141.988 167.672C141.624 167.19 141.34 166.624 141.139 165.973C140.943 165.315 140.846 164.602 140.846 163.834ZM142.662 163.629V163.834C142.662 164.361 142.714 164.856 142.818 165.318C142.929 165.781 143.098 166.188 143.326 166.539C143.554 166.891 143.844 167.167 144.195 167.369C144.547 167.564 144.967 167.662 145.455 167.662C146.054 167.662 146.546 167.535 146.93 167.281C147.32 167.027 147.633 166.692 147.867 166.275C148.102 165.859 148.284 165.406 148.414 164.918V162.564C148.336 162.206 148.222 161.861 148.072 161.529C147.929 161.191 147.74 160.891 147.506 160.631C147.278 160.364 146.995 160.152 146.656 159.996C146.324 159.84 145.93 159.762 145.475 159.762C144.98 159.762 144.553 159.866 144.195 160.074C143.844 160.276 143.554 160.556 143.326 160.914C143.098 161.266 142.929 161.676 142.818 162.145C142.714 162.607 142.662 163.102 142.662 163.629ZM152.105 163.834V163.609C152.105 162.848 152.216 162.141 152.438 161.49C152.659 160.833 152.978 160.263 153.395 159.781C153.811 159.293 154.316 158.915 154.908 158.648C155.501 158.375 156.165 158.238 156.9 158.238C157.643 158.238 158.31 158.375 158.902 158.648C159.501 158.915 160.009 159.293 160.426 159.781C160.849 160.263 161.171 160.833 161.393 161.49C161.614 162.141 161.725 162.848 161.725 163.609V163.834C161.725 164.596 161.614 165.302 161.393 165.953C161.171 166.604 160.849 167.174 160.426 167.662C160.009 168.144 159.505 168.521 158.912 168.795C158.326 169.062 157.662 169.195 156.92 169.195C156.178 169.195 155.51 169.062 154.918 168.795C154.326 168.521 153.818 168.144 153.395 167.662C152.978 167.174 152.659 166.604 152.438 165.953C152.216 165.302 152.105 164.596 152.105 163.834ZM153.912 163.609V163.834C153.912 164.361 153.974 164.859 154.098 165.328C154.221 165.79 154.407 166.201 154.654 166.559C154.908 166.917 155.224 167.2 155.602 167.408C155.979 167.61 156.419 167.711 156.92 167.711C157.415 167.711 157.848 167.61 158.219 167.408C158.596 167.2 158.909 166.917 159.156 166.559C159.404 166.201 159.589 165.79 159.713 165.328C159.843 164.859 159.908 164.361 159.908 163.834V163.609C159.908 163.089 159.843 162.597 159.713 162.135C159.589 161.666 159.4 161.253 159.146 160.895C158.899 160.53 158.587 160.243 158.209 160.035C157.838 159.827 157.402 159.723 156.9 159.723C156.406 159.723 155.969 159.827 155.592 160.035C155.221 160.243 154.908 160.53 154.654 160.895C154.407 161.253 154.221 161.666 154.098 162.135C153.974 162.597 153.912 163.089 153.912 163.609ZM175.611 166.949V154H177.428V169H175.768L175.611 166.949ZM168.502 163.834V163.629C168.502 162.822 168.6 162.089 168.795 161.432C168.997 160.768 169.28 160.198 169.645 159.723C170.016 159.247 170.455 158.883 170.963 158.629C171.477 158.368 172.05 158.238 172.682 158.238C173.346 158.238 173.925 158.355 174.42 158.59C174.921 158.818 175.344 159.153 175.689 159.596C176.041 160.032 176.318 160.559 176.52 161.178C176.721 161.796 176.861 162.496 176.939 163.277V164.176C176.868 164.951 176.728 165.647 176.52 166.266C176.318 166.884 176.041 167.411 175.689 167.848C175.344 168.284 174.921 168.619 174.42 168.854C173.919 169.081 173.333 169.195 172.662 169.195C172.044 169.195 171.477 169.062 170.963 168.795C170.455 168.528 170.016 168.154 169.645 167.672C169.28 167.19 168.997 166.624 168.795 165.973C168.6 165.315 168.502 164.602 168.502 163.834ZM170.318 163.629V163.834C170.318 164.361 170.37 164.856 170.475 165.318C170.585 165.781 170.755 166.188 170.982 166.539C171.21 166.891 171.5 167.167 171.852 167.369C172.203 167.564 172.623 167.662 173.111 167.662C173.71 167.662 174.202 167.535 174.586 167.281C174.977 167.027 175.289 166.692 175.523 166.275C175.758 165.859 175.94 165.406 176.07 164.918V162.564C175.992 162.206 175.878 161.861 175.729 161.529C175.585 161.191 175.396 160.891 175.162 160.631C174.934 160.364 174.651 160.152 174.312 159.996C173.98 159.84 173.587 159.762 173.131 159.762C172.636 159.762 172.21 159.866 171.852 160.074C171.5 160.276 171.21 160.556 170.982 160.914C170.755 161.266 170.585 161.676 170.475 162.145C170.37 162.607 170.318 163.102 170.318 163.629ZM184.625 169.195C183.889 169.195 183.222 169.072 182.623 168.824C182.031 168.57 181.52 168.215 181.09 167.76C180.667 167.304 180.341 166.764 180.113 166.139C179.885 165.514 179.771 164.83 179.771 164.088V163.678C179.771 162.818 179.898 162.053 180.152 161.383C180.406 160.706 180.751 160.133 181.188 159.664C181.624 159.195 182.118 158.84 182.672 158.6C183.225 158.359 183.798 158.238 184.391 158.238C185.146 158.238 185.797 158.368 186.344 158.629C186.897 158.889 187.35 159.254 187.701 159.723C188.053 160.185 188.313 160.732 188.482 161.363C188.652 161.988 188.736 162.672 188.736 163.414V164.225H180.846V162.75H186.93V162.613C186.904 162.145 186.806 161.689 186.637 161.246C186.474 160.803 186.214 160.439 185.855 160.152C185.497 159.866 185.009 159.723 184.391 159.723C183.98 159.723 183.603 159.811 183.258 159.986C182.913 160.156 182.617 160.41 182.369 160.748C182.122 161.087 181.93 161.5 181.793 161.988C181.656 162.477 181.588 163.04 181.588 163.678V164.088C181.588 164.589 181.656 165.061 181.793 165.504C181.936 165.94 182.141 166.324 182.408 166.656C182.682 166.988 183.01 167.249 183.395 167.438C183.785 167.626 184.228 167.721 184.723 167.721C185.361 167.721 185.901 167.59 186.344 167.33C186.786 167.07 187.174 166.721 187.506 166.285L188.6 167.154C188.372 167.499 188.082 167.828 187.73 168.141C187.379 168.453 186.946 168.707 186.432 168.902C185.924 169.098 185.322 169.195 184.625 169.195ZM206.588 161.92V167.125C206.412 167.385 206.132 167.678 205.748 168.004C205.364 168.323 204.833 168.603 204.156 168.844C203.486 169.078 202.62 169.195 201.559 169.195C200.693 169.195 199.895 169.046 199.166 168.746C198.443 168.44 197.815 167.997 197.281 167.418C196.754 166.832 196.344 166.122 196.051 165.289C195.764 164.449 195.621 163.499 195.621 162.438V161.334C195.621 160.273 195.745 159.326 195.992 158.492C196.246 157.659 196.617 156.952 197.105 156.373C197.594 155.787 198.193 155.344 198.902 155.045C199.612 154.739 200.426 154.586 201.344 154.586C202.431 154.586 203.339 154.775 204.068 155.152C204.804 155.523 205.377 156.038 205.787 156.695C206.204 157.353 206.471 158.102 206.588 158.941H204.703C204.618 158.427 204.449 157.958 204.195 157.535C203.948 157.112 203.593 156.773 203.131 156.52C202.669 156.259 202.073 156.129 201.344 156.129C200.686 156.129 200.117 156.249 199.635 156.49C199.153 156.731 198.756 157.076 198.443 157.525C198.131 157.975 197.896 158.518 197.74 159.156C197.59 159.794 197.516 160.514 197.516 161.314V162.438C197.516 163.258 197.61 163.99 197.799 164.635C197.994 165.279 198.271 165.829 198.629 166.285C198.987 166.734 199.413 167.076 199.908 167.311C200.41 167.545 200.963 167.662 201.568 167.662C202.239 167.662 202.783 167.607 203.199 167.496C203.616 167.379 203.941 167.242 204.176 167.086C204.41 166.923 204.589 166.77 204.713 166.627V163.443H201.422V161.92H206.588ZM213.824 169.195C213.089 169.195 212.421 169.072 211.822 168.824C211.23 168.57 210.719 168.215 210.289 167.76C209.866 167.304 209.54 166.764 209.312 166.139C209.085 165.514 208.971 164.83 208.971 164.088V163.678C208.971 162.818 209.098 162.053 209.352 161.383C209.605 160.706 209.951 160.133 210.387 159.664C210.823 159.195 211.318 158.84 211.871 158.6C212.424 158.359 212.997 158.238 213.59 158.238C214.345 158.238 214.996 158.368 215.543 158.629C216.096 158.889 216.549 159.254 216.9 159.723C217.252 160.185 217.512 160.732 217.682 161.363C217.851 161.988 217.936 162.672 217.936 163.414V164.225H210.045V162.75H216.129V162.613C216.103 162.145 216.005 161.689 215.836 161.246C215.673 160.803 215.413 160.439 215.055 160.152C214.697 159.866 214.208 159.723 213.59 159.723C213.18 159.723 212.802 159.811 212.457 159.986C212.112 160.156 211.816 160.41 211.568 160.748C211.321 161.087 211.129 161.5 210.992 161.988C210.855 162.477 210.787 163.04 210.787 163.678V164.088C210.787 164.589 210.855 165.061 210.992 165.504C211.135 165.94 211.34 166.324 211.607 166.656C211.881 166.988 212.21 167.249 212.594 167.438C212.984 167.626 213.427 167.721 213.922 167.721C214.56 167.721 215.1 167.59 215.543 167.33C215.986 167.07 216.373 166.721 216.705 166.285L217.799 167.154C217.571 167.499 217.281 167.828 216.93 168.141C216.578 168.453 216.145 168.707 215.631 168.902C215.123 169.098 214.521 169.195 213.824 169.195ZM226.197 166.197C226.197 165.937 226.139 165.696 226.021 165.475C225.911 165.247 225.68 165.042 225.328 164.859C224.983 164.671 224.462 164.508 223.766 164.371C223.18 164.247 222.649 164.101 222.174 163.932C221.705 163.762 221.305 163.557 220.973 163.316C220.647 163.076 220.396 162.792 220.221 162.467C220.045 162.141 219.957 161.76 219.957 161.324C219.957 160.908 220.048 160.514 220.23 160.143C220.419 159.771 220.683 159.443 221.021 159.156C221.367 158.87 221.78 158.645 222.262 158.482C222.743 158.32 223.281 158.238 223.873 158.238C224.719 158.238 225.442 158.388 226.041 158.688C226.64 158.987 227.099 159.387 227.418 159.889C227.737 160.383 227.896 160.934 227.896 161.539H226.09C226.09 161.246 226.002 160.963 225.826 160.689C225.657 160.41 225.406 160.178 225.074 159.996C224.749 159.814 224.348 159.723 223.873 159.723C223.372 159.723 222.965 159.801 222.652 159.957C222.346 160.107 222.122 160.299 221.979 160.533C221.842 160.768 221.773 161.015 221.773 161.275C221.773 161.471 221.806 161.646 221.871 161.803C221.943 161.952 222.066 162.092 222.242 162.223C222.418 162.346 222.665 162.464 222.984 162.574C223.303 162.685 223.71 162.796 224.205 162.906C225.071 163.102 225.784 163.336 226.344 163.609C226.904 163.883 227.32 164.218 227.594 164.615C227.867 165.012 228.004 165.494 228.004 166.061C228.004 166.523 227.906 166.946 227.711 167.33C227.522 167.714 227.245 168.046 226.881 168.326C226.523 168.6 226.093 168.814 225.592 168.971C225.097 169.12 224.54 169.195 223.922 169.195C222.991 169.195 222.203 169.029 221.559 168.697C220.914 168.365 220.426 167.936 220.094 167.408C219.762 166.881 219.596 166.324 219.596 165.738H221.412C221.438 166.233 221.581 166.627 221.842 166.92C222.102 167.206 222.421 167.411 222.799 167.535C223.176 167.652 223.551 167.711 223.922 167.711C224.417 167.711 224.83 167.646 225.162 167.516C225.501 167.385 225.758 167.206 225.934 166.979C226.109 166.751 226.197 166.49 226.197 166.197ZM234.801 158.434V159.82H229.088V158.434H234.801ZM231.021 155.865H232.828V166.383C232.828 166.741 232.883 167.011 232.994 167.193C233.105 167.376 233.248 167.496 233.424 167.555C233.6 167.613 233.788 167.643 233.99 167.643C234.14 167.643 234.296 167.63 234.459 167.604C234.628 167.571 234.755 167.545 234.84 167.525L234.85 169C234.706 169.046 234.518 169.088 234.283 169.127C234.055 169.173 233.779 169.195 233.453 169.195C233.01 169.195 232.604 169.107 232.232 168.932C231.861 168.756 231.565 168.463 231.344 168.053C231.129 167.636 231.021 167.076 231.021 166.373V155.865ZM243.15 167.193V161.754C243.15 161.337 243.066 160.976 242.896 160.67C242.734 160.357 242.486 160.117 242.154 159.947C241.822 159.778 241.412 159.693 240.924 159.693C240.468 159.693 240.068 159.771 239.723 159.928C239.384 160.084 239.117 160.289 238.922 160.543C238.733 160.797 238.639 161.07 238.639 161.363H236.832C236.832 160.986 236.93 160.611 237.125 160.24C237.32 159.869 237.6 159.534 237.965 159.234C238.336 158.928 238.779 158.688 239.293 158.512C239.814 158.329 240.393 158.238 241.031 158.238C241.799 158.238 242.477 158.368 243.062 158.629C243.655 158.889 244.117 159.283 244.449 159.811C244.788 160.331 244.957 160.986 244.957 161.773V166.695C244.957 167.047 244.986 167.421 245.045 167.818C245.11 168.215 245.204 168.557 245.328 168.844V169H243.443C243.352 168.792 243.281 168.515 243.229 168.17C243.176 167.818 243.15 167.493 243.15 167.193ZM243.463 162.594L243.482 163.863H241.656C241.142 163.863 240.683 163.906 240.279 163.99C239.876 164.068 239.537 164.189 239.264 164.352C238.99 164.514 238.782 164.719 238.639 164.967C238.495 165.208 238.424 165.491 238.424 165.816C238.424 166.148 238.499 166.451 238.648 166.725C238.798 166.998 239.023 167.216 239.322 167.379C239.628 167.535 240.003 167.613 240.445 167.613C240.999 167.613 241.487 167.496 241.91 167.262C242.333 167.027 242.669 166.741 242.916 166.402C243.17 166.064 243.307 165.735 243.326 165.416L244.098 166.285C244.052 166.559 243.928 166.861 243.727 167.193C243.525 167.525 243.255 167.844 242.916 168.15C242.584 168.45 242.187 168.701 241.725 168.902C241.269 169.098 240.755 169.195 240.182 169.195C239.465 169.195 238.837 169.055 238.297 168.775C237.763 168.495 237.346 168.121 237.047 167.652C236.754 167.177 236.607 166.646 236.607 166.061C236.607 165.494 236.718 164.996 236.939 164.566C237.161 164.13 237.48 163.769 237.896 163.482C238.313 163.189 238.814 162.968 239.4 162.818C239.986 162.669 240.641 162.594 241.363 162.594H243.463ZM243.473 154.195L244.693 154.303C244.693 154.778 244.599 155.195 244.41 155.553C244.221 155.911 243.967 156.188 243.648 156.383C243.336 156.578 242.981 156.676 242.584 156.676C242.252 156.676 241.979 156.63 241.764 156.539C241.549 156.441 241.357 156.334 241.188 156.217C241.018 156.093 240.839 155.986 240.65 155.895C240.468 155.797 240.24 155.748 239.967 155.748C239.693 155.748 239.462 155.852 239.273 156.061C239.091 156.269 239 156.526 239 156.832L237.779 156.773C237.779 156.298 237.87 155.882 238.053 155.523C238.242 155.159 238.495 154.876 238.814 154.674C239.133 154.465 239.488 154.361 239.879 154.361C240.159 154.361 240.403 154.41 240.611 154.508C240.826 154.599 241.028 154.706 241.217 154.83C241.406 154.947 241.601 155.055 241.803 155.152C242.005 155.243 242.236 155.289 242.496 155.289C242.77 155.289 243.001 155.185 243.189 154.977C243.378 154.762 243.473 154.501 243.473 154.195ZM247.32 163.834V163.609C247.32 162.848 247.431 162.141 247.652 161.49C247.874 160.833 248.193 160.263 248.609 159.781C249.026 159.293 249.531 158.915 250.123 158.648C250.715 158.375 251.38 158.238 252.115 158.238C252.857 158.238 253.525 158.375 254.117 158.648C254.716 158.915 255.224 159.293 255.641 159.781C256.064 160.263 256.386 160.833 256.607 161.49C256.829 162.141 256.939 162.848 256.939 163.609V163.834C256.939 164.596 256.829 165.302 256.607 165.953C256.386 166.604 256.064 167.174 255.641 167.662C255.224 168.144 254.719 168.521 254.127 168.795C253.541 169.062 252.877 169.195 252.135 169.195C251.393 169.195 250.725 169.062 250.133 168.795C249.54 168.521 249.033 168.144 248.609 167.662C248.193 167.174 247.874 166.604 247.652 165.953C247.431 165.302 247.32 164.596 247.32 163.834ZM249.127 163.609V163.834C249.127 164.361 249.189 164.859 249.312 165.328C249.436 165.79 249.622 166.201 249.869 166.559C250.123 166.917 250.439 167.2 250.816 167.408C251.194 167.61 251.633 167.711 252.135 167.711C252.63 167.711 253.062 167.61 253.434 167.408C253.811 167.2 254.124 166.917 254.371 166.559C254.618 166.201 254.804 165.79 254.928 165.328C255.058 164.859 255.123 164.361 255.123 163.834V163.609C255.123 163.089 255.058 162.597 254.928 162.135C254.804 161.666 254.615 161.253 254.361 160.895C254.114 160.53 253.801 160.243 253.424 160.035C253.053 159.827 252.617 159.723 252.115 159.723C251.62 159.723 251.184 159.827 250.807 160.035C250.436 160.243 250.123 160.53 249.869 160.895C249.622 161.253 249.436 161.666 249.312 162.135C249.189 162.597 249.127 163.089 249.127 163.609ZM46.2656 192.195C45.5299 192.195 44.8626 192.072 44.2637 191.824C43.6712 191.57 43.1602 191.215 42.7305 190.76C42.3073 190.304 41.9818 189.764 41.7539 189.139C41.526 188.514 41.4121 187.83 41.4121 187.088V186.678C41.4121 185.818 41.5391 185.053 41.793 184.383C42.0469 183.706 42.3919 183.133 42.8281 182.664C43.2643 182.195 43.7591 181.84 44.3125 181.6C44.8659 181.359 45.4388 181.238 46.0312 181.238C46.7865 181.238 47.4375 181.368 47.9844 181.629C48.5378 181.889 48.9902 182.254 49.3418 182.723C49.6934 183.185 49.9538 183.732 50.123 184.363C50.2923 184.988 50.377 185.672 50.377 186.414V187.225H42.4863V185.75H48.5703V185.613C48.5443 185.145 48.4466 184.689 48.2773 184.246C48.1146 183.803 47.8542 183.439 47.4961 183.152C47.138 182.866 46.6497 182.723 46.0312 182.723C45.6211 182.723 45.2435 182.811 44.8984 182.986C44.5534 183.156 44.2572 183.41 44.0098 183.748C43.7624 184.087 43.5703 184.5 43.4336 184.988C43.2969 185.477 43.2285 186.04 43.2285 186.678V187.088C43.2285 187.589 43.2969 188.061 43.4336 188.504C43.5768 188.94 43.7819 189.324 44.0488 189.656C44.3223 189.988 44.651 190.249 45.0352 190.438C45.4258 190.626 45.8685 190.721 46.3633 190.721C47.0013 190.721 47.5417 190.59 47.9844 190.33C48.4271 190.07 48.8145 189.721 49.1465 189.285L50.2402 190.154C50.0124 190.499 49.7227 190.828 49.3711 191.141C49.0195 191.453 48.5866 191.707 48.0723 191.902C47.5645 192.098 46.9622 192.195 46.2656 192.195ZM68.668 184.441V185.34C68.668 186.408 68.5345 187.365 68.2676 188.211C68.0007 189.057 67.6165 189.777 67.1152 190.369C66.6139 190.962 66.0117 191.414 65.3086 191.727C64.612 192.039 63.8307 192.195 62.9648 192.195C62.125 192.195 61.3535 192.039 60.6504 191.727C59.9538 191.414 59.3483 190.962 58.834 190.369C58.3262 189.777 57.9323 189.057 57.6523 188.211C57.3724 187.365 57.2324 186.408 57.2324 185.34V184.441C57.2324 183.374 57.3691 182.42 57.6426 181.58C57.9225 180.734 58.3164 180.014 58.8242 179.422C59.332 178.823 59.9342 178.367 60.6309 178.055C61.334 177.742 62.1055 177.586 62.9453 177.586C63.8112 177.586 64.5924 177.742 65.2891 178.055C65.9922 178.367 66.5944 178.823 67.0957 179.422C67.6035 180.014 67.9909 180.734 68.2578 181.58C68.5312 182.42 68.668 183.374 68.668 184.441ZM66.8027 185.34V184.422C66.8027 183.576 66.7148 182.827 66.5391 182.176C66.3698 181.525 66.1191 180.978 65.7871 180.535C65.4551 180.092 65.0482 179.757 64.5664 179.529C64.0911 179.301 63.5508 179.188 62.9453 179.188C62.3594 179.188 61.8288 179.301 61.3535 179.529C60.8848 179.757 60.4811 180.092 60.1426 180.535C59.8105 180.978 59.5534 181.525 59.3711 182.176C59.1888 182.827 59.0977 183.576 59.0977 184.422V185.34C59.0977 186.193 59.1888 186.948 59.3711 187.605C59.5534 188.257 59.8138 188.807 60.1523 189.256C60.4974 189.699 60.9043 190.034 61.373 190.262C61.8483 190.49 62.3789 190.604 62.9648 190.604C63.5768 190.604 64.1204 190.49 64.5957 190.262C65.071 190.034 65.4714 189.699 65.7969 189.256C66.1289 188.807 66.3796 188.257 66.5488 187.605C66.7181 186.948 66.8027 186.193 66.8027 185.34ZM73.0234 183.094V192H71.2168V181.434H72.9746L73.0234 183.094ZM76.3242 181.375L76.3145 183.055C76.1647 183.022 76.0215 183.003 75.8848 182.996C75.7546 182.983 75.6048 182.977 75.4355 182.977C75.0189 182.977 74.651 183.042 74.332 183.172C74.013 183.302 73.7428 183.484 73.5215 183.719C73.3001 183.953 73.1243 184.233 72.9941 184.559C72.8704 184.878 72.7891 185.229 72.75 185.613L72.2422 185.906C72.2422 185.268 72.304 184.669 72.4277 184.109C72.5579 183.549 72.7565 183.055 73.0234 182.625C73.2904 182.189 73.6289 181.85 74.0391 181.609C74.4557 181.362 74.9505 181.238 75.5234 181.238C75.6536 181.238 75.8034 181.255 75.9727 181.287C76.1419 181.313 76.2591 181.342 76.3242 181.375ZM79.957 181.434V192H78.1406V181.434H79.957ZM78.0039 178.631C78.0039 178.338 78.0918 178.09 78.2676 177.889C78.4499 177.687 78.7168 177.586 79.0684 177.586C79.4134 177.586 79.6771 177.687 79.8594 177.889C80.0482 178.09 80.1426 178.338 80.1426 178.631C80.1426 178.911 80.0482 179.152 79.8594 179.354C79.6771 179.549 79.4134 179.646 79.0684 179.646C78.7168 179.646 78.4499 179.549 78.2676 179.354C78.0918 179.152 78.0039 178.911 78.0039 178.631ZM87.2422 192.195C86.5065 192.195 85.8392 192.072 85.2402 191.824C84.6478 191.57 84.1367 191.215 83.707 190.76C83.2839 190.304 82.9583 189.764 82.7305 189.139C82.5026 188.514 82.3887 187.83 82.3887 187.088V186.678C82.3887 185.818 82.5156 185.053 82.7695 184.383C83.0234 183.706 83.3685 183.133 83.8047 182.664C84.2409 182.195 84.7357 181.84 85.2891 181.6C85.8424 181.359 86.4154 181.238 87.0078 181.238C87.763 181.238 88.4141 181.368 88.9609 181.629C89.5143 181.889 89.9668 182.254 90.3184 182.723C90.6699 183.185 90.9303 183.732 91.0996 184.363C91.2689 184.988 91.3535 185.672 91.3535 186.414V187.225H83.4629V185.75H89.5469V185.613C89.5208 185.145 89.4232 184.689 89.2539 184.246C89.0911 183.803 88.8307 183.439 88.4727 183.152C88.1146 182.866 87.6263 182.723 87.0078 182.723C86.5977 182.723 86.2201 182.811 85.875 182.986C85.5299 183.156 85.2337 183.41 84.9863 183.748C84.7389 184.087 84.5469 184.5 84.4102 184.988C84.2734 185.477 84.2051 186.04 84.2051 186.678V187.088C84.2051 187.589 84.2734 188.061 84.4102 188.504C84.5534 188.94 84.7585 189.324 85.0254 189.656C85.2988 189.988 85.6276 190.249 86.0117 190.438C86.4023 190.626 86.8451 190.721 87.3398 190.721C87.9779 190.721 88.5182 190.59 88.9609 190.33C89.4036 190.07 89.791 189.721 90.123 189.285L91.2168 190.154C90.9889 190.499 90.6992 190.828 90.3477 191.141C89.9961 191.453 89.5632 191.707 89.0488 191.902C88.541 192.098 87.9388 192.195 87.2422 192.195ZM95.2695 183.689V192H93.4629V181.434H95.1719L95.2695 183.689ZM94.8398 186.316L94.0879 186.287C94.0944 185.564 94.2018 184.897 94.4102 184.285C94.6185 183.667 94.9115 183.13 95.2891 182.674C95.6667 182.218 96.1159 181.867 96.6367 181.619C97.1641 181.365 97.7467 181.238 98.3848 181.238C98.9056 181.238 99.3743 181.31 99.791 181.453C100.208 181.59 100.562 181.811 100.855 182.117C101.155 182.423 101.383 182.82 101.539 183.309C101.695 183.79 101.773 184.38 101.773 185.076V192H99.957V185.057C99.957 184.503 99.8757 184.061 99.7129 183.729C99.5501 183.39 99.3125 183.146 99 182.996C98.6875 182.84 98.3034 182.762 97.8477 182.762C97.3984 182.762 96.9883 182.856 96.6172 183.045C96.2526 183.234 95.9368 183.494 95.6699 183.826C95.4095 184.158 95.2044 184.539 95.0547 184.969C94.9115 185.392 94.8398 185.841 94.8398 186.316ZM108.941 181.434V182.82H103.229V181.434H108.941ZM105.162 178.865H106.969V189.383C106.969 189.741 107.024 190.011 107.135 190.193C107.245 190.376 107.389 190.496 107.564 190.555C107.74 190.613 107.929 190.643 108.131 190.643C108.281 190.643 108.437 190.63 108.6 190.604C108.769 190.571 108.896 190.545 108.98 190.525L108.99 192C108.847 192.046 108.658 192.088 108.424 192.127C108.196 192.173 107.919 192.195 107.594 192.195C107.151 192.195 106.744 192.107 106.373 191.932C106.002 191.756 105.706 191.463 105.484 191.053C105.27 190.636 105.162 190.076 105.162 189.373V178.865ZM117.291 190.193V184.754C117.291 184.337 117.206 183.976 117.037 183.67C116.874 183.357 116.627 183.117 116.295 182.947C115.963 182.778 115.553 182.693 115.064 182.693C114.609 182.693 114.208 182.771 113.863 182.928C113.525 183.084 113.258 183.289 113.062 183.543C112.874 183.797 112.779 184.07 112.779 184.363H110.973C110.973 183.986 111.07 183.611 111.266 183.24C111.461 182.869 111.741 182.534 112.105 182.234C112.477 181.928 112.919 181.688 113.434 181.512C113.954 181.329 114.534 181.238 115.172 181.238C115.94 181.238 116.617 181.368 117.203 181.629C117.796 181.889 118.258 182.283 118.59 182.811C118.928 183.331 119.098 183.986 119.098 184.773V189.695C119.098 190.047 119.127 190.421 119.186 190.818C119.251 191.215 119.345 191.557 119.469 191.844V192H117.584C117.493 191.792 117.421 191.515 117.369 191.17C117.317 190.818 117.291 190.493 117.291 190.193ZM117.604 185.594L117.623 186.863H115.797C115.283 186.863 114.824 186.906 114.42 186.99C114.016 187.068 113.678 187.189 113.404 187.352C113.131 187.514 112.923 187.719 112.779 187.967C112.636 188.208 112.564 188.491 112.564 188.816C112.564 189.148 112.639 189.451 112.789 189.725C112.939 189.998 113.163 190.216 113.463 190.379C113.769 190.535 114.143 190.613 114.586 190.613C115.139 190.613 115.628 190.496 116.051 190.262C116.474 190.027 116.809 189.741 117.057 189.402C117.311 189.064 117.447 188.735 117.467 188.416L118.238 189.285C118.193 189.559 118.069 189.861 117.867 190.193C117.665 190.525 117.395 190.844 117.057 191.15C116.725 191.45 116.327 191.701 115.865 191.902C115.41 192.098 114.895 192.195 114.322 192.195C113.606 192.195 112.978 192.055 112.438 191.775C111.904 191.495 111.487 191.121 111.188 190.652C110.895 190.177 110.748 189.646 110.748 189.061C110.748 188.494 110.859 187.996 111.08 187.566C111.301 187.13 111.62 186.769 112.037 186.482C112.454 186.189 112.955 185.968 113.541 185.818C114.127 185.669 114.781 185.594 115.504 185.594H117.604ZM126.168 190.711C126.598 190.711 126.995 190.623 127.359 190.447C127.724 190.271 128.023 190.031 128.258 189.725C128.492 189.412 128.626 189.057 128.658 188.66H130.377C130.344 189.285 130.133 189.868 129.742 190.408C129.358 190.942 128.854 191.375 128.229 191.707C127.604 192.033 126.917 192.195 126.168 192.195C125.374 192.195 124.68 192.055 124.088 191.775C123.502 191.495 123.014 191.111 122.623 190.623C122.239 190.135 121.949 189.575 121.754 188.943C121.565 188.305 121.471 187.632 121.471 186.922V186.512C121.471 185.802 121.565 185.132 121.754 184.5C121.949 183.862 122.239 183.299 122.623 182.811C123.014 182.322 123.502 181.938 124.088 181.658C124.68 181.378 125.374 181.238 126.168 181.238C126.995 181.238 127.717 181.408 128.336 181.746C128.954 182.078 129.439 182.534 129.791 183.113C130.149 183.686 130.344 184.337 130.377 185.066H128.658C128.626 184.63 128.502 184.236 128.287 183.885C128.079 183.533 127.792 183.253 127.428 183.045C127.07 182.83 126.65 182.723 126.168 182.723C125.615 182.723 125.149 182.833 124.771 183.055C124.4 183.27 124.104 183.562 123.883 183.934C123.668 184.298 123.512 184.705 123.414 185.154C123.323 185.597 123.277 186.049 123.277 186.512V186.922C123.277 187.384 123.323 187.84 123.414 188.289C123.505 188.738 123.658 189.145 123.873 189.51C124.094 189.874 124.391 190.167 124.762 190.389C125.139 190.604 125.608 190.711 126.168 190.711ZM125.172 192.098H126.471L126.354 192.615C126.731 192.68 127.073 192.837 127.379 193.084C127.691 193.331 127.848 193.738 127.848 194.305C127.848 194.611 127.783 194.887 127.652 195.135C127.529 195.389 127.343 195.604 127.096 195.779C126.848 195.962 126.539 196.102 126.168 196.199C125.803 196.297 125.377 196.346 124.889 196.346L124.82 195.301C125.12 195.301 125.39 195.268 125.631 195.203C125.878 195.138 126.074 195.034 126.217 194.891C126.367 194.747 126.441 194.562 126.441 194.334C126.441 194.119 126.386 193.95 126.275 193.826C126.165 193.702 125.992 193.608 125.758 193.543C125.53 193.484 125.234 193.442 124.869 193.416L125.172 192.098ZM138.639 190.193V184.754C138.639 184.337 138.554 183.976 138.385 183.67C138.222 183.357 137.975 183.117 137.643 182.947C137.311 182.778 136.9 182.693 136.412 182.693C135.956 182.693 135.556 182.771 135.211 182.928C134.872 183.084 134.605 183.289 134.41 183.543C134.221 183.797 134.127 184.07 134.127 184.363H132.32C132.32 183.986 132.418 183.611 132.613 183.24C132.809 182.869 133.089 182.534 133.453 182.234C133.824 181.928 134.267 181.688 134.781 181.512C135.302 181.329 135.882 181.238 136.52 181.238C137.288 181.238 137.965 181.368 138.551 181.629C139.143 181.889 139.605 182.283 139.938 182.811C140.276 183.331 140.445 183.986 140.445 184.773V189.695C140.445 190.047 140.475 190.421 140.533 190.818C140.598 191.215 140.693 191.557 140.816 191.844V192H138.932C138.84 191.792 138.769 191.515 138.717 191.17C138.665 190.818 138.639 190.493 138.639 190.193ZM138.951 185.594L138.971 186.863H137.145C136.63 186.863 136.171 186.906 135.768 186.99C135.364 187.068 135.025 187.189 134.752 187.352C134.479 187.514 134.27 187.719 134.127 187.967C133.984 188.208 133.912 188.491 133.912 188.816C133.912 189.148 133.987 189.451 134.137 189.725C134.286 189.998 134.511 190.216 134.811 190.379C135.117 190.535 135.491 190.613 135.934 190.613C136.487 190.613 136.975 190.496 137.398 190.262C137.822 190.027 138.157 189.741 138.404 189.402C138.658 189.064 138.795 188.735 138.814 188.416L139.586 189.285C139.54 189.559 139.417 189.861 139.215 190.193C139.013 190.525 138.743 190.844 138.404 191.15C138.072 191.45 137.675 191.701 137.213 191.902C136.757 192.098 136.243 192.195 135.67 192.195C134.954 192.195 134.326 192.055 133.785 191.775C133.251 191.495 132.835 191.121 132.535 190.652C132.242 190.177 132.096 189.646 132.096 189.061C132.096 188.494 132.206 187.996 132.428 187.566C132.649 187.13 132.968 186.769 133.385 186.482C133.801 186.189 134.303 185.968 134.889 185.818C135.475 185.669 136.129 185.594 136.852 185.594H138.951ZM138.961 177.195L140.182 177.303C140.182 177.778 140.087 178.195 139.898 178.553C139.71 178.911 139.456 179.188 139.137 179.383C138.824 179.578 138.469 179.676 138.072 179.676C137.74 179.676 137.467 179.63 137.252 179.539C137.037 179.441 136.845 179.334 136.676 179.217C136.507 179.093 136.327 178.986 136.139 178.895C135.956 178.797 135.729 178.748 135.455 178.748C135.182 178.748 134.951 178.852 134.762 179.061C134.579 179.269 134.488 179.526 134.488 179.832L133.268 179.773C133.268 179.298 133.359 178.882 133.541 178.523C133.73 178.159 133.984 177.876 134.303 177.674C134.622 177.465 134.977 177.361 135.367 177.361C135.647 177.361 135.891 177.41 136.1 177.508C136.314 177.599 136.516 177.706 136.705 177.83C136.894 177.947 137.089 178.055 137.291 178.152C137.493 178.243 137.724 178.289 137.984 178.289C138.258 178.289 138.489 178.185 138.678 177.977C138.867 177.762 138.961 177.501 138.961 177.195ZM142.809 186.834V186.609C142.809 185.848 142.919 185.141 143.141 184.49C143.362 183.833 143.681 183.263 144.098 182.781C144.514 182.293 145.019 181.915 145.611 181.648C146.204 181.375 146.868 181.238 147.604 181.238C148.346 181.238 149.013 181.375 149.605 181.648C150.204 181.915 150.712 182.293 151.129 182.781C151.552 183.263 151.874 183.833 152.096 184.49C152.317 185.141 152.428 185.848 152.428 186.609V186.834C152.428 187.596 152.317 188.302 152.096 188.953C151.874 189.604 151.552 190.174 151.129 190.662C150.712 191.144 150.208 191.521 149.615 191.795C149.029 192.062 148.365 192.195 147.623 192.195C146.881 192.195 146.214 192.062 145.621 191.795C145.029 191.521 144.521 191.144 144.098 190.662C143.681 190.174 143.362 189.604 143.141 188.953C142.919 188.302 142.809 187.596 142.809 186.834ZM144.615 186.609V186.834C144.615 187.361 144.677 187.859 144.801 188.328C144.924 188.79 145.11 189.201 145.357 189.559C145.611 189.917 145.927 190.2 146.305 190.408C146.682 190.61 147.122 190.711 147.623 190.711C148.118 190.711 148.551 190.61 148.922 190.408C149.299 190.2 149.612 189.917 149.859 189.559C150.107 189.201 150.292 188.79 150.416 188.328C150.546 187.859 150.611 187.361 150.611 186.834V186.609C150.611 186.089 150.546 185.597 150.416 185.135C150.292 184.666 150.104 184.253 149.85 183.895C149.602 183.53 149.29 183.243 148.912 183.035C148.541 182.827 148.105 182.723 147.604 182.723C147.109 182.723 146.673 182.827 146.295 183.035C145.924 183.243 145.611 183.53 145.357 183.895C145.11 184.253 144.924 184.666 144.801 185.135C144.677 185.597 144.615 186.089 144.615 186.609ZM166.314 189.949V177H168.131V192H166.471L166.314 189.949ZM159.205 186.834V186.629C159.205 185.822 159.303 185.089 159.498 184.432C159.7 183.768 159.983 183.198 160.348 182.723C160.719 182.247 161.158 181.883 161.666 181.629C162.18 181.368 162.753 181.238 163.385 181.238C164.049 181.238 164.628 181.355 165.123 181.59C165.624 181.818 166.048 182.153 166.393 182.596C166.744 183.032 167.021 183.559 167.223 184.178C167.424 184.796 167.564 185.496 167.643 186.277V187.176C167.571 187.951 167.431 188.647 167.223 189.266C167.021 189.884 166.744 190.411 166.393 190.848C166.048 191.284 165.624 191.619 165.123 191.854C164.622 192.081 164.036 192.195 163.365 192.195C162.747 192.195 162.18 192.062 161.666 191.795C161.158 191.528 160.719 191.154 160.348 190.672C159.983 190.19 159.7 189.624 159.498 188.973C159.303 188.315 159.205 187.602 159.205 186.834ZM161.021 186.629V186.834C161.021 187.361 161.074 187.856 161.178 188.318C161.288 188.781 161.458 189.188 161.686 189.539C161.913 189.891 162.203 190.167 162.555 190.369C162.906 190.564 163.326 190.662 163.814 190.662C164.413 190.662 164.905 190.535 165.289 190.281C165.68 190.027 165.992 189.692 166.227 189.275C166.461 188.859 166.643 188.406 166.773 187.918V185.564C166.695 185.206 166.581 184.861 166.432 184.529C166.288 184.191 166.1 183.891 165.865 183.631C165.637 183.364 165.354 183.152 165.016 182.996C164.684 182.84 164.29 182.762 163.834 182.762C163.339 182.762 162.913 182.866 162.555 183.074C162.203 183.276 161.913 183.556 161.686 183.914C161.458 184.266 161.288 184.676 161.178 185.145C161.074 185.607 161.021 186.102 161.021 186.629ZM175.328 192.195C174.592 192.195 173.925 192.072 173.326 191.824C172.734 191.57 172.223 191.215 171.793 190.76C171.37 190.304 171.044 189.764 170.816 189.139C170.589 188.514 170.475 187.83 170.475 187.088V186.678C170.475 185.818 170.602 185.053 170.855 184.383C171.109 183.706 171.454 183.133 171.891 182.664C172.327 182.195 172.822 181.84 173.375 181.6C173.928 181.359 174.501 181.238 175.094 181.238C175.849 181.238 176.5 181.368 177.047 181.629C177.6 181.889 178.053 182.254 178.404 182.723C178.756 183.185 179.016 183.732 179.186 184.363C179.355 184.988 179.439 185.672 179.439 186.414V187.225H171.549V185.75H177.633V185.613C177.607 185.145 177.509 184.689 177.34 184.246C177.177 183.803 176.917 183.439 176.559 183.152C176.201 182.866 175.712 182.723 175.094 182.723C174.684 182.723 174.306 182.811 173.961 182.986C173.616 183.156 173.32 183.41 173.072 183.748C172.825 184.087 172.633 184.5 172.496 184.988C172.359 185.477 172.291 186.04 172.291 186.678V187.088C172.291 187.589 172.359 188.061 172.496 188.504C172.639 188.94 172.844 189.324 173.111 189.656C173.385 189.988 173.714 190.249 174.098 190.438C174.488 190.626 174.931 190.721 175.426 190.721C176.064 190.721 176.604 190.59 177.047 190.33C177.49 190.07 177.877 189.721 178.209 189.285L179.303 190.154C179.075 190.499 178.785 190.828 178.434 191.141C178.082 191.453 177.649 191.707 177.135 191.902C176.627 192.098 176.025 192.195 175.328 192.195ZM191.646 177.781V192H189.791V177.781H191.646ZM196.217 177.781V179.324H185.23V177.781H196.217ZM206.637 187.479H208.512C208.414 188.377 208.157 189.181 207.74 189.891C207.324 190.6 206.734 191.163 205.973 191.58C205.211 191.99 204.26 192.195 203.121 192.195C202.288 192.195 201.529 192.039 200.846 191.727C200.169 191.414 199.586 190.971 199.098 190.398C198.609 189.819 198.232 189.126 197.965 188.318C197.704 187.505 197.574 186.6 197.574 185.604V184.188C197.574 183.191 197.704 182.29 197.965 181.482C198.232 180.669 198.613 179.972 199.107 179.393C199.609 178.813 200.211 178.367 200.914 178.055C201.617 177.742 202.408 177.586 203.287 177.586C204.361 177.586 205.27 177.788 206.012 178.191C206.754 178.595 207.33 179.155 207.74 179.871C208.157 180.581 208.414 181.404 208.512 182.342H206.637C206.546 181.678 206.376 181.108 206.129 180.633C205.882 180.151 205.53 179.78 205.074 179.52C204.618 179.259 204.023 179.129 203.287 179.129C202.656 179.129 202.099 179.249 201.617 179.49C201.142 179.731 200.742 180.073 200.416 180.516C200.097 180.958 199.856 181.489 199.693 182.107C199.531 182.726 199.449 183.413 199.449 184.168V185.604C199.449 186.3 199.521 186.954 199.664 187.566C199.814 188.178 200.038 188.715 200.338 189.178C200.637 189.64 201.018 190.005 201.48 190.271C201.943 190.532 202.49 190.662 203.121 190.662C203.922 190.662 204.56 190.535 205.035 190.281C205.51 190.027 205.868 189.663 206.109 189.188C206.357 188.712 206.533 188.143 206.637 187.479ZM219.664 187.479H221.539C221.441 188.377 221.184 189.181 220.768 189.891C220.351 190.6 219.762 191.163 219 191.58C218.238 191.99 217.288 192.195 216.148 192.195C215.315 192.195 214.557 192.039 213.873 191.727C213.196 191.414 212.613 190.971 212.125 190.398C211.637 189.819 211.259 189.126 210.992 188.318C210.732 187.505 210.602 186.6 210.602 185.604V184.188C210.602 183.191 210.732 182.29 210.992 181.482C211.259 180.669 211.64 179.972 212.135 179.393C212.636 178.813 213.238 178.367 213.941 178.055C214.645 177.742 215.436 177.586 216.314 177.586C217.389 177.586 218.297 177.788 219.039 178.191C219.781 178.595 220.357 179.155 220.768 179.871C221.184 180.581 221.441 181.404 221.539 182.342H219.664C219.573 181.678 219.404 181.108 219.156 180.633C218.909 180.151 218.557 179.78 218.102 179.52C217.646 179.259 217.05 179.129 216.314 179.129C215.683 179.129 215.126 179.249 214.645 179.49C214.169 179.731 213.769 180.073 213.443 180.516C213.124 180.958 212.883 181.489 212.721 182.107C212.558 182.726 212.477 183.413 212.477 184.168V185.604C212.477 186.3 212.548 186.954 212.691 187.566C212.841 188.178 213.066 188.715 213.365 189.178C213.665 189.64 214.046 190.005 214.508 190.271C214.97 190.532 215.517 190.662 216.148 190.662C216.949 190.662 217.587 190.535 218.062 190.281C218.538 190.027 218.896 189.663 219.137 189.188C219.384 188.712 219.56 188.143 219.664 187.479Z" fill="#2F9E41"/>
</svg>
