<svg width="80" height="70" viewBox="0 0 80 70" fill="none" xmlns="http://www.w3.org/2000/svg">
<path fill-rule="evenodd" clip-rule="evenodd" d="M0 59.0562V60.4241C0 65.3175 5.38425 70 10.9375 70H78.125C79.587 70 80 68.5975 80 67.5376C80 67.0921 78.7114 65.5909 78.3226 64.9023C77.7197 63.835 77.5045 62.9837 77.1875 61.7922H15.9374C12.9287 61.7929 9.67591 62.1472 9.46013 59.8418C9.22081 57.2853 12.7654 57.6867 15.625 57.6882H77.1875C77.5045 56.4968 77.7197 55.6454 78.3226 54.578C79.4987 52.4955 80 53.0744 80 51.1219C80 50.4631 78.8774 49.4803 78.125 49.4803H10.9375C5.38425 49.4803 0 54.1629 0 59.0562Z" fill="#2F9E41"/>
<path fill-rule="evenodd" clip-rule="evenodd" d="M0 33.6119C0 35.7353 4.88458 37.0194 5.31248 32.5174H5.93752C6.36542 37.0194 11.25 35.7353 11.25 33.6119C11.25 32.0656 8.73177 27.2782 8.24764 25.2966C7.78648 23.409 8.12501 16.8505 8.12501 14.4602L23.9412 18.944C26.5612 19.7066 38.9381 23.2152 40 23.2152C41.5243 23.2152 43.4149 22.4016 44.8873 22.0222C46.7194 21.5503 47.9613 21.2116 49.6476 20.7179C51.1155 20.2882 52.9418 19.8548 54.4169 19.4217L68.6326 15.4519C71.8466 14.5056 76.875 13.7778 76.875 11.7242C76.875 9.27565 72.8004 8.94525 68.8682 7.79046L49.8818 2.52549C37.4162 -1.13541 41.7102 -0.330333 32.5 1.87479L10.1912 8.06132C1.39832 10.621 3.02259 8.27515 3.13265 23.2219C3.14808 25.3038 3.00362 25.3477 2.38303 26.9432C1.92668 28.1164 0 32.741 0 33.6119Z" fill="#2F9E41"/>
<path fill-rule="evenodd" clip-rule="evenodd" d="M15.6249 30.0552C21.903 32.9635 32.6877 34.9798 40 34.9798C45.8358 34.9798 53.9668 33.7631 59.0659 31.9734C60.706 31.3978 62.8904 30.7429 64.375 30.0552V20.7529L46.3681 25.7811C44.8886 26.2156 41.4301 27.2408 39.9707 27.2783C37.8946 27.3317 19.2621 21.4948 15.6249 20.7529V30.0552Z" fill="#2F9E41"/>
<path fill-rule="evenodd" clip-rule="evenodd" d="M38.125 45.1028C46.1096 45.1028 56.4347 44.035 62.9328 40.8308C65.0639 39.7799 64.375 37.2062 64.375 34.4327C63.5422 34.6025 62.6484 34.9851 61.8781 35.2562C49.0854 39.7583 33.9381 39.9281 20.8954 36.111C19.9727 35.8411 19.2681 35.6548 18.3438 35.3354C17.4065 35.0116 16.5364 34.6185 15.625 34.4327C15.625 40.8362 14.4399 40.3096 23.1635 42.8803C27.0855 44.0361 32.9837 45.1028 38.125 45.1028Z" fill="#2F9E41"/>
</svg>
