<svg width="452" height="362" viewBox="0 0 452 362" fill="none" xmlns="http://www.w3.org/2000/svg">
<g clip-path="url(#clip0_19_1578)">
<path d="M442.366 252C429.3 291.935 392.507 328.922 303.382 348.058C271.176 354.976 233.695 358.372 200.281 356.274C151.104 353.184 99.5611 335.538 58.6018 315.53C30.2549 301.685 18.9727 283.003 14.9789 261.884C12.5075 248.826 12.8206 234.838 13.6084 220.486C14.7949 198.895 10.4767 177.154 4.08252 156.145C-5.75656 123.8 2.34877 89.8709 26.6228 62.0475C50.9 34.224 89.2587 14.8658 133.009 8.36127C206.717 -2.59462 281.496 4.63488 281.496 4.63488C379.983 12.7665 429.837 90.4894 441.996 153.753C447.556 182.666 453.367 218.377 442.366 252Z" fill="#F4F7FA"/>
<path d="M359.571 80.3804C357.727 80.51 355.966 80.6614 354.357 80.7859C349.365 81.1721 338.424 83.5794 334.651 79.6285C328.431 73.1098 344.233 62.0539 348.211 57.0879C353.131 50.944 359.229 44.1046 360.218 36.6428C361.723 25.2956 351.943 9.94473 339.875 4.01895C323.228 -4.15498 299.973 1.40766 285.017 9.43274C263.35 21.0585 248.125 40.2345 241.946 60.2638C235.285 81.8522 244.471 104.199 241.838 126.08C237.7 160.472 176.378 116.656 188.363 207.094C191.009 227.059 195.324 248.899 209.434 266.012C215.286 273.108 226.985 282.969 238.645 282.4C255.178 281.593 254.439 263 259.569 254.417C265.564 244.384 276.025 236.458 287.65 230.529C302.435 222.988 319.575 216.243 325.453 202.004C329.269 192.757 323.525 183.236 316.177 176.042C312.127 172.079 303.494 167.546 304.788 161.705C305.862 156.86 314.426 153.302 318.891 150.747C332.625 142.891 345.977 134.427 358.191 125.11C369.152 116.749 387.688 104.064 386.187 90.4753C384.98 79.5386 370.766 79.5887 359.571 80.3791V80.3804Z" fill="url(#paint0_linear_19_1578)"/>
<mask id="mask0_19_1578" style="mask-type:luminance" maskUnits="userSpaceOnUse" x="186" y="0" width="201" height="283">
<path d="M359.571 80.3804C357.727 80.51 355.966 80.6614 354.357 80.7859C349.365 81.1721 338.424 83.5794 334.651 79.6285C328.431 73.1098 344.233 62.0539 348.211 57.0879C353.131 50.944 359.229 44.1046 360.218 36.6428C361.723 25.2956 351.943 9.94473 339.875 4.01895C323.228 -4.15498 299.973 1.40766 285.017 9.43274C263.35 21.0585 248.125 40.2345 241.946 60.2638C235.285 81.8522 244.471 104.199 241.838 126.08C237.7 160.472 176.378 116.656 188.363 207.094C191.009 227.059 195.324 248.899 209.434 266.012C215.286 273.108 226.985 282.969 238.645 282.4C255.178 281.593 254.439 263 259.569 254.417C265.564 244.384 276.025 236.458 287.65 230.529C302.435 222.988 319.575 216.243 325.453 202.004C329.269 192.757 323.525 183.236 316.177 176.042C312.127 172.079 303.494 167.546 304.788 161.705C305.862 156.86 314.426 153.302 318.891 150.747C332.625 142.891 345.977 134.427 358.191 125.11C369.152 116.749 387.688 104.064 386.187 90.4753C384.98 79.5386 370.766 79.5887 359.571 80.3791V80.3804Z" fill="white"/>
</mask>
<g mask="url(#mask0_19_1578)">
<g style="mix-blend-mode:soft-light" opacity="0.8">
<path d="M271.458 306.025C271.289 306.025 271.119 305.985 270.971 305.9C242.751 289.877 229.469 265.413 230.368 231.109C231.153 201.203 242.18 168.754 252.845 137.373C261.245 112.662 269.177 89.3204 270.62 70.5717C271.778 55.5507 277.173 41.9258 286.658 30.0742C294.244 20.5965 304.443 12.2327 316.973 5.21235C338.286 -6.72904 359.282 -10.6915 359.492 -10.7313C359.944 -10.8147 360.394 -10.5914 360.499 -10.2321C360.604 -9.87286 360.323 -9.51485 359.871 -9.43144C359.664 -9.39294 338.942 -5.47536 317.891 6.33001C298.514 17.1974 274.872 37.1779 272.294 70.6526C270.84 89.536 262.886 112.941 254.465 137.72C233.477 199.473 209.691 269.465 271.946 304.812C272.322 305.026 272.411 305.442 272.141 305.742C271.976 305.924 271.72 306.022 271.458 306.022V306.025Z" fill="white"/>
<path d="M272.125 65.5018C272.039 65.5018 271.952 65.4915 271.867 65.4697C271.641 65.412 266.27 63.9889 260.394 58.4353C255.034 53.3705 248.219 43.7299 246.175 26.5633C246.132 26.1964 246.471 25.8717 246.931 25.8371C247.389 25.8011 247.801 26.0719 247.844 26.4376C249.838 43.1897 256.416 52.5698 261.584 57.4883C267.159 62.7956 272.33 64.1878 272.382 64.2007C272.821 64.3149 273.063 64.6908 272.919 65.0411C272.805 65.3222 272.475 65.5018 272.122 65.5018H272.125Z" fill="white"/>
<path d="M263.734 107.417C263.309 107.417 262.944 107.162 262.901 106.818C262.854 106.452 263.19 106.124 263.65 106.087C263.794 106.075 278.188 104.845 297.051 98.2271C314.445 92.1255 339.308 80.0635 358.99 57.2458C359.251 56.9417 359.773 56.8647 360.157 57.0726C360.539 57.2804 360.636 57.6962 360.375 58.0003C340.453 81.0965 315.278 93.2996 297.666 99.4705C278.572 106.16 263.965 107.402 263.819 107.415C263.79 107.417 263.761 107.419 263.734 107.419V107.417Z" fill="white"/>
<path d="M233.448 209.689C233.356 209.689 233.261 209.676 233.169 209.65C232.585 209.486 218.728 205.512 207.277 194.378C200.551 187.836 196.099 180.182 194.042 171.626C191.48 160.964 192.657 148.872 197.543 135.686C197.674 135.333 198.139 135.13 198.585 135.234C199.028 135.338 199.283 135.709 199.153 136.062C188.29 165.376 198.254 183.468 208.527 193.485C219.672 204.352 233.587 208.353 233.726 208.392C234.163 208.515 234.391 208.896 234.238 209.242C234.117 209.517 233.792 209.688 233.447 209.688L233.448 209.689Z" fill="white"/>
<path d="M238.328 187.179C237.913 187.179 237.553 186.935 237.497 186.599C237.437 186.234 237.76 185.899 238.218 185.851C238.89 185.781 305.494 178.588 321.816 158.555C322.069 158.246 322.587 158.157 322.977 158.357C323.366 158.558 323.477 158.971 323.225 159.28C316.176 167.933 299.744 175.258 274.385 181.055C255.585 185.352 238.608 187.156 238.438 187.174C238.401 187.178 238.364 187.179 238.327 187.179H238.328Z" fill="white"/>
</g>
</g>
<path d="M447.896 81.8381C442.112 65.267 423.797 52.7161 402.843 48.384C390.086 45.7458 374.511 44.854 361.5 46.6543C343.199 49.186 328.092 58.6765 316.316 69.676C302.48 82.6004 301.185 98.6159 296.239 114.525C295.269 117.644 288.873 134.819 284.03 124.753C277.276 110.718 262.215 113.193 262.212 113.193C250.427 115.131 241.37 122.008 237.013 130.665C225.374 153.787 228.972 183.822 231.434 208.058C232.591 219.458 234.375 230.797 236.502 242.1C237.029 244.893 239.552 247.188 242.968 247.969C246.383 248.751 250.058 247.874 252.371 245.727C254.775 243.496 257.293 241.447 259.625 239.643C282.048 222.298 317.155 219.73 346.778 218.693C364.073 218.087 378.324 217.214 393.393 209.831C399.655 206.763 406.461 202.997 409.363 197.391C411.99 192.32 412.5 183.635 408.545 178.919C403.62 173.046 392.68 173.416 386.168 169.089C375.646 162.098 403.166 157.233 408.71 155.817C417.548 153.558 423.408 147.956 430.028 143.098C435.085 139.387 439.841 135.349 443.51 130.7C454.72 116.501 453.345 97.4405 447.898 81.8394L447.896 81.8381Z" fill="url(#paint1_linear_19_1578)"/>
<mask id="mask1_19_1578" style="mask-type:luminance" maskUnits="userSpaceOnUse" x="228" y="45" width="225" height="204">
<path d="M447.896 81.8381C442.112 65.267 423.797 52.7161 402.843 48.384C390.086 45.7458 374.511 44.854 361.5 46.6543C343.199 49.186 328.092 58.6765 316.316 69.676C302.48 82.6004 301.185 98.6159 296.239 114.525C295.269 117.644 288.873 134.819 284.03 124.753C277.276 110.718 262.215 113.193 262.212 113.193C250.427 115.131 241.37 122.008 237.013 130.665C225.374 153.787 228.972 183.822 231.434 208.058C232.591 219.458 234.375 230.797 236.502 242.1C237.029 244.893 239.552 247.188 242.968 247.969C246.383 248.751 250.058 247.874 252.371 245.727C254.775 243.496 257.293 241.447 259.625 239.643C282.048 222.298 317.155 219.73 346.778 218.693C364.073 218.087 378.324 217.214 393.393 209.831C399.655 206.763 406.461 202.997 409.363 197.391C411.99 192.32 412.5 183.635 408.545 178.919C403.62 173.046 392.68 173.416 386.168 169.089C375.646 162.098 403.166 157.233 408.71 155.817C417.548 153.558 423.408 147.956 430.028 143.098C435.085 139.387 439.841 135.349 443.51 130.7C454.72 116.501 453.345 97.4405 447.898 81.8394L447.896 81.8381Z" fill="white"/>
</mask>
<g mask="url(#mask1_19_1578)">
<g style="mix-blend-mode:soft-light" opacity="0.8">
<path d="M233.027 253.919C232.907 253.919 232.785 253.899 232.67 253.855C232.25 253.699 232.071 253.301 232.268 252.967C232.544 252.501 260.308 205.87 298.625 158.076C321.141 129.993 342.845 107.003 363.135 89.7465C388.575 68.1106 411.887 55.4545 432.422 52.1323C432.877 52.0592 433.319 52.2914 433.411 52.6533C433.503 53.0138 433.211 53.3667 432.756 53.4399C412.569 56.7056 389.558 69.2283 364.36 90.6576C344.141 107.854 322.5 130.778 300.041 158.794C261.781 206.517 234.062 253.072 233.787 253.537C233.644 253.778 233.342 253.919 233.029 253.919H233.027Z" fill="white"/>
<path d="M332.809 120.474C332.766 120.474 332.72 120.471 332.675 120.466C332.217 120.408 331.905 120.066 331.979 119.703C332.105 119.074 344.469 56.6927 332.193 46.1654C331.878 45.896 331.897 45.4738 332.238 45.2236C332.577 44.9733 333.109 44.99 333.423 45.2595C346.25 56.2577 334.157 117.318 333.636 119.913C333.57 120.242 333.213 120.475 332.808 120.475L332.809 120.474Z" fill="white"/>
<path d="M479.514 88.1758C479.362 88.1758 479.209 88.1438 479.07 88.0745C446.159 71.724 377.694 80.2624 377.005 80.3509C376.547 80.4087 376.117 80.1623 376.043 79.7992C375.969 79.436 376.28 79.0934 376.737 79.0344C376.91 79.0126 394.317 76.8106 415.601 76.6823C435.294 76.5591 462.451 78.2465 479.958 86.944C480.35 87.139 480.469 87.5509 480.224 87.8627C480.064 88.0655 479.791 88.1758 479.512 88.1758H479.514Z" fill="white"/>
<path d="M260.649 211.329C260.586 211.329 260.523 211.324 260.458 211.311C260.006 211.228 259.726 210.87 259.83 210.51C268.812 179.656 235.132 134.67 234.791 134.219C234.552 133.904 234.68 133.494 235.077 133.304C235.476 133.114 235.991 133.216 236.228 133.532C236.314 133.646 244.926 145.084 252.297 160.224C259.119 174.237 266.246 194.387 261.464 210.812C261.374 211.12 261.028 211.329 260.647 211.329H260.649Z" fill="white"/>
<path d="M288.494 172.937C288.142 172.937 287.814 172.759 287.698 172.479C287.553 172.129 287.792 171.753 288.232 171.637C288.533 171.558 318.745 163.681 355.336 157.976C389.17 152.7 435.542 148.255 464.333 157.04C464.766 157.172 464.982 157.557 464.816 157.901C464.649 158.245 464.165 158.416 463.733 158.284C435.315 149.614 389.277 154.042 355.661 159.285C319.172 164.975 289.059 172.825 288.759 172.904C288.671 172.927 288.583 172.937 288.495 172.937H288.494Z" fill="white"/>
</g>
</g>
<path d="M426.557 121.368V272.517L351.493 275.746L323.785 276.941L59.0747 288.345V126.065L426.226 121.373L426.557 121.368Z" fill="#F4F7FA"/>
<path d="M366.833 184.225L340.843 184.986V148.813L366.833 148.297V184.225Z" fill="#BFC8D6"/>
<path d="M351.102 160.458L344.262 160.624V151.845L351.102 151.698V160.458Z" fill="white"/>
<path d="M364.097 160.176L356.575 160.354V151.604L364.097 151.442V160.176Z" fill="white"/>
<path d="M351.102 170.766L344.262 170.949V162.688L351.102 162.52V170.766Z" fill="white"/>
<path d="M364.097 170.45L356.575 170.649V162.414L364.097 162.23V170.45Z" fill="white"/>
<path d="M351.102 181.588L344.262 181.792V173.531L351.102 173.342V181.588Z" fill="white"/>
<path d="M364.097 181.238L356.575 181.459V173.223L364.097 173.018V181.238Z" fill="white"/>
<path d="M403.084 183.197L377.092 183.943V148.105L403.084 147.598V183.197Z" fill="#BFC8D6"/>
<path d="M387.353 159.646L380.513 159.806V151.11L387.353 150.965V159.646Z" fill="white"/>
<path d="M400.348 159.367L392.141 159.543V150.873L400.348 150.715V159.367Z" fill="white"/>
<path d="M387.353 169.857L380.513 170.037V161.853L387.353 161.687V169.857Z" fill="white"/>
<path d="M400.348 169.547L392.141 169.743V161.583L400.348 161.404V169.547Z" fill="white"/>
<path d="M387.353 180.58L380.513 180.78V172.596L387.353 172.411V180.58Z" fill="white"/>
<path d="M400.348 180.236L392.141 180.453V172.293L400.348 172.093V180.236Z" fill="white"/>
<path d="M366.833 230.42L340.843 231.494V195.321L366.833 194.491V230.42Z" fill="#BFC8D6"/>
<path d="M351.102 206.326L344.262 206.576V197.798L351.102 197.564V206.326Z" fill="white"/>
<path d="M364.097 205.896L356.575 206.167V197.416L364.097 197.162V205.896Z" fill="white"/>
<path d="M351.102 217.148L344.262 217.418V208.641L351.102 208.386V217.148Z" fill="white"/>
<path d="M364.097 216.684L356.575 216.976V208.226L364.097 207.95V216.684Z" fill="white"/>
<path d="M351.102 227.971L344.262 228.261V219.484L351.102 219.209V227.971Z" fill="white"/>
<path d="M364.097 227.471L356.575 227.786V219.036L364.097 218.738V227.471Z" fill="white"/>
<path d="M403.084 228.966L377.092 230.021V194.183L403.084 193.368V228.966Z" fill="#BFC8D6"/>
<path d="M387.353 205.089L380.513 205.334V196.638L387.353 196.409V205.089Z" fill="white"/>
<path d="M400.348 204.667L392.141 204.933V196.263L400.348 196.014V204.667Z" fill="white"/>
<path d="M387.353 215.811L380.513 216.077V207.38L387.353 207.132V215.811Z" fill="white"/>
<path d="M400.348 215.356L392.141 215.643V206.974L400.348 206.703V215.356Z" fill="white"/>
<path d="M387.353 226.535L380.513 226.82V218.123L387.353 217.854V226.535Z" fill="white"/>
<path d="M400.348 226.045L392.141 226.354V217.683L400.348 217.392V226.045Z" fill="white"/>
<path d="M117.189 191.416L87.0939 192.277V153.764L117.189 153.178V191.416Z" fill="#BFC8D6"/>
<path d="M98.7216 166.146L91.1974 166.332V156.988L98.7216 156.82V166.146Z" fill="white"/>
<path d="M113.084 165.827L104.877 166.028V156.714L113.084 156.531V165.827Z" fill="white"/>
<path d="M98.7216 177.119L91.1974 177.327V168.532L98.7216 168.341V177.119Z" fill="white"/>
<path d="M113.084 176.761L104.877 176.987V168.22L113.084 168.013V176.761Z" fill="white"/>
<path d="M98.7216 188.639L91.1974 188.872V180.075L98.7216 179.862V188.639Z" fill="white"/>
<path d="M113.084 188.243L104.877 188.493V179.726L113.084 179.495V188.243Z" fill="white"/>
<path d="M157.541 190.252L128.132 191.097V152.962L157.541 152.388V190.252Z" fill="#BFC8D6"/>
<path d="M139.758 165.225L132.236 165.409V156.155L139.758 155.99V165.225Z" fill="white"/>
<path d="M153.438 164.927L143.863 165.126V155.901L153.438 155.723V164.927Z" fill="white"/>
<path d="M139.758 176.09L132.236 176.294V167.585L139.758 167.399V176.09Z" fill="white"/>
<path d="M153.438 175.757L143.863 175.979V167.296L153.438 167.093V175.757Z" fill="white"/>
<path d="M139.758 187.499L132.236 187.725V179.015L139.758 178.806V187.499Z" fill="white"/>
<path d="M153.438 187.129L143.863 187.376V178.692L153.438 178.465V187.129Z" fill="white"/>
<path d="M117.189 240.579L87.0939 241.797V203.282L117.189 202.341V240.579Z" fill="#BFC8D6"/>
<path d="M98.7216 214.975L91.1974 215.258V205.913L98.7216 205.647V214.975Z" fill="white"/>
<path d="M113.084 214.487L104.877 214.795V205.479L113.084 205.193V214.487Z" fill="white"/>
<path d="M98.7216 226.495L91.1974 226.802V217.456L98.7216 217.169V226.495Z" fill="white"/>
<path d="M113.084 225.969L104.877 226.301V216.986L113.084 216.673V225.969Z" fill="white"/>
<path d="M98.7216 238.015L91.1974 238.345V229L98.7216 228.689V238.015Z" fill="white"/>
<path d="M113.084 237.451L104.877 237.808V228.493L113.084 228.155V237.451Z" fill="white"/>
<path d="M157.541 238.935L128.132 240.128V201.992L157.541 201.071V238.935Z" fill="#BFC8D6"/>
<path d="M139.758 213.573L132.236 213.852V204.599L139.758 204.338V213.573Z" fill="white"/>
<path d="M153.438 213.122L143.863 213.422V204.197L153.438 203.916V213.122Z" fill="white"/>
<path d="M139.758 224.981L132.236 225.282V216.028L139.758 215.747V224.981Z" fill="white"/>
<path d="M153.438 224.492L143.863 224.818V215.593L153.438 215.288V224.492Z" fill="white"/>
<path d="M139.758 236.39L132.236 236.712V227.459L139.758 227.154V236.39Z" fill="white"/>
<path d="M153.438 235.864L143.863 236.214V226.989L153.438 226.658V235.864Z" fill="white"/>
<path d="M252.528 198.619L250.174 198.697C236.015 199.144 224.57 208.281 224.57 219.056V279.327L277.919 276.577V217.107C277.919 206.475 266.569 198.176 252.528 198.619Z" fill="#BFC8D6"/>
<path d="M246.456 187.709L218.414 188.518V151.21L246.456 150.662V187.709Z" fill="#BFC8D6"/>
<path d="M229.358 163.214L221.833 163.389V154.336L229.358 154.178V163.214Z" fill="white"/>
<path d="M242.353 162.929L233.461 163.118V154.093L242.353 153.923V162.929Z" fill="white"/>
<path d="M229.358 173.843L221.833 174.038V165.519L229.358 165.339V173.843Z" fill="white"/>
<path d="M242.353 173.525L233.461 173.736V165.242L242.353 165.048V173.525Z" fill="white"/>
<path d="M229.358 185.004L221.833 185.221V176.701L229.358 176.5V185.004Z" fill="white"/>
<path d="M242.353 184.651L233.461 184.886V176.391L242.353 176.175V184.651Z" fill="white"/>
<path d="M284.758 186.616L256.032 187.409V150.458L284.758 149.919V186.616Z" fill="#BFC8D6"/>
<path d="M268.685 162.349L259.793 162.537V153.569L268.685 153.4V162.349Z" fill="white"/>
<path d="M280.997 162.07L272.788 162.256V153.316L280.997 153.149V162.07Z" fill="white"/>
<path d="M268.685 172.877L259.793 173.086V164.646L268.685 164.455V172.877Z" fill="white"/>
<path d="M280.997 172.565L272.788 172.773V164.359L280.997 164.169V172.565Z" fill="white"/>
<path d="M268.685 183.931L259.793 184.164V175.724L268.685 175.51V183.931Z" fill="white"/>
<path d="M280.997 183.585L272.788 183.816V175.402L280.997 175.189V183.585Z" fill="white"/>
<g style="mix-blend-mode:multiply">
<path d="M426.557 121.368V266.283C405.302 268.879 374.312 272.854 351.493 275.746C334.871 277.851 322.77 279.379 322.77 279.379C322.77 279.379 322.944 278.746 323.745 276.942C325.012 274.088 327.782 268.29 333.684 257.397C339.917 245.894 363.154 239.591 377.099 228.679C378.319 227.732 379.46 226.743 380.515 225.716C382.944 223.359 384.905 220.781 386.197 217.903C386.497 217.228 386.762 216.539 386.986 215.826C387.122 215.4 387.246 214.969 387.351 214.528C388.04 211.678 388.094 208.552 387.351 205.089C386.702 202.08 386.189 199.207 385.813 196.459C385.695 195.602 385.588 194.753 385.499 193.918C385.104 190.309 384.963 186.916 385.081 183.715C385.117 182.669 385.181 181.647 385.277 180.64C385.548 177.753 386.043 175.02 386.781 172.424C388.102 167.741 390.195 163.49 393.09 159.525C395.113 156.751 397.529 154.111 400.348 151.562C401.221 150.774 402.128 149.996 403.084 149.222C404.882 147.756 406.823 146.316 408.91 144.886C424.623 134.129 426.125 125.491 426.212 121.372L426.556 121.367L426.557 121.368Z" fill="#F4F7FA"/>
</g>
<path d="M431.81 272.216L57.0278 291.682L57.0229 282.366L431.81 263.636V272.216Z" fill="#BFC8D6"/>
<path d="M59.0522 127.151V282.031L15.2582 260.859L15.1194 110.15L59.0522 127.151Z" fill="#BFC8D6"/>
<path d="M8.43945 261.15L57.023 282.366L57.0278 291.682L8.43945 270.841V261.15Z" fill="#97A6B7"/>
<path d="M58.923 279.651L15.2582 260.859L8.70093 261.236L57.023 282.366L58.923 279.651Z" fill="#AABBCC"/>
<path d="M431.81 263.636L426.338 262.5L58.923 279.651L57.0229 282.366L431.81 263.636Z" fill="#AABBCC"/>
<path d="M395.56 104.939L8.43945 108.208V100.36L395.56 97.8074V104.939Z" fill="url(#paint2_linear_19_1578)"/>
<path d="M279.97 266.501L222.518 269.32V267.19L279.97 264.402V266.501Z" fill="white"/>
<path d="M61.8351 123.564L65.5786 72.3322L18.1332 100.342L61.8351 123.564Z" fill="url(#paint3_linear_19_1578)"/>
<path d="M61.8352 123.564L65.5787 72.3322L377.131 72.6376L425.069 119.36L61.8352 123.564Z" fill="url(#paint4_linear_19_1578)"/>
<path d="M46.74 243.232L22.8018 234.576V193.718L46.74 204.482V243.232Z" fill="#D8DEE8"/>
<path d="M32.3777 210.941L24.8535 207.781V198.043L32.3777 201.371V210.941Z" fill="white"/>
<path d="M44.0054 215.416L37.1656 212.523V203.05L44.0054 206.063V215.416Z" fill="white"/>
<path d="M32.3777 222.903L24.8535 219.954V210.216L32.3777 213.334V222.903Z" fill="white"/>
<path d="M44.0054 227.108L37.1656 224.365V214.891L44.0054 217.754V227.108Z" fill="white"/>
<path d="M32.3777 234.865L24.8535 232.128V222.389L32.3777 225.296V234.865Z" fill="white"/>
<path d="M44.0054 238.799L37.1656 236.206V226.734L44.0054 229.446V238.799Z" fill="white"/>
<path d="M46.74 190.902L22.8018 179.307V138.45L46.74 152.152V190.902Z" fill="#D8DEE8"/>
<path d="M32.3777 156.888L24.8535 152.747V143.009L32.3777 147.318V156.888Z" fill="white"/>
<path d="M44.0054 162.625L37.1656 159.026V149.552L44.0054 153.272V162.625Z" fill="white"/>
<path d="M32.3777 168.85L24.8535 164.921V155.182L32.3777 159.28V168.85Z" fill="white"/>
<path d="M44.0054 174.316L37.1656 170.867V161.395L44.0054 164.963V174.316Z" fill="white"/>
<path d="M32.3777 180.812L24.8535 177.093V167.355L32.3777 171.242V180.812Z" fill="white"/>
<path d="M44.0054 186.009L37.1656 182.709V173.236L44.0054 176.656V186.009Z" fill="white"/>
<path d="M431.81 125.836L52.8969 131.133L52.5967 123.564L431.81 118.77V125.836Z" fill="url(#paint5_linear_19_1578)"/>
<path d="M52.8969 123.263L8.43945 100.405V108.425L52.8969 131.2V123.263Z" fill="url(#paint6_linear_19_1578)"/>
<path d="M18.1332 100.298L61.8351 123.564H52.5966L8.70093 100.36L18.1332 100.298Z" fill="url(#paint7_linear_19_1578)"/>
<path d="M143.734 301.332L128.132 287.672V278.254L143.734 291.569V301.332Z" fill="#AABBCC"/>
<path d="M362.046 271.237L167.117 281.185V272.01L362.046 262.5V271.237Z" fill="#D8DEE8"/>
<path d="M372.989 279.38L156.174 290.941V281.741L372.989 270.667V279.38Z" fill="#F4F7FA"/>
<path d="M383.249 288.06L143.734 301.332V291.569L383.249 278.858V288.06Z" fill="#D8DEE8"/>
<path d="M167.505 281.131L150.416 267.809V258.191L167.361 271.994L167.505 281.131Z" fill="#AABBCC"/>
<path d="M156.174 281.7L139.076 268.74V277.702L156.174 291.056V281.7Z" fill="#AABBCC"/>
<path d="M139.076 268.74L150.416 267.809L167.361 281.168L156.08 281.744L139.076 268.74Z" fill="#D8DEE8"/>
<path d="M128.132 278.254L139.076 277.545L156.08 290.942L143.734 291.569L128.132 278.254Z" fill="#E6EBF4"/>
<path d="M167.361 271.994L150.416 258.191L327.829 250.167L362.275 262.485L167.361 271.994Z" fill="#EAEDF3"/>
<path d="M372.908 270.683L362.046 267.904V271.237L372.908 270.683Z" fill="#AABBCC"/>
<path d="M382.765 278.859L372.989 276.204V279.38L382.765 278.859Z" fill="#AABBCC"/>
<path d="M167.117 261.757V266.505C167.117 268.903 176.39 270.401 187.394 269.868C198.339 269.337 207.471 266.972 207.471 264.595V259.894L167.117 261.757Z" fill="#D8DEE8"/>
<path d="M207.103 260.143C207.103 262.518 198.273 264.862 187.33 265.381C176.325 265.902 167.361 264.382 167.361 261.984C167.361 259.586 176.325 257.235 187.33 256.737C198.275 256.242 207.103 257.768 207.103 260.143Z" fill="#BFC8D6"/>
<path d="M199.264 260.257L176.009 261.354V144.495L199.264 144.076V260.257Z" fill="#D8DEE8"/>
<path d="M199.132 259.821C199.132 260.996 193.881 262.195 187.383 262.497C180.865 262.802 175.567 262.091 175.567 260.909C175.567 259.727 180.866 258.526 187.383 258.23C193.881 257.933 199.132 258.647 199.132 259.822V259.821Z" fill="#D8DEE8"/>
<path d="M167.117 141.949V146.815C167.117 149.215 176.39 149.162 187.394 148.955C198.339 148.75 207.471 148.459 207.471 146.084V141.265L167.117 141.951V141.949Z" fill="#BFC8D6"/>
<path d="M207.103 141.626C207.103 144.001 198.326 144.17 187.383 144.364C176.38 144.559 167.361 144.704 167.361 142.306C167.361 139.908 176.325 137.819 187.33 137.643C198.275 137.467 207.103 139.252 207.103 141.627V141.626Z" fill="#BFC8D6"/>
<path d="M159.378 144.886L142.591 136.099V129.075L160.2 138.386L159.378 144.886Z" fill="#AABBCC"/>
<path d="M142.591 129.07L243.58 83.478L258.365 88.2476L159.217 137.962L142.591 129.07Z" fill="#BFC8D6"/>
<path d="M184.216 255.907C184.216 256.32 183.849 256.674 183.296 256.7L183.152 256.708C182.598 256.732 182.164 256.418 182.164 256.004V154.268C182.164 153.855 182.64 153.511 183.192 153.5L183.281 153.498C183.835 153.486 184.214 153.812 184.214 154.225V255.908L184.216 255.907Z" fill="#F4F7FA"/>
<path d="M193.792 255.486C193.792 255.898 193.306 256.252 192.755 256.276L192.326 256.284C191.776 256.309 191.056 255.995 191.056 255.584V154.081C191.056 153.669 191.756 153.326 192.307 153.314L192.628 153.312C193.178 153.3 193.79 153.626 193.79 154.038V255.487L193.792 255.486Z" fill="#F4F7FA"/>
<path d="M299.122 254.601V258.994C299.122 261.316 307.714 262.781 318.021 262.284C328.275 261.79 336.74 259.517 336.74 257.217V252.866L299.122 254.601Z" fill="#D8DEE8"/>
<path d="M336.498 252.913C336.498 255.213 328.225 257.466 317.969 257.95C307.66 258.435 299.264 256.949 299.264 254.628C299.264 252.306 307.66 250.047 317.969 249.583C328.223 249.123 336.498 250.614 336.498 252.915V252.913Z" fill="#BFC8D6"/>
<path d="M328.531 252.716L307.329 253.704V141.128L328.531 140.753V252.716Z" fill="#D8DEE8"/>
<path d="M329.027 252.587C329.027 253.726 324.107 254.875 318.019 255.158C311.912 255.441 306.948 254.743 306.948 253.6C306.948 252.456 311.912 251.303 318.019 251.026C324.107 250.75 329.027 251.449 329.027 252.587Z" fill="#D8DEE8"/>
<path d="M299.122 139.704V144.101C299.122 146.422 307.714 146.379 318.021 146.185C328.275 145.993 336.74 145.717 336.74 143.417V139.061L299.122 139.702V139.704Z" fill="#BFC8D6"/>
<path d="M336.498 139.106C336.498 141.405 328.273 141.564 318.019 141.744C307.71 141.925 299.264 142.061 299.264 139.74C299.264 137.418 307.66 135.402 317.969 135.238C328.223 135.074 336.498 136.806 336.498 139.106Z" fill="#BFC8D6"/>
<path d="M315.536 248.448C315.536 248.847 315.018 249.191 314.5 249.214L314.389 249.22C313.87 249.243 313.485 248.938 313.485 248.539V150.073C313.485 149.673 313.822 149.34 314.34 149.331L314.544 149.329C315.062 149.319 315.538 149.634 315.538 150.035V248.449L315.536 248.448Z" fill="#F4F7FA"/>
<path d="M323.743 248.058C323.743 248.457 323.496 248.798 322.981 248.821L322.731 248.828C322.215 248.851 321.693 248.547 321.693 248.147V149.9C321.693 149.501 322.302 149.17 322.818 149.159L322.888 149.157C323.404 149.147 323.745 149.462 323.745 149.86V248.056L323.743 248.058Z" fill="#F4F7FA"/>
<path d="M351.722 133.576L258.365 88.2476C257.953 88.0474 257.425 88.05 257.014 88.2541L159.296 136.614C158.81 136.854 158.589 137.353 158.752 137.761C158.915 138.17 159.424 138.497 160.003 138.487L351.077 135.388C351.604 135.379 352.069 135.052 352.218 134.656C352.368 134.26 352.165 133.791 351.722 133.575V133.576Z" fill="#AABBCC"/>
<path d="M347.985 133.796L309.982 134.4L163.38 136.719L247.506 95.0216L257.012 90.3084C257.425 90.107 257.953 90.0775 258.366 90.2789L347.987 133.795L347.985 133.796Z" fill="#EAEDF3"/>
<path d="M268.646 116.493C268.646 121.087 263.747 124.876 257.688 124.958C251.612 125.039 246.674 121.363 246.674 116.745C246.674 112.127 251.612 108.337 257.688 108.28C263.747 108.222 268.646 111.899 268.646 116.493Z" fill="#AABBCC"/>
<g style="mix-blend-mode:soft-light" opacity="0.5">
<path d="M309.98 134.4L163.379 136.719L247.504 95.0216C249.662 99.3896 250.074 104.737 244.861 109.996C232.799 122.18 233.277 132.234 265.619 128.644C283.388 126.675 299.069 129.668 309.98 134.399V134.4Z" fill="white"/>
</g>
<path d="M351.054 141.409L159.188 144.798V138.5L351.054 135.39V141.409Z" fill="#AABBCC"/>
<path d="M116.115 97.2854C141.723 76.9295 141.723 43.9261 116.115 23.5702C90.5069 3.21429 48.9878 3.21429 23.3796 23.5702C-2.22861 43.9261 -2.22861 76.9295 23.3796 97.2854C48.9878 117.641 90.5069 117.641 116.115 97.2854Z" fill="url(#paint8_linear_19_1578)"/>
<path d="M74.693 108.621C110.909 108.621 140.267 85.284 140.267 56.4964C140.267 27.7088 110.909 4.37183 74.693 4.37183C38.4776 4.37183 9.11914 27.7088 9.11914 56.4964C9.11914 85.284 38.4776 108.621 74.693 108.621Z" fill="url(#paint9_linear_19_1578)"/>
<path d="M135.745 56.4964C135.745 83.301 108.414 105.027 74.693 105.027C62.6698 105.027 51.4554 102.263 42.007 97.4867C24.9569 88.8841 13.6407 73.7438 13.6407 56.4964C13.6407 29.6918 40.9722 7.96606 74.693 7.96606C75.258 7.96606 75.8166 7.9712 76.3751 7.98531C109.316 8.69363 135.745 30.1409 135.745 56.4964Z" fill="white"/>
<path d="M74.693 34.1957L19.8638 47.4806L74.693 60.7655L129.522 47.4806L74.693 34.1957Z" fill="url(#paint10_linear_19_1578)"/>
<path d="M74.693 63.133L40.1844 54.7717V73.872C40.1844 77.0069 42.9433 79.7183 46.8014 80.3688C65.3334 83.4921 83.1535 83.5897 100.215 80.4715C103.994 79.7811 106.659 77.089 106.659 74.0068V55.3889L74.693 63.1343V63.133Z" fill="url(#paint11_linear_19_1578)"/>
<path d="M32.5633 73.3446C29.5656 74.4033 26.944 74.4251 24.6985 73.4114C24.0415 73.1149 23.7154 72.5054 23.8639 71.9164L28.7439 52.6288L33.5868 71.7702C33.7514 72.4207 33.3252 73.0752 32.5617 73.3446H32.5633Z" fill="url(#paint12_linear_19_1578)"/>
<path d="M74.693 45.5122L28.0337 49.4529V55.8868H29.4171L29.5592 50.2485L74.693 45.5122Z" fill="url(#paint13_linear_19_1578)"/>
<g style="mix-blend-mode:soft-light" opacity="0.6">
<path d="M135.745 56.4964C135.745 83.301 108.414 105.027 74.693 105.027C62.6698 105.027 51.4554 102.263 42.007 97.4866C47.7474 85.0718 64.3471 71.7458 81.5279 63.3935C113.334 47.9362 89.1651 20.0075 76.3751 7.98529C109.316 8.69361 135.745 30.1409 135.745 56.4964Z" fill="white"/>
</g>
<path d="M87.273 212.408L92.0158 213.065C94.7455 213.444 97.0104 214.941 97.9822 217.003C101.974 225.49 113.26 247.784 124.599 254.608C138.706 263.099 128.337 266.732 128.337 266.732C128.337 266.732 107.783 272.03 94.2112 253.883C80.6399 235.736 87.273 212.407 87.273 212.407V212.408Z" fill="url(#paint14_linear_19_1578)"/>
<path d="M70.6976 208.999C63.9773 206.594 59.3411 208.827 58.8181 208.999C52.5385 211.067 40.5928 219.476 35.9436 227.96C25.8463 246.392 28.5454 249.997 31.8046 254.243C36.5571 260.434 48.7029 261.712 56.6904 260.671C74.8431 258.307 81.8103 242.626 82.6126 240.725C87.83 228.361 82.7724 213.319 70.6976 208.999Z" fill="url(#paint15_linear_19_1578)"/>
<path d="M106.945 348.452C107.684 351.924 108.425 355.397 109.164 358.869C108.822 359.259 107.991 360.08 106.698 360.186C105.25 360.304 104.084 359.454 103.652 359.104C103.296 354.291 102.281 350.893 101.101 348.442L106.945 348.452Z" fill="url(#paint16_linear_19_1578)"/>
<path d="M86.8389 259.174C92.8876 269.269 96.0096 283.919 100.281 300.553C104.118 315.493 108.661 338.226 109.973 348.611C108.769 349.284 99.8726 352.028 99.4012 350.653C82.8306 302.297 74.0247 283.54 70.5007 280.634C68.3327 278.847 64.2841 279.37 63.8724 274.013C63.8547 273.772 63.8643 273.553 63.8853 273.342C64.636 265.927 82.5884 260.394 86.8372 259.173L86.8389 259.174Z" fill="url(#paint17_linear_19_1578)"/>
<path d="M17.1243 323.153C15.9507 322.761 14.5043 322.797 13.5438 323.679C11.6615 325.407 13.8892 329.08 14.8594 330.685C15.9604 332.506 18.0832 337.523 21.1842 336.481C22.5644 336.018 21.5216 332.712 20.8081 331.71C19.9138 330.453 19.7281 329.021 19.5764 327.554C19.515 326.965 19.2454 326.165 18.9646 325.597C18.5432 324.741 18.2962 323.543 17.1227 323.153H17.1243Z" fill="url(#paint18_linear_19_1578)"/>
<path d="M16.188 326.831C17.2033 328.261 20.6983 326.121 22.4788 325.559C24.2594 324.997 24.5306 325.516 23.738 324.365C22.9454 323.214 21.9041 322.089 19.9638 322.768C18.0234 323.446 15.1742 325.401 16.188 326.83V326.831Z" fill="url(#paint19_linear_19_1578)"/>
<path d="M81.9815 274.239C82.0848 274.372 79.2549 274.123 79.108 275.011C78.1088 281.052 59.3153 318.529 55.0261 319.542C54.537 319.657 28.5518 325.283 21.4086 328.045C17.9089 325.628 19.0179 321.03 19.9477 320.11C22.5499 318.609 44.346 308.836 45.8651 308.687C48.1961 302.329 48.7094 273.956 59.2104 270.954C61.3089 270.353 78.5915 269.821 81.9782 274.239H81.9815Z" fill="url(#paint20_linear_19_1578)"/>
<path d="M80.401 268.26H91.157C94.6455 277.296 97.1589 288.391 100.281 300.554C104.118 315.495 108.661 338.228 109.973 348.612C109.629 348.805 108.653 349.167 107.424 349.554C103.921 341.632 98.6877 334.051 95.0135 325.937C91.2813 316.443 98 305.167 92.7745 295.673C88.6533 286.666 82.4092 277.658 80.3994 268.26H80.401Z" fill="url(#paint21_linear_19_1578)"/>
<path d="M46.9402 274.72C50.942 232.783 63.7029 215.616 62.5891 210.519C64.1953 209.602 70.541 208.143 84.9163 209.647C86.1447 210.006 89.4233 211.057 92.6745 213.419C92.6745 213.419 93.43 213.967 94.4631 214.928C84.3642 216.444 74.0779 221.014 70.3748 227.491C63.9596 239.873 75.873 253.714 70.3748 264.64C67.4852 270.383 62.8635 275.472 57.3443 280.23C51.0356 278.979 46.711 277.137 46.9418 274.72H46.9402Z" fill="url(#paint22_linear_19_1578)"/>
<path d="M92.6729 213.419C92.6729 213.419 96.4971 216.186 98.7281 220.25C102.087 226.373 98.4698 231.629 97.385 241.629C96.1937 252.598 97.879 270.871 101.761 277.418C101.829 277.533 101.997 277.857 101.929 278.27C100.88 284.598 46.1363 283.163 46.9434 274.718C50.9452 232.781 63.7062 215.615 62.5923 210.518C64.1985 209.6 70.5443 208.141 84.9195 209.645C86.1479 210.005 89.4266 211.056 92.6777 213.418L92.6729 213.419Z" fill="url(#paint23_linear_19_1578)"/>
<path style="mix-blend-mode:multiply" opacity="0.3" d="M81.3696 263.184C87.6879 263.184 93.233 259.904 97.1847 255.412C97.69 264.225 99.2736 273.227 101.76 277.42C101.827 277.534 101.995 277.859 101.927 278.272C100.878 284.599 46.1346 283.164 46.9417 274.72C47.1612 272.413 47.4131 270.194 47.6827 268.036C58.1529 264.263 70.2827 262.596 81.3712 263.184H81.3696Z" fill="url(#paint24_linear_19_1578)"/>
<path d="M119.517 354.889C119.007 354.219 115.213 354.31 113.234 355.023C109.912 356.219 107.812 358.588 106.963 358.878C105.027 359.54 103.329 358.766 103.167 358.792C103.167 358.792 101.731 360.713 103.87 361.813C106.008 362.911 122.671 359.026 119.517 354.89V354.889Z" fill="#FF0004"/>
<path d="M77.5438 200.488C77.5438 200.488 77.907 207.858 77.0982 209.221C76.2895 210.583 78.4672 212.565 82.95 213.467C87.4329 214.367 84.3319 206.183 84.3319 206.183L77.5454 200.488H77.5438Z" fill="url(#paint25_linear_19_1578)"/>
<path d="M89.9108 197.067C91.2845 195.138 90.881 192.062 88.6452 190.323C86.721 188.827 84.0864 188.86 82.5093 188.879C77.9392 188.935 72.5039 191.021 71.0721 194.522C70.223 196.595 73.4241 200.387 73.9423 201.075C74.5266 201.852 75.3887 202.05 76.2442 202.595C77.4307 203.351 79.292 204.556 82.3382 206.577C82.4334 205.877 82.611 205.005 82.9613 204.042C83.0953 203.671 83.6441 202.222 84.6288 200.966C86.5999 198.447 88.6097 198.897 89.9124 197.069L89.9108 197.067Z" fill="url(#paint26_linear_19_1578)"/>
<path d="M78.2137 205.04C78.2137 205.04 81.8103 208.592 87.6524 207.672C92.8843 206.849 92.1062 197.363 88.4063 195.718C87.173 195.168 84.8742 195.127 83.1114 195.725C82.0702 196.078 81.7619 196.475 80.0459 197.026C78.4623 197.534 77.9764 197.438 77.5357 197.821C76.9852 198.299 76.6995 199.362 78.1862 202.003C77.0466 201.297 75.7858 201.112 74.9835 201.523C74.856 201.588 74.525 201.822 74.3701 202.14C73.8099 203.291 75.2692 204.534 78.2121 205.037L78.2137 205.04Z" fill="url(#paint27_linear_19_1578)"/>
<path d="M86.9196 210.325C86.9196 210.325 98.7151 217.003 97.0928 245.596C97.0928 245.596 110.315 217.156 86.9196 210.325Z" fill="url(#paint28_linear_19_1578)"/>
<path d="M70.6976 208.999H65.3995C69.4045 219.037 67.6546 225.207 65.2041 229.027C65.2041 229.027 63.5802 231.56 50.456 242.209C50.456 242.209 49.9556 245.305 49.0177 251.11C53.0357 250.012 57.0536 248.912 61.0716 247.814C63.4413 246.477 72.3005 241.145 75.3483 231.164C78.8642 219.649 71.9906 210.627 70.6992 208.999H70.6976Z" fill="url(#paint29_linear_19_1578)"/>
<path d="M126.219 262.773C126.683 261.704 128.014 261.04 129.427 261.159C132.002 261.378 135.887 261.857 137.358 262.814C139.639 264.298 136.736 270.868 133.417 270.549C131.758 270.39 129.634 269.198 127.922 268.045C126.05 266.783 125.373 264.722 126.173 262.879L126.218 262.773H126.219Z" fill="url(#paint30_linear_19_1578)"/>
<path d="M67.6401 215.49L62.6874 210.324C62.6874 210.324 46.1039 228.586 41.8631 239.542C37.6224 250.497 57.6347 269.387 57.6347 269.387L65.1153 265.449C65.1153 265.449 58.7357 253.225 59.6397 247.284C60.5437 241.343 69.5207 233.773 69.5207 233.773C69.5207 233.773 73.303 226.315 67.6401 215.492V215.49Z" fill="url(#paint31_linear_19_1578)"/>
<path d="M63.1055 266.507L59.814 268.24C59.814 268.24 61.8447 277.531 65.9337 277.56C70.0227 277.589 72.6879 274.987 71.6854 272.704C70.683 270.421 63.1055 266.506 63.1055 266.506V266.507Z" fill="url(#paint32_linear_19_1578)"/>
<path d="M76.6818 201.388C76.6818 201.388 86.5225 203.166 91.3798 200.809C92.5437 203.397 91.1199 208.483 86.7291 207.998C82.3382 207.513 79.8393 206.967 77.4405 204.882C77.9764 204.996 81.7571 206.957 81.728 205.062C81.699 203.166 77.9167 202.336 76.6818 201.388Z" fill="white"/>
<path d="M438.424 303.76C439.042 303.131 440.429 302.896 441.426 303.136C443.381 303.607 443.367 306.628 443.828 309.855C444.353 313.516 445.105 317.4 443.044 317.381C442.125 317.372 440.466 315.148 440.135 313.086C439.718 310.498 438.588 308.332 438.588 308.332C438.435 307.853 438.246 307.156 438.146 306.302C437.998 305.016 437.912 304.286 438.425 303.762L438.424 303.76Z" fill="url(#paint33_linear_19_1578)"/>
<path d="M440.94 306.384C440.94 307.966 437.588 308.605 435.56 308.605C433.532 308.605 433.597 307.966 433.597 306.384C433.597 304.802 433.671 303.649 435.699 303.649C437.726 303.649 440.94 304.803 440.94 306.384Z" fill="url(#paint34_linear_19_1578)"/>
<path d="M352.565 334.088C351.464 337.556 350.363 341.025 349.26 344.493C349.517 344.841 350.15 345.58 351.236 345.738C352.452 345.915 353.509 345.259 353.903 344.986C354.76 340.074 356.263 336.97 357.735 334.93C358.77 333.498 359.784 332.598 359.706 332.086C359.564 331.16 355.997 332.544 352.565 334.087V334.088Z" fill="url(#paint35_linear_19_1578)"/>
<path d="M344.663 271.16L342.645 271.398C342.645 271.398 339.056 271.278 336.964 271.576C334.871 271.874 333.676 272.705 333.676 274.429C333.676 276.152 336.322 276.364 338.609 276.568C340.002 276.692 341.899 275.758 343.346 274.896C344.363 274.29 346.96 273.746 346.96 273.746L344.664 271.16H344.663Z" fill="url(#paint36_linear_19_1578)"/>
<path d="M367.909 217.02C365.414 217.294 363.321 220.031 362.767 221.96C362.36 223.373 362.246 224.933 362.373 226.068C362.284 226.977 362.175 227.819 362.045 228.562C361.95 229.107 361.858 229.532 361.734 229.984C361.506 230.822 361.198 231.651 360.82 232.446C360.794 232.499 360.825 232.558 360.888 232.581C360.891 232.582 360.896 232.584 360.899 232.585C360.969 232.605 361.048 232.577 361.074 232.522C361.456 231.716 361.766 230.878 361.999 230.03C362.123 229.572 362.218 229.142 362.313 228.592C362.381 228.2 362.444 227.779 362.501 227.338C362.591 228.508 362.552 229.795 361.941 231.496C360.081 236.655 364.988 240.258 368.993 240.533C372.538 240.776 376.143 239.249 377.925 237.118C383.504 230.451 373.394 216.418 367.909 217.021V217.02Z" fill="url(#paint37_linear_19_1578)"/>
<path d="M374.752 268.667C368.804 276.891 364.958 289.121 359.976 302.969C355.501 315.407 351.609 326.543 349.645 335.26C350.608 335.891 351.75 336.529 353.086 337.105C358.2 339.305 363.269 339.332 366.099 339.149C366.273 336.871 366.649 333.493 367.565 329.456C368.859 323.748 371.163 313.153 376.658 303.552C380.471 296.892 382.377 293.562 385.598 291.286C387.579 289.887 392.166 286.926 392.956 282.415C392.991 282.211 393.001 282.026 392.999 281.847C392.975 275.536 378.245 269.922 374.752 268.668V268.667Z" fill="#FF0004"/>
<path style="mix-blend-mode:multiply" opacity="0.22" d="M374.751 268.667C371.502 273.161 368.88 278.857 366.357 285.354C372.303 287.888 377.38 292.128 375.057 297.298C372.84 302.584 364.527 304.788 362.864 310.955C361.201 317.563 365.08 323.29 363.418 329.898C362.598 332.995 362.309 336.091 362.158 339.164C363.703 339.253 365.055 339.214 366.099 339.146C366.273 336.869 366.649 333.49 367.565 329.453C368.859 323.745 371.163 313.15 376.658 303.549C380.471 296.89 382.377 293.56 385.598 291.283C387.579 289.885 392.166 286.923 392.956 282.413C392.991 282.209 393.001 282.024 392.999 281.844C392.975 275.533 378.245 269.919 374.751 268.666V268.667Z" fill="url(#paint38_linear_19_1578)"/>
<path d="M380.306 280.289C380.264 280.388 380.125 280.63 380.109 280.974C379.995 283.313 385.433 286.378 397.255 301.368C399.342 304.015 402.903 308.649 408.671 310.024C409.328 310.181 409.949 310.28 410.524 310.339C412.253 310.516 413.567 310.344 413.832 310.313C415.262 310.153 420.807 310.318 436.596 311.436C436.722 311.212 439.417 306.234 435.967 302.79C435.008 301.834 433.833 301.25 432.822 300.892C429.117 300.449 426.01 300.221 423.661 300.096C420.815 299.943 419.007 299.938 417.023 300.08C415.648 300.177 414.51 300.322 413.709 300.439C408.064 287.498 410.831 276.26 404.044 276.02C402.688 275.972 381.693 277.028 380.305 280.289H380.306Z" fill="url(#paint39_linear_19_1578)"/>
<path d="M362.033 245.534C358.586 246.483 363.771 256.276 356.704 263.784C353.135 267.578 347.759 269.382 343.066 270.308C344.019 272.74 343.859 272.749 344.811 275.18C347.272 275.261 356.457 275.329 364.225 270.026C366.205 268.673 372.337 264.488 372.735 257.977C373.242 249.686 365.282 244.638 362.034 245.534H362.033Z" fill="url(#paint40_linear_19_1578)"/>
<path d="M366.275 235.942C364.544 237.582 363.823 239.092 362.909 241.06C361.46 244.181 360.633 245.962 360.74 248.172C360.946 252.42 364.473 255.508 366.162 256.792C369.851 266.206 370.705 268.409 370.706 268.439L370.711 268.498C370.593 269.575 370.325 271.283 369.625 273.304C367.794 278.58 365.24 279.566 365.892 281.468C367.035 284.802 376.395 286.166 383.516 285.563C387.29 285.243 387.635 284.608 390.836 284.162C404.277 282.285 410.468 291.768 419.259 289.334C425.508 287.604 425.597 281.849 433.718 280.714C436.554 280.317 439.688 280.565 439.954 279.708C440.212 278.871 437.573 277.534 435.345 276.834C430.54 275.325 426.102 276.301 424.139 276.547C415.346 277.651 406.395 270.383 401.022 266.021C385.837 253.691 386.261 236.532 386.442 232.96C385.236 232.446 380.837 230.724 371.161 232.795C370.361 233.13 368.235 234.088 366.278 235.942H366.275Z" fill="url(#paint41_linear_19_1578)"/>
<path style="mix-blend-mode:multiply" opacity="0.24" d="M439.951 279.709C440.209 278.872 437.57 277.535 435.342 276.836C430.536 275.327 426.099 276.302 424.136 276.548C415.343 277.652 406.392 270.384 401.019 266.022C393.393 259.83 389.705 252.42 387.945 246.125C386.749 253.143 383.575 260.254 387.249 266.46C390.021 272.187 400.551 271.747 404.43 278.355C406.093 280.998 410.527 280.558 414.407 280.998C417.178 280.998 418.286 284.523 422.166 284.082C423.829 283.642 424.938 281.439 426.045 281.439C427.455 281.439 428.974 281.454 430.54 281.517C431.449 281.164 432.49 280.887 433.717 280.715C436.553 280.318 439.686 280.566 439.953 279.709H439.951Z" fill="url(#paint42_linear_19_1578)"/>
<path d="M426.084 267.326L380.359 285.12C379.045 285.541 372.755 283.411 372.225 282.366L360.794 259.549C360.265 258.504 360.901 257.316 362.215 256.896L412.736 240.727C414.05 240.306 415.544 240.811 416.072 241.856L427.503 264.674C428.033 265.718 427.397 266.906 426.083 267.326H426.084Z" fill="#EA645E"/>
<path d="M427.03 267.563L379.901 284.881C378.587 285.302 373.959 283.286 373.171 282.604L361.74 259.786C361.211 258.741 361.847 257.553 363.161 257.134L413.682 240.964C414.996 240.543 416.491 241.049 417.018 242.093L428.449 264.911C428.979 265.956 428.343 267.144 427.029 267.563H427.03Z" fill="url(#paint43_linear_19_1578)"/>
<path d="M427.632 264.848L416.662 242.948C416.153 241.946 414.72 241.461 413.459 241.864L364.97 257.383C363.71 257.787 363.098 258.926 363.606 259.928L374.577 281.829C375.086 282.831 381.123 284.875 382.384 284.471L426.27 267.393C427.531 266.989 428.142 265.849 427.634 264.847L427.632 264.848Z" fill="#BFC8D6"/>
<path d="M427.177 267.622L381.945 284.245C380.684 284.649 376.241 282.714 375.486 282.058L364.515 260.158C364.007 259.156 364.619 258.015 365.879 257.612L414.369 242.092C415.63 241.688 417.065 242.174 417.572 243.176L428.543 265.077C429.051 266.079 428.439 267.22 427.179 267.622H427.177Z" fill="#F4F7FA"/>
<path d="M431.81 268.564L381.289 284.734C379.975 285.155 378.481 284.649 377.953 283.605L366.522 260.787C365.992 259.742 366.628 258.554 367.942 258.135L418.463 241.965C419.777 241.544 421.272 242.05 421.8 243.094L433.231 265.912C433.76 266.956 433.124 268.145 431.81 268.564Z" fill="#EA645E"/>
<path d="M432.758 268.802L382.237 284.971C380.923 285.392 379.428 284.886 378.9 283.842L367.47 261.024C366.94 259.98 367.576 258.791 368.89 258.372L419.411 242.202C420.725 241.781 422.22 242.287 422.748 243.332L434.178 266.149C434.708 267.194 434.072 268.382 432.758 268.802Z" fill="url(#paint44_linear_19_1578)"/>
<path d="M342.08 341.353C342.506 340.881 345.307 341.121 346.721 341.738C349.094 342.775 350.478 344.624 351.086 344.877C352.471 345.456 353.784 344.96 353.901 344.986C353.901 344.986 354.826 346.475 353.164 347.189C351.501 347.905 339.447 344.27 342.078 341.352L342.08 341.353Z" fill="#FF0004"/>
<path d="M395.096 281.321C394.079 281.966 391.782 283.245 388.996 283.279C388.544 283.284 387.722 283.288 386.709 283.013C385.227 282.611 384.229 281.859 383.709 281.401C387.64 279.851 390.262 279.198 390.262 279.198L392.386 278.749L395.096 281.319V281.321Z" fill="url(#paint45_linear_19_1578)"/>
<path d="M380.322 236.632C385.47 232.661 401.487 237.165 407.52 247.561C412.71 256.505 414.227 263.364 408.976 272.157C404.898 278.986 397.858 281.807 395.41 282.673C394.99 282.089 393.448 281.061 391.421 278.621C396.528 277.099 401.337 269.765 401.878 265.26C402.596 259.273 398.614 253.52 394.901 251.405C391.432 249.429 380.87 251.688 377.551 249.828C373.145 247.36 376.364 239.687 380.322 236.633V236.632Z" fill="url(#paint46_linear_19_1578)"/>
<path d="M371.618 220.402C370.724 223.768 370.361 227.826 373.207 229.921C375.714 231.766 379.307 231.057 379.56 232.022C380.063 233.93 366.435 238.194 365.411 236.837C364.906 236.169 369.182 234.632 369.097 232.183C369.061 231.166 368.48 230.457 365.176 226.839L364.071 227.147L371.618 220.404V220.402Z" fill="url(#paint47_linear_19_1578)"/>
<path d="M370.609 226.118C370.006 228.054 368.632 232.745 371.433 238.13C372.078 239.376 377.481 249.364 388.599 249.818C396.004 250.12 403.868 246.112 404.758 240.854C405.52 236.352 401.773 232.485 401.05 231.788C396.601 227.557 392.707 229.345 387.246 225.095C387.186 225.054 387.13 225.006 387.069 224.965C387.012 224.919 386.949 224.87 386.891 224.823C386.713 224.68 386.539 224.534 386.378 224.392C386.378 224.392 386.358 224.372 386.329 224.343C386.282 224.306 386.244 224.267 386.197 224.23C386.213 224.243 386.223 224.252 386.24 224.26C386.04 224.066 385.645 223.673 385.123 223.141C385.117 223.138 385.114 223.13 385.11 223.124C385.041 223.073 384.968 223.014 384.902 222.957C384.604 222.645 384.327 222.336 384.066 222.026C383.517 221.451 382.918 220.801 382.318 220.108C382.311 220.106 382.314 220.101 382.308 220.098C381.356 219.152 380.161 218.187 378.305 217.135C376.216 215.956 371.96 214.376 370.32 214.892C368.511 215.459 372.971 218.511 370.606 226.118H370.609Z" fill="url(#paint48_linear_19_1578)"/>
<g style="mix-blend-mode:multiply" opacity="0.2">
<path d="M404.759 240.856C405.52 236.352 401.776 232.483 401.047 231.788C400.559 231.323 400.078 230.936 399.602 230.6C400.009 231.225 400.317 231.909 400.475 232.655C400.624 233.359 400.984 235.065 399.807 236.468C398.712 237.773 397.247 237.673 395.124 238.736C391.563 240.52 392.066 242.613 389.884 243.548C386.032 245.2 378.702 241.148 374.756 237.47C372.209 235.096 370.692 232.519 369.784 230.143C369.612 232.355 369.876 235.133 371.434 238.13C372.081 239.374 377.478 249.363 388.602 249.816C396.004 250.117 403.873 246.111 404.761 240.854L404.759 240.856Z" fill="url(#paint49_linear_19_1578)"/>
</g>
<path d="M386.893 224.823C386.715 224.68 386.541 224.534 386.379 224.392C386.573 224.583 386.867 224.825 387.246 225.095C387.127 225.012 387.012 224.919 386.893 224.823Z" fill="url(#paint50_linear_19_1578)"/>
<path d="M371.299 227.996C371.299 227.996 369.688 231 365.818 230.053C361.051 228.887 364.462 218.771 365.844 218.489C367.447 218.162 367.983 220.075 371.329 220.289C372.739 220.379 374.406 219.318 374.501 220.934C374.609 222.771 372.818 225.531 372.818 225.531C372.818 225.531 374.241 225.072 374.062 226.007C373.828 227.231 372.44 227.686 371.3 227.997L371.299 227.996Z" fill="url(#paint51_linear_19_1578)"/>
<path d="M368.049 215.271C366.055 216.119 364.284 218.286 364.861 219.741C365.687 221.832 370.843 221.15 371.834 223.703C372.269 224.822 371.718 226.087 372.141 226.169C372.49 226.237 373.042 225.403 373.526 224.724C376.198 220.982 377.633 220.845 377.704 219.6C377.846 217.07 372.143 213.53 368.049 215.271Z" fill="url(#paint52_linear_19_1578)"/>
<path d="M363.366 225.747C363.366 225.747 368.646 226.725 373.042 225.4C371.738 226.433 368.112 227.242 368.937 228.074C369.762 228.906 371.42 227.963 371.42 227.963C371.42 227.963 370.104 229.903 368.115 230.167C366.126 230.432 362.175 231.109 363.366 225.747Z" fill="white"/>
</g>
<defs>
<linearGradient id="paint0_linear_19_1578" x1="326.626" y1="-110.754" x2="229.909" y2="831.232" gradientUnits="userSpaceOnUse">
<stop stop-color="#FF9085"/>
<stop offset="1" stop-color="#FB6FBB"/>
</linearGradient>
<linearGradient id="paint1_linear_19_1578" x1="368.591" y1="-38.3854" x2="296.649" y2="662.3" gradientUnits="userSpaceOnUse">
<stop stop-color="#FFC444"/>
<stop offset="1" stop-color="#F36F56"/>
</linearGradient>
<linearGradient id="paint2_linear_19_1578" x1="192.14" y1="182.592" x2="195.019" y2="145.657" gradientUnits="userSpaceOnUse">
<stop stop-color="#AA80F9"/>
<stop offset="1" stop-color="#6165D7"/>
</linearGradient>
<linearGradient id="paint3_linear_19_1578" x1="18.1332" y1="97.9486" x2="65.5786" y2="97.9486" gradientUnits="userSpaceOnUse">
<stop stop-color="#AA80F9"/>
<stop offset="1" stop-color="#6165D7"/>
</linearGradient>
<linearGradient id="paint4_linear_19_1578" x1="61.8352" y1="97.9486" x2="425.069" y2="97.9486" gradientUnits="userSpaceOnUse">
<stop stop-color="#AA80F9"/>
<stop offset="1" stop-color="#6165D7"/>
</linearGradient>
<linearGradient id="paint5_linear_19_1578" x1="232.037" y1="207.12" x2="235.01" y2="168.982" gradientUnits="userSpaceOnUse">
<stop stop-color="#AA80F9"/>
<stop offset="1" stop-color="#6165D7"/>
</linearGradient>
<linearGradient id="paint6_linear_19_1578" x1="70.1294" y1="140.095" x2="12.3166" y2="83.8673" gradientUnits="userSpaceOnUse">
<stop stop-color="#AA80F9"/>
<stop offset="1" stop-color="#6165D7"/>
</linearGradient>
<linearGradient id="paint7_linear_19_1578" x1="38.817" y1="106.659" x2="20.0339" y2="151.089" gradientUnits="userSpaceOnUse">
<stop stop-color="#AA80F9"/>
<stop offset="1" stop-color="#6165D7"/>
</linearGradient>
<linearGradient id="paint8_linear_19_1578" x1="4.17402" y1="60.4279" x2="135.322" y2="60.4279" gradientUnits="userSpaceOnUse">
<stop stop-color="#444B8C"/>
<stop offset="1" stop-color="#26264F"/>
</linearGradient>
<linearGradient id="paint9_linear_19_1578" x1="84.5192" y1="29.7315" x2="66.9898" y2="105.295" gradientUnits="userSpaceOnUse">
<stop stop-color="#AA80F9"/>
<stop offset="1" stop-color="#6165D7"/>
</linearGradient>
<linearGradient id="paint10_linear_19_1578" x1="19.8638" y1="47.4806" x2="129.522" y2="47.4806" gradientUnits="userSpaceOnUse">
<stop stop-color="#AA80F9"/>
<stop offset="1" stop-color="#6165D7"/>
</linearGradient>
<linearGradient id="paint11_linear_19_1578" x1="40.1844" y1="68.7662" x2="106.659" y2="68.7662" gradientUnits="userSpaceOnUse">
<stop stop-color="#AA80F9"/>
<stop offset="1" stop-color="#6165D7"/>
</linearGradient>
<linearGradient id="paint12_linear_19_1578" x1="23.8284" y1="63.3922" x2="33.6223" y2="63.3922" gradientUnits="userSpaceOnUse">
<stop stop-color="#AA80F9"/>
<stop offset="1" stop-color="#6165D7"/>
</linearGradient>
<linearGradient id="paint13_linear_19_1578" x1="28.0337" y1="50.7002" x2="74.693" y2="50.7002" gradientUnits="userSpaceOnUse">
<stop stop-color="#AA80F9"/>
<stop offset="1" stop-color="#6165D7"/>
</linearGradient>
<linearGradient id="paint14_linear_19_1578" x1="121.309" y1="204.894" x2="108.506" y2="262.02" gradientUnits="userSpaceOnUse">
<stop stop-color="#265204"/>
<stop offset="1" stop-color="#2F9E41"/>
</linearGradient>
<linearGradient id="paint15_linear_19_1578" x1="13.6939" y1="326.286" x2="66.1327" y2="158.738" gradientUnits="userSpaceOnUse">
<stop stop-color="#AA80F9"/>
<stop offset="1" stop-color="#6165D7"/>
</linearGradient>
<linearGradient id="paint16_linear_19_1578" x1="131.001" y1="324.279" x2="82.6739" y2="411.017" gradientUnits="userSpaceOnUse">
<stop stop-color="#AB316D"/>
<stop offset="1" stop-color="#792D3D"/>
</linearGradient>
<linearGradient id="paint17_linear_19_1578" x1="64.7102" y1="218.774" x2="85.6103" y2="349.761" gradientUnits="userSpaceOnUse">
<stop stop-color="#AA80F9"/>
<stop offset="1" stop-color="#6165D7"/>
</linearGradient>
<linearGradient id="paint18_linear_19_1578" x1="21.0198" y1="329.453" x2="13.641" y2="330.667" gradientUnits="userSpaceOnUse">
<stop stop-color="#40447E"/>
<stop offset="1" stop-color="#3C3B6B"/>
</linearGradient>
<linearGradient id="paint19_linear_19_1578" x1="58.0014" y1="282.293" x2="9.67347" y2="369.033" gradientUnits="userSpaceOnUse">
<stop stop-color="#AB316D"/>
<stop offset="1" stop-color="#792D3D"/>
</linearGradient>
<linearGradient id="paint20_linear_19_1578" x1="111.806" y1="226.928" x2="51.5613" y2="344.789" gradientUnits="userSpaceOnUse">
<stop stop-color="#AA80F9"/>
<stop offset="1" stop-color="#6165D7"/>
</linearGradient>
<linearGradient id="paint21_linear_19_1578" x1="79.1241" y1="240.138" x2="99.9176" y2="370.459" gradientUnits="userSpaceOnUse">
<stop stop-color="#AA80F9"/>
<stop offset="1" stop-color="#6165D7"/>
</linearGradient>
<linearGradient id="paint22_linear_19_1578" x1="83.6394" y1="198.308" x2="63.4749" y2="288.282" gradientUnits="userSpaceOnUse">
<stop stop-color="#265204"/>
<stop offset="1" stop-color="#2F9E41"/>
</linearGradient>
<linearGradient id="paint23_linear_19_1578" x1="101.489" y1="190.205" x2="81.3241" y2="280.181" gradientUnits="userSpaceOnUse">
<stop stop-color="#265204"/>
<stop offset="1" stop-color="#2F9E41"/>
</linearGradient>
<linearGradient id="paint24_linear_19_1578" x1="85.6377" y1="242.639" x2="76.7691" y2="282.21" gradientUnits="userSpaceOnUse">
<stop stop-color="#FF9085"/>
<stop offset="1" stop-color="#FB6FBB"/>
</linearGradient>
<linearGradient id="paint25_linear_19_1578" x1="78.8115" y1="217.688" x2="81.9269" y2="196.101" gradientUnits="userSpaceOnUse">
<stop stop-color="#AB316D"/>
<stop offset="1" stop-color="#792D3D"/>
</linearGradient>
<linearGradient id="paint26_linear_19_1578" x1="73.5121" y1="218.65" x2="79.1671" y2="189.709" gradientUnits="userSpaceOnUse">
<stop stop-color="#265204"/>
<stop offset="1" stop-color="#2F9E41"/>
</linearGradient>
<linearGradient id="paint27_linear_19_1578" x1="81.9116" y1="197.979" x2="87.7081" y2="237.405" gradientUnits="userSpaceOnUse">
<stop stop-color="#AB316D"/>
<stop offset="1" stop-color="#792D3D"/>
</linearGradient>
<linearGradient id="paint28_linear_19_1578" x1="67.8936" y1="276.641" x2="95.937" y2="187.036" gradientUnits="userSpaceOnUse">
<stop stop-color="#E38DDD"/>
<stop offset="1" stop-color="#9571F6"/>
</linearGradient>
<linearGradient id="paint29_linear_19_1578" x1="28.0982" y1="305.79" x2="70.827" y2="169.263" gradientUnits="userSpaceOnUse">
<stop stop-color="#E38DDD"/>
<stop offset="1" stop-color="#9571F6"/>
</linearGradient>
<linearGradient id="paint30_linear_19_1578" x1="134.011" y1="259.023" x2="131.651" y2="269.554" gradientUnits="userSpaceOnUse">
<stop stop-color="#AB316D"/>
<stop offset="1" stop-color="#792D3D"/>
</linearGradient>
<linearGradient id="paint31_linear_19_1578" x1="52.7682" y1="193.066" x2="56.2731" y2="265.282" gradientUnits="userSpaceOnUse">
<stop stop-color="#265204"/>
<stop offset="1" stop-color="#2F9E41"/>
</linearGradient>
<linearGradient id="paint32_linear_19_1578" x1="66.4795" y1="279.563" x2="67.1471" y2="293.32" gradientUnits="userSpaceOnUse">
<stop stop-color="#AB316D"/>
<stop offset="1" stop-color="#792D3D"/>
</linearGradient>
<linearGradient id="paint33_linear_19_1578" x1="438.03" y1="310.212" x2="444.405" y2="310.212" gradientUnits="userSpaceOnUse">
<stop stop-color="#40447E"/>
<stop offset="1" stop-color="#3C3B6B"/>
</linearGradient>
<linearGradient id="paint34_linear_19_1578" x1="433.597" y1="306.127" x2="440.94" y2="306.127" gradientUnits="userSpaceOnUse">
<stop stop-color="#FFC444"/>
<stop offset="1" stop-color="#F36F56"/>
</linearGradient>
<linearGradient id="paint35_linear_19_1578" x1="350.571" y1="346.878" x2="355.196" y2="328.849" gradientUnits="userSpaceOnUse">
<stop stop-color="#FFC444"/>
<stop offset="1" stop-color="#F36F56"/>
</linearGradient>
<linearGradient id="paint36_linear_19_1578" x1="333.674" y1="273.869" x2="355.829" y2="273.869" gradientUnits="userSpaceOnUse">
<stop stop-color="#FFC444"/>
<stop offset="1" stop-color="#F36F56"/>
</linearGradient>
<linearGradient id="paint37_linear_19_1578" x1="360.275" y1="225.601" x2="378.319" y2="236.579" gradientUnits="userSpaceOnUse">
<stop stop-color="#6E1F3F"/>
<stop offset="1" stop-color="#792D3D"/>
</linearGradient>
<linearGradient id="paint38_linear_19_1578" x1="362.158" y1="303.942" x2="392.999" y2="303.942" gradientUnits="userSpaceOnUse">
<stop stop-color="#40447E"/>
<stop offset="1" stop-color="#3C3B6B"/>
</linearGradient>
<linearGradient id="paint39_linear_19_1578" x1="382.309" y1="296.979" x2="435.339" y2="289.59" gradientUnits="userSpaceOnUse">
<stop stop-color="#2F9E41"/>
<stop offset="1" stop-color="#265204"/>
</linearGradient>
<linearGradient id="paint40_linear_19_1578" x1="343.35" y1="256.528" x2="361.949" y2="266.687" gradientUnits="userSpaceOnUse">
<stop stop-color="#AA80F9"/>
<stop offset="1" stop-color="#6165D7"/>
</linearGradient>
<linearGradient id="paint41_linear_19_1578" x1="374.968" y1="257.114" x2="447.206" y2="314.7" gradientUnits="userSpaceOnUse">
<stop stop-color="#AA80F9"/>
<stop offset="1" stop-color="#6165D7"/>
</linearGradient>
<linearGradient id="paint42_linear_19_1578" x1="394.273" y1="261.577" x2="446.62" y2="303.305" gradientUnits="userSpaceOnUse">
<stop stop-color="#AA80F9"/>
<stop offset="1" stop-color="#6165D7"/>
</linearGradient>
<linearGradient id="paint43_linear_19_1578" x1="361.555" y1="262.877" x2="428.638" y2="262.877" gradientUnits="userSpaceOnUse">
<stop stop-color="#FF9085"/>
<stop offset="1" stop-color="#FB6FBB"/>
</linearGradient>
<linearGradient id="paint44_linear_19_1578" x1="367.282" y1="263.585" x2="434.366" y2="263.585" gradientUnits="userSpaceOnUse">
<stop stop-color="#FF9085"/>
<stop offset="1" stop-color="#FB6FBB"/>
</linearGradient>
<linearGradient id="paint45_linear_19_1578" x1="388.189" y1="280.205" x2="392.872" y2="286.943" gradientUnits="userSpaceOnUse">
<stop stop-color="#FFC444"/>
<stop offset="1" stop-color="#F36F56"/>
</linearGradient>
<linearGradient id="paint46_linear_19_1578" x1="383.762" y1="248.376" x2="405.842" y2="280.144" gradientUnits="userSpaceOnUse">
<stop stop-color="#AA80F9"/>
<stop offset="1" stop-color="#6165D7"/>
</linearGradient>
<linearGradient id="paint47_linear_19_1578" x1="374.983" y1="241.641" x2="368.987" y2="214.475" gradientUnits="userSpaceOnUse">
<stop stop-color="#FFC444"/>
<stop offset="1" stop-color="#F36F56"/>
</linearGradient>
<linearGradient id="paint48_linear_19_1578" x1="353.252" y1="261.429" x2="371.547" y2="233.849" gradientUnits="userSpaceOnUse">
<stop stop-color="#6E1F3F"/>
<stop offset="1" stop-color="#792D3D"/>
</linearGradient>
<linearGradient id="paint49_linear_19_1578" x1="357.851" y1="264.48" x2="376.146" y2="236.9" gradientUnits="userSpaceOnUse">
<stop stop-color="#6E1F3F"/>
<stop offset="1" stop-color="#792D3D"/>
</linearGradient>
<linearGradient id="paint50_linear_19_1578" x1="350.325" y1="259.481" x2="368.619" y2="231.904" gradientUnits="userSpaceOnUse">
<stop stop-color="#6E1F3F"/>
<stop offset="1" stop-color="#792D3D"/>
</linearGradient>
<linearGradient id="paint51_linear_19_1578" x1="370.232" y1="220.825" x2="361.629" y2="256.422" gradientUnits="userSpaceOnUse">
<stop stop-color="#FFC444"/>
<stop offset="1" stop-color="#F36F56"/>
</linearGradient>
<linearGradient id="paint52_linear_19_1578" x1="337.87" y1="251.226" x2="356.165" y2="223.646" gradientUnits="userSpaceOnUse">
<stop stop-color="#6E1F3F"/>
<stop offset="1" stop-color="#792D3D"/>
</linearGradient>
<clipPath id="clip0_19_1578">
<rect width="452" height="362" fill="white"/>
</clipPath>
</defs>
</svg>
