<svg width="133" height="66" viewBox="0 0 133 66" fill="none" xmlns="http://www.w3.org/2000/svg">
<g clip-path="url(#clip0_253_2601)">
<path d="M8.51627 65.2224C8.51627 65.2224 -6.92501 49.759 5.90506 33.0181C17.2885 18.164 30.5607 19.1795 40.2983 25.2074C44.4458 27.7746 56.4032 25.524 66.5799 10.4092C80.4586 -10.2029 128.568 2.29848 119.796 34.0105C115.551 49.3569 132.715 49.9148 123.97 65.2547L8.51627 65.2224Z" fill="#FCECDB"/>
<path d="M120.129 65.0495H115.237C114.975 64.842 115.418 64.3709 115.882 64.3395C116.083 64.3252 116.338 64.3645 116.628 64.4218C116.696 63.5879 117.08 59.8383 118.529 59.989C120.158 60.1577 118.529 61.6401 118.069 62.5179C117.727 63.1678 117.367 64.1001 117.203 64.5401C117.335 64.5669 117.472 64.5928 117.612 64.6169C117.828 63.9984 118.631 61.9184 119.653 62.0395C120.853 62.1814 120.371 63.0152 119.52 63.5103C118.896 63.8745 118.13 64.3917 117.766 64.6418C118.075 64.689 118.397 64.7204 118.723 64.7135C119.561 64.695 119.97 64.9252 120.129 65.049L120.129 65.0495Z" fill="#82B378"/>
<path d="M13.4834 64.8872C13.2891 64.6025 12.7043 63.8638 11.9253 63.9614C11.0769 64.0677 12.8624 64.5895 13.4091 64.8895C13.2876 64.8909 13.1831 64.8821 13.1068 64.8567C12.741 64.7351 12.1151 64.9681 11.9149 65.0499H15.3948C15.3706 64.9723 15.3081 64.8456 15.1461 64.7532C15.0891 64.7208 14.9741 64.7162 14.8259 64.7264C15.0331 64.4989 15.1768 63.7723 14.6004 63.9591C14.1797 64.0959 14.1807 64.5396 14.2223 64.8026C14.1326 64.8156 14.0419 64.829 13.9522 64.841C13.7788 64.0173 13.1662 61.604 11.9243 61.5393C10.665 61.4741 12.9923 64.0423 13.7669 64.8636C13.6678 64.8747 13.5721 64.8831 13.4834 64.8872Z" fill="#82B378"/>
<path d="M102.067 59.4321L101.688 60.9168L101.186 62.8854H99.6173L99.5241 60.9995L99.4518 59.5449L102.067 59.4321Z" fill="#FFB27D"/>
<path d="M107.039 27.1188C107.039 27.1188 108.28 25.8801 109.087 26.8512C109.895 27.8228 110.789 28.4787 112.028 29.2257C113.266 29.9726 110.933 35.8295 109.382 35.7088C107.83 35.5887 101.499 30.971 107.039 27.1184V27.1188Z" fill="#BC3F3F"/>
<path d="M100.857 26.5299C101.167 26.314 104.02 25.4002 106.802 26.2988C109.584 27.1973 104.647 29.7003 104.647 29.7003L103.048 29.7646L100.857 26.5299Z" fill="#4A75CB"/>
<path d="M98.9968 65.0483C98.9968 65.0483 98.9968 64.3318 99.1063 64.0938C99.2159 63.8557 99.6173 62.8855 99.6173 62.8855H101.186C101.186 62.8855 101.478 63.7702 101.497 64.0596C101.515 64.3489 101.497 65.0483 101.497 65.0483H98.9973H98.9968Z" fill="#233862"/>
<path d="M108.959 65.0483C108.959 65.0483 108.959 64.3318 108.849 64.0938C108.74 63.8557 108.338 62.8855 108.338 62.8855H106.769C106.769 62.8855 106.478 63.7702 106.459 64.0596C106.441 64.3489 106.459 65.0483 106.459 65.0483H108.958H108.959Z" fill="#233862"/>
<path d="M102.673 24.8377C102.673 24.8377 102.617 26.4328 102.399 27.1474L100.666 30.6308L107.189 29.1849L105.633 27.1802C105.633 27.1802 105.163 25.0415 105.41 24.2502C105.656 23.4589 102.673 24.8372 102.673 24.8372V24.8377Z" fill="#FFB27D"/>
<path d="M102.664 25.0579C102.664 25.0579 103.179 26.2157 104.151 26.1903C105.122 26.1649 105.343 25.1401 105.343 25.1401L102.664 25.0579Z" fill="#ED985F"/>
<path d="M102.084 24.1204C102.084 24.1204 101.77 22.6597 101.551 22.2174C101.332 21.775 101.15 19.8013 103.576 19.6992C103.576 19.6992 104.506 19.8013 105.017 19.512C105.017 19.512 105.017 19.8013 104.889 19.9035C104.889 19.9035 105.728 19.7163 106.385 20.3971C107.042 21.078 105.948 23.4603 106.002 24.0214L102.083 24.1208L102.084 24.1204Z" fill="#2C3A64"/>
<path d="M104.039 25.7428C103.336 25.7312 102.04 24.8567 102.04 23.7742V22.0847C102.04 21.6895 102.335 21.366 102.696 21.366H105.382C105.743 21.366 106.039 21.6895 106.039 22.0847V23.6785C106.039 24.8137 104.846 25.7557 104.039 25.7428H104.039Z" fill="#FFB27D"/>
<path d="M102.04 22.9869C102.04 22.9869 102.044 21.9719 102.906 21.8157C103.768 21.6594 105.697 22.3102 105.971 21.5702C106.245 20.8302 102.242 20.8427 102.041 21.3151C101.839 21.7875 102.041 22.9869 102.041 22.9869H102.04Z" fill="#2C3A64"/>
<path d="M105.046 40.5789C105.478 39.3254 105.469 45.7679 103.736 53.0142C103.471 54.1203 102.879 56.7869 102.453 59.368H98.9022C98.8531 57.2838 98.6137 54.3741 98.4626 52.1951C97.9898 45.3644 99.1936 40.2378 99.1936 40.2378L105.045 40.5785L105.046 40.5789Z" fill="#2B478B"/>
<path d="M109.603 52.1951C109.564 54.2839 109.109 57.0582 109.067 59.092H105.465C105.223 57.6157 104.838 56.0954 104.562 54.8691C104.365 53.9983 104.224 53.2758 104.226 52.8219C104.23 51.9349 103.628 49.3769 103.27 47.1213C103.269 47.118 103.269 47.1148 103.268 47.112C103.254 47.0256 103.241 46.9387 103.228 46.8532C102.748 43.6823 102.917 40.5789 102.917 40.5789L108.997 40.2244C108.997 40.2244 109.707 46.6244 109.603 52.1947L109.603 52.1951Z" fill="#2B478B"/>
<path d="M98.7123 42.865C98.7123 42.865 100.08 44.4107 103.796 44.1874C107.512 43.9641 109.284 43.3609 109.284 43.3609L98.7123 42.8645V42.865Z" fill="#233862"/>
<path d="M109.284 43.3615C108.071 43.5155 99.813 43.9158 98.7123 42.8651C97.6116 41.8145 100.509 27.4831 100.509 27.4831C100.509 27.4831 100.837 27.3944 101.391 27.2973C101.674 27.2479 102.014 27.1961 102.4 27.1531C102.404 27.265 102.5 28.9544 104.004 29.6524C104.004 29.6524 105.81 28.9775 105.634 27.1804C105.632 27.1591 105.629 27.1388 105.626 27.1189C105.866 27.1429 106.111 27.1744 106.356 27.2137C106.852 27.2932 107.353 27.4055 107.851 27.5589C107.851 27.5589 110.499 43.2081 109.285 43.3615H109.284Z" fill="#739AF0"/>
<path d="M98.7817 35.9626C98.7327 36.0223 99.0622 36.4632 99.5266 37.0304C100.482 38.1952 102.01 39.8902 102.01 39.8902C101.99 40.4647 101.904 40.8354 101.904 40.8354C99.8046 39.9101 98.3852 39.0448 97.4441 38.3496C96.1214 37.372 95.7418 36.7309 95.7418 36.7309C97.8629 28.3618 100.584 27.4905 100.584 27.4905L101.472 32.5334C101.472 32.5334 98.9304 35.781 98.7817 35.9622V35.9626Z" fill="#739AF0"/>
<path d="M106.356 27.2137L105.809 28.7658L105.08 29.7647L104.033 30.294L103.048 29.7647L101.391 27.2978C101.674 27.2483 102.014 27.1966 102.4 27.1536C102.404 27.2655 102.5 28.9549 104.004 29.6529C104.004 29.6529 105.811 28.978 105.634 27.1809C105.632 27.1596 105.629 27.1393 105.626 27.1194C105.867 27.1434 106.111 27.1749 106.356 27.2141L106.356 27.2137Z" fill="#EE9849"/>
<path d="M102.01 39.8905C102.01 39.9067 102.009 39.9229 102.008 39.9386C102.004 40.0445 101.997 40.1438 101.989 40.2335C101.936 40.3015 101.878 40.3652 101.814 40.4253C101.717 40.5164 101.613 40.5927 101.507 40.6574C101.454 40.6338 101.4 40.6093 101.348 40.5853C99.5503 39.7551 98.299 38.9823 97.4436 38.3504C97.9868 38.1946 98.7475 37.8382 99.526 37.0303C100.482 38.1951 102.01 39.8905 102.01 39.8905H102.01Z" fill="#FFB27D"/>
<path d="M112.436 36.4236C112.436 36.4236 112.07 37.0716 110.768 38.0723C109.841 38.7842 108.44 39.6744 106.36 40.6372C106.36 40.6372 106.266 40.2679 106.234 39.6938C106.234 39.6938 107.727 37.9716 108.659 36.7901C109.111 36.2146 109.431 35.7681 109.381 35.7094C109.263 35.5708 107.669 33.616 106.958 32.7442C106.752 32.4909 106.62 32.3292 106.62 32.3292L107.52 27.3708C107.52 27.3708 110.143 28.0938 112.436 36.4231L112.436 36.4236Z" fill="#739AF0"/>
<path d="M110.768 38.0723C109.922 38.7212 108.682 39.519 106.891 40.3857C106.847 40.407 106.802 40.4287 106.757 40.4504C106.528 40.193 106.389 39.886 106.305 39.6129C106.334 39.5782 106.373 39.5324 106.421 39.4779C106.85 38.9787 107.927 37.7177 108.659 36.79C109.453 37.5837 110.222 37.9262 110.768 38.0723Z" fill="#FFB27D"/>
<path d="M105.625 27.1189C104.42 26.9987 103.29 27.0533 102.399 27.1531C102.399 27.1494 102.399 27.1475 102.399 27.1475C102.399 27.1475 105.385 25.4253 105.625 27.1189Z" fill="#FFB27D"/>
<path d="M102.631 31.9898H102.569L102.524 29.3057H102.679L102.631 31.9898Z" fill="#BBD4FF"/>
<path d="M102.563 31.92C102.507 31.9986 102.382 32.2579 102.465 32.2857C102.549 32.3129 102.695 32.3148 102.734 32.2783C102.773 32.2417 102.669 31.7721 102.563 31.9205V31.92Z" fill="#EE9849"/>
<path d="M105.457 31.9898H105.396L105.351 29.3057H105.506L105.457 31.9898Z" fill="#BBD4FF"/>
<path d="M105.39 31.92C105.334 31.9986 105.208 32.2579 105.292 32.2857C105.375 32.3129 105.521 32.3148 105.56 32.2783C105.599 32.2417 105.495 31.7721 105.39 31.9205V31.92Z" fill="#EE9849"/>
<path d="M103.047 29.7647L100.509 27.4836C100.509 27.4836 99.9378 27.1055 100.841 26.5397C101.744 25.974 103.047 29.7647 103.047 29.7647Z" fill="#4A75CB"/>
<path d="M105.079 29.7647L107.617 27.4836C107.617 27.4836 108.188 27.1055 107.285 26.5397C106.382 25.974 105.079 29.7647 105.079 29.7647Z" fill="#4A75CB"/>
<path d="M108.265 40.8702C107.77 40.909 107.358 40.7934 107.039 40.5286C106.986 40.4837 106.937 40.4361 106.891 40.3862C106.641 40.1126 106.5 39.7687 106.421 39.4784C106.33 39.147 106.32 38.8858 106.32 38.8807L106.318 38.8137H102.218L102.221 38.8849C102.237 39.2958 102.166 39.649 102.008 39.9392C101.931 40.0844 101.831 40.2143 101.71 40.3275C101.599 40.4324 101.475 40.517 101.349 40.5854C100.8 40.8817 100.19 40.8702 100.182 40.8702L100.106 40.8679V42.4833H108.344V40.8642L108.265 40.8706V40.8702Z" fill="#678FE5"/>
<path d="M109.381 35.7093C109.381 35.7093 107.096 32.9128 108.905 32.0984C109.623 31.7753 110.634 35.6132 110.092 35.9737C109.55 36.3347 108.658 36.7895 108.658 36.7895L109.381 35.7088V35.7093Z" fill="#678FE5"/>
<path d="M99.0448 35.2485C99.0448 35.2485 99.8388 31.737 99.142 32.0989C98.4452 32.4604 97.4129 35.6137 97.9551 35.9742C98.4967 36.3352 99.3888 36.7901 99.3888 36.7901L99.0448 35.2485Z" fill="#678FE5"/>
<path d="M109.061 35.7014C108.017 34.4931 107.628 32.5314 107.681 30.5069C107.721 28.9866 107.945 27.6147 107.959 27.5667L108.815 28.1883C108.811 28.1999 108.324 29.0314 108.286 30.511C108.251 31.864 108.183 32.8938 109.003 35.2489L109.061 35.7018V35.7014Z" fill="#BC3F3F"/>
<path d="M101.138 60.1153L99.2991 60.1144C99.1366 60.1315 98.8819 59.9092 98.8819 59.5916C98.8819 59.5916 98.8779 58.8299 98.8239 58.6945C98.5875 58.101 98.9394 58.0686 99.2798 58.0686H102.634C102.975 58.0686 102.453 59.0504 102.453 59.3684L102.574 59.7849C102.574 60.1024 101.478 60.1153 101.138 60.1153Z" fill="#233862"/>
<path d="M101.688 60.9167L101.186 62.8854H99.6172L99.524 60.9995C99.758 61.0795 100.545 61.2842 101.689 60.9167H101.688Z" fill="#233862"/>
<path d="M105.892 59.4321L106.27 60.8942L106.772 62.8337H108.341L108.435 60.976L108.507 59.5431L105.892 59.4321Z" fill="#FFB27D"/>
<path d="M106.821 60.1153L108.66 60.1144C108.822 60.1315 109.077 59.9092 109.077 59.5916C109.077 59.5916 109.081 58.8299 109.135 58.6945C109.371 58.101 109.019 58.0686 108.679 58.0686H105.324C104.984 58.0686 105.506 59.0504 105.506 59.3684L105.385 59.7849C105.385 60.1024 106.48 60.1153 106.821 60.1153Z" fill="#233862"/>
<path d="M106.27 60.9167L106.772 62.8854H108.341L108.435 60.9995C108.201 61.0795 107.414 61.2842 106.27 60.9167Z" fill="#233862"/>
<path d="M28.2557 21.1121C28.1323 20.9869 27.8563 20.845 27.4925 20.7289C28.1308 20.4608 28.6745 20.1451 28.2988 19.9524C28.1363 19.8687 27.9425 19.8807 27.7378 19.9501C28.0525 19.6533 28.2037 19.3982 27.8969 19.3312C27.4311 19.2295 26.9459 19.7892 26.6074 20.3055C26.827 19.8627 26.94 19.4241 26.5306 19.4176C26.0588 19.4102 25.9666 19.994 25.9746 20.4992C25.9354 20.4992 25.8963 20.5001 25.8571 20.5015C25.7243 19.9431 25.4661 19.2484 25.0265 19.4338C24.805 19.5271 24.8129 19.7278 24.9289 19.9593C24.7207 19.8105 24.5151 19.7592 24.352 19.9168C24.1033 20.1572 24.409 20.4419 24.8139 20.6804C24.5275 20.7775 24.2564 20.918 24.017 21.113C22.6433 22.2321 24.1409 24.766 24.1409 24.766L28.0634 24.6722C29.2925 22.8473 28.6998 21.5642 28.2547 21.113L28.2557 21.1121Z" fill="#2C3A64"/>
<path d="M24.2549 38.5547L21.9123 38.8302C20.372 39.0114 18.9794 38.183 18.8184 36.9896L17.9273 30.3954C17.7658 29.202 18.4402 28.2613 19.9889 28.2022C20.9067 28.167 22.4381 27.9785 24.0859 27.4672C25.5469 27.0138 25.7104 28.2683 25.8715 29.4617L26.7625 36.0559C26.9236 37.2493 25.7956 38.3739 24.2549 38.5547Z" fill="#2B478B"/>
<path d="M21.157 65.2483C21.157 65.2483 21.157 64.5457 21.2645 64.3119C21.3721 64.078 21.7656 63.1267 21.7656 63.1267H23.3043C23.3043 63.1267 23.5908 63.9948 23.6086 64.2786C23.6265 64.5624 23.6086 65.2483 23.6086 65.2483H21.157Z" fill="#233862"/>
<path d="M30.9283 65.2483C30.9283 65.2483 30.9283 64.5457 30.8208 64.3119C30.7132 64.078 30.3197 63.1267 30.3197 63.1267H28.781C28.781 63.1267 28.4945 63.9948 28.4767 64.2786C28.4588 64.5624 28.4767 65.2483 28.4767 65.2483H30.9283Z" fill="#233862"/>
<path d="M24.7629 25.8079C24.7629 25.8079 24.7089 27.3726 24.4938 28.0738L22.7944 29.1794L29.1914 30.0724L27.666 28.1061C27.666 28.1061 27.2056 26.0081 27.4469 25.232C27.6883 24.4559 24.7629 25.8079 24.7629 25.8079Z" fill="#B56F40"/>
<path d="M24.7534 26.0242C24.7534 26.0242 25.2594 27.1599 26.2124 27.1349C27.1654 27.1099 27.382 26.1051 27.382 26.1051L24.7534 26.0242Z" fill="#99592E"/>
<path d="M26.1029 26.6958C25.4125 26.6842 24.1418 25.8268 24.1418 24.7651V23.108C24.1418 22.7202 24.4318 22.4031 24.7861 22.4031H27.4201C27.7744 22.4031 28.0644 22.7202 28.0644 23.108V24.6712C28.0644 25.7847 26.8948 26.7087 26.1029 26.6958Z" fill="#B56F40"/>
<path d="M21.3498 40.9131C21.3498 40.9131 21.6189 48.5814 21.2165 52.9573C20.8141 57.3328 21.2195 63.4221 21.2195 63.4221C21.2195 63.4221 22.507 64.0845 23.9031 63.4221C23.9031 63.4221 25.4339 54.9689 25.424 52.9573C25.4136 50.8149 27.0901 41.2477 27.0901 41.2477L21.3498 40.9135V40.9131Z" fill="#EE9849"/>
<path d="M30.8723 63.4217C30.8723 63.4217 29.5848 64.084 28.1893 63.4217C28.1893 63.4217 26.6589 54.9689 26.6683 52.9568C26.6728 52.0523 26.3764 49.8225 26.032 47.5493C25.5612 44.4394 25.0017 41.2473 25.0017 41.2473L30.9645 40.8997C30.9645 40.8997 30.4729 48.5814 30.8753 52.9564C31.2777 57.3323 30.8723 63.4212 30.8723 63.4212V63.4217Z" fill="#EE9849"/>
<path d="M29.8406 28.4773V28.4805C29.0665 28.2988 28.339 28.1791 27.666 28.1061C27.0723 28.8415 26.6461 29.0125 26.1034 29.2127C25.2302 29.0999 24.4942 28.0964 24.4942 28.0737C23.2261 28.1948 22.5085 28.444 22.5085 28.444C22.0258 28.6326 21.3924 32.1492 21.2938 34.1026C21.2814 34.348 21.2774 34.568 21.2829 34.7543C21.3344 36.4299 21.4068 38.0578 21.1753 39.8614C20.8711 42.2313 21.3865 42.1892 21.3865 42.1892C21.3865 42.1892 22.0803 42.3159 23.0476 42.4356C23.9228 42.5447 25.0215 42.6482 26.033 42.6482C28.3523 42.6482 30.8942 42.1892 30.8942 42.1892C31.6256 42.1975 30.689 37.9427 30.5522 35.3825C30.5205 34.788 30.4908 34.2449 30.4635 33.7494C31.3422 34.4557 33.9281 35.7425 33.9871 35.9066C33.9871 35.9066 33.4226 36.8671 33.2511 37.3793C32.593 39.3456 31.4606 40.6454 31.4606 40.6454C31.6147 41.1908 31.5716 41.4325 31.5716 41.4325C33.3626 40.1203 34.5173 39.0035 35.2543 38.1475C36.2905 36.9434 36.5031 36.2528 36.5031 36.2528C32.5157 28.682 29.8416 28.4773 29.8416 28.4773H29.8406Z" fill="#74ACBE"/>
<path d="M23.0472 42.4351C22.0798 42.3154 21.386 42.1887 21.386 42.1887C21.386 42.1887 20.8706 42.2308 21.1749 39.8609C21.4063 38.0573 21.3339 36.4289 21.2824 34.7538C21.2765 34.5675 21.2809 34.347 21.2933 34.1021C21.4415 34.3235 23.0928 36.8107 23.5373 38.6596C23.8609 40.0079 23.3728 41.5961 23.0472 42.4355V42.4351Z" fill="#578E9B"/>
<path d="M26.6688 52.9569C26.6733 52.0523 26.3769 49.8225 26.0325 47.5493C26.3893 46.1912 27.259 44.8845 27.259 44.8845C28.3597 47.7637 26.6683 52.9569 26.6683 52.9569H26.6688Z" fill="#E58638"/>
<path d="M31.4601 40.6454C31.4601 40.6454 30.4937 39.8111 30.1002 40.2784C29.7067 40.7457 29.6348 41.4802 29.9391 41.4298C30.2434 41.3799 30.8698 41.1127 30.959 41.2463C31.0487 41.3799 31.4492 41.635 31.5711 41.4321C31.693 41.2292 31.4601 40.6454 31.4601 40.6454Z" fill="#B56F40"/>
<path d="M31.4601 40.6452C31.6142 41.1907 31.5711 41.4324 31.5711 41.4324C33.3621 40.1202 34.5168 39.0034 35.2537 38.1474C34.6982 38.109 34.1843 37.993 33.2506 37.3792C32.48 39.572 31.4601 40.6452 31.4601 40.6452Z" fill="#B56F40"/>
<path d="M33.7631 35.7371C33.6199 35.6257 31.3229 34.4465 30.4531 33.7416C30.4531 33.7416 31.3214 33.1347 31.8581 34.0194C32.3948 34.9041 33.7631 35.7366 33.7631 35.7366V35.7371Z" fill="#578E9B"/>
<path d="M36.5022 36.2524C36.5022 36.2524 36.2896 36.943 35.2533 38.1471C34.054 38.1314 36.5022 36.2524 36.5022 36.2524Z" fill="#578E9B"/>
<path d="M24.1419 23.7802C24.1419 23.7802 24.6211 22.4157 26.1911 22.6288C27.7611 22.8414 27.8974 23.1543 28.0639 23.5176C28.2309 23.8805 28.5531 22.1906 28.5531 22.1906L26.7011 21.6775C26.7011 21.6775 24.4601 21.9155 24.299 22.2659L24.1379 22.6163L24.1419 23.7802Z" fill="#2C3A64"/>
<path d="M21.3086 38.3162L21.3354 37.1532C23.1125 35.8946 23.8351 34.4035 23.9035 31.8238C23.9555 29.8676 23.2508 28.2725 23.2458 28.2563C23.2458 28.2563 23.56 28.186 23.6671 28.1689C23.7825 28.1505 24.1359 28.1125 24.1359 28.1125C24.1572 28.181 24.6255 29.771 24.5745 31.8215C24.5056 34.5699 23.2324 36.9531 21.3081 38.3162H21.3086Z" fill="#2B478B"/>
<path d="M26.2352 37.9796C25.635 38.0637 22.5594 38.7293 20.3675 38.9877C19.132 39.1328 18.177 39.1495 18.1032 38.8592C17.8995 38.054 18.5928 32.9242 19.6955 30.8594C20.7977 28.7942 22.8409 28.3486 22.8409 28.3486L23.4222 31.618L20.4676 37.1064L21.1872 37.1185L26.1246 37.2003L26.2352 37.9801V37.9796Z" fill="#74ACBE"/>
<path d="M26.6718 35.9404H27.7834C27.9187 35.9404 28.0282 36.0426 28.0282 36.1688V38.044C28.0282 38.1702 27.9187 38.2724 27.7834 38.2724H26.6718C26.5365 38.2724 26.427 38.1702 26.427 38.044V36.1688C26.427 36.0426 26.5365 35.9404 26.6718 35.9404Z" fill="#233862"/>
<path d="M26.6718 36.1282H27.7834C27.9187 36.1282 28.0282 36.2303 28.0282 36.3565V38.2318C28.0282 38.358 27.9187 38.4601 27.7834 38.4601H26.6718C26.5365 38.4601 26.427 38.358 26.427 38.2318V36.3565C26.427 36.2303 26.5365 36.1282 26.6718 36.1282Z" fill="#2B478B"/>
<path d="M25.5474 37.3802C25.5474 37.3802 27.1719 36.3361 27.7041 36.6989C28.2369 37.0613 28.279 37.9257 26.0707 37.9968L25.5474 37.3802Z" fill="#B56F40"/>
<path d="M26.2352 37.9798C25.6351 38.0639 22.5595 38.7295 20.3676 38.9879C20.5593 38.1157 20.8616 37.5222 21.1872 37.1182L26.1247 37.2L26.2352 37.9798Z" fill="#B56F40"/>
<path d="M27.8241 23.9293C27.7408 23.8346 27.6035 23.78 27.4479 23.78H26.657C26.5068 23.78 26.4017 23.8202 26.3447 23.8997C26.3185 23.9367 26.3051 23.9788 26.3001 24.0222C26.1673 23.9913 26.0385 24.007 25.9488 24.0278C25.9443 23.9825 25.9309 23.9381 25.9037 23.8997C25.8472 23.8202 25.7416 23.78 25.5915 23.78H24.8005C24.6444 23.78 24.5071 23.8346 24.4244 23.9293C24.349 24.0153 24.3233 24.1276 24.3505 24.2538C24.4407 24.6707 24.9551 24.7239 25.2123 24.7239C25.2916 24.7239 25.3466 24.7188 25.3566 24.7179C25.5974 24.7174 25.7664 24.5894 25.8898 24.3153C25.9106 24.2686 25.9443 24.1803 25.9498 24.0888C26.035 24.0675 26.1663 24.0481 26.2982 24.0823C26.3021 24.1766 26.3368 24.2677 26.3581 24.3153C26.481 24.5894 26.6505 24.7174 26.8914 24.7179C26.9018 24.7188 26.9563 24.7239 27.0356 24.7239C27.2928 24.7239 27.8072 24.6707 27.8974 24.2538C27.9247 24.1276 27.8994 24.0153 27.8236 23.9293H27.8241ZM25.8417 24.2963C25.7277 24.551 25.5731 24.6694 25.3551 24.6694H25.3521C25.3521 24.6694 25.137 24.6929 24.9135 24.6504C24.6201 24.5949 24.4477 24.4581 24.4016 24.2441C24.3773 24.1327 24.3991 24.0343 24.4645 23.9598C24.5379 23.8762 24.6603 23.8286 24.8005 23.8286H25.5915C25.7233 23.8286 25.814 23.8614 25.8601 23.9266C25.8839 23.9603 25.8948 24.0001 25.8972 24.0412C25.8571 24.0532 25.8313 24.0638 25.8279 24.0652C25.812 24.0717 25.8056 24.0893 25.8125 24.1036C25.8179 24.1142 25.8288 24.1207 25.8407 24.1207C25.8452 24.1207 25.8492 24.1198 25.8536 24.1179C25.8541 24.1179 25.87 24.111 25.8958 24.1027C25.8873 24.1854 25.8561 24.2631 25.8412 24.2954L25.8417 24.2963ZM27.8469 24.2446C27.8008 24.4581 27.6283 24.5949 27.3349 24.6509C27.1114 24.6934 26.8983 24.6703 26.8963 24.6698H26.8934C26.6758 24.6698 26.5212 24.551 26.4067 24.2963C26.3918 24.2631 26.3596 24.1831 26.3522 24.0985C26.367 24.1041 26.3824 24.1105 26.3973 24.1179C26.4126 24.1253 26.4315 24.1202 26.4394 24.1059C26.4473 24.0916 26.4419 24.074 26.4265 24.0666C26.4017 24.0546 26.377 24.0449 26.3517 24.037C26.3547 23.9977 26.3656 23.9594 26.3884 23.9275C26.4349 23.8623 26.5251 23.8295 26.657 23.8295H27.4479C27.5882 23.8295 27.7106 23.8776 27.7839 23.9608C27.8493 24.0352 27.8711 24.1336 27.8469 24.245V24.2446Z" fill="#2C3A64"/>
<path d="M25.4716 25.6249C25.4716 25.6249 26.3403 25.5366 26.7447 25.6249C26.7447 25.6249 26.5296 25.954 26.1768 25.954C25.8239 25.954 25.5573 25.8339 25.4716 25.6249Z" fill="#FFF0E6"/>
<path d="M65.3637 23.0772C64.94 22.9473 64.4801 23.0106 64.1654 23.0883C64.2303 22.994 64.3854 22.9348 64.3854 22.9348C64.1817 22.9445 63.7808 23.2103 63.7808 23.2103C60.8197 22.7393 61.2033 26.5943 61.4506 27.46C61.6974 28.3258 60.2672 30.8357 59.2805 32.0601C56.5112 35.4958 60.9392 39.0739 60.9392 39.0739C64.5286 41.8857 62.8977 36.4332 62.8977 36.4332C62.6752 35.738 65.3721 31.3404 66.9585 29.877C67.2717 29.1823 67.1964 28.0725 67.1899 27.9856C67.2979 28.8559 67.2449 29.3658 67.1632 29.6625C68.4244 28.0424 66.4877 23.422 65.3652 23.0776L65.3637 23.0772Z" fill="#163560"/>
<path d="M72.733 35.7444C72.733 36.117 72.5323 36.594 72.2453 37.0854C71.5312 38.3098 70.2829 39.623 70.2829 39.623L69.5593 38.662C69.5593 38.662 69.9989 37.6442 70.2908 36.8048C70.4662 36.3 70.5876 35.8605 70.5287 35.7444C70.3706 35.4357 67.2375 31.9791 67.2375 31.9791L66.3861 29.3047C66.3861 29.3047 68.47 29.4073 69.3576 30.6193C70.2452 31.8312 72.733 34.7405 72.733 35.7444Z" fill="#BC3F3F"/>
<path d="M72.2449 37.0855C71.5307 38.3099 70.2824 39.6231 70.2824 39.6231L69.5588 38.6622C69.5588 38.6622 69.9984 37.6443 70.2903 36.8049C70.6412 36.9986 71.2488 37.183 72.2444 37.0855H72.2449Z" fill="#FFB27D"/>
<path d="M63.5856 59.8491L64.3354 62.7944L65.4584 62.7884L65.4995 59.8491H63.5856Z" fill="#FFB27D"/>
<path d="M73.0319 59.975L75.1653 62.7946L75.9964 61.7989L74.7129 59.5872L73.0319 59.975Z" fill="#FFB27D"/>
<path d="M66.5352 30.1685C66.5447 30.1722 65.6348 30.6132 64.9504 30.4385C64.3066 30.2749 63.8859 29.496 63.8948 29.4946C64.1674 29.4442 64.2462 29.0948 64.2402 27.593L64.3636 27.6157L66.4361 27.9984C66.4361 27.9984 66.389 28.6067 66.3876 29.1798C66.3861 29.661 66.4173 30.1172 66.5357 30.1685H66.5352Z" fill="#FFB27D"/>
<path d="M63.2109 24.125C63.2109 24.125 63.9979 22.9412 65.4604 23.6489C65.4604 23.6489 64.7026 23.6683 63.2109 24.125Z" fill="#5FABB7"/>
<path d="M66.4362 27.9984C66.4362 27.9984 66.3891 28.6067 66.3876 29.1799C65.2279 29.1494 64.6149 28.1625 64.3636 27.6157L66.4362 27.9984Z" fill="#EF9E67"/>
<path d="M63.9369 27.6833C63.9369 27.6833 63.1514 26.9174 62.8461 26.1935C62.628 25.6768 62.4918 23.6351 64.6941 23.5186C64.6941 23.5186 65.328 23.459 65.992 23.7174C66.5198 23.9226 67.3271 24.4288 66.952 26.3036L66.8836 26.9257L63.9369 27.6838V27.6833Z" fill="#163560"/>
<path d="M75.7966 61.1544C75.7966 61.1544 75.2456 61.2432 74.7936 61.2751C74.693 61.282 74.5978 61.2862 74.5146 61.2862C74.297 61.2862 73.9045 61.2099 73.6409 61.1526L73.621 61.1484C73.5056 61.123 73.4174 61.1022 73.3842 61.0939L73.3703 61.0906C73.3703 61.0906 70.6233 58.2382 69.083 53.6664C69.0473 53.5596 69.0092 53.4523 68.969 53.3437C68.1256 51.0506 66.3777 48.1723 65.4564 45.5668C65.3097 45.1521 65.1779 44.7611 65.0599 44.3918C65.0217 44.2734 64.9851 44.1574 64.9499 44.0428C64.2709 41.8426 64.0747 40.3986 63.8933 38.8552L69.4314 40.1693C69.4314 40.1693 71.7567 49.5715 75.7952 61.1544H75.7966Z" fill="#A53D38"/>
<path d="M66.7985 28.304C66.7985 28.304 64.1179 28.8508 63.7779 27.2885C63.4384 25.7262 62.8636 24.7444 64.5609 24.3293C66.2583 23.9138 66.7212 24.4472 66.9709 24.9427C67.2202 25.4382 67.4873 28.121 66.7985 28.3036V28.304Z" fill="#FFB27D"/>
<path d="M65.778 24.0607C65.778 24.0607 65.4375 26.0326 64.3661 26.5161C63.2946 26.9996 62.743 26.8096 62.743 26.8096C62.743 26.8096 63.4711 26.0044 63.4086 24.8493C63.4086 24.8493 65.0336 23.293 65.7775 24.0612L65.778 24.0607Z" fill="#163560"/>
<path d="M65.6278 24.2438C65.6278 24.2438 66.2661 24.5498 66.4862 24.9224C66.7062 25.2949 66.9436 26.1029 67.1933 26.0271C67.1933 26.0271 67.4788 24.6764 66.7032 24.089C65.8806 23.4659 65.6278 24.2438 65.6278 24.2438Z" fill="#163560"/>
<path d="M64.2977 62.6299C64.2977 62.6299 64.3879 63.2132 64.1549 63.8372C64.1549 63.8372 63.9711 64.6184 64.7957 64.6327C65.6204 64.647 65.8231 64.5745 65.7294 64.0956C65.6362 63.6167 65.4583 62.7884 65.4583 62.7884L64.2977 62.6299Z" fill="#FFB27D"/>
<path d="M64.1545 63.8373C64.1545 63.8373 63.9716 64.6577 64.0648 65.0497C64.0648 65.0497 64.3438 65.1407 64.9429 65.1407C65.5109 65.1407 65.8449 65.0497 65.8449 65.0497C65.8449 65.0497 65.8241 64.1585 65.6724 63.8174C65.6724 63.8174 65.0877 64.6355 64.154 63.8373H64.1545Z" fill="#C45446"/>
<path d="M77.9842 64.1742C77.9842 64.1742 76.4637 62.5999 75.9969 61.7988L74.866 62.3392L77.3934 64.5532L77.9847 64.4807V64.1742H77.9842Z" fill="#FFB27D"/>
<path d="M78.9501 65.0968C78.9501 65.0968 77.3161 65.0968 77.0361 65.0676C76.7561 65.039 76.5307 64.6613 76.2269 64.0951C76.1025 63.8635 75.824 63.736 75.538 63.6657L75.5435 65.0496H75.094L74.6975 63.5834C74.4279 63.1217 74.6762 62.7033 74.8655 62.3391C75.086 62.3391 75.6787 62.4792 76.8022 63.6597C77.1714 64.047 77.5793 64.1857 77.9837 64.1741C77.9891 64.1778 77.9951 64.1802 78.0005 64.1825C78.9342 64.5744 78.9496 65.0968 78.9496 65.0968H78.9501Z" fill="#C45446"/>
<path d="M74.7937 61.2752C74.6931 61.2822 74.5979 61.2863 74.5146 61.2863C74.2971 61.2863 73.9046 61.2101 73.6409 61.1527L73.6211 61.1486L73.3842 61.094L73.3704 61.0908C73.3704 61.0908 70.6234 58.2384 69.0831 53.6665C69.0474 53.5597 69.0092 53.4525 68.9691 53.3439C68.1256 51.0508 66.3777 48.1725 65.4564 45.5669C65.3097 45.1523 65.1779 44.7612 65.06 44.3919C65.0218 44.2736 64.9851 44.1576 64.95 44.0429L65.9292 43.3496C65.9292 43.3496 68.8705 47.7911 69.7804 51.9711C70.5351 55.4359 73.7842 59.9274 74.7927 61.2757L74.7937 61.2752Z" fill="#912F2F"/>
<path d="M66.0327 52.3607C66.0496 54.3931 65.9391 59.0662 65.6556 61.0016C65.6556 61.0016 65.3865 61.2235 64.7189 61.2262C64.0355 61.229 63.7298 60.9937 63.7298 60.9937C63.0176 57.6296 62.5111 54.8466 62.1424 52.4481C61.8396 50.4799 61.571 48.7923 61.3644 47.3395C61.181 46.0522 61.0467 44.9494 60.9823 43.9981C60.9738 43.8691 60.9659 43.7425 60.96 43.6195C60.952 43.4564 60.9456 43.2983 60.9426 43.1448C60.9396 42.99 60.9386 42.8398 60.9401 42.6937L60.9639 42.6919L62.3397 42.5671L66.6874 42.1714C66.615 45.7328 66.0243 51.1802 66.0337 52.3612L66.0327 52.3607Z" fill="#A53D38"/>
<path d="M64.7185 61.2258C64.1372 61.2572 63.7293 60.9933 63.7293 60.9933C63.0172 57.6292 62.5107 54.8461 62.142 52.4476C61.8392 50.4795 61.5706 48.7919 61.3639 47.3391C61.1806 46.0518 61.0463 44.9489 60.9818 43.9977C60.9744 43.529 60.969 43.0801 60.963 42.6909C60.9566 42.2962 60.9501 41.9625 60.9382 41.73L62.3387 42.5661L63.8126 43.4453C63.8126 43.4453 61.7222 45.2189 62.2357 48.5719C62.7491 51.9249 64.0039 60.7511 64.7185 61.2258Z" fill="#912F2F"/>
<path d="M70.1976 43.0805C68.53 43.4849 60.7474 44.2827 60.68 42.4648C60.6631 42.0211 60.68 41.4858 60.7177 40.9062C60.8336 39.1104 61.1498 36.8908 61.3015 35.6701C61.3708 35.1103 61.1399 32.6032 61.3173 31.2373C61.3431 31.0349 61.3783 30.8574 61.4249 30.715C61.7609 29.6842 63.2714 29.4046 64.047 29.3801L66.3866 29.3057C66.3866 29.3057 68.8026 31.823 69.1391 32.5963C69.4751 33.3696 69.5851 36.0172 69.8462 37.299C70.1074 38.5812 71.0094 42.884 70.1981 43.0805H70.1976Z" fill="#BC3F3F"/>
<path d="M65.6011 36.9361C65.6011 36.9361 64.3002 40.6621 60.7177 40.9057C60.8336 39.1099 61.1498 36.8903 61.3014 35.6696C61.3708 35.1098 61.1399 32.6027 61.3173 31.2368C61.3639 31.2461 61.406 31.2701 61.4551 31.2789C65.4004 31.9898 65.9604 36.1595 65.6016 36.9361H65.6011Z" fill="#A53D38"/>
<path d="M68.7756 33.1765L64.6204 32.7637L63.9468 38.6621L68.102 39.0749L68.7756 33.1765Z" fill="#2B478B"/>
<path d="M64.6203 32.7635L64.3537 32.7437L63.7278 38.6375L63.9468 38.662L64.6203 32.7635Z" fill="#163560"/>
<path d="M61.1166 35.3748C61.1166 35.3748 64.0484 36.2105 66.8499 36.5839C66.8499 36.5839 67.7747 36.957 67.3405 37.0591C67.2295 37.0855 61.6186 38.2262 60.7865 37.4862L61.1166 35.3752V35.3748Z" fill="#FFB27D"/>
<path d="M64.0465 29.3796C64.0465 29.3796 62.5052 29.3875 61.8471 30.0878C60.6453 31.3663 60.4079 36.8035 60.7865 37.4862C60.9496 37.7797 62.2004 37.8037 62.7277 36.3819C63.0013 35.6447 64.1966 30.7206 64.0465 29.3801V29.3796Z" fill="#BC3F3F"/>
<path d="M66.5739 36.546C66.5739 36.546 66.9183 36.516 66.9837 36.4134C67.1146 36.2081 67.3212 36.2104 67.4932 36.1836C67.6656 36.1564 67.8589 35.9807 67.8931 36.0158C67.9273 36.0514 67.7663 36.2451 67.6761 36.3177C67.6761 36.3177 67.8609 36.3283 67.9833 36.2738C68.1057 36.2192 68.4784 35.7699 68.5374 35.959C68.692 36.4564 68.5314 36.9343 68.1037 36.9731C67.6424 37.0152 66.4971 37.2213 66.4971 37.2213L66.5739 36.546Z" fill="#FFB27D"/>
<path d="M80.9779 38.8552C78.7879 38.3352 76.3809 35.1666 76.3809 35.1666L76.9974 34.6678C77.6357 35.37 80.29 36.5787 80.29 36.5787C80.2756 35.9362 80.294 35.3506 80.3371 34.8171C80.6314 31.1924 82.0969 29.985 82.4963 29.7197C82.5607 29.6767 82.5979 29.6587 82.5979 29.6587C82.5979 29.6587 82.5994 29.685 82.6019 29.735C82.6078 29.8427 82.6182 30.0599 82.6291 30.3576C82.7104 32.5763 82.8075 39.2897 80.9774 38.8552H80.9779Z" fill="#D9935C"/>
<path d="M76.9974 34.6679C76.988 34.5824 76.9265 33.3372 76.6614 33.1C76.3963 32.8629 75.8725 32.5403 75.7218 32.5662C75.5711 32.5925 75.0602 33.3852 75.3015 33.9316C75.5429 34.4779 76.3809 35.1671 76.3809 35.1671L76.9974 34.6684V34.6679Z" fill="#D9935C"/>
<path d="M77.5415 34.8124L76.0994 34.8688C76.0513 34.8707 76.0112 34.836 76.0092 34.7912L75.8942 32.2263C75.8923 32.1814 75.9294 32.144 75.9775 32.1422L77.4196 32.0858C77.4677 32.0839 77.5078 32.1186 77.5098 32.163L77.6248 34.7279C77.6268 34.7727 77.5896 34.8101 77.5415 34.812V34.8124Z" fill="#F1A34F"/>
<path d="M77.1669 34.8269L75.8586 34.8777C75.7739 34.881 75.702 34.8195 75.6985 34.7405L75.589 32.3004C75.5855 32.2213 75.6514 32.1543 75.7362 32.1511L77.0445 32.1002C77.1293 32.097 77.2011 32.1585 77.2046 32.2375L77.3141 34.6776C77.3176 34.7566 77.2517 34.8237 77.1669 34.8269Z" fill="#D86713"/>
<path d="M75.6128 32.6609C75.6128 32.6609 76.0058 32.2514 76.3992 32.5643C76.7922 32.8773 76.373 33.5452 76.032 33.7278C75.6911 33.9103 75.5815 34.0056 75.5815 34.0056L75.6128 32.6605V32.6609Z" fill="#D9935C"/>
<path d="M85.7464 59.9284C85.6131 60.423 85.4664 60.894 85.3167 61.3327C85.2845 61.4265 85.2533 61.5189 85.2211 61.6095C85.2052 61.6544 85.1889 61.6987 85.1735 61.7427C85.1418 61.8296 85.1111 61.9146 85.0798 61.9978C85.0392 62.1064 84.9991 62.2123 84.9589 62.3144C84.9297 62.3902 84.9004 62.4647 84.8712 62.5377C84.4272 63.6484 84.055 64.3524 84.055 64.3524L83.1704 64.2955C83.1704 64.2955 83.5024 62.8215 83.5688 60.7105C83.5708 60.6352 83.5733 60.5594 83.5748 60.4822C83.5782 60.3185 83.5802 60.1517 83.5802 59.9811C83.5802 59.9113 83.5802 59.8406 83.5792 59.7694C83.5614 57.951 83.32 55.8021 82.5499 53.7503C81.9235 52.0821 81.4695 50.5216 81.1415 49.1114C80.0819 44.5585 80.3307 41.5674 80.3307 41.5674L85.3083 42.1105L85.5402 42.1359C85.561 44.2682 85.62 47.1636 85.6716 49.4271C85.6805 49.82 85.6889 50.1939 85.6968 50.5415C85.731 51.9948 85.7573 52.9885 85.7573 52.9885C86.7148 54.9105 86.3669 57.6242 85.7459 59.9289L85.7464 59.9284Z" fill="#CB7D45"/>
<path d="M84.3216 25.6268C84.3216 25.6268 85.4991 26.5619 84.4192 27.6384C84.4192 27.6384 85.3192 27.7207 85.6235 27.4882C85.6235 27.4882 85.5635 27.6014 85.508 27.6522C85.508 27.6522 86.514 27.686 86.9293 27.3934C87.3446 27.1008 87.078 22.3006 84.2859 22.8372C84.2859 22.8372 81.9195 22.6704 82.14 25.2246C82.3606 27.7784 81.467 27.7784 81.467 27.7784C81.467 27.7784 81.7153 27.8926 81.8353 27.8926C81.8353 27.8926 82.0107 27.8302 82.0454 27.7396C82.0454 27.7396 82.0107 27.8815 81.9656 27.9268C81.9656 27.9268 82.93 28.0119 83.4117 27.6726C83.8934 27.3328 84.4589 26.1532 84.3216 25.6263V25.6268Z" fill="#233862"/>
<path d="M88.1217 41.0461C87.1811 39.0784 86.7311 38.5218 86.7153 37.9029C86.7029 37.4134 86.9616 36.8851 87.4646 35.5895C87.583 35.2844 87.6648 34.9706 87.7148 34.653C88.1123 32.1556 86.5641 29.4562 85.6022 29.2722C85.3346 29.2061 84.8806 28.3043 84.8861 26.8511L84.7657 26.8733L82.7392 27.2477C82.7392 27.2477 82.7853 27.8426 82.7868 28.4028C82.7883 28.8696 82.761 29.3448 82.6475 29.4003C82.5018 29.4127 82.369 29.4372 82.369 29.4372C82.369 29.4372 80.6543 30.5604 80.5433 32.0839C80.3951 34.1191 81.9334 36.5315 80.5696 40.5986C79.1765 44.7527 88.6416 42.1332 88.1217 41.0456V41.0461Z" fill="#D9935C"/>
<path d="M82.7393 27.2477C82.7393 27.2477 82.7854 27.8426 82.7868 28.4028C83.9207 28.3728 84.5199 27.4081 84.7657 26.8733L82.7393 27.2477Z" fill="#CB7D45"/>
<path d="M84.9743 26.6676C84.9743 26.6676 85.5685 25.7921 85.7112 25.0433C85.8128 24.5085 85.5209 22.5274 83.3865 22.8126C83.3865 22.8126 82.7665 22.8694 82.1837 23.2369C81.7203 23.529 81.0513 24.1591 81.7991 25.8882L81.9934 26.4725L84.9748 26.668L84.9743 26.6676Z" fill="#233862"/>
<path d="M82.3601 27.7782C82.3601 27.7782 85.0427 27.8194 85.0446 26.2607C85.0466 24.7021 85.394 23.6579 83.6813 23.5655C81.9686 23.473 81.635 24.0675 81.4988 24.5879C81.3625 25.1079 81.6623 27.7274 82.3601 27.7782Z" fill="#D9935C"/>
<path d="M82.4597 23.5277C82.4597 23.5277 83.1942 25.3563 84.3216 25.6267C85.4491 25.8971 85.9377 25.6152 85.9377 25.6152C85.9377 25.6152 85.0729 24.9745 84.8935 23.8564C84.8935 23.8564 83.0138 22.6574 82.4597 23.5277Z" fill="#233862"/>
<path d="M82.6416 23.6759C82.6416 23.6759 82.093 24.0841 81.9591 24.4811C81.8253 24.8782 81.7654 25.6949 81.5102 25.6672C81.5102 25.6672 80.9566 24.4243 81.5785 23.7212C82.2382 22.9756 82.6416 23.6759 82.6416 23.6759Z" fill="#233862"/>
<path d="M91.6106 43.1363L90.8053 43.3614C90.8053 43.3614 88.1485 39.2499 87.9072 38.1803C87.8284 37.8318 87.6351 37.1352 87.4096 36.354C86.9433 34.7367 86.3411 32.7584 86.3411 32.7584L86.1429 31.9573L85.4664 29.2256C85.4664 29.2256 86.7614 29.349 87.5186 29.6444C87.7694 29.7419 87.9607 29.8584 88.0276 29.9952C88.5841 31.1364 89.1397 34.0161 89.5302 36.0707C89.7477 37.2156 89.9138 38.1045 90.0005 38.2926C90.2423 38.8182 90.9803 41.7089 91.6106 43.1358V43.1363Z" fill="#D9935C"/>
<path d="M82.5399 23.738C82.5399 23.738 83.0632 25.653 84.4856 26.2659C84.4856 26.2659 83.0632 25.0895 82.9423 23.8253C82.8214 22.5611 82.5399 23.7375 82.5399 23.7375V23.738Z" fill="#233862"/>
<path d="M88.6019 59.5286C88.3155 62.3773 87.0552 64.2198 87.0552 64.2198L86.6251 64.5849C86.6251 64.5849 86.2331 62.4989 85.9501 60.111C85.6805 57.8415 85.3108 55.4393 84.8925 54.7062C84.2676 53.6107 83.8067 51.3703 83.4752 49.0037C82.9271 45.0873 82.7328 40.8228 82.7328 40.8228L87.7798 40.5894C88.2877 41.3853 88.5088 42.6906 88.5613 44.1749C88.6168 45.7353 88.485 47.4941 88.3021 49.0657C88.0469 51.2659 87.6916 53.0995 87.6088 53.5118C87.6088 53.5123 87.6088 53.5128 87.6083 53.5137C87.5974 53.5678 87.6143 53.6223 87.6415 53.6713C88.646 55.5253 88.7908 57.6465 88.6019 59.5286Z" fill="#D9935C"/>
<path d="M82.7124 34.5051C82.5989 37.0908 82.1841 39.6515 80.9769 39.4865C79.4976 39.285 79.112 37.9972 79.0332 37.0395C78.9846 36.4437 79.055 35.9754 79.055 35.9754C79.055 35.9754 79.783 35.9722 79.901 35.871C80.46 35.3893 80.294 30.664 80.571 30.1731C80.848 29.6827 82.644 29.3674 82.644 29.3674C82.644 29.3674 82.8249 31.9485 82.7119 34.5046L82.7124 34.5051Z" fill="#EE9849"/>
<path d="M82.7124 34.5052C82.5989 37.0908 82.1841 39.6516 80.9769 39.4866C79.4976 39.285 79.112 37.9973 79.0332 37.0395C79.3965 37.0224 80.0358 36.9397 80.29 36.5782C80.6538 36.0605 81.7886 32.7297 81.7886 32.7297C81.7886 32.7297 82.2347 33.4776 82.7114 34.5047L82.7124 34.5052Z" fill="#E58638"/>
<path d="M85.7464 59.9285C85.6131 60.4231 85.4664 60.8941 85.3167 61.3328C85.2845 61.4266 85.2533 61.5191 85.2211 61.6097C85.2052 61.6545 85.1889 61.6989 85.1735 61.7428C85.1418 61.8297 85.1111 61.9147 85.0799 61.9979C85.0392 62.1065 84.9991 62.2124 84.9589 62.3146C84.9297 62.3904 84.9005 62.4648 84.8712 62.5378C84.4272 63.6485 84.055 64.3525 84.055 64.3525L83.1704 64.2957C83.1704 64.2957 83.5024 62.8216 83.5688 60.7106C83.5708 60.6353 83.5733 60.5595 83.5748 60.4823C83.5782 60.3187 83.5802 60.1518 83.5802 59.9812C83.5802 59.9114 83.5802 59.8407 83.5792 59.7695C83.5614 57.9511 83.3201 55.8022 82.5499 53.7504C81.9235 52.0822 81.4696 50.5218 81.1415 49.1115C81.6673 49.2127 82.1307 49.1092 83.4747 49.0043C83.6159 48.9932 84.2914 49.7734 84.9584 50.8056C84.9926 52.2588 85.7573 52.9887 85.7573 52.9887C86.7148 54.9106 86.3669 57.6243 85.7459 59.929L85.7464 59.9285Z" fill="#233862"/>
<path d="M88.6019 59.5286C88.3154 62.3773 87.0552 64.2197 87.0552 64.2197L86.625 64.5849C86.625 64.5849 86.233 62.4988 85.95 60.111C85.6804 57.8414 85.3107 55.4392 84.8925 54.7062C84.2675 53.6107 83.8066 51.3703 83.4751 49.0037C83.94 49.1839 85.5204 49.6522 88.3016 49.0656C88.0463 51.2658 87.691 53.0995 87.6082 53.5118C87.6082 53.5122 87.6082 53.5127 87.6077 53.5136C87.5968 53.5677 87.6137 53.6222 87.6409 53.6712C88.6455 55.5252 88.7902 57.6464 88.6014 59.5286H88.6019Z" fill="#2B478B"/>
<path d="M89.5688 45.6664C89.5688 45.6664 88.5127 45.9705 86.9576 46.1711C85.0318 46.4194 82.3393 46.509 79.9347 45.6664C79.9347 45.6664 79.7365 42.3291 80.3064 40.5898C80.8763 38.8495 81.1425 38.0175 81.1425 38.0175C81.1425 38.0175 83.4251 38.5513 85.7434 38.1372C86.069 38.0794 86.3951 38.0022 86.7157 37.9028C86.7157 37.9028 88.146 40.7349 88.539 41.9482C88.9325 43.1616 89.5693 45.6669 89.5693 45.6669L89.5688 45.6664Z" fill="#2B478B"/>
<path d="M89.5688 45.6664C89.5688 45.6664 88.5127 45.9705 86.9576 46.1711C84.105 44.6624 85.4961 38.3142 85.4961 38.3142C85.5809 38.2499 85.6636 38.1908 85.7434 38.1367C86.069 38.0789 86.3951 38.0017 86.7157 37.9023C86.7157 37.9023 88.146 40.7344 88.539 41.9478C88.9325 43.1611 89.5693 45.6664 89.5693 45.6664H89.5688Z" fill="#233862"/>
<path d="M91.9035 39.3145C91.9035 39.9639 91.1933 40.3633 90.4306 40.5574C89.6976 40.7446 88.9166 40.7418 88.6728 40.5893C88.2515 40.3258 87.5647 37.3976 87.3644 36.5064C87.3283 36.3447 87.308 36.2504 87.308 36.2504C87.308 36.2504 86.7603 37.4693 86.743 37.583C86.7351 37.6343 86.7286 37.7045 86.7237 37.7665C86.7182 37.8414 86.7147 37.9033 86.7147 37.9033C86.7147 37.9033 83.7432 39.3025 81.1419 38.0175C81.1419 38.0175 80.0844 32.3168 80.5433 31.336C80.7713 30.8483 81.9611 29.8425 82.4374 29.4085C82.5444 29.311 82.5335 29.1178 82.4924 28.9412C82.4582 28.7919 82.6019 28.6606 82.7605 28.699C83.0668 28.7734 83.6174 28.7604 84.2081 28.5797C84.502 28.4905 84.8058 28.3592 85.0927 28.1762C85.1765 28.123 85.2899 28.172 85.3023 28.2654C85.3474 28.6051 85.4575 29.2259 85.6582 29.2259C85.9352 29.2245 87.8243 29.4408 87.9626 29.6586C88.0107 29.7344 88.5018 30.7711 89.1218 32.1439C89.1218 32.1439 89.1223 32.1449 89.1228 32.1476C90.2864 34.7236 91.903 38.4834 91.903 39.314L91.9035 39.3145Z" fill="#EE9849"/>
<path d="M87.3079 36.2505C87.3079 36.2505 86.7603 37.4694 86.743 37.5831C86.735 37.6344 86.7286 37.7046 86.7236 37.7666C86.459 37.9681 86.1389 38.1211 85.8128 38.2136C84.8865 38.4752 84.4841 36.819 84.5391 35.993C84.5946 35.1666 85.9044 32.8083 86.3411 32.7593C86.7767 32.7107 87.3079 36.2514 87.3079 36.2514V36.2505Z" fill="#E58638"/>
<path d="M87.3645 36.5066C87.3283 36.3448 87.308 36.2505 87.308 36.2505C87.3367 36.3378 87.3556 36.4229 87.3645 36.5066Z" fill="#E58638"/>
<path d="M83.5659 38.6457C81.8749 38.6457 81.1777 38.103 81.1261 38.066L81.0166 37.3232C81.033 37.3343 83.3017 38.605 86.8134 37.388L86.7391 37.9505C85.3886 38.4187 84.444 38.6452 83.5659 38.6452V38.6457Z" fill="#B64C41"/>
<path d="M91.9035 39.3145C91.9035 39.964 91.1933 40.3633 90.4306 40.5575C91.4818 39.3903 89.1823 32.328 89.1233 32.1477C90.2869 34.7237 91.9035 38.4834 91.9035 39.3141V39.3145Z" fill="#E58638"/>
<path d="M85.6587 29.2259C85.6587 29.2259 84.2438 30.0616 83.1739 29.8638C83.1739 29.8638 82.9171 29.7126 83.2715 29.5601C83.604 29.4177 84.3781 28.9957 84.2081 28.5792C84.502 28.49 84.8058 28.3587 85.0927 28.1757C85.1765 28.1225 85.29 28.1715 85.3024 28.2649C85.3475 28.6047 85.4575 29.2254 85.6582 29.2254L85.6587 29.2259Z" fill="#E58638"/>
<path d="M84.5649 65.0445H84C83.8106 65.0167 83.6709 64.9654 83.4771 64.9419C83.1822 64.9058 83.0469 65.0186 83.0197 65.0445C83.0162 65.0477 83.0142 65.0496 83.0142 65.0496H80.6151C80.5547 64.9691 80.6127 64.7829 80.6697 64.646C80.7078 64.5531 80.7911 64.4824 80.8941 64.4547C81.1484 64.3858 81.6499 64.3248 82.1093 63.937C82.3675 63.7193 83.3572 63.1359 83.3572 63.1359L83.3621 63.135C83.3839 63.135 83.4875 63.1651 83.9375 63.5196C84.1704 63.7026 84.5669 63.2612 84.5669 63.2612C84.5669 63.2612 84.6412 63.3185 84.6967 63.4258C84.7413 63.5103 84.774 63.6264 84.7483 63.7692C84.7126 63.9707 84.8281 64.3456 84.9202 64.5989C84.9762 64.7523 85.0233 64.8614 85.0233 64.8614C85.0233 64.8614 85.0501 64.9881 84.5644 65.0445H84.5649Z" fill="#233862"/>
<path d="M84.6972 63.4253C84.5624 63.514 84.278 63.6883 84.0891 63.7114C83.8344 63.7424 83.3577 63.1359 83.3577 63.1359L83.3626 63.135C83.3844 63.135 83.488 63.1651 83.938 63.5196C84.1709 63.7026 84.5674 63.2612 84.5674 63.2612C84.5674 63.2612 84.6417 63.3185 84.6972 63.4258V63.4253Z" fill="#466AA5"/>
<path d="M84.5649 65.0445H84C83.8106 65.0167 83.6709 64.9654 83.4771 64.9419C83.1822 64.9058 83.0469 65.0186 83.0197 65.0445C83.0162 65.0477 83.0142 65.0495 83.0142 65.0495H80.6151C80.5547 64.9691 80.6127 64.7828 80.6697 64.646C80.7425 64.5855 80.7628 64.9086 80.8035 64.9599C80.8436 65.0112 82.7605 64.9788 82.8715 64.9035C82.982 64.8286 83.3141 64.6969 83.7774 64.8004C84.1803 64.8901 84.774 64.6599 84.9212 64.5989C84.9772 64.7523 85.0243 64.8614 85.0243 64.8614C85.0243 64.8614 85.0511 64.9881 84.5654 65.0445H84.5649Z" fill="#466AA5"/>
<path d="M87.5786 65.0445H87.0136C86.8243 65.0167 86.6845 64.9654 86.4908 64.9419C86.1959 64.9058 86.0606 65.0186 86.0334 65.0445C86.0299 65.0477 86.0284 65.0496 86.0284 65.0496H83.6293C83.5688 64.9691 83.6268 64.7829 83.6838 64.646C83.722 64.5531 83.8052 64.4824 83.9083 64.4547C84.1625 64.3858 84.6641 64.3248 85.1235 63.937C85.3817 63.7193 86.3713 63.1359 86.3713 63.1359L86.3768 63.135C86.3986 63.135 86.5022 63.1651 86.9522 63.5196C87.1851 63.7026 87.5815 63.2612 87.5815 63.2612C87.5815 63.2612 87.6559 63.3185 87.7114 63.4258C87.756 63.5103 87.7887 63.6264 87.7629 63.7692C87.7272 63.9707 87.8427 64.3456 87.9349 64.5989C87.9909 64.7523 88.038 64.8614 88.038 64.8614C88.038 64.8614 88.0647 64.9881 87.5791 65.0445H87.5786Z" fill="#233862"/>
<path d="M87.7114 63.4253C87.5766 63.514 87.2921 63.6883 87.1033 63.7114C86.8486 63.7424 86.3718 63.1359 86.3718 63.1359L86.3773 63.135C86.3991 63.135 86.5027 63.1651 86.9526 63.5196C87.1856 63.7026 87.582 63.2612 87.582 63.2612C87.582 63.2612 87.6564 63.3185 87.7119 63.4258L87.7114 63.4253Z" fill="#466AA5"/>
<path d="M87.5786 65.0445H87.0136C86.8243 65.0167 86.6845 64.9654 86.4908 64.9419C86.1959 64.9058 86.0606 65.0186 86.0333 65.0445C86.0299 65.0477 86.0284 65.0495 86.0284 65.0495H83.6293C83.5688 64.9691 83.6268 64.7828 83.6838 64.646C83.7567 64.5855 83.777 64.9086 83.8176 64.9599C83.8578 65.0112 85.7747 64.9788 85.8857 64.9035C85.9962 64.8286 86.3282 64.6969 86.7916 64.8004C87.1945 64.8901 87.7882 64.6599 87.9354 64.5989C87.9914 64.7523 88.0385 64.8614 88.0385 64.8614C88.0385 64.8614 88.0652 64.9881 87.5796 65.0445H87.5786Z" fill="#466AA5"/>
<path d="M93.6063 46.3373C93.5503 46.0757 93.3536 45.863 93.0855 45.7701C92.6508 45.6199 91.9387 45.484 91.0635 45.7239C89.5862 46.1288 89.4415 46.9761 89.5391 47.5853C89.6367 48.1945 89.3473 49.1652 89.3899 49.8562C89.4326 50.5473 89.6447 52.2825 90.7384 52.1914C91.8326 52.1003 95.3587 51.2166 95.3587 51.2166C95.3587 51.2166 95.9678 50.1354 94.7164 48.5689C93.974 47.6398 93.704 46.7935 93.6068 46.3373H93.6063Z" fill="#D37129"/>
<path d="M92.9289 45.5389L92.6365 45.5634C92.6365 45.5634 92.6028 45.3748 92.4685 45.2561C92.3654 45.165 92.2222 45.1322 92.0443 45.159C91.8758 45.1839 91.7544 45.2561 91.6929 45.3725C91.6062 45.5357 91.6543 45.7465 91.6548 45.7488L91.3698 45.8103C91.3663 45.7959 91.2836 45.4539 91.4332 45.1664C91.5358 44.9681 91.7197 44.8535 91.9739 44.8091C92.2361 44.7698 92.4576 44.8294 92.633 44.9866C92.8749 45.2034 92.9269 45.5255 92.9289 45.5389Z" fill="#D37129"/>
<path d="M96.0833 51.0621C96.0833 51.0621 92.5567 51.9482 91.462 52.0374C90.3683 52.1303 90.1552 50.3946 90.115 49.7018C90.0719 49.0131 90.3603 48.0415 90.2642 47.4308C90.2444 47.3153 90.233 47.1873 90.2419 47.0583C90.2701 46.5147 90.5962 45.8976 91.7861 45.5718C92.6638 45.3305 93.3735 45.4682 93.8101 45.6185C94.0767 45.7114 94.2759 45.9231 94.3314 46.1842C94.3443 46.2374 94.3562 46.3021 94.3716 46.3659C94.4974 46.8508 94.7878 47.6033 95.4415 48.4168C96.6933 49.9814 96.0833 51.0621 96.0833 51.0621Z" fill="#F1A34F"/>
<path opacity="0.4" d="M90.6472 49.8477L92.7728 49.3989C92.7728 49.3989 93.2673 50.8184 92.2628 51.0773C91.2583 51.3357 90.8415 50.7861 90.6472 49.8477Z" fill="#D86713"/>
<path d="M90.6472 49.8477C90.6472 49.8477 91.1378 50.2887 91.8004 50.1329C92.463 49.9776 92.7728 49.3989 92.7728 49.3989L90.6472 49.8477Z" fill="#D37129"/>
<path opacity="0.4" d="M93.2045 49.308L95.33 48.8596C95.33 48.8596 95.8246 50.2791 94.8201 50.538C93.8155 50.7963 93.3987 50.2468 93.2045 49.3084V49.308Z" fill="#D86713"/>
<path d="M93.2045 49.308C93.2045 49.308 93.6951 49.7489 94.3577 49.5931C95.0203 49.4378 95.33 48.8591 95.33 48.8591L93.2045 49.3075V49.308Z" fill="#D37129"/>
<path opacity="0.4" d="M94.3315 46.1842C94.3444 46.2374 94.3562 46.3021 94.3716 46.3659C94.0906 46.9067 93.5579 47.5977 92.6564 47.7581C91.1236 48.0368 90.2419 47.0583 90.2419 47.0583C90.2702 46.5147 90.5963 45.8976 91.7862 45.5718C92.6638 45.3305 93.3735 45.4682 93.8101 45.6185C94.0767 45.7114 94.276 45.9231 94.3315 46.1842Z" fill="#D86713"/>
<path d="M92.6782 48.058C92.582 48.0784 92.4859 48.0215 92.4641 47.9323L92.4284 47.7844C92.4066 47.6947 92.4675 47.605 92.5632 47.5847C92.6593 47.5644 92.7555 47.6212 92.7773 47.7104L92.8129 47.8583C92.8348 47.948 92.7738 48.0377 92.6782 48.058Z" fill="#D86713"/>
<path d="M91.5536 43.0115C91.5536 43.0115 91.7985 43.5495 92.0532 43.6997C92.3079 43.85 92.5502 44.2105 92.6033 44.5008C92.7004 45.0337 92.2623 45.3642 91.9402 45.3642C91.6181 45.3642 91.3103 44.9547 91.121 43.9766C91.1106 43.923 90.8048 43.3618 90.8048 43.3618L91.5526 43.0115H91.5536Z" fill="#D9935C"/>
<path d="M49.4477 22.8277C49.0631 22.2827 47.5353 22.5878 46.0356 23.509C44.536 24.4302 43.6321 25.6186 44.0166 26.1636C44.4017 26.7085 45.9291 26.4035 47.4287 25.4822C48.9283 24.561 49.8323 23.3726 49.4477 22.8277Z" fill="#233862"/>
<path d="M41.6125 43.0758L41.9084 43.0925C41.9059 43.0865 42.0233 38.2696 42.4768 36.3209C43.3208 32.6901 45.5266 29.8474 45.5509 29.8233L45.0206 29.6648C44.9943 29.6911 44.5761 30.2953 43.9839 31.4106C43.4377 32.4382 42.5601 34.1502 42.1725 36.1438C41.7899 38.1125 41.6016 43.0504 41.6125 43.0763V43.0758Z" fill="#BC3F3F"/>
<path d="M46.9638 22.7851C46.9638 22.7851 45.0286 22.4001 44.0994 23.8681C43.1702 25.3361 43.1186 27.8876 42.4996 28.7219C41.8802 29.5562 40.7879 33.078 41.949 33.866C43.1102 34.6541 50.2639 33.8374 50.6653 33.4778C51.0667 33.1182 50.641 29.4204 49.9422 28.3489C49.2435 27.2779 50.9463 22.2397 46.9638 22.7851Z" fill="#A53D38"/>
<path d="M49.8471 38.8552C52.0371 38.3352 54.4441 35.1666 54.4441 35.1666L53.8276 34.6678C53.1893 35.37 50.535 36.5787 50.535 36.5787C50.5493 35.9362 50.531 35.3506 50.4879 34.8171C50.1935 31.1924 48.7286 29.985 48.3287 29.7197C48.2642 29.6767 48.2271 29.6587 48.2271 29.6587C48.2271 29.6587 48.2256 29.685 48.2231 29.735C48.2171 29.8427 48.2067 30.0599 48.1958 30.3576C48.1146 32.5763 48.0174 39.2897 49.8476 38.8552H49.8471Z" fill="#FFB27D"/>
<path d="M53.8275 34.6679C53.8369 34.5824 53.8984 33.3372 54.1635 33.1C54.4287 32.8629 54.9525 32.5403 55.1027 32.5662C55.2533 32.5925 55.7643 33.3852 55.5229 33.9316C55.2816 34.4779 54.4435 35.1671 54.4435 35.1671L53.827 34.6684L53.8275 34.6679Z" fill="#FFB27D"/>
<path d="M45.0786 59.9287C45.2119 60.4232 45.3586 60.8943 45.5083 61.3329C45.5405 61.4267 45.5717 61.5192 45.6039 61.6098C45.6198 61.6546 45.6361 61.699 45.6515 61.7429C45.6832 61.8298 45.7139 61.9149 45.7452 61.9981C45.7858 62.1067 45.8259 62.2125 45.8661 62.3147C45.8953 62.3905 45.9246 62.4649 45.9533 62.5379C46.3973 63.6487 46.7695 64.3526 46.7695 64.3526L47.6541 64.2958C47.6541 64.2958 47.3221 62.8217 47.2557 60.7108C47.2537 60.6354 47.2512 60.5596 47.2497 60.4824C47.2463 60.3188 47.2443 60.1519 47.2443 59.9814C47.2443 59.9116 47.2448 59.8408 47.2453 59.7697C47.2631 57.9513 47.5045 55.8024 48.2746 53.7505C48.901 52.0824 49.355 50.5219 49.683 49.1116C50.7426 44.5587 50.4938 41.5676 50.4938 41.5676L45.5162 42.1107L45.2843 42.1362C45.263 44.2684 45.2045 47.1638 45.1529 49.4273C45.144 49.8202 45.1356 50.1942 45.1277 50.5418C45.0935 51.995 45.0672 52.9888 45.0672 52.9888C44.1097 54.9107 44.4576 57.6245 45.0786 59.9291V59.9287Z" fill="#FFB27D"/>
<path d="M42.7033 41.0463C43.6439 39.0786 44.0939 38.5221 44.1098 37.9032C44.1221 37.4137 43.8635 36.8853 43.3604 35.5897C43.242 35.2846 43.1602 34.9708 43.1102 34.6532C42.7127 32.1558 44.2609 29.4564 45.2228 29.2725C45.4904 29.2064 45.9444 28.3046 45.9389 26.8513L46.0594 26.8735L48.0858 27.2479C48.0858 27.2479 48.0397 27.8428 48.0382 28.403C48.0367 28.8699 48.064 29.345 48.1775 29.4005C48.3232 29.413 49.914 29.6778 50.2034 30.1035C50.4879 30.5223 50.1707 30.5607 50.2817 32.0842C50.4294 34.1194 48.8916 36.5317 50.2554 40.5989C51.6485 44.7529 42.1834 42.1335 42.7033 41.0458V41.0463Z" fill="#FFB27D"/>
<path d="M48.0857 27.2479C48.0857 27.2479 48.0397 27.8428 48.0382 28.403C46.9043 28.373 46.3051 27.4083 46.0593 26.8735L48.0857 27.2479Z" fill="#EF9E67"/>
<path d="M48.4644 27.7785C48.4644 27.7785 45.7818 27.8196 45.7798 26.261C45.7779 24.7023 45.4305 23.6582 47.1432 23.5657C48.8559 23.4733 49.1894 24.0677 49.3257 24.5882C49.462 25.1082 49.1622 27.7276 48.4644 27.7785Z" fill="#FFB27D"/>
<path d="M48.3653 23.5277C48.3653 23.5277 47.6309 25.3563 46.5034 25.6267C45.376 25.8971 44.8873 25.6152 44.8873 25.6152C44.8873 25.6152 45.7521 24.9745 45.9315 23.8564C45.9315 23.8564 47.8113 22.6574 48.3653 23.5277Z" fill="#A53D38"/>
<path d="M48.1835 23.6762C48.1835 23.6762 48.7321 24.0843 48.8659 24.4814C48.9997 24.8784 49.0597 25.6952 49.3154 25.6674C49.3154 25.6674 49.8689 24.4245 49.247 23.7215C48.5874 22.9759 48.184 23.6762 48.184 23.6762H48.1835Z" fill="#A53D38"/>
<path d="M39.2144 43.1363L40.0197 43.3614C40.0197 43.3614 42.6765 39.2499 42.9178 38.1803C42.9966 37.8318 43.1899 37.1352 43.4154 36.354C43.8817 34.7367 44.4839 32.7584 44.4839 32.7584L44.6821 31.9573L45.3586 29.2256C45.3586 29.2256 44.0636 29.349 43.3064 29.6444C43.0556 29.7419 42.8643 29.8584 42.7974 29.9952C42.2409 31.1364 41.6853 34.0161 41.2948 36.0707C41.0772 37.2156 40.9112 38.1045 40.8245 38.2926C40.5831 38.8182 39.8447 41.7089 39.2144 43.1358V43.1363Z" fill="#FFB27D"/>
<path d="M48.285 23.7382C48.285 23.7382 47.7617 25.6532 46.3394 26.2661C46.3394 26.2661 47.7617 25.0898 47.8826 23.8256C48.0035 22.5614 48.285 23.7377 48.285 23.7377V23.7382Z" fill="#A53D38"/>
<path d="M42.2231 59.5289C42.5096 62.3776 43.7698 64.22 43.7698 64.22L44.2 64.5852C44.2 64.5852 44.592 62.4992 44.875 60.1113C45.1446 57.8418 45.5143 55.4396 45.9326 54.7065C46.5575 53.611 47.0184 51.3706 47.3499 49.004C47.898 45.0875 48.0923 40.823 48.0923 40.823L43.0453 40.5896C42.5373 41.3856 42.3168 42.6909 42.2643 44.1751C42.2088 45.7356 42.3406 47.4943 42.5235 49.0659C42.7787 51.2661 43.134 53.0998 43.2168 53.5121C43.2168 53.5125 43.2168 53.513 43.2173 53.5139C43.2282 53.568 43.2113 53.6225 43.1841 53.6715C42.1795 55.5255 42.0348 57.6467 42.2236 59.5289H42.2231Z" fill="#FFB27D"/>
<path d="M51.7912 37.0397C51.7129 37.997 51.3273 39.2852 49.848 39.4863C49.3247 39.5575 48.9505 39.117 48.6849 38.3839C48.3375 37.4261 48.1765 35.9692 48.1125 34.5044C48.0511 33.1172 48.0763 31.7218 48.1125 30.7363C48.7196 30.6725 49.8332 30.1927 50.1746 30.0735C50.1845 30.0832 50.1945 30.0934 50.2029 30.1035C50.2098 30.1114 50.2168 30.1192 50.2232 30.1276C50.2351 30.1428 50.245 30.1581 50.2534 30.1733C50.4011 30.4349 50.4229 31.9016 50.4958 33.286C50.5592 34.4975 50.6623 35.6461 50.923 35.8712C51.0414 35.9724 51.7689 35.9757 51.7689 35.9757C51.7689 35.9757 51.8398 36.4434 51.7907 37.0392L51.7912 37.0397Z" fill="#FFB93E"/>
<path d="M48.1125 34.5052C48.226 37.0908 48.6408 39.6516 49.8476 39.4866C51.3269 39.285 51.7124 37.9973 51.7912 37.0395C51.428 37.0224 50.7887 36.9397 50.5344 36.5782C50.1707 36.0605 49.0353 32.7297 49.0353 32.7297C49.0353 32.7297 48.5893 33.4776 48.1125 34.5047V34.5052Z" fill="#FFA412"/>
<path d="M49.683 38.0172C49.683 38.0172 46.714 38.712 44.1097 37.9031C44.1097 37.9031 42.68 40.7347 42.2865 41.9485C41.893 43.1618 38.9215 58.6945 38.9215 58.6945C38.9215 58.6945 45.4617 60.4588 49.8079 58.9353C49.8079 58.9353 51.089 42.3298 50.5191 40.59C49.9492 38.8502 49.683 38.0177 49.683 38.0177V38.0172Z" fill="#2B478B"/>
<path d="M50.4963 33.2753C50.2792 35.2772 49.683 37.9923 49.683 37.9923C49.3545 38.1546 49.0195 38.2733 48.6849 38.3579C46.378 38.9426 44.1102 37.8786 44.1102 37.8786C44.1102 37.8786 44.1068 37.8167 44.1008 37.7418C44.0964 37.6798 44.0894 37.6105 44.0815 37.5587C44.0646 37.4455 43.517 36.2303 43.517 36.2303C43.517 36.2303 43.4962 36.3251 43.46 36.4864C43.2598 37.3748 42.5729 40.2942 42.1517 40.5572C41.9074 40.7088 41.1268 40.7111 40.3939 40.5248C39.6312 40.3316 38.921 39.9332 38.921 39.2856C38.921 38.4568 40.5371 34.7086 41.7012 32.1405C41.7017 32.1377 41.7022 32.1368 41.7022 32.1368C42.3222 30.7677 42.682 29.8151 43.1562 29.7087C43.1562 29.7087 46.3453 30.9193 48.112 30.7335C48.7191 30.6697 49.8327 30.1918 50.1742 30.0725C50.1841 30.0822 50.194 30.0924 50.2024 30.1021C50.2093 30.11 50.2163 30.1178 50.2227 30.1261C50.2297 30.1349 50.2356 30.1437 50.2416 30.1525C50.5002 30.5084 50.4596 31.0982 50.473 31.3233C50.4988 31.7633 50.5934 32.3786 50.4963 33.2748V33.2753Z" fill="#FFB93E"/>
<path d="M43.5171 36.2507C43.5171 36.2507 44.0647 37.4696 44.082 37.5833C44.09 37.6346 44.0964 37.7049 44.1014 37.7668C44.366 37.9684 44.6862 38.1214 45.0123 38.2138C45.9385 38.4754 46.3409 36.8193 46.2859 35.9933C46.2304 35.1668 44.9206 32.8085 44.484 32.7595C44.0483 32.711 43.5171 36.2517 43.5171 36.2517V36.2507Z" fill="#FFA412"/>
<path d="M43.4606 36.5068C43.4967 36.345 43.5171 36.2507 43.5171 36.2507C43.4883 36.3381 43.4695 36.4231 43.4606 36.5068Z" fill="#E58638"/>
<path d="M47.2849 38.5456C48.9758 38.5456 49.6468 38.1028 49.6984 38.0658L49.8079 37.323C49.7916 37.3341 47.5228 38.6048 44.0111 37.3877L44.0854 37.9502C45.4359 38.4185 46.4062 38.5451 47.2849 38.5451V38.5456Z" fill="#163560"/>
<path d="M38.9215 39.3148C38.9215 39.9642 39.6317 40.3636 40.3944 40.5577C39.3432 39.3906 41.6427 32.3282 41.7017 32.1479C40.5376 34.7239 38.9215 38.4837 38.9215 39.3143V39.3148Z" fill="#FFA412"/>
<path d="M46.2598 65.0445H46.8248C47.0141 65.0167 47.1538 64.9654 47.3476 64.9419C47.6425 64.9058 47.7778 65.0186 47.805 65.0445C47.8085 65.0477 47.8105 65.0496 47.8105 65.0496H50.2096C50.2701 64.9691 50.2121 64.7829 50.1551 64.646C50.1169 64.5531 50.0337 64.4824 49.9306 64.4547C49.6764 64.3858 49.1748 64.3248 48.7154 63.937C48.4572 63.7193 47.4676 63.1359 47.4676 63.1359L47.4626 63.135C47.4408 63.135 47.3372 63.1651 46.8872 63.5196C46.6543 63.7026 46.2578 63.2612 46.2578 63.2612C46.2578 63.2612 46.1835 63.3185 46.128 63.4258C46.0834 63.5103 46.0507 63.6264 46.0765 63.7692C46.1121 63.9707 45.9967 64.3456 45.9045 64.5989C45.8485 64.7523 45.8014 64.8614 45.8014 64.8614C45.8014 64.8614 45.7747 64.9881 46.2603 65.0445H46.2598Z" fill="#233862"/>
<path d="M46.1278 63.4253C46.2626 63.514 46.5471 63.6883 46.7359 63.7114C46.9906 63.7424 47.4674 63.1359 47.4674 63.1359L47.4624 63.135C47.4406 63.135 47.337 63.1651 46.887 63.5196C46.6541 63.7026 46.2576 63.2612 46.2576 63.2612C46.2576 63.2612 46.1833 63.3185 46.1278 63.4258V63.4253Z" fill="#466AA5"/>
<path d="M46.2601 65.0445H46.825C47.0144 65.0167 47.1541 64.9654 47.3479 64.9419C47.6428 64.9058 47.778 65.0186 47.8053 65.0445C47.8088 65.0477 47.8108 65.0495 47.8108 65.0495H50.2099C50.2703 64.9691 50.2123 64.7828 50.1553 64.646C50.0825 64.5855 50.0622 64.9086 50.0215 64.9599C49.9814 65.0112 48.0645 64.9788 47.9535 64.9035C47.843 64.8286 47.5104 64.6969 47.0476 64.8004C46.6447 64.8901 46.0509 64.6599 45.9038 64.5989C45.8478 64.7523 45.8007 64.8614 45.8007 64.8614C45.8007 64.8614 45.7739 64.9881 46.2596 65.0445H46.2601Z" fill="#466AA5"/>
<path d="M43.2462 65.0445H43.8111C44.0004 65.0167 44.1402 64.9654 44.3339 64.9419C44.6288 64.9058 44.7641 65.0186 44.7914 65.0445C44.7948 65.0477 44.7968 65.0496 44.7968 65.0496H47.1959C47.2564 64.9691 47.1984 64.7829 47.1414 64.646C47.1032 64.5531 47.02 64.4824 46.9169 64.4547C46.6627 64.3858 46.1607 64.3248 45.7017 63.937C45.4436 63.7193 44.4539 63.1359 44.4539 63.1359L44.4489 63.135C44.4271 63.135 44.3235 63.1651 43.8736 63.5196C43.6406 63.7026 43.2442 63.2612 43.2442 63.2612C43.2442 63.2612 43.1698 63.3185 43.1143 63.4258C43.0697 63.5103 43.037 63.6264 43.0628 63.7692C43.0985 63.9707 42.983 64.3456 42.8908 64.5989C42.8348 64.7523 42.7877 64.8614 42.7877 64.8614C42.7877 64.8614 42.761 64.9881 43.2466 65.0445H43.2462Z" fill="#233862"/>
<path d="M43.1136 63.4253C43.2484 63.514 43.5329 63.6883 43.7217 63.7114C43.9764 63.7424 44.4532 63.1359 44.4532 63.1359L44.4482 63.135C44.4264 63.135 44.3229 63.1651 43.8729 63.5196C43.64 63.7026 43.2435 63.2612 43.2435 63.2612C43.2435 63.2612 43.1692 63.3185 43.1136 63.4258V63.4253Z" fill="#466AA5"/>
<path d="M43.2464 65.0445H43.8114C44.0007 65.0167 44.1404 64.9654 44.3342 64.9419C44.6291 64.9058 44.7644 65.0186 44.7916 65.0445C44.7951 65.0477 44.7971 65.0495 44.7971 65.0495H47.1962C47.2566 64.9691 47.1987 64.7828 47.1417 64.646C47.0688 64.5855 47.0485 64.9086 47.0079 64.9599C46.9677 65.0112 45.0508 64.9788 44.9398 64.9035C44.8293 64.8286 44.4973 64.6969 44.0339 64.8004C43.631 64.8901 43.0373 64.6599 42.8901 64.5989C42.8341 64.7523 42.787 64.8614 42.787 64.8614C42.787 64.8614 42.7602 64.9881 43.2459 65.0445H43.2464Z" fill="#466AA5"/>
<path d="M39.2714 43.0117C39.2714 43.0117 39.0266 43.5498 38.7714 43.7C38.5166 43.8502 38.2743 44.2107 38.2213 44.501C38.1241 45.034 38.5622 45.3645 38.8844 45.3645C39.2065 45.3645 39.5142 44.9549 39.7036 43.9768C39.714 43.9232 40.0197 43.3621 40.0197 43.3621L39.2719 43.0117H39.2714Z" fill="#FFB27D"/>
<path d="M55.0453 31.8909L55.0076 32.2519L54.8892 33.3889L54.8134 34.117H53.2568L53.1611 33.3889L53.0114 32.2519L52.9639 31.8909H55.0453Z" fill="#EE9849"/>
<path d="M55.1558 31.8909H52.8414L52.8865 31.6741H55.0993L55.1558 31.8909Z" fill="#D17A33"/>
<path d="M55.0075 32.252L54.8891 33.389H53.161L53.0114 32.252H55.0075Z" fill="#D17A33"/>
<path d="M55.2123 32.6609C55.2123 32.6609 54.8193 32.2514 54.4258 32.5643C54.0328 32.8773 54.4521 33.5452 54.793 33.7278C55.134 33.9103 55.2435 34.0056 55.2435 34.0056L55.2123 32.6605V32.6609Z" fill="#FFB27D"/>
<path d="M46.2903 43.0981L45.9944 43.0773C45.9979 43.0713 46.5733 38.2517 46.4043 36.2503C46.0896 32.5219 44.3119 29.4088 44.2916 29.3816L44.8397 29.29C44.862 29.3196 45.1896 29.9751 45.6163 31.1621C46.0098 32.2557 46.6337 34.0741 46.7314 36.1116C46.828 38.1237 46.3052 43.0732 46.2903 43.0977V43.0981Z" fill="#BC3F3F"/>
<path d="M42.7063 42.038C42.7063 42.038 42.9937 41.3784 43.4507 41.2139L45.7839 41.6239C45.7839 41.6239 45.208 42.1351 45.154 42.4684L42.7068 42.038H42.7063Z" fill="#D2E4FF"/>
<path d="M45.6352 45.7614L41.6477 45.0607C41.4604 45.0279 41.337 44.8592 41.3722 44.6849L41.8703 42.2194C41.9054 42.0447 42.0863 41.9296 42.2737 41.9624L46.2611 42.6631C46.4484 42.6959 46.5718 42.8642 46.5366 43.0389L46.0386 45.5044C46.0034 45.6791 45.8225 45.7942 45.6352 45.7614Z" fill="#912F2F"/>
<path d="M44.2012 40.6837L42.2943 40.668L42.2733 42.9476L44.1802 42.9633L44.2012 40.6837Z" fill="#E58638"/>
<path d="M44.0908 40.6837L42.1838 40.668L42.1628 42.9476L44.0697 42.9633L44.0908 40.6837Z" fill="#EE9849"/>
<path d="M45.2525 42.0459L43.7382 40.9648L42.2526 42.7751L43.7669 43.8562L45.2525 42.0459Z" fill="#578E9B"/>
<path d="M45.0818 41.9248L43.5675 40.8438L42.0819 42.6541L43.5963 43.7351L45.0818 41.9248Z" fill="#74ACBE"/>
<path d="M44.6609 45.59L40.8429 44.9188C40.609 44.8777 40.4549 44.6674 40.499 44.4487L40.9653 42.1413C41.0094 41.9227 41.2349 41.7794 41.4693 41.8205L45.2873 42.4917C45.5212 42.5328 45.6753 42.7431 45.6312 42.9618L45.1649 45.2692C45.1208 45.4878 44.8953 45.6311 44.6609 45.59Z" fill="#BC3F3F"/>
<path d="M43.7584 24.811C43.7584 24.811 42.5378 22.5451 44.2436 21.6493C45.9489 20.7535 47.1978 21.1053 48.1359 22.2008L43.7584 24.811Z" fill="#233862"/>
<path d="M50.6296 21.9516C50.2787 21.427 49.0502 21.5115 47.5679 22.0778C46.9881 22.2987 46.3711 22.5936 45.7516 22.9537C44.981 23.4021 44.3099 23.8925 43.7836 24.3723C42.8019 25.2676 42.3232 26.1246 42.6408 26.6002C42.7385 26.7449 42.8842 26.8392 43.1027 26.8933C43.3198 26.4565 43.9437 26.0478 44.1206 25.7076C44.3704 25.2269 45.0018 24.3556 46.157 23.6831C47.0446 23.1668 47.9277 22.8626 48.5353 22.8261C48.8886 22.8049 49.1493 22.8737 49.2638 23.0452C49.353 23.1788 49.3436 23.36 49.2514 23.5694C49.3381 23.7053 49.4362 23.8966 49.517 24.1509C50.4779 23.2662 50.9433 22.4217 50.6286 21.9516H50.6296Z" fill="#2B478B"/>
<path d="M90.8053 6.15039C86.8784 6.15039 83.6833 9.13037 83.6833 12.7931C83.6833 16.4557 86.8784 19.4353 90.8053 19.4353C94.7323 19.4353 97.9273 16.4557 97.9273 12.7931C97.9273 9.13037 94.7328 6.15039 90.8053 6.15039ZM90.8053 19.0021C87.1346 19.0021 84.1482 16.2168 84.1482 12.7931C84.1482 9.36934 87.1346 6.58396 90.8053 6.58396C94.4761 6.58396 97.4625 9.36934 97.4625 12.7931C97.4625 16.2168 94.4761 19.0021 90.8053 19.0021Z" fill="#F9DDBF"/>
<path d="M90.8053 7.7575C90.9619 7.7575 91.0893 7.63916 91.0893 7.49264C91.0893 7.34611 90.9624 7.22778 90.8053 7.22778C90.6482 7.22778 90.5214 7.34611 90.5214 7.49264C90.5214 7.63916 90.6482 7.7575 90.8053 7.7575Z" fill="#F9DDBF"/>
<path d="M90.8053 17.9141C90.6487 17.9141 90.5214 18.0329 90.5214 18.1789C90.5214 18.325 90.6482 18.4438 90.8053 18.4438C90.9624 18.4438 91.0893 18.3254 91.0893 18.1789C91.0893 18.0324 90.9624 17.9141 90.8053 17.9141Z" fill="#F9DDBF"/>
<path d="M96.2503 12.5713C96.0937 12.5713 95.9663 12.6896 95.9663 12.8361C95.9663 12.9827 96.0932 13.101 96.2503 13.101C96.4074 13.101 96.5342 12.9827 96.5342 12.8361C96.5342 12.6896 96.4074 12.5713 96.2503 12.5713Z" fill="#F9DDBF"/>
<path d="M93.4547 17.0404C93.3466 17.1463 93.3506 17.3141 93.4641 17.4148C93.5776 17.5156 93.757 17.5119 93.8655 17.4061C93.9735 17.3002 93.9696 17.1329 93.8561 17.0317C93.7426 16.9309 93.5632 16.9346 93.4547 17.0404Z" fill="#F9DDBF"/>
<path d="M95.3127 15.393C95.2047 15.4988 95.2086 15.6666 95.3221 15.7674C95.4356 15.8681 95.6155 15.8644 95.7235 15.7586C95.8316 15.6527 95.8276 15.485 95.7141 15.3842C95.6006 15.2834 95.4212 15.2871 95.3127 15.393Z" fill="#F9DDBF"/>
<path d="M95.6411 10.5472C95.7824 10.4839 95.8418 10.3253 95.774 10.1936C95.7061 10.0619 95.5361 10.0064 95.3948 10.0702C95.2536 10.1335 95.1941 10.292 95.2625 10.4238C95.3304 10.5555 95.5004 10.611 95.6416 10.5472H95.6411Z" fill="#F9DDBF"/>
<path d="M93.8139 8.28728C93.6821 8.20778 93.5067 8.24337 93.4214 8.36632C93.3362 8.48928 93.3744 8.6529 93.5062 8.73241C93.638 8.81191 93.8135 8.77632 93.8987 8.65337C93.9839 8.53041 93.9458 8.36678 93.8144 8.28728H93.8139Z" fill="#F9DDBF"/>
<path d="M85.7723 12.4824C85.6157 12.4824 85.4883 12.6008 85.4883 12.7473C85.4883 12.8938 85.6152 13.0121 85.7723 13.0121C85.9294 13.0121 86.0562 12.8938 86.0562 12.7473C86.0562 12.6008 85.9294 12.4824 85.7723 12.4824Z" fill="#F9DDBF"/>
<path d="M88.1664 16.943C88.0529 17.0437 88.0485 17.2115 88.157 17.3174C88.265 17.4232 88.4449 17.4274 88.5584 17.3262C88.6719 17.2254 88.6764 17.0576 88.5678 16.9518C88.4598 16.8459 88.2799 16.8417 88.1664 16.943Z" fill="#F9DDBF"/>
<path d="M86.3084 15.2955C86.1949 15.3963 86.1904 15.5641 86.299 15.6699C86.407 15.7758 86.5869 15.7799 86.7004 15.6787C86.8139 15.5779 86.8183 15.4101 86.7098 15.3043C86.6018 15.1984 86.4219 15.1943 86.3084 15.2955Z" fill="#F9DDBF"/>
<path d="M86.3812 10.4584C86.5225 10.5217 86.692 10.4667 86.7603 10.335C86.8282 10.2032 86.7693 10.0451 86.628 9.98135C86.4868 9.91803 86.3173 9.97303 86.2489 10.1048C86.181 10.2365 86.2405 10.3946 86.3812 10.4584Z" fill="#F9DDBF"/>
<path d="M88.208 8.19845C88.0762 8.27796 88.0385 8.44159 88.1233 8.56454C88.2085 8.68749 88.3839 8.72262 88.5158 8.64358C88.6476 8.56408 88.6852 8.40045 88.6005 8.2775C88.5153 8.15454 88.3398 8.11941 88.208 8.19845Z" fill="#F9DDBF"/>
<path d="M93.481 10.8511L91.1607 12.3464C91.1523 12.3418 91.1438 12.3372 91.1349 12.333L90.8861 8.24463V12.333C90.792 12.376 90.7275 12.4661 90.7275 12.5706C90.7275 12.7167 90.8544 12.8355 91.0115 12.8355C91.1686 12.8355 91.2955 12.7171 91.2955 12.5706C91.2955 12.5572 91.294 12.5443 91.292 12.5313L93.4815 10.8507L93.481 10.8511Z" fill="#F9DDBF"/>
<path d="M132.58 65.0496H0.178603C0.0956716 65.0496 0.0284424 65.1123 0.0284424 65.1896V65.2377C0.0284424 65.315 0.0956716 65.3777 0.178603 65.3777H132.58C132.663 65.3777 132.73 65.315 132.73 65.2377V65.1896C132.73 65.1123 132.663 65.0496 132.58 65.0496Z" fill="#2E3552"/>
</g>
<defs>
<clipPath id="clip0_253_2601">
<rect width="132.701" height="65.058" fill="white" transform="translate(0.0284424 0.319824)"/>
</clipPath>
</defs>
</svg>
