<svg width="64" height="64" viewBox="0 0 64 64" fill="none" xmlns="http://www.w3.org/2000/svg">
<g clip-path="url(#clip0_5_675)">
<path d="M53.3333 21.3333C47.44 21.3333 42.6667 16.56 42.6667 10.6667C42.6667 4.77333 47.44 0 53.3333 0C59.2267 0 64 4.77333 64 10.6667C64 16.56 59.2267 21.3333 53.3333 21.3333ZM26.3467 37.6533C29.4667 40.7733 34.5333 40.7733 37.6533 37.6533L49.2 26.1067C42.3733 24.2933 37.3333 18.08 37.3333 10.6667C37.3333 9.76 37.44 8.88 37.5733 8H8C4.93333 8 2.32 9.73333 0.96 12.2667L26.3467 37.6533ZM56.5067 26.3467L41.44 41.4133C38.8533 44 35.4133 45.3067 32 45.3067C28.5867 45.3067 25.1733 44 22.56 41.4133L0 18.8533V64H64V22.56C61.92 24.4267 59.36 25.76 56.5067 26.3467Z" fill="#2F9E41"/>
</g>
<defs>
<clipPath id="clip0_5_675">
<rect width="64" height="64" fill="white"/>
</clipPath>
</defs>
</svg>
